G04 Layer_Physical_Order=1*
G04 Layer_Color=255*
%FSLAX25Y25*%
%MOIN*%
G70*
G01*
G75*
%ADD10C,0.02500*%
%ADD11C,0.10000*%
%ADD12C,0.06000*%
%ADD13C,0.07874*%
%ADD14R,0.07874X0.07874*%
%ADD15R,0.07874X0.07874*%
%ADD16C,0.06299*%
%ADD17R,0.04724X0.04724*%
%ADD18C,0.04724*%
%ADD19R,0.07874X0.06000*%
%ADD20C,0.09055*%
%ADD21C,0.12600*%
%ADD22C,0.05000*%
G36*
X336380Y-88276D02*
X335880Y-88460D01*
X334964Y-87388D01*
X333707Y-86314D01*
X332297Y-85451D01*
X330770Y-84818D01*
X329163Y-84432D01*
X327516Y-84303D01*
X325868Y-84432D01*
X324261Y-84818D01*
X322734Y-85451D01*
X321324Y-86314D01*
X320068Y-87388D01*
X318994Y-88644D01*
X318131Y-90054D01*
X317498Y-91581D01*
X317112Y-93188D01*
X316983Y-94836D01*
X317112Y-96483D01*
X317498Y-98090D01*
X318131Y-99617D01*
X318994Y-101027D01*
X320068Y-102284D01*
X321324Y-103357D01*
X322734Y-104221D01*
X324261Y-104853D01*
X325868Y-105239D01*
X327516Y-105369D01*
X329163Y-105239D01*
X330770Y-104853D01*
X332297Y-104221D01*
X333707Y-103357D01*
X334964Y-102284D01*
X335880Y-101211D01*
X336380Y-101395D01*
Y-123739D01*
X-54262D01*
Y125170D01*
X336380D01*
Y-88276D01*
D02*
G37*
%LPC*%
G36*
X296878Y-55580D02*
X292153D01*
X291763Y-55657D01*
X291432Y-55878D01*
X291211Y-56209D01*
X291134Y-56599D01*
Y-61324D01*
X291211Y-61714D01*
X291432Y-62045D01*
X291763Y-62266D01*
X292153Y-62343D01*
X296878D01*
X297268Y-62266D01*
X297599Y-62045D01*
X297820Y-61714D01*
X297897Y-61324D01*
Y-56599D01*
X297820Y-56209D01*
X297599Y-55878D01*
X297268Y-55657D01*
X296878Y-55580D01*
D02*
G37*
G36*
X236233Y-60298D02*
X232796D01*
Y-64755D01*
X237252D01*
Y-61318D01*
X237175Y-60928D01*
X236954Y-60597D01*
X236623Y-60376D01*
X236233Y-60298D01*
D02*
G37*
G36*
X166808Y-29990D02*
X165193Y-30149D01*
X163640Y-30620D01*
X162209Y-31385D01*
X160954Y-32414D01*
X159925Y-33669D01*
X159160Y-35100D01*
X158688Y-36654D01*
X158529Y-38269D01*
X158688Y-39884D01*
X159160Y-41437D01*
X159925Y-42868D01*
X160954Y-44123D01*
X162209Y-45153D01*
X163640Y-45918D01*
X165193Y-46389D01*
X166808Y-46548D01*
X168424Y-46389D01*
X169977Y-45918D01*
X171408Y-45153D01*
X172663Y-44123D01*
X173692Y-42868D01*
X174457Y-41437D01*
X174928Y-39884D01*
X175088Y-38269D01*
X174928Y-36654D01*
X174457Y-35100D01*
X173692Y-33669D01*
X172663Y-32414D01*
X171408Y-31385D01*
X169977Y-30620D01*
X168424Y-30149D01*
X166808Y-29990D01*
D02*
G37*
G36*
X233406Y-43617D02*
X232229Y-43732D01*
X231098Y-44076D01*
X230056Y-44633D01*
X229142Y-45382D01*
X228393Y-46296D01*
X227835Y-47338D01*
X227492Y-48469D01*
X227377Y-49646D01*
X227492Y-50822D01*
X227835Y-51953D01*
X228393Y-52995D01*
X229142Y-53909D01*
X230056Y-54659D01*
X231098Y-55216D01*
X232229Y-55559D01*
X233406Y-55675D01*
X234582Y-55559D01*
X235713Y-55216D01*
X236755Y-54659D01*
X237669Y-53909D01*
X238419Y-52995D01*
X238976Y-51953D01*
X239319Y-50822D01*
X239435Y-49646D01*
X239319Y-48469D01*
X238976Y-47338D01*
X238419Y-46296D01*
X237669Y-45382D01*
X236755Y-44633D01*
X235713Y-44076D01*
X234582Y-43732D01*
X233406Y-43617D01*
D02*
G37*
G36*
X231796Y-60298D02*
X228359D01*
X227968Y-60376D01*
X227638Y-60597D01*
X227417Y-60928D01*
X227339Y-61318D01*
Y-64755D01*
X231796D01*
Y-60298D01*
D02*
G37*
G36*
X48309Y-49045D02*
X46509Y-49222D01*
X44779Y-49747D01*
X43184Y-50599D01*
X41786Y-51746D01*
X40639Y-53144D01*
X39787Y-54739D01*
X39262Y-56469D01*
X39084Y-58269D01*
X39262Y-60068D01*
X39787Y-61799D01*
X40639Y-63393D01*
X41786Y-64791D01*
X43184Y-65938D01*
X44779Y-66791D01*
X46509Y-67316D01*
X48309Y-67493D01*
X50108Y-67316D01*
X51838Y-66791D01*
X53433Y-65938D01*
X54831Y-64791D01*
X55978Y-63393D01*
X56830Y-61799D01*
X57355Y-60068D01*
X57533Y-58269D01*
X57355Y-56469D01*
X56830Y-54739D01*
X55978Y-53144D01*
X54831Y-51746D01*
X53433Y-50599D01*
X51838Y-49747D01*
X50108Y-49222D01*
X48309Y-49045D01*
D02*
G37*
G36*
X-39094Y-56117D02*
X-40271Y-56232D01*
X-41402Y-56576D01*
X-42444Y-57133D01*
X-43358Y-57882D01*
X-44107Y-58796D01*
X-44664Y-59838D01*
X-45008Y-60969D01*
X-45123Y-62146D01*
X-45008Y-63322D01*
X-44664Y-64453D01*
X-44107Y-65495D01*
X-43358Y-66409D01*
X-42444Y-67159D01*
X-41402Y-67716D01*
X-40271Y-68059D01*
X-39094Y-68175D01*
X-37918Y-68059D01*
X-36787Y-67716D01*
X-35745Y-67159D01*
X-34831Y-66409D01*
X-34081Y-65495D01*
X-33524Y-64453D01*
X-33181Y-63322D01*
X-33065Y-62146D01*
X-33181Y-60969D01*
X-33524Y-59838D01*
X-34081Y-58796D01*
X-34831Y-57882D01*
X-35745Y-57133D01*
X-36787Y-56576D01*
X-37918Y-56232D01*
X-39094Y-56117D01*
D02*
G37*
G36*
X295016Y-63510D02*
Y-66336D01*
X297841D01*
X297791Y-65958D01*
X297452Y-65140D01*
X296914Y-64438D01*
X296211Y-63899D01*
X295393Y-63560D01*
X295016Y-63510D01*
D02*
G37*
G36*
X294016D02*
X293638Y-63560D01*
X292820Y-63899D01*
X292118Y-64438D01*
X291579Y-65140D01*
X291240Y-65958D01*
X291190Y-66336D01*
X294016D01*
Y-63510D01*
D02*
G37*
G36*
X-14594Y-40146D02*
X-19604D01*
X-19480Y-41089D01*
X-18923Y-42433D01*
X-18037Y-43588D01*
X-16882Y-44474D01*
X-15537Y-45031D01*
X-14594Y-45155D01*
Y-40146D01*
D02*
G37*
G36*
X277748Y-14229D02*
X269874D01*
X269483Y-14307D01*
X269153Y-14528D01*
X268932Y-14858D01*
X268854Y-15249D01*
Y-23123D01*
X268932Y-23513D01*
X269153Y-23844D01*
X269483Y-24065D01*
X269874Y-24142D01*
X277748D01*
X278138Y-24065D01*
X278469Y-23844D01*
X278690Y-23513D01*
X278767Y-23123D01*
Y-15249D01*
X278690Y-14858D01*
X278469Y-14528D01*
X278138Y-14307D01*
X277748Y-14229D01*
D02*
G37*
G36*
X3937Y-23539D02*
X-3937D01*
X-4327Y-23617D01*
X-4658Y-23838D01*
X-4879Y-24169D01*
X-4957Y-24559D01*
Y-30559D01*
X-4879Y-30949D01*
X-4658Y-31280D01*
X-4327Y-31501D01*
X-3937Y-31579D01*
X3937D01*
X4327Y-31501D01*
X4658Y-31280D01*
X4879Y-30949D01*
X4957Y-30559D01*
Y-24559D01*
X4879Y-24169D01*
X4658Y-23838D01*
X4327Y-23617D01*
X3937Y-23539D01*
D02*
G37*
G36*
X298409Y-19686D02*
X293996D01*
Y-24099D01*
X294784Y-23995D01*
X295985Y-23498D01*
X297017Y-22707D01*
X297808Y-21675D01*
X298306Y-20474D01*
X298409Y-19686D01*
D02*
G37*
G36*
X292996D02*
X288582D01*
X288686Y-20474D01*
X289183Y-21675D01*
X289974Y-22707D01*
X291006Y-23498D01*
X292207Y-23995D01*
X292996Y-24099D01*
Y-19686D01*
D02*
G37*
G36*
X233406Y-23617D02*
X232229Y-23732D01*
X231098Y-24076D01*
X230056Y-24633D01*
X229142Y-25382D01*
X228393Y-26296D01*
X227835Y-27338D01*
X227492Y-28469D01*
X227377Y-29646D01*
X227492Y-30822D01*
X227835Y-31953D01*
X228393Y-32995D01*
X229142Y-33909D01*
X230056Y-34659D01*
X231098Y-35216D01*
X232229Y-35559D01*
X233406Y-35675D01*
X234582Y-35559D01*
X235713Y-35216D01*
X236755Y-34659D01*
X237669Y-33909D01*
X238419Y-32995D01*
X238976Y-31953D01*
X239319Y-30822D01*
X239435Y-29646D01*
X239319Y-28469D01*
X238976Y-27338D01*
X238419Y-26296D01*
X237669Y-25382D01*
X236755Y-24633D01*
X235713Y-24076D01*
X234582Y-23732D01*
X233406Y-23617D01*
D02*
G37*
G36*
X-8585Y-40146D02*
X-13594D01*
Y-45155D01*
X-12651Y-45031D01*
X-11307Y-44474D01*
X-10152Y-43588D01*
X-9266Y-42433D01*
X-8709Y-41089D01*
X-8585Y-40146D01*
D02*
G37*
G36*
X3937Y-5823D02*
X-3937D01*
X-4327Y-5901D01*
X-4658Y-6122D01*
X-4879Y-6452D01*
X-4957Y-6843D01*
Y-12843D01*
X-4879Y-13233D01*
X-4736Y-13446D01*
X-4689Y-13780D01*
X-4736Y-14113D01*
X-4879Y-14326D01*
X-4957Y-14717D01*
Y-20717D01*
X-4879Y-21107D01*
X-4658Y-21438D01*
X-4327Y-21659D01*
X-3937Y-21736D01*
X3937D01*
X4327Y-21659D01*
X4658Y-21438D01*
X4879Y-21107D01*
X4957Y-20717D01*
Y-14717D01*
X4879Y-14326D01*
X4736Y-14113D01*
X4689Y-13780D01*
X4736Y-13446D01*
X4879Y-13233D01*
X4957Y-12843D01*
Y-6843D01*
X4879Y-6452D01*
X4658Y-6122D01*
X4327Y-5901D01*
X3937Y-5823D01*
D02*
G37*
G36*
X-13594Y-34136D02*
Y-39146D01*
X-8585D01*
X-8709Y-38203D01*
X-9266Y-36858D01*
X-10152Y-35703D01*
X-11307Y-34817D01*
X-12651Y-34260D01*
X-13594Y-34136D01*
D02*
G37*
G36*
X-14594D02*
X-15537Y-34260D01*
X-16882Y-34817D01*
X-18037Y-35703D01*
X-18923Y-36858D01*
X-19480Y-38203D01*
X-19604Y-39146D01*
X-14594D01*
Y-34136D01*
D02*
G37*
G36*
X262253Y-64879D02*
X258816D01*
Y-69336D01*
X263272D01*
Y-65899D01*
X263195Y-65508D01*
X262974Y-65178D01*
X262643Y-64957D01*
X262253Y-64879D01*
D02*
G37*
G36*
X295016Y-94510D02*
Y-97336D01*
X297841D01*
X297791Y-96958D01*
X297452Y-96140D01*
X296914Y-95438D01*
X296211Y-94899D01*
X295393Y-94560D01*
X295016Y-94510D01*
D02*
G37*
G36*
X294016D02*
X293638Y-94560D01*
X292820Y-94899D01*
X292118Y-95438D01*
X291579Y-96140D01*
X291240Y-96958D01*
X291190Y-97336D01*
X294016D01*
Y-94510D01*
D02*
G37*
G36*
X296878Y-86580D02*
X292153D01*
X291763Y-86657D01*
X291432Y-86878D01*
X291211Y-87209D01*
X291134Y-87599D01*
Y-92324D01*
X291211Y-92714D01*
X291432Y-93045D01*
X291763Y-93266D01*
X292153Y-93343D01*
X296878D01*
X297268Y-93266D01*
X297599Y-93045D01*
X297820Y-92714D01*
X297897Y-92324D01*
Y-87599D01*
X297820Y-87209D01*
X297599Y-86878D01*
X297268Y-86657D01*
X296878Y-86580D01*
D02*
G37*
G36*
X263272Y-70336D02*
X258316D01*
X253359D01*
Y-73773D01*
X253437Y-74163D01*
X253658Y-74494D01*
X253988Y-74715D01*
X254379Y-74792D01*
X256284D01*
X256383Y-75292D01*
X255826Y-75523D01*
X254795Y-76315D01*
X254003Y-77346D01*
X253506Y-78547D01*
X253336Y-79836D01*
X253506Y-81124D01*
X254003Y-82325D01*
X254795Y-83357D01*
X255826Y-84148D01*
X256832Y-84565D01*
Y-85106D01*
X255826Y-85523D01*
X254795Y-86314D01*
X254003Y-87346D01*
X253506Y-88547D01*
X253336Y-89836D01*
X253506Y-91124D01*
X254003Y-92325D01*
X254795Y-93357D01*
X255826Y-94148D01*
X257027Y-94646D01*
X258316Y-94815D01*
X259604Y-94646D01*
X260805Y-94148D01*
X261837Y-93357D01*
X262628Y-92325D01*
X263125Y-91124D01*
X263295Y-89836D01*
X263125Y-88547D01*
X262628Y-87346D01*
X261837Y-86314D01*
X260805Y-85523D01*
X259799Y-85106D01*
Y-84565D01*
X260805Y-84148D01*
X261837Y-83357D01*
X262628Y-82325D01*
X263125Y-81124D01*
X263295Y-79836D01*
X263125Y-78547D01*
X262628Y-77346D01*
X261837Y-76315D01*
X260805Y-75523D01*
X260248Y-75292D01*
X260347Y-74792D01*
X262253D01*
X262643Y-74715D01*
X262974Y-74494D01*
X263195Y-74163D01*
X263272Y-73773D01*
Y-70336D01*
D02*
G37*
G36*
X297841Y-98336D02*
X295016D01*
Y-101161D01*
X295393Y-101111D01*
X296211Y-100773D01*
X296914Y-100234D01*
X297452Y-99531D01*
X297791Y-98713D01*
X297841Y-98336D01*
D02*
G37*
G36*
X-39094Y-96117D02*
X-40271Y-96232D01*
X-41402Y-96575D01*
X-42444Y-97133D01*
X-43358Y-97882D01*
X-44107Y-98796D01*
X-44664Y-99838D01*
X-45008Y-100969D01*
X-45123Y-102146D01*
X-45008Y-103322D01*
X-44664Y-104453D01*
X-44107Y-105495D01*
X-43358Y-106409D01*
X-42444Y-107159D01*
X-41402Y-107716D01*
X-40271Y-108059D01*
X-39094Y-108175D01*
X-37918Y-108059D01*
X-36787Y-107716D01*
X-35745Y-107159D01*
X-34831Y-106409D01*
X-34081Y-105495D01*
X-33524Y-104453D01*
X-33181Y-103322D01*
X-33065Y-102146D01*
X-33181Y-100969D01*
X-33524Y-99838D01*
X-34081Y-98796D01*
X-34831Y-97882D01*
X-35745Y-97133D01*
X-36787Y-96575D01*
X-37918Y-96232D01*
X-39094Y-96117D01*
D02*
G37*
G36*
X232296Y-101457D02*
X231007Y-101626D01*
X229806Y-102124D01*
X228774Y-102915D01*
X227983Y-103946D01*
X227486Y-105147D01*
X227316Y-106436D01*
X227486Y-107725D01*
X227983Y-108926D01*
X228774Y-109957D01*
X229806Y-110749D01*
X231007Y-111246D01*
X232296Y-111416D01*
X233584Y-111246D01*
X234785Y-110749D01*
X235817Y-109957D01*
X236608Y-108926D01*
X237105Y-107725D01*
X237275Y-106436D01*
X237105Y-105147D01*
X236608Y-103946D01*
X235817Y-102915D01*
X234785Y-102124D01*
X233584Y-101626D01*
X232296Y-101457D01*
D02*
G37*
G36*
X294016Y-98336D02*
X291190D01*
X291240Y-98713D01*
X291579Y-99531D01*
X292118Y-100234D01*
X292820Y-100773D01*
X293638Y-101111D01*
X294016Y-101161D01*
Y-98336D01*
D02*
G37*
G36*
X2516Y-84283D02*
X865Y-84413D01*
X-745Y-84800D01*
X-2275Y-85433D01*
X-3687Y-86298D01*
X-4946Y-87374D01*
X-6022Y-88633D01*
X-6887Y-90045D01*
X-7520Y-91575D01*
X-7907Y-93185D01*
X-8037Y-94836D01*
X-7907Y-96486D01*
X-7520Y-98097D01*
X-6887Y-99626D01*
X-6022Y-101038D01*
X-4946Y-102297D01*
X-3687Y-103373D01*
X-2275Y-104238D01*
X-745Y-104872D01*
X865Y-105258D01*
X2516Y-105388D01*
X4166Y-105258D01*
X5776Y-104872D01*
X7306Y-104238D01*
X8718Y-103373D01*
X9977Y-102297D01*
X11053Y-101038D01*
X11918Y-99626D01*
X12552Y-98097D01*
X12938Y-96486D01*
X13068Y-94836D01*
X12938Y-93185D01*
X12552Y-91575D01*
X11918Y-90045D01*
X11053Y-88633D01*
X9977Y-87374D01*
X8718Y-86298D01*
X7306Y-85433D01*
X5776Y-84800D01*
X4166Y-84413D01*
X2516Y-84283D01*
D02*
G37*
G36*
X-39594Y-82646D02*
X-45074D01*
X-45008Y-83322D01*
X-44664Y-84453D01*
X-44107Y-85495D01*
X-43358Y-86409D01*
X-42444Y-87159D01*
X-41402Y-87716D01*
X-40271Y-88059D01*
X-39594Y-88125D01*
Y-82646D01*
D02*
G37*
G36*
X294016Y-67336D02*
X291190D01*
X291240Y-67713D01*
X291579Y-68531D01*
X292118Y-69234D01*
X292820Y-69772D01*
X293638Y-70111D01*
X294016Y-70161D01*
Y-67336D01*
D02*
G37*
G36*
X237252Y-65755D02*
X232796D01*
Y-70212D01*
X236233D01*
X236623Y-70134D01*
X236954Y-69913D01*
X237175Y-69582D01*
X237252Y-69192D01*
Y-65755D01*
D02*
G37*
G36*
X257816Y-64879D02*
X254379D01*
X253988Y-64957D01*
X253658Y-65178D01*
X253437Y-65508D01*
X253359Y-65899D01*
Y-69336D01*
X257816D01*
Y-64879D01*
D02*
G37*
G36*
X297841Y-67336D02*
X295016D01*
Y-70161D01*
X295393Y-70111D01*
X296211Y-69772D01*
X296914Y-69234D01*
X297452Y-68531D01*
X297791Y-67713D01*
X297841Y-67336D01*
D02*
G37*
G36*
X231796Y-65755D02*
X227339D01*
Y-69192D01*
X227417Y-69582D01*
X227638Y-69913D01*
X227968Y-70134D01*
X228359Y-70212D01*
X231796D01*
Y-65755D01*
D02*
G37*
G36*
X207516Y-64303D02*
X205868Y-64432D01*
X204261Y-64818D01*
X202734Y-65451D01*
X201324Y-66314D01*
X200068Y-67388D01*
X198994Y-68644D01*
X198131Y-70054D01*
X197498Y-71581D01*
X197112Y-73188D01*
X196983Y-74836D01*
X197112Y-76483D01*
X197498Y-78091D01*
X198131Y-79618D01*
X198994Y-81027D01*
X200068Y-82284D01*
X201324Y-83357D01*
X202734Y-84221D01*
X204261Y-84853D01*
X205868Y-85239D01*
X207516Y-85369D01*
X209163Y-85239D01*
X210771Y-84853D01*
X212298Y-84221D01*
X213707Y-83357D01*
X214964Y-82284D01*
X216037Y-81027D01*
X216901Y-79618D01*
X217533Y-78091D01*
X217919Y-76483D01*
X218049Y-74836D01*
X217919Y-73188D01*
X217533Y-71581D01*
X216901Y-70054D01*
X216037Y-68644D01*
X214964Y-67388D01*
X213707Y-66314D01*
X212298Y-65451D01*
X210771Y-64818D01*
X209163Y-64432D01*
X207516Y-64303D01*
D02*
G37*
G36*
X-33115Y-82646D02*
X-38594D01*
Y-88125D01*
X-37918Y-88059D01*
X-36787Y-87716D01*
X-35745Y-87159D01*
X-34831Y-86409D01*
X-34081Y-85495D01*
X-33524Y-84453D01*
X-33181Y-83322D01*
X-33115Y-82646D01*
D02*
G37*
G36*
X-38594Y-76166D02*
Y-81646D01*
X-33115D01*
X-33181Y-80969D01*
X-33524Y-79838D01*
X-34081Y-78796D01*
X-34831Y-77882D01*
X-35745Y-77133D01*
X-36787Y-76575D01*
X-37918Y-76232D01*
X-38594Y-76166D01*
D02*
G37*
G36*
X-39594D02*
X-40271Y-76232D01*
X-41402Y-76575D01*
X-42444Y-77133D01*
X-43358Y-77882D01*
X-44107Y-78796D01*
X-44664Y-79838D01*
X-45008Y-80969D01*
X-45074Y-81646D01*
X-39594D01*
Y-76166D01*
D02*
G37*
G36*
X292996Y-14272D02*
X292207Y-14376D01*
X291006Y-14873D01*
X289974Y-15664D01*
X289183Y-16696D01*
X288686Y-17897D01*
X288582Y-18686D01*
X292996D01*
Y-14272D01*
D02*
G37*
G36*
X-39094Y101898D02*
X-40859Y101724D01*
X-42555Y101210D01*
X-44119Y100374D01*
X-45489Y99249D01*
X-46614Y97879D01*
X-47449Y96315D01*
X-47964Y94619D01*
X-48138Y92854D01*
X-47964Y91090D01*
X-47449Y89394D01*
X-46614Y87830D01*
X-45489Y86460D01*
X-44119Y85335D01*
X-42555Y84499D01*
X-40859Y83985D01*
X-39094Y83811D01*
X-37330Y83985D01*
X-35634Y84499D01*
X-34070Y85335D01*
X-32700Y86460D01*
X-31575Y87830D01*
X-30739Y89394D01*
X-30225Y91090D01*
X-30051Y92854D01*
X-30225Y94619D01*
X-30739Y96315D01*
X-31575Y97879D01*
X-32700Y99249D01*
X-34070Y100374D01*
X-35634Y101210D01*
X-37330Y101724D01*
X-39094Y101898D01*
D02*
G37*
G36*
X264429Y90664D02*
X259516D01*
X254602D01*
X254706Y89876D01*
X255203Y88675D01*
X255995Y87643D01*
X257026Y86852D01*
X257583Y86621D01*
X257484Y86121D01*
X255579D01*
X255188Y86043D01*
X254858Y85822D01*
X254637Y85492D01*
X254559Y85101D01*
Y77227D01*
X254637Y76837D01*
X254858Y76506D01*
X255188Y76285D01*
X255579Y76208D01*
X263453D01*
X263843Y76285D01*
X264174Y76506D01*
X264395Y76837D01*
X264472Y77227D01*
Y85101D01*
X264395Y85492D01*
X264174Y85822D01*
X263843Y86043D01*
X263453Y86121D01*
X261547D01*
X261448Y86621D01*
X262005Y86852D01*
X263037Y87643D01*
X263828Y88675D01*
X264325Y89876D01*
X264429Y90664D01*
D02*
G37*
G36*
X7516Y105764D02*
X5858Y105633D01*
X4240Y105245D01*
X2703Y104609D01*
X1285Y103740D01*
X21Y102659D01*
X-1060Y101395D01*
X-1929Y99976D01*
X-2565Y98440D01*
X-2953Y96823D01*
X-3084Y95164D01*
X-2953Y93506D01*
X-2565Y91889D01*
X-1929Y90352D01*
X-1060Y88934D01*
X21Y87669D01*
X1285Y86589D01*
X2703Y85720D01*
X4240Y85084D01*
X5858Y84695D01*
X7516Y84565D01*
X9174Y84695D01*
X10791Y85084D01*
X12328Y85720D01*
X13746Y86589D01*
X15011Y87669D01*
X16091Y88934D01*
X16960Y90352D01*
X17596Y91889D01*
X17985Y93506D01*
X18115Y95164D01*
X17985Y96823D01*
X17596Y98440D01*
X16960Y99976D01*
X16091Y101395D01*
X15011Y102659D01*
X13746Y103740D01*
X12328Y104609D01*
X10791Y105245D01*
X9174Y105633D01*
X7516Y105764D01*
D02*
G37*
G36*
X286425Y90664D02*
X282011D01*
X282115Y89876D01*
X282612Y88675D01*
X283404Y87643D01*
X284435Y86852D01*
X285636Y86355D01*
X286425Y86251D01*
Y90664D01*
D02*
G37*
G36*
X332043Y96121D02*
X324169D01*
X323779Y96043D01*
X323448Y95822D01*
X323227Y95492D01*
X323150Y95101D01*
Y87227D01*
X323227Y86837D01*
X323448Y86506D01*
X323779Y86285D01*
X324169Y86208D01*
X332043D01*
X332433Y86285D01*
X332764Y86506D01*
X332985Y86837D01*
X333063Y87227D01*
Y95101D01*
X332985Y95492D01*
X332764Y95822D01*
X332433Y96043D01*
X332043Y96121D01*
D02*
G37*
G36*
X-39094Y81898D02*
X-40859Y81724D01*
X-42555Y81210D01*
X-44119Y80374D01*
X-45489Y79249D01*
X-46614Y77879D01*
X-47449Y76315D01*
X-47964Y74619D01*
X-48138Y72854D01*
X-47964Y71090D01*
X-47449Y69394D01*
X-46614Y67830D01*
X-45489Y66460D01*
X-44119Y65335D01*
X-42555Y64499D01*
X-40859Y63985D01*
X-39094Y63811D01*
X-37330Y63985D01*
X-35634Y64499D01*
X-34070Y65335D01*
X-32700Y66460D01*
X-31575Y67830D01*
X-30739Y69394D01*
X-30225Y71090D01*
X-30051Y72854D01*
X-30225Y74619D01*
X-30739Y76315D01*
X-31575Y77879D01*
X-32700Y79249D01*
X-34070Y80374D01*
X-35634Y81210D01*
X-37330Y81724D01*
X-39094Y81898D01*
D02*
G37*
G36*
X48309Y69737D02*
X46454Y69555D01*
X44671Y69014D01*
X43027Y68135D01*
X41587Y66953D01*
X40404Y65513D01*
X39526Y63869D01*
X38985Y62086D01*
X38802Y60231D01*
X38985Y58377D01*
X39526Y56594D01*
X40404Y54950D01*
X41587Y53510D01*
X43027Y52327D01*
X44671Y51449D01*
X46454Y50908D01*
X48309Y50725D01*
X50163Y50908D01*
X51946Y51449D01*
X53590Y52327D01*
X55030Y53510D01*
X56213Y54950D01*
X57091Y56594D01*
X57632Y58377D01*
X57815Y60231D01*
X57632Y62086D01*
X57091Y63869D01*
X56213Y65513D01*
X55030Y66953D01*
X53590Y68135D01*
X51946Y69014D01*
X50163Y69555D01*
X48309Y69737D01*
D02*
G37*
G36*
X223016Y68664D02*
X220134D01*
Y66802D01*
X220211Y66412D01*
X220432Y66081D01*
X220763Y65860D01*
X221153Y65783D01*
X223016D01*
Y68664D01*
D02*
G37*
G36*
X223516Y81224D02*
X222432Y81081D01*
X221423Y80663D01*
X220556Y79998D01*
X219891Y79131D01*
X219473Y78122D01*
X219330Y77038D01*
X219473Y75955D01*
X219891Y74946D01*
X220556Y74079D01*
X221423Y73414D01*
X222310Y73046D01*
X222211Y72546D01*
X221153D01*
X220763Y72469D01*
X220432Y72248D01*
X220211Y71917D01*
X220134Y71527D01*
Y69664D01*
X223516D01*
X226897D01*
Y71527D01*
X226820Y71917D01*
X226599Y72248D01*
X226268Y72469D01*
X225878Y72546D01*
X224820D01*
X224721Y73046D01*
X225608Y73414D01*
X226475Y74079D01*
X227140Y74946D01*
X227558Y75955D01*
X227701Y77038D01*
X227558Y78122D01*
X227140Y79131D01*
X226475Y79998D01*
X225608Y80663D01*
X224599Y81081D01*
X223516Y81224D01*
D02*
G37*
G36*
X226897Y68664D02*
X224016D01*
Y65783D01*
X225878D01*
X226268Y65860D01*
X226599Y66081D01*
X226820Y66412D01*
X226897Y66802D01*
Y68664D01*
D02*
G37*
G36*
X222896Y98992D02*
X221033D01*
X220643Y98915D01*
X220312Y98694D01*
X220091Y98363D01*
X220014Y97973D01*
Y96110D01*
X222896D01*
Y98992D01*
D02*
G37*
G36*
X226777Y95110D02*
X223896D01*
Y92229D01*
X225758D01*
X226148Y92306D01*
X226479Y92527D01*
X226700Y92858D01*
X226777Y93248D01*
Y95110D01*
D02*
G37*
G36*
X225758Y98992D02*
X223896D01*
Y96110D01*
X226777D01*
Y97973D01*
X226700Y98363D01*
X226479Y98694D01*
X226148Y98915D01*
X225758Y98992D01*
D02*
G37*
G36*
X-12500Y124044D02*
X-14264Y123870D01*
X-15961Y123355D01*
X-17524Y122519D01*
X-18895Y121395D01*
X-20019Y120024D01*
X-20855Y118461D01*
X-21370Y116764D01*
X-21543Y115000D01*
X-21370Y113236D01*
X-20855Y111539D01*
X-20019Y109976D01*
X-18895Y108605D01*
X-17524Y107481D01*
X-15961Y106645D01*
X-14264Y106130D01*
X-12500Y105956D01*
X-10736Y106130D01*
X-9039Y106645D01*
X-7476Y107481D01*
X-6105Y108605D01*
X-4981Y109976D01*
X-4145Y111539D01*
X-3630Y113236D01*
X-3457Y115000D01*
X-3630Y116764D01*
X-4145Y118461D01*
X-4981Y120024D01*
X-6105Y121395D01*
X-7476Y122519D01*
X-9039Y123355D01*
X-10736Y123870D01*
X-12500Y124044D01*
D02*
G37*
G36*
X223396Y106876D02*
X222518Y106760D01*
X221700Y106421D01*
X220998Y105882D01*
X220459Y105180D01*
X220120Y104362D01*
X220004Y103484D01*
X220120Y102607D01*
X220459Y101789D01*
X220998Y101086D01*
X221700Y100548D01*
X222518Y100209D01*
X223396Y100093D01*
X224273Y100209D01*
X225091Y100548D01*
X225794Y101086D01*
X226332Y101789D01*
X226671Y102607D01*
X226787Y103484D01*
X226671Y104362D01*
X226332Y105180D01*
X225794Y105882D01*
X225091Y106421D01*
X224273Y106760D01*
X223396Y106876D01*
D02*
G37*
G36*
X259516Y106144D02*
X258227Y105974D01*
X257026Y105477D01*
X255995Y104685D01*
X255203Y103654D01*
X254706Y102453D01*
X254536Y101164D01*
X254706Y99876D01*
X255203Y98675D01*
X255995Y97643D01*
X257026Y96852D01*
X258032Y96435D01*
Y95894D01*
X257026Y95477D01*
X255995Y94686D01*
X255203Y93654D01*
X254706Y92453D01*
X254602Y91664D01*
X259516D01*
X264429D01*
X264325Y92453D01*
X263828Y93654D01*
X263037Y94686D01*
X262005Y95477D01*
X260999Y95894D01*
Y96435D01*
X262005Y96852D01*
X263037Y97643D01*
X263828Y98675D01*
X264325Y99876D01*
X264495Y101164D01*
X264325Y102453D01*
X263828Y103654D01*
X263037Y104685D01*
X262005Y105477D01*
X260804Y105974D01*
X259516Y106144D01*
D02*
G37*
G36*
X291839Y90664D02*
X287425D01*
Y86251D01*
X288214Y86355D01*
X289415Y86852D01*
X290446Y87643D01*
X291237Y88675D01*
X291735Y89876D01*
X291839Y90664D01*
D02*
G37*
G36*
X286425Y96078D02*
X285636Y95974D01*
X284435Y95477D01*
X283404Y94686D01*
X282612Y93654D01*
X282115Y92453D01*
X282011Y91664D01*
X286425D01*
Y96078D01*
D02*
G37*
G36*
X222896Y95110D02*
X220014D01*
Y93248D01*
X220091Y92858D01*
X220312Y92527D01*
X220643Y92306D01*
X221033Y92229D01*
X222896D01*
Y95110D01*
D02*
G37*
G36*
X287425Y96078D02*
Y91664D01*
X291839D01*
X291735Y92453D01*
X291237Y93654D01*
X290446Y94686D01*
X289415Y95477D01*
X288214Y95974D01*
X287425Y96078D01*
D02*
G37*
G36*
X233406Y16383D02*
X232229Y16268D01*
X231098Y15924D01*
X230056Y15367D01*
X229142Y14618D01*
X228393Y13704D01*
X227835Y12662D01*
X227492Y11531D01*
X227377Y10354D01*
X227492Y9178D01*
X227835Y8047D01*
X228393Y7005D01*
X229142Y6091D01*
X230056Y5341D01*
X231098Y4784D01*
X232229Y4441D01*
X233406Y4325D01*
X234582Y4441D01*
X235713Y4784D01*
X236755Y5341D01*
X237669Y6091D01*
X238419Y7005D01*
X238976Y8047D01*
X239319Y9178D01*
X239435Y10354D01*
X239319Y11531D01*
X238976Y12662D01*
X238419Y13704D01*
X237669Y14618D01*
X236755Y15367D01*
X235713Y15924D01*
X234582Y16268D01*
X233406Y16383D01*
D02*
G37*
G36*
X3937Y4020D02*
X500D01*
Y500D01*
X4957D01*
Y3000D01*
X4879Y3390D01*
X4658Y3721D01*
X4327Y3942D01*
X3937Y4020D01*
D02*
G37*
G36*
X-14594Y11587D02*
X-19604D01*
X-19480Y10644D01*
X-18923Y9299D01*
X-18037Y8144D01*
X-16882Y7258D01*
X-15537Y6701D01*
X-14594Y6577D01*
Y11587D01*
D02*
G37*
G36*
Y17596D02*
X-15537Y17472D01*
X-16882Y16915D01*
X-18037Y16029D01*
X-18923Y14874D01*
X-19480Y13530D01*
X-19604Y12587D01*
X-14594D01*
Y17596D01*
D02*
G37*
G36*
X-8585Y11587D02*
X-13594D01*
Y6577D01*
X-12651Y6701D01*
X-11307Y7258D01*
X-10152Y8144D01*
X-9266Y9299D01*
X-8709Y10644D01*
X-8585Y11587D01*
D02*
G37*
G36*
X233406Y-3617D02*
X232229Y-3732D01*
X231098Y-4075D01*
X230056Y-4633D01*
X229142Y-5382D01*
X228393Y-6296D01*
X227835Y-7338D01*
X227492Y-8469D01*
X227377Y-9646D01*
X227492Y-10822D01*
X227835Y-11953D01*
X228393Y-12995D01*
X229142Y-13909D01*
X230056Y-14659D01*
X231098Y-15216D01*
X232229Y-15559D01*
X233406Y-15675D01*
X234582Y-15559D01*
X235713Y-15216D01*
X236755Y-14659D01*
X237669Y-13909D01*
X238419Y-12995D01*
X238976Y-11953D01*
X239319Y-10822D01*
X239435Y-9646D01*
X239319Y-8469D01*
X238976Y-7338D01*
X238419Y-6296D01*
X237669Y-5382D01*
X236755Y-4633D01*
X235713Y-4075D01*
X234582Y-3732D01*
X233406Y-3617D01*
D02*
G37*
G36*
X293996Y-14272D02*
Y-18686D01*
X298409D01*
X298306Y-17897D01*
X297808Y-16696D01*
X297017Y-15664D01*
X295985Y-14873D01*
X294784Y-14376D01*
X293996Y-14272D01*
D02*
G37*
G36*
X-500Y-500D02*
X-4957D01*
Y-3000D01*
X-4879Y-3390D01*
X-4658Y-3721D01*
X-4327Y-3942D01*
X-3937Y-4020D01*
X-500D01*
Y-500D01*
D02*
G37*
G36*
Y4020D02*
X-3937D01*
X-4327Y3942D01*
X-4658Y3721D01*
X-4879Y3390D01*
X-4957Y3000D01*
Y500D01*
X-500D01*
Y4020D01*
D02*
G37*
G36*
X4957Y-500D02*
X500D01*
Y-4020D01*
X3937D01*
X4327Y-3942D01*
X4658Y-3721D01*
X4879Y-3390D01*
X4957Y-3000D01*
Y-500D01*
D02*
G37*
G36*
X298157Y38664D02*
X293701D01*
Y34208D01*
X297138D01*
X297528Y34285D01*
X297859Y34506D01*
X298080Y34837D01*
X298157Y35227D01*
Y38664D01*
D02*
G37*
G36*
X292701D02*
X288244D01*
Y35227D01*
X288322Y34837D01*
X288543Y34506D01*
X288873Y34285D01*
X289264Y34208D01*
X292701D01*
Y38664D01*
D02*
G37*
G36*
Y44121D02*
X289264D01*
X288873Y44043D01*
X288543Y43822D01*
X288322Y43492D01*
X288244Y43101D01*
Y39664D01*
X292701D01*
Y44121D01*
D02*
G37*
G36*
X-39094Y61898D02*
X-40859Y61724D01*
X-42555Y61210D01*
X-44119Y60374D01*
X-45489Y59249D01*
X-46614Y57879D01*
X-47449Y56315D01*
X-47964Y54619D01*
X-48138Y52854D01*
X-47964Y51090D01*
X-47449Y49394D01*
X-46614Y47830D01*
X-45489Y46460D01*
X-44119Y45335D01*
X-42555Y44499D01*
X-40859Y43985D01*
X-39094Y43811D01*
X-37330Y43985D01*
X-35634Y44499D01*
X-34070Y45335D01*
X-32700Y46460D01*
X-31575Y47830D01*
X-30739Y49394D01*
X-30225Y51090D01*
X-30051Y52854D01*
X-30225Y54619D01*
X-30739Y56315D01*
X-31575Y57879D01*
X-32700Y59249D01*
X-34070Y60374D01*
X-35634Y61210D01*
X-37330Y61724D01*
X-39094Y61898D01*
D02*
G37*
G36*
X297138Y44121D02*
X293701D01*
Y39664D01*
X298157D01*
Y43101D01*
X298080Y43492D01*
X297859Y43822D01*
X297528Y44043D01*
X297138Y44121D01*
D02*
G37*
G36*
X-12500Y37482D02*
X-14275Y37307D01*
X-15981Y36789D01*
X-17553Y35949D01*
X-18932Y34818D01*
X-20063Y33439D01*
X-20903Y31867D01*
X-21421Y30160D01*
X-21596Y28386D01*
X-21421Y26611D01*
X-20903Y24905D01*
X-20063Y23332D01*
X-18932Y21954D01*
X-17553Y20823D01*
X-15981Y19982D01*
X-14275Y19465D01*
X-12500Y19290D01*
X-10725Y19465D01*
X-9019Y19982D01*
X-7447Y20823D01*
X-6068Y21954D01*
X-4937Y23332D01*
X-4096Y24905D01*
X-3579Y26611D01*
X-3404Y28386D01*
X-3579Y30160D01*
X-4096Y31867D01*
X-4937Y33439D01*
X-6068Y34818D01*
X-7447Y35949D01*
X-9019Y36789D01*
X-10725Y37307D01*
X-12500Y37482D01*
D02*
G37*
G36*
X-13594Y17596D02*
Y12587D01*
X-8585D01*
X-8709Y13530D01*
X-9266Y14874D01*
X-10152Y16029D01*
X-11307Y16915D01*
X-12651Y17472D01*
X-13594Y17596D01*
D02*
G37*
G36*
X207516Y45702D02*
X205867Y45572D01*
X204259Y45186D01*
X202732Y44553D01*
X201322Y43689D01*
X200064Y42616D01*
X198991Y41358D01*
X198127Y39948D01*
X197494Y38421D01*
X197108Y36813D01*
X196978Y35164D01*
X197108Y33516D01*
X197494Y31908D01*
X198127Y30380D01*
X198991Y28971D01*
X200064Y27713D01*
X201322Y26639D01*
X202732Y25775D01*
X204259Y25143D01*
X205867Y24757D01*
X207516Y24627D01*
X209164Y24757D01*
X210772Y25143D01*
X212299Y25775D01*
X213709Y26639D01*
X214967Y27713D01*
X216041Y28971D01*
X216905Y30380D01*
X217537Y31908D01*
X217923Y33516D01*
X218053Y35164D01*
X217923Y36813D01*
X217537Y38421D01*
X216905Y39948D01*
X216041Y41358D01*
X214967Y42616D01*
X213709Y43689D01*
X212299Y44553D01*
X210772Y45186D01*
X209164Y45572D01*
X207516Y45702D01*
D02*
G37*
G36*
X273516Y44144D02*
X272227Y43974D01*
X271026Y43477D01*
X269994Y42685D01*
X269203Y41654D01*
X268706Y40453D01*
X268536Y39164D01*
X268706Y37876D01*
X269203Y36675D01*
X269994Y35643D01*
X271026Y34852D01*
X272227Y34354D01*
X273516Y34185D01*
X274804Y34354D01*
X276005Y34852D01*
X277037Y35643D01*
X277828Y36675D01*
X278326Y37876D01*
X278495Y39164D01*
X278326Y40453D01*
X277828Y41654D01*
X277037Y42685D01*
X276005Y43477D01*
X274804Y43974D01*
X273516Y44144D01*
D02*
G37*
G36*
X166808Y48369D02*
X165221Y48212D01*
X163695Y47749D01*
X162288Y46997D01*
X161055Y45985D01*
X160043Y44752D01*
X159291Y43345D01*
X158827Y41819D01*
X158671Y40231D01*
X158827Y38644D01*
X159291Y37117D01*
X160043Y35710D01*
X161055Y34477D01*
X162288Y33465D01*
X163695Y32713D01*
X165221Y32250D01*
X166808Y32094D01*
X168396Y32250D01*
X169923Y32713D01*
X171329Y33465D01*
X172563Y34477D01*
X173574Y35710D01*
X174327Y37117D01*
X174790Y38644D01*
X174946Y40231D01*
X174790Y41819D01*
X174327Y43345D01*
X173574Y44752D01*
X172563Y45985D01*
X171329Y46997D01*
X169923Y47749D01*
X168396Y48212D01*
X166808Y48369D01*
D02*
G37*
%LPD*%
D10*
X293406Y-7146D02*
X293496Y-7236D01*
X293201Y39164D02*
X293406Y38959D01*
X282500Y-72500D02*
X283051D01*
X282500Y-104431D02*
X289096Y-97836D01*
X282500Y-105000D02*
Y-104431D01*
D11*
X-12500Y28386D02*
D03*
Y115000D02*
D03*
X-39094Y52854D02*
D03*
Y72854D02*
D03*
Y92854D02*
D03*
Y-62146D02*
D03*
Y-82146D02*
D03*
Y-102146D02*
D03*
X233406Y10354D02*
D03*
Y-9646D02*
D03*
Y-29646D02*
D03*
Y-49646D02*
D03*
D12*
X166906Y40354D02*
D03*
Y-38146D02*
D03*
D13*
X48406Y-58146D02*
D03*
Y60354D02*
D03*
X259516Y91164D02*
D03*
Y101164D02*
D03*
X293496Y-19186D02*
D03*
X273516Y39164D02*
D03*
X286925Y91164D02*
D03*
X232296Y-106436D02*
D03*
X258316Y-79836D02*
D03*
Y-89836D02*
D03*
D14*
X259516Y81164D02*
D03*
X232296Y-65255D02*
D03*
X258316Y-69836D02*
D03*
D15*
X273811Y-19186D02*
D03*
X293201Y39164D02*
D03*
X328106Y91164D02*
D03*
D16*
X223516Y77038D02*
D03*
D17*
Y69164D02*
D03*
X294516Y-58962D02*
D03*
Y-89962D02*
D03*
X223396Y95610D02*
D03*
D18*
X294516Y-66836D02*
D03*
Y-97836D02*
D03*
X223396Y103484D02*
D03*
D19*
X0Y0D02*
D03*
Y-9843D02*
D03*
Y-17717D02*
D03*
Y-27559D02*
D03*
D20*
X-14094Y12087D02*
D03*
Y-39646D02*
D03*
D21*
X7516Y95164D02*
D03*
X2516Y-94836D02*
D03*
X207516Y35164D02*
D03*
Y-74836D02*
D03*
X327516Y-94836D02*
D03*
D22*
X-27854Y-82146D02*
D03*
X-15000Y0D02*
D03*
X293406Y27854D02*
D03*
Y-7146D02*
D03*
X275906Y91164D02*
D03*
X242596D02*
D03*
X223406Y60354D02*
D03*
X258406Y-59646D02*
D03*
X-29094Y82854D02*
D03*
X-26594Y72854D02*
D03*
X-29094Y62854D02*
D03*
X282500Y-72500D02*
D03*
Y-105000D02*
D03*
M02*
