M48
;Layer_Color=9474304
;FILE_FORMAT=2:5
INCH,LZ
;TYPE=PLATED
T1F00S00C0.01200
T2F00S00C0.01201
T3F00S00C0.03000
T4F00S00C0.03150
T5F00S00C0.03346
T6F00S00C0.03543
T7F00S00C0.03937
T8F00S00C0.08268
T9F00S00C0.12598
%
T01
X-018748Y-0047146
X-017748
X-016748
X-015748
X-016248Y-0037146
X-017248
X-018248
X-016748Y-0027146
X-015748
X-014748
X-013748
X-012748
X-011748
X-012248Y-0037146
X-013248
X-012748Y-0047146
X-011748
X-010748
X-009748
X-010248Y-0037146
X-011248
X-009248
X-008248
X-007248
X-006248
X-005248
X-015248
X-004248
X-003248
X-002248
X-001248
X-000248
X000752
X000252Y-0027146
X-000748
X-001748
X-000748Y-0047146
X003752Y-0037146
X004752
X005752
X006252Y-0047146
X003252Y-0027146
X002752Y-0017146
X001752
X000752
X-000248
X-001248
X-002248
X-003248
X-004248
X-003748Y-0007146
X-002748
X-001748
X-000748
X000252
X000752Y0002854
X001752
X002752
X003752
X004752
X005752
X005252Y-0007146
X004252
X003252
Y0012854
X002252
X001252
X000752Y0022854
X001752
X002752
X003752
X004752
X005752
X005252Y0012854
X004252
Y0032854
X003252
X002252
X001252
X000252
X-000748
X-001248Y0042854
X-000248
X000752
X001752
X002752
X003752
X003252Y0052854
X002252
X001252
X000252
X-000748
X-000248Y0062854
X000752
X001752
X002752
X003752
X003252Y0072854
X002252
X001252
X000252
X-000748
X-000248Y0082854
X000752
X001752
X002752
X003752
X004752
X004252Y0072854
X005252
X006252
X005252Y0092854
X004252
X003252
X002252
X001252
X000252
X-000748
X-001248Y0102854
X-000248
X000752
X001752
X002752
X003752
X004752
X005752
X005252Y0112854
X004252
X003252
X002252
X001252
X000252
X-000748
X-001748
X-002748
X-003248Y0122854
X-002248
X-001248
X-000248
X000752
X001752
X002752
X003752
X004752
X005752
X006252Y0112854
Y0132854
X-002748
X-004248Y0082854
X-0035Y007
Y006
Y005
X-003748Y0032854
X-002748
X-0025Y0015
X-0035
Y0005
X-0025
X-0015
Y0015
X-0005
Y0005
X004752Y-0017146
X006252Y-0007146
Y0012854
Y0032854
X005252
X004252Y0052854
X-002248Y0062854
X-0045Y006
Y007
X-005748Y0072854
X-006748
X-007248Y0062854
X-0085Y006
Y007
X-0095
Y008
X-0105
X-010748Y0072854
X-011748
X-0115Y00775
X-012248Y0062854
X-013248
X-014248
X-015248
X-016248
X-017248
X-018248
X-018748Y0072854
X-017748
X-016748
X-015748
X-014748
X-013748
X-014248Y0082854
X-015248
X-016248
X-017248
X-018248
X-018748Y0092854
X-017748
X-016748
X-015748
X-014748
X-013748
X-014248Y0102854
X-015248
X-016248
X-017248
X-018248
X-018748Y0112854
X-017748
X-016748
X-015748
X-014748
X-013748
X-012748
X-0125Y012
X-0115
X-0105
X-0095
X-0085
X-0075
Y011
X-0065
X-0055
Y012
X-0065
Y009
X-0075
X-0055
X-0045Y005
X-007248Y0042854
X-007748Y0032854
X-008748
X-009748
X-010748
X-011748
X-012748
X-013748
X-014748
X-015248Y0022854
X-016248
X-017248
X-018248
X-018748Y0032854
X-017748
X-016748
X-017248Y0042854
X-018248
X-017748Y0052854
X-016748
X-016Y00475
X-014248Y0042854
X-013748Y0052854
X-012748
X-011748
X-010748
X-011248Y0042854
X-012248
Y0022854
X-013248
X-014248
X-013248Y0002854
X-012248
X-012748Y-0007146
X-011748
X-012248Y-0017146
X-013248
X-014248
X-015248
X-016248
X-017248
X-018248
X-017248Y0002854
X-016248
X-010248
X-009748Y-0007146
X-010248Y-0017146
X-011248
X-008248
X-007248
X-006248
X-006748Y-0007146
X-007748
X-007248Y0002854
X-006248
X-006748Y0012854
X-005748
Y-0007146
X-008248Y0022854
X-009248
X-010248
X-009248Y0042854
X-0095Y005
Y006
X-0085Y005
X-0095Y011
X-0105
X-0115
X-013248Y0102854
X-014248Y0122854
X-015248
X-016248
X-017248
X-018248
X-018748Y0132854
X-017748
X-016748
X-015748
X-014748
X-013748
X-015248Y0142854
X-016248
X-017248
X-018248
X005752
T02
X-0195Y-005
X-0175
X-0155
X-0135
X-0115
X-01575Y-00325
X-0195Y-00275
X0065Y-004
Y-0005
Y0015
Y0035
Y0105
Y0125
X-004Y0085
Y00375
Y003
X-006Y0015
Y0005
Y-0005
X-0085Y-00075
X-009Y-00175
X-01Y0035
X-01375Y0005
X-01525Y0
X-01575Y-0015
X-0195Y-0005
Y0015
Y0035
Y007
Y009
Y011
Y013
X-014Y0125
Y0115
Y0095
Y0085
X-0065Y00775
X-0195Y015
X006Y0145
T03
X-009Y-0045
X-008
X-007
X-006
X-005
X-01Y-0025
X-004Y-0045
X-003
X-002
X0
X001
X002
X003
X004
X005
X0Y001
Y002
X-001
X-002
X-003
X-004
Y001
X-003
X-002
X-001
X-003Y0045
X-004
Y0055
X-003
X-003Y0065
Y0075
X-004
Y0065
X-003Y0085
X-0036Y0135
X-002
X-001
X0
X001
X002
X003
X004
X005
X-0046
X-0056
X-0066
X-0076
X-0086
X-0096
X-0106
X-0116
X-0126
X-013Y0125
X-012
Y0115
X-011
X-01
X-009
X-008
X-007
X-006
X-005
Y0105
Y0095
X-006
X-007
X-008
Y0085
X-009
X-01
X-011
X-012
X-013
Y0095
X-012
Y0105
X-011
X-01
X-009
X-008
X-007
X-006
Y0085
X-007
X-005
Y0075
Y0065
Y0055
Y0045
X-008
Y0055
X-009
X-01
Y0045
X-01Y0065
X-009Y0065
X-009Y0075
X-01
X-008Y0075
Y0065
X-009Y0095
X-01
X-011
Y0125
Y00025
X-009
X-0145Y0005
Y-001
X-0126Y0145
X-0116
X-0106
X-0096
X-0086
X-0076
X-0066
X-0056
X-0046
X-0036
X-002
X-001
X0
X001
X002
X003
X004
X005
T04
X-0080374Y-0025
X-00725
X-005
X00215
Y-001
X00415Y-00175
X0Y0
X-001
X-002
X-003
X-004
X-005Y0005
Y0015
Y0025
Y0035
Y-0005
Y-0015
X-011Y0025
X-013Y0045
X-011Y0065
X-01Y0125
X-009
X-008
X-007
X-006
X-005
T05
X-01525Y-0025
X-01125
X-003Y-0025
X001
X-00925Y-001
X-01325
T06
X0050551Y0044803
X0060551
Y0054803
X0050551
Y0064803
X0060551
T07
X-01825Y-00275
Y-00075
Y00125
T08
X-0189465Y0052567
X-0150094
X-0156Y0038
T09
X-0145Y-0045
X006Y-0025
Y0085
X-014Y0145
M30
