G04 Layer_Color=65535*
%FSLAX25Y25*%
%MOIN*%
G70*
G01*
G75*
%ADD25C,0.00787*%
%ADD26C,0.01000*%
%ADD27C,0.00591*%
%ADD28R,0.03150X0.11024*%
%ADD29R,0.11024X0.03150*%
D25*
X364051Y106083D02*
G03*
X364051Y106083I-24606J0D01*
G01*
X289150Y198370D02*
G03*
X289150Y198370I-9843J0D01*
G01*
X360150Y62370D02*
G03*
X360150Y62370I-9843J0D01*
G01*
X360150Y31370D02*
G03*
X360150Y31370I-9843J0D01*
G01*
X289030Y224816D02*
G03*
X289030Y224816I-9843J0D01*
G01*
X363756Y164433D02*
G03*
X363756Y164433I-24606J0D01*
G01*
X26734Y234891D02*
X47600D01*
X26734Y245915D02*
X47600D01*
X26734Y234891D02*
Y245915D01*
X47600Y234891D02*
Y245915D01*
X306646Y196158D02*
Y236709D01*
X304677Y196158D02*
Y236709D01*
X323969Y196158D02*
Y236709D01*
X304677Y196158D02*
X323969D01*
X304677Y236709D02*
X323969D01*
X364838Y106083D02*
X368838D01*
X366838Y104083D02*
Y108083D01*
X277307Y211028D02*
X281307D01*
X279307Y209028D02*
Y213028D01*
X350307Y47713D02*
Y51713D01*
X348307Y49713D02*
X352307D01*
X348307Y18713D02*
X352307D01*
X350307Y16713D02*
Y20713D01*
X277187Y237474D02*
X281187D01*
X279187Y235474D02*
Y239474D01*
X309756Y164433D02*
X313756D01*
X311756Y162433D02*
Y166433D01*
X305646Y15157D02*
Y55709D01*
X303677Y15157D02*
Y55709D01*
X322969Y15157D02*
Y55709D01*
X303677Y15157D02*
X322969D01*
X303677Y55709D02*
X322969D01*
X352874Y210921D02*
Y221945D01*
X373740D01*
X352874Y210921D02*
X373740D01*
X279921Y26851D02*
X290945D01*
X279921D02*
Y47717D01*
X290945Y26851D02*
Y47717D01*
D26*
X59016Y108189D02*
Y159921D01*
X40275Y107874D02*
X40591Y108189D01*
X118Y159921D02*
X236D01*
X118D02*
X33031D01*
X59016D02*
Y159961D01*
X48346D02*
X59016D01*
X118Y108189D02*
Y159921D01*
Y108189D02*
X33031D01*
X48346D02*
X59016D01*
X831Y228123D02*
X32563D01*
X831Y168123D02*
X32563D01*
Y228123D01*
X831Y168123D02*
Y228123D01*
X32052Y38653D02*
Y98653D01*
X241Y38653D02*
Y98653D01*
Y38653D02*
X16107D01*
X32052D01*
X241Y98653D02*
X16107D01*
X32052D01*
X67725Y16527D02*
X252725D01*
X67725D02*
Y237028D01*
X252725Y16527D02*
Y237028D01*
X67725D02*
X252725D01*
X261527Y70000D02*
X275307D01*
X289087D01*
X261527Y140866D02*
X275307D01*
X289087D01*
Y70000D02*
Y140866D01*
X261527Y70000D02*
Y140866D01*
X44306Y232431D02*
X40307D01*
Y229432D01*
X42306D01*
X40307D01*
Y226433D01*
X46305D02*
X48305D01*
X47305D01*
Y232431D01*
X46305Y231431D01*
X311067Y246071D02*
Y241073D01*
X312067Y240073D01*
X314066D01*
X315066Y241073D01*
Y246071D01*
X317065Y240073D02*
X319064D01*
X318065D01*
Y246071D01*
X317065Y245072D01*
X366756Y131031D02*
X365756Y132031D01*
X363757D01*
X362757Y131031D01*
Y127033D01*
X363757Y126033D01*
X365756D01*
X366756Y127033D01*
X372754Y132031D02*
X370755Y131031D01*
X368755Y129032D01*
Y127033D01*
X369755Y126033D01*
X371754D01*
X372754Y127033D01*
Y128032D01*
X371754Y129032D01*
X368755D01*
X262836Y211865D02*
X261836Y212865D01*
X259837D01*
X258837Y211865D01*
Y207867D01*
X259837Y206867D01*
X261836D01*
X262836Y207867D01*
X268834Y206867D02*
X264835D01*
X268834Y210866D01*
Y211865D01*
X267834Y212865D01*
X265835D01*
X264835Y211865D01*
X366016Y75501D02*
X365016Y76501D01*
X363017D01*
X362017Y75501D01*
Y71503D01*
X363017Y70503D01*
X365016D01*
X366016Y71503D01*
X368015Y75501D02*
X369015Y76501D01*
X371014D01*
X372014Y75501D01*
Y74502D01*
X371014Y73502D01*
X370015D01*
X371014D01*
X372014Y72502D01*
Y71503D01*
X371014Y70503D01*
X369015D01*
X368015Y71503D01*
X50307Y163433D02*
Y169431D01*
X53306D01*
X54306Y168431D01*
Y166432D01*
X53306Y165432D01*
X50307D01*
X56305Y163433D02*
X58305D01*
X57305D01*
Y169431D01*
X56305Y168431D01*
X47913Y119993D02*
X43915D01*
X45914Y117994D02*
Y121992D01*
X46699Y149090D02*
X45700Y150089D01*
X43700D01*
X42700Y149090D01*
Y145091D01*
X43700Y144091D01*
X45700D01*
X46699Y145091D01*
Y147090D01*
X44700D01*
X39306Y200431D02*
X37306D01*
X38306D01*
Y195433D01*
X37306Y194433D01*
X36307D01*
X35307Y195433D01*
X41305Y194433D02*
X43304D01*
X42305D01*
Y200431D01*
X41305Y199431D01*
X7565Y176430D02*
X6565Y177430D01*
Y179429D01*
X5565Y180429D01*
X5636Y193618D02*
X4636Y192618D01*
Y190619D01*
X5636Y189619D01*
X9634D01*
X10634Y190619D01*
Y192618D01*
X9634Y193618D01*
X7635D01*
Y191619D01*
X10634Y195617D02*
X4636D01*
X10634Y199616D01*
X4636D01*
Y201615D02*
X10634D01*
Y204614D01*
X9634Y205614D01*
X5636D01*
X4636Y204614D01*
Y201615D01*
X7840Y216509D02*
X6841Y217509D01*
Y219508D01*
X5841Y220508D01*
X35307Y65433D02*
Y71431D01*
X38306D01*
X39306Y70431D01*
Y68432D01*
X38306Y67432D01*
X35307D01*
X45304Y65433D02*
X41305D01*
X45304Y69432D01*
Y70431D01*
X44304Y71431D01*
X42305D01*
X41305Y70431D01*
X30516Y88646D02*
X26518D01*
X28517Y86647D02*
Y90645D01*
X30206Y70481D02*
X29206Y71481D01*
X27207D01*
X26207Y70481D01*
Y66483D01*
X27207Y65483D01*
X29206D01*
X30206Y66483D01*
Y68482D01*
X28206D01*
X29965Y48882D02*
X25967D01*
X366716Y42801D02*
X365716Y43801D01*
X363717D01*
X362717Y42801D01*
Y38803D01*
X363717Y37803D01*
X365716D01*
X366716Y38803D01*
X371714Y37803D02*
Y43801D01*
X368715Y40802D01*
X372714D01*
X325307Y21431D02*
Y16433D01*
X326307Y15433D01*
X328306D01*
X329306Y16433D01*
Y21431D01*
X335304Y15433D02*
X331305D01*
X335304Y19432D01*
Y20432D01*
X334304Y21431D01*
X332305D01*
X331305Y20432D01*
X68274Y246476D02*
X72273D01*
X70274D01*
Y240478D01*
X74272D02*
X76272D01*
X75272D01*
Y246476D01*
X74272Y245476D01*
X267493Y40512D02*
Y34514D01*
X270492D01*
X271492Y35513D01*
Y39512D01*
X270492Y40512D01*
X267493D01*
X277490Y34514D02*
X273491D01*
X277490Y38512D01*
Y39512D01*
X276490Y40512D01*
X274491D01*
X273491Y39512D01*
X359247Y231631D02*
Y225633D01*
X362246D01*
X363246Y226633D01*
Y230631D01*
X362246Y231631D01*
X359247D01*
X365245Y225633D02*
X367245D01*
X366245D01*
Y231631D01*
X365245Y230631D01*
X367131Y189522D02*
X366131Y190521D01*
X364132D01*
X363132Y189522D01*
Y185523D01*
X364132Y184523D01*
X366131D01*
X367131Y185523D01*
X373129Y190521D02*
X369130D01*
Y187522D01*
X371129Y188522D01*
X372129D01*
X373129Y187522D01*
Y185523D01*
X372129Y184523D01*
X370130D01*
X369130Y185523D01*
X265376Y239422D02*
X264376Y240421D01*
X262377D01*
X261377Y239422D01*
Y235423D01*
X262377Y234423D01*
X264376D01*
X265376Y235423D01*
X267375Y234423D02*
X269374D01*
X268375D01*
Y240421D01*
X267375Y239422D01*
X262037Y144373D02*
Y150371D01*
X265036D01*
X266036Y149372D01*
Y147372D01*
X265036Y146372D01*
X262037D01*
X264036D02*
X266036Y144373D01*
X271034D02*
X269035D01*
X268035Y145373D01*
Y147372D01*
X269035Y148372D01*
X271034D01*
X272034Y147372D01*
Y146372D01*
X268035D01*
X274033Y144373D02*
X276033D01*
X275033D01*
Y150371D01*
X274033Y149372D01*
X264244Y75479D02*
X268243D01*
X263968Y93935D02*
X264968Y94935D01*
X266968D01*
X267967Y95935D01*
X264480Y115676D02*
X268479D01*
X266480Y117675D02*
Y113677D01*
X264756Y134211D02*
X265756Y135211D01*
X267755D01*
X268755Y136210D01*
D27*
X331744Y205449D02*
Y207417D01*
Y206433D01*
X325840D01*
X326824Y205449D01*
X331744Y218400D02*
Y214465D01*
X327808Y218400D01*
X326824D01*
X325840Y217416D01*
Y215448D01*
X326824Y214465D01*
Y224465D02*
X325840Y225448D01*
Y227416D01*
X326824Y228400D01*
X327808D01*
X328792Y227416D01*
Y226432D01*
Y227416D01*
X329776Y228400D01*
X330760D01*
X331744Y227416D01*
Y225448D01*
X330760Y224465D01*
X330744Y24449D02*
Y26417D01*
Y25433D01*
X324840D01*
X325824Y24449D01*
X330744Y37400D02*
Y33465D01*
X326808Y37400D01*
X325824D01*
X324840Y36416D01*
Y34449D01*
X325824Y33465D01*
Y43465D02*
X324840Y44449D01*
Y46416D01*
X325824Y47400D01*
X326808D01*
X327792Y46416D01*
Y45432D01*
Y46416D01*
X328776Y47400D01*
X329760D01*
X330744Y46416D01*
Y44449D01*
X329760Y43465D01*
D28*
X372559Y216433D02*
D03*
D29*
X285434Y46535D02*
D03*
M02*
