G04 Layer_Color=2752767*
%FSLAX25Y25*%
%MOIN*%
G70*
G01*
G75*
%ADD44C,0.00200*%
%ADD45C,0.00267*%
D44*
X284633Y57074D02*
Y58674D01*
X286233D01*
Y57074D01*
X284633D01*
Y15893D02*
Y17493D01*
X286233D01*
Y15893D01*
X284633D01*
X383098Y215633D02*
Y217233D01*
X384698D01*
Y215633D01*
X383098D01*
X341916D02*
Y217233D01*
X343516D01*
Y215633D01*
X341916D01*
X329307Y163633D02*
X328507Y165233D01*
X330107D01*
X329307Y163633D01*
X348992D02*
X348192Y165233D01*
X349792D01*
X348992Y163633D01*
X279187Y220079D02*
X278387Y221679D01*
X279987D01*
X279187Y220079D01*
Y227953D02*
X278387Y229553D01*
X279987D01*
X279187Y227953D01*
X275307Y74633D02*
X275707Y75033D01*
X276107D01*
X275707Y75433D01*
X276107Y75833D01*
X275707D01*
X275307Y76233D01*
X274907Y75833D01*
X274507D01*
X274907Y75433D01*
X274507Y75033D01*
X274907D01*
X275307Y74633D01*
Y94633D02*
X275707Y95033D01*
X276107D01*
X275707Y95433D01*
X276107Y95833D01*
X275707D01*
X275307Y96233D01*
X274907Y95833D01*
X274507D01*
X274907Y95433D01*
X274507Y95033D01*
X274907D01*
X275307Y94633D01*
Y114633D02*
X275707Y115033D01*
X276107D01*
X275707Y115433D01*
X276107Y115833D01*
X275707D01*
X275307Y116233D01*
X274907Y115833D01*
X274507D01*
X274907Y115433D01*
X274507Y115033D01*
X274907D01*
X275307Y114633D01*
Y134633D02*
X275707Y135033D01*
X276107D01*
X275707Y135433D01*
X276107Y135833D01*
X275707D01*
X275307Y136233D01*
X274907Y135833D01*
X274507D01*
X274907Y135433D01*
X274507Y135033D01*
X274907D01*
X275307Y134633D01*
X101225Y184728D02*
X101625Y185127D01*
X102024D01*
X101625Y185528D01*
X102024Y185927D01*
X101625D01*
X101225Y186328D01*
X100824Y185927D01*
X100425D01*
X100824Y185528D01*
X100425Y185127D01*
X100824D01*
X101225Y184728D01*
Y66228D02*
X101625Y66628D01*
X102024D01*
X101625Y67027D01*
X102024Y67427D01*
X101625D01*
X101225Y67827D01*
X100824Y67427D01*
X100425D01*
X100824Y67027D01*
X100425Y66628D01*
X100824D01*
X101225Y66228D01*
X219724Y86228D02*
X220125Y86628D01*
X220525D01*
X220125Y87028D01*
X220525Y87428D01*
X220125D01*
X219724Y87827D01*
X219324Y87428D01*
X218924D01*
X219324Y87028D01*
X218924Y86628D01*
X219324D01*
X219724Y86228D01*
Y164727D02*
X220125Y165128D01*
X220525D01*
X220125Y165527D01*
X220525Y165928D01*
X220125D01*
X219724Y166328D01*
X219324Y165928D01*
X218924D01*
X219324Y165527D01*
X218924Y165128D01*
X219324D01*
X219724Y164727D01*
X350307Y34507D02*
X349507Y36107D01*
X351107D01*
X350307Y34507D01*
Y26633D02*
X349507Y28233D01*
X351107D01*
X350307Y26633D01*
X16107Y47853D02*
X16507Y48253D01*
X16907D01*
X16507Y48653D01*
X16907Y49053D01*
X16507D01*
X16107Y49453D01*
X15707Y49053D01*
X15307D01*
X15707Y48653D01*
X15307Y48253D01*
X15707D01*
X16107Y47853D01*
Y67853D02*
X16507Y68253D01*
X16907D01*
X16507Y68653D01*
X16907Y69053D01*
X16507D01*
X16107Y69453D01*
X15707Y69053D01*
X15307D01*
X15707Y68653D01*
X15307Y68253D01*
X15707D01*
X16107Y67853D01*
Y87853D02*
X16507Y88253D01*
X16907D01*
X16507Y88653D01*
X16907Y89053D01*
X16507D01*
X16107Y89453D01*
X15707Y89053D01*
X15307D01*
X15707Y88653D01*
X15307Y88253D01*
X15707D01*
X16107Y87853D01*
X382507Y29633D02*
X382907Y30433D01*
X382507Y31233D01*
X383307Y30833D01*
X384107Y31233D01*
X383707Y30433D01*
X384107Y29633D01*
X383307Y30033D01*
X382507Y29633D01*
X262507Y49633D02*
X262907Y50433D01*
X262507Y51233D01*
X263307Y50833D01*
X264107Y51233D01*
X263707Y50433D01*
X264107Y49633D01*
X263307Y50033D01*
X262507Y49633D01*
Y159633D02*
X262907Y160433D01*
X262507Y161233D01*
X263307Y160833D01*
X264107Y161233D01*
X263707Y160433D01*
X264107Y159633D01*
X263307Y160033D01*
X262507Y159633D01*
X57507Y29633D02*
X57907Y30433D01*
X57507Y31233D01*
X58307Y30833D01*
X59107Y31233D01*
X58707Y30433D01*
X59107Y29633D01*
X58307Y30033D01*
X57507Y29633D01*
Y219633D02*
X57907Y220433D01*
X57507Y221233D01*
X58307Y220833D01*
X59107Y221233D01*
X58707Y220433D01*
X59107Y219633D01*
X58307Y220033D01*
X57507Y219633D01*
X16697Y217323D02*
X17097Y217723D01*
X17497D01*
X17097Y218123D01*
X17497Y218523D01*
X17097D01*
X16697Y218923D01*
X16297Y218523D01*
X15897D01*
X16297Y218123D01*
X15897Y217723D01*
X16297D01*
X16697Y217323D01*
Y197323D02*
X17097Y197723D01*
X17497D01*
X17097Y198123D01*
X17497Y198523D01*
X17097D01*
X16697Y198923D01*
X16297Y198523D01*
X15897D01*
X16297Y198123D01*
X15897Y197723D01*
X16297D01*
X16697Y197323D01*
Y177323D02*
X17097Y177723D01*
X17497D01*
X17097Y178123D01*
X17497Y178523D01*
X17097D01*
X16697Y178923D01*
X16297Y178523D01*
X15897D01*
X16297Y178123D01*
X15897Y177723D01*
X16297D01*
X16697Y177323D01*
X40191Y107789D02*
Y107389D01*
X40990D01*
Y107789D01*
X41390D01*
Y108589D01*
X40990D01*
Y108989D01*
X40191D01*
Y108589D01*
X39790D01*
Y107789D01*
X40191D01*
Y159521D02*
Y159121D01*
X40990D01*
Y159521D01*
X41390D01*
Y160321D01*
X40990D01*
Y160721D01*
X40191D01*
Y160321D01*
X39790D01*
Y159521D01*
X40191D01*
X54685Y119476D02*
X55085Y119876D01*
X55485D01*
X55085Y120276D01*
X55485Y120676D01*
X55085D01*
X54685Y121076D01*
X54285Y120676D01*
X53885D01*
X54285Y120276D01*
X53885Y119876D01*
X54285D01*
X54685Y119476D01*
Y129318D02*
X55085Y129718D01*
X55485D01*
X55085Y130118D01*
X55485Y130518D01*
X55085D01*
X54685Y130918D01*
X54285Y130518D01*
X53885D01*
X54285Y130118D01*
X53885Y129718D01*
X54285D01*
X54685Y129318D01*
Y137192D02*
X55085Y137592D01*
X55485D01*
X55085Y137992D01*
X55485Y138392D01*
X55085D01*
X54685Y138792D01*
X54285Y138392D01*
X53885D01*
X54285Y137992D01*
X53885Y137592D01*
X54285D01*
X54685Y137192D01*
Y147035D02*
X55085Y147435D01*
X55485D01*
X55085Y147835D01*
X55485Y148235D01*
X55085D01*
X54685Y148635D01*
X54285Y148235D01*
X53885D01*
X54285Y147835D01*
X53885Y147435D01*
X54285D01*
X54685Y147035D01*
X350307Y57633D02*
X349507Y59233D01*
X351107D01*
X350307Y57633D01*
Y65507D02*
X349507Y67107D01*
X351107D01*
X350307Y65507D01*
X279307Y193633D02*
X278507Y195233D01*
X280107D01*
X279307Y193633D01*
Y201507D02*
X278507Y203107D01*
X280107D01*
X279307Y201507D01*
X349287Y105283D02*
X348487Y106883D01*
X350087D01*
X349287Y105283D01*
X329602D02*
X328802Y106883D01*
X330402D01*
X329602Y105283D01*
X59300Y239603D02*
X59700D01*
X60100Y240003D01*
X60500Y239603D01*
X60900D01*
Y240003D01*
X60500Y240403D01*
X60900Y240803D01*
Y241203D01*
X60500D01*
X60100Y240803D01*
X59700Y241203D01*
X59300D01*
Y240803D01*
X59700Y240403D01*
X59300Y240003D01*
Y239603D01*
X13434D02*
X13834D01*
X14234Y240003D01*
X14634Y239603D01*
X15034D01*
Y240003D01*
X14634Y240403D01*
X15034Y240803D01*
Y241203D01*
X14634D01*
X14234Y240803D01*
X13834Y241203D01*
X13434D01*
Y240803D01*
X13834Y240403D01*
X13434Y240003D01*
Y239603D01*
D45*
X315107Y45433D02*
G03*
X315107Y45433I-800J0D01*
G01*
Y35433D02*
G03*
X315107Y35433I-800J0D01*
G01*
Y25433D02*
G03*
X315107Y25433I-800J0D01*
G01*
X316107Y226433D02*
G03*
X316107Y226433I-800J0D01*
G01*
Y216433D02*
G03*
X316107Y216433I-800J0D01*
G01*
Y206433D02*
G03*
X316107Y206433I-800J0D01*
G01*
M02*
