G04 Layer_Color=16711935*
%FSLAX25Y25*%
%MOIN*%
G70*
G01*
G75*
%ADD30R,0.08674X0.08674*%
%ADD31C,0.08674*%
%ADD32R,0.08674X0.08674*%
%ADD33C,0.07099*%
%ADD34R,0.07099X0.07099*%
%ADD35C,0.05524*%
%ADD36R,0.05524X0.05524*%
%ADD37R,0.05524X0.05524*%
%ADD38C,0.06800*%
%ADD39C,0.13400*%
%ADD40C,0.09855*%
%ADD41R,0.08674X0.06800*%
%ADD42C,0.06706*%
%ADD43R,0.06706X0.06706*%
D30*
X285433Y57874D02*
D03*
D31*
Y16693D02*
D03*
X342717Y216433D02*
D03*
X101225Y185528D02*
D03*
Y67027D02*
D03*
X16697Y218123D02*
D03*
Y198123D02*
D03*
Y178123D02*
D03*
D32*
X383898Y216433D02*
D03*
D33*
X314307Y45433D02*
D03*
Y35433D02*
D03*
X315307Y226433D02*
D03*
Y216433D02*
D03*
D34*
X314307Y25433D02*
D03*
X315307Y206433D02*
D03*
D35*
X329307Y164433D02*
D03*
X279187Y228753D02*
D03*
X350307Y27433D02*
D03*
Y58433D02*
D03*
X279307Y202307D02*
D03*
X349287Y106083D02*
D03*
D36*
X348992Y164433D02*
D03*
X329602Y106083D02*
D03*
D37*
X279187Y220879D02*
D03*
X350307Y35307D02*
D03*
Y66307D02*
D03*
X279307Y194433D02*
D03*
D38*
X275307Y75433D02*
D03*
Y95433D02*
D03*
Y115433D02*
D03*
Y135433D02*
D03*
X219724Y87028D02*
D03*
Y165527D02*
D03*
X16107Y48653D02*
D03*
Y68653D02*
D03*
Y88653D02*
D03*
D39*
X383307Y30433D02*
D03*
X263307Y50433D02*
D03*
Y160433D02*
D03*
X58307Y30433D02*
D03*
Y220433D02*
D03*
D40*
X40591Y108189D02*
D03*
Y159921D02*
D03*
D41*
X54685Y120276D02*
D03*
Y130118D02*
D03*
Y137992D02*
D03*
Y147835D02*
D03*
D42*
X60100Y240403D02*
D03*
D43*
X14234D02*
D03*
M02*
