M48
;Layer_Color=9474304
;FILE_FORMAT=2:5
INCH,LZ
;TYPE=PLATED
T1F00S00C0.02756
T2F00S00C0.03000
T3F00S00C0.03543
T4F00S00C0.03937
T5F00S00C0.04724
T6F00S00C0.07874
T7F00S00C0.12600
%
T01
X0350307Y0027433
Y0035307
Y0058433
Y0066307
X0349287Y0106083
X0329602
X0329307Y0164433
X0348992
X0279307Y0194433
Y0202307
X0279187Y0220879
Y0228753
T02
X0219724Y0087028
X0275307Y0095433
Y0075433
Y0115433
Y0135433
X0219724Y0165527
X0101225Y0185528
X0054685Y0147835
Y0137992
Y0130118
Y0120276
X0016107Y0088653
Y0068653
Y0048653
X0101225Y0067027
X0016697Y0178123
Y0198123
Y0218123
T03
X0014234Y0240403
X00601
T04
X0314307Y0025433
Y0035433
Y0045433
X0315307Y0206433
Y0216433
Y0226433
T05
X0285433Y0016693
Y0057874
X0342717Y0216433
X0383898
T06
X0040591Y0108189
Y0159921
T07
X0058307Y0030433
X0383307
X0263307Y0050433
Y0160433
X0058307Y0220433
M30
