G04 Layer_Color=2752767*
%FSLAX25Y25*%
%MOIN*%
G70*
G01*
G75*
%ADD31C,0.00200*%
%ADD32C,0.00267*%
D31*
X-800Y-800D02*
Y800D01*
X800D01*
Y-800D01*
X-800D01*
X-10800D02*
Y800D01*
X-9200D01*
Y-800D01*
X-10800D01*
X-20800D02*
Y800D01*
X-19200D01*
Y-800D01*
X-20800D01*
X-30800D02*
Y800D01*
X-29200D01*
Y-800D01*
X-30800D01*
X-40800D02*
Y800D01*
X-39200D01*
Y-800D01*
X-40800D01*
X-130800Y44200D02*
Y45800D01*
X-129200D01*
Y44200D01*
X-130800D01*
X-110800Y64200D02*
Y65800D01*
X-109200D01*
Y64200D01*
X-110800D01*
Y24200D02*
Y25800D01*
X-109200D01*
Y24200D01*
X-110800D01*
X20700Y-25800D02*
Y-24200D01*
X22300D01*
Y-25800D01*
X20700D01*
Y-10800D02*
Y-9200D01*
X22300D01*
Y-10800D01*
X20700D01*
X40700Y-18300D02*
Y-16700D01*
X42300D01*
Y-18300D01*
X40700D01*
X-81174Y-25800D02*
Y-24200D01*
X-79574D01*
Y-25800D01*
X-81174D01*
X-73300D02*
Y-24200D01*
X-71700D01*
Y-25800D01*
X-73300D01*
X-50800Y-15800D02*
Y-14200D01*
X-49200D01*
Y-15800D01*
X-50800D01*
Y-25800D02*
Y-24200D01*
X-49200D01*
Y-25800D01*
X-50800D01*
X-145000Y4200D02*
X-145800Y5800D01*
X-144200D01*
X-145000Y4200D01*
Y-10800D02*
X-145800Y-9200D01*
X-144200D01*
X-145000Y-10800D01*
X-50800Y4200D02*
Y5800D01*
X-49200D01*
Y4200D01*
X-50800D01*
Y14200D02*
Y15800D01*
X-49200D01*
Y14200D01*
X-50800D01*
X0Y19200D02*
X-800Y20800D01*
X800D01*
X0Y19200D01*
X-10000D02*
X-10800Y20800D01*
X-9200D01*
X-10000Y19200D01*
X-20000D02*
X-20800Y20800D01*
X-19200D01*
X-20000Y19200D01*
X-30000D02*
X-30800Y20800D01*
X-29200D01*
X-30000Y19200D01*
X-40000D02*
X-40800Y20800D01*
X-39200D01*
X-40000Y19200D01*
X-120000Y84200D02*
X-120800Y85800D01*
X-119200D01*
X-120000Y84200D01*
X-110000D02*
X-110800Y85800D01*
X-109200D01*
X-110000Y84200D01*
X-100000D02*
X-100800Y85800D01*
X-99200D01*
X-100000Y84200D01*
X-90000D02*
X-90800Y85800D01*
X-89200D01*
X-90000Y84200D01*
X-145000Y-45800D02*
X-144600Y-45400D01*
X-144200D01*
X-144600Y-45000D01*
X-144200Y-44600D01*
X-144600D01*
X-145000Y-44200D01*
X-145400Y-44600D01*
X-145800D01*
X-145400Y-45000D01*
X-145800Y-45400D01*
X-145400D01*
X-145000Y-45800D01*
X60000Y-25800D02*
X60400Y-25400D01*
X60800D01*
X60400Y-25000D01*
X60800Y-24600D01*
X60400D01*
X60000Y-24200D01*
X59600Y-24600D01*
X59200D01*
X59600Y-25000D01*
X59200Y-25400D01*
X59600D01*
X60000Y-25800D01*
Y84200D02*
X60400Y84600D01*
X60800D01*
X60400Y85000D01*
X60800Y85400D01*
X60400D01*
X60000Y85800D01*
X59600Y85400D01*
X59200D01*
X59600Y85000D01*
X59200Y84600D01*
X59600D01*
X60000Y84200D01*
X-140000Y144200D02*
X-139600Y144600D01*
X-139200D01*
X-139600Y145000D01*
X-139200Y145400D01*
X-139600D01*
X-140000Y145800D01*
X-140400Y145400D01*
X-140800D01*
X-140400Y145000D01*
X-140800Y144600D01*
X-140400D01*
X-140000Y144200D01*
X-40000Y74200D02*
X-40800Y75800D01*
X-39200D01*
X-40000Y74200D01*
X-30000D02*
X-30800Y75800D01*
X-29200D01*
X-30000Y74200D01*
X-90000Y54200D02*
X-90800Y55800D01*
X-89200D01*
X-90000Y54200D01*
X-100000D02*
X-100800Y55800D01*
X-99200D01*
X-100000Y54200D01*
X-40000Y44200D02*
X-40800Y45800D01*
X-39200D01*
X-40000Y44200D01*
X-30000D02*
X-30800Y45800D01*
X-29200D01*
X-30000Y44200D01*
X-40000Y54200D02*
X-40800Y55800D01*
X-39200D01*
X-40000Y54200D01*
X-30000D02*
X-30800Y55800D01*
X-29200D01*
X-30000Y54200D01*
X-90000Y74200D02*
X-90800Y75800D01*
X-89200D01*
X-90000Y74200D01*
X-100000D02*
X-100800Y75800D01*
X-99200D01*
X-100000Y74200D01*
X-40000Y64200D02*
X-40800Y65800D01*
X-39200D01*
X-40000Y64200D01*
X-30000D02*
X-30800Y65800D01*
X-29200D01*
X-30000Y64200D01*
X-50000Y114200D02*
X-50800Y115800D01*
X-49200D01*
X-50000Y114200D01*
X-60000D02*
X-60800Y115800D01*
X-59200D01*
X-60000Y114200D01*
X-70000D02*
X-70800Y115800D01*
X-69200D01*
X-70000Y114200D01*
X-80000D02*
X-80800Y115800D01*
X-79200D01*
X-80000Y114200D01*
X-50000Y94200D02*
X-50800Y95800D01*
X-49200D01*
X-50000Y94200D01*
X-60000D02*
X-60800Y95800D01*
X-59200D01*
X-60000Y94200D01*
X-70000D02*
X-70800Y95800D01*
X-69200D01*
X-70000Y94200D01*
X-80000D02*
X-80800Y95800D01*
X-79200D01*
X-80000Y94200D01*
X-120000Y114200D02*
X-120800Y115800D01*
X-119200D01*
X-120000Y114200D01*
X-110000D02*
X-110800Y115800D01*
X-109200D01*
X-110000Y114200D01*
X-100000D02*
X-100800Y115800D01*
X-99200D01*
X-100000Y114200D01*
X-90000D02*
X-90800Y115800D01*
X-89200D01*
X-90000Y114200D01*
X-80000Y84200D02*
X-80800Y85800D01*
X-79200D01*
X-80000Y84200D01*
X-70000D02*
X-70800Y85800D01*
X-69200D01*
X-70000Y84200D01*
X-60000D02*
X-60800Y85800D01*
X-59200D01*
X-60000Y84200D01*
X-50000D02*
X-50800Y85800D01*
X-49200D01*
X-50000Y84200D01*
X-130000Y94200D02*
X-130800Y95800D01*
X-129200D01*
X-130000Y94200D01*
Y84200D02*
X-130800Y85800D01*
X-129200D01*
X-130000Y84200D01*
Y124200D02*
X-130800Y125800D01*
X-129200D01*
X-130000Y124200D01*
X-110000D02*
X-110800Y125800D01*
X-109200D01*
X-110000Y124200D01*
X-120000D02*
X-120800Y125800D01*
X-119200D01*
X-120000Y124200D01*
X-80000Y104200D02*
X-80800Y105800D01*
X-79200D01*
X-80000Y104200D01*
X-70000D02*
X-70800Y105800D01*
X-69200D01*
X-70000Y104200D01*
X-60000D02*
X-60800Y105800D01*
X-59200D01*
X-60000Y104200D01*
X-50000D02*
X-50800Y105800D01*
X-49200D01*
X-50000Y104200D01*
X-110000Y1700D02*
X-110800Y3300D01*
X-109200D01*
X-110000Y1700D01*
X-90000D02*
X-90800Y3300D01*
X-89200D01*
X-90000Y1700D01*
X0Y9200D02*
X-800Y10800D01*
X800D01*
X0Y9200D01*
X-10000D02*
X-10800Y10800D01*
X-9200D01*
X-10000Y9200D01*
X-20000D02*
X-20800Y10800D01*
X-19200D01*
X-20000Y9200D01*
X-30000D02*
X-30800Y10800D01*
X-29200D01*
X-30000Y9200D01*
X-40000D02*
X-40800Y10800D01*
X-39200D01*
X-40000Y9200D01*
X-20000Y-45800D02*
X-20800Y-44200D01*
X-19200D01*
X-20000Y-45800D01*
X-50000D02*
X-50800Y-44200D01*
X-49200D01*
X-50000Y-45800D01*
X-60000D02*
X-60800Y-44200D01*
X-59200D01*
X-60000Y-45800D01*
X-70000D02*
X-70800Y-44200D01*
X-69200D01*
X-70000Y-45800D01*
X-80000D02*
X-80800Y-44200D01*
X-79200D01*
X-80000Y-45800D01*
X-90000D02*
X-90800Y-44200D01*
X-89200D01*
X-90000Y-45800D01*
X-30000D02*
X-30800Y-44200D01*
X-29200D01*
X-30000Y-45800D01*
X-40000D02*
X-40800Y-44200D01*
X-39200D01*
X-40000Y-45800D01*
X0D02*
X-800Y-44200D01*
X800D01*
X0Y-45800D01*
X10000D02*
X9200Y-44200D01*
X10800D01*
X10000Y-45800D01*
X20000D02*
X19200Y-44200D01*
X20800D01*
X20000Y-45800D01*
X30000D02*
X29200Y-44200D01*
X30800D01*
X30000Y-45800D01*
X40000D02*
X39200Y-44200D01*
X40800D01*
X40000Y-45800D01*
X50000D02*
X49200Y-44200D01*
X50800D01*
X50000Y-45800D01*
Y144200D02*
X49200Y145800D01*
X50800D01*
X50000Y144200D01*
X20000D02*
X19200Y145800D01*
X20800D01*
X20000Y144200D01*
X10000D02*
X9200Y145800D01*
X10800D01*
X10000Y144200D01*
X0D02*
X-800Y145800D01*
X800D01*
X0Y144200D01*
X-10000D02*
X-10800Y145800D01*
X-9200D01*
X-10000Y144200D01*
X-20000D02*
X-20800Y145800D01*
X-19200D01*
X-20000Y144200D01*
X40000D02*
X39200Y145800D01*
X40800D01*
X40000Y144200D01*
X30000D02*
X29200Y145800D01*
X30800D01*
X30000Y144200D01*
X-36000D02*
X-36800Y145800D01*
X-35200D01*
X-36000Y144200D01*
X-46000D02*
X-46800Y145800D01*
X-45200D01*
X-46000Y144200D01*
X-56000D02*
X-56800Y145800D01*
X-55200D01*
X-56000Y144200D01*
X-66000D02*
X-66800Y145800D01*
X-65200D01*
X-66000Y144200D01*
X-76000D02*
X-76800Y145800D01*
X-75200D01*
X-76000Y144200D01*
X-86000D02*
X-86800Y145800D01*
X-85200D01*
X-86000Y144200D01*
X-96000D02*
X-96800Y145800D01*
X-95200D01*
X-96000Y144200D01*
X-106000D02*
X-106800Y145800D01*
X-105200D01*
X-106000Y144200D01*
X-116000D02*
X-116800Y145800D01*
X-115200D01*
X-116000Y144200D01*
X-126000D02*
X-126800Y145800D01*
X-125200D01*
X-126000Y144200D01*
X59751Y44003D02*
X60151Y44803D01*
X59751Y45603D01*
X60551Y45203D01*
X61351Y45603D01*
X60951Y44803D01*
X61351Y44003D01*
X60551Y44403D01*
X59751Y44003D01*
X49751D02*
X50151Y44803D01*
X49751Y45603D01*
X50551Y45203D01*
X51351Y45603D01*
X50951Y44803D01*
X51351Y44003D01*
X50551Y44403D01*
X49751Y44003D01*
X59751Y54003D02*
X60151Y54803D01*
X59751Y55603D01*
X60551Y55203D01*
X61351Y55603D01*
X60951Y54803D01*
X61351Y54003D01*
X60551Y54403D01*
X59751Y54003D01*
X49751D02*
X50151Y54803D01*
X49751Y55603D01*
X50551Y55203D01*
X51351Y55603D01*
X50951Y54803D01*
X51351Y54003D01*
X50551Y54403D01*
X49751Y54003D01*
X59751Y64003D02*
X60151Y64803D01*
X59751Y65603D01*
X60551Y65203D01*
X61351Y65603D01*
X60951Y64803D01*
X61351Y64003D01*
X60551Y64403D01*
X59751Y64003D01*
X49751D02*
X50151Y64803D01*
X49751Y65603D01*
X50551Y65203D01*
X51351Y65603D01*
X50951Y64803D01*
X51351Y64003D01*
X50551Y64403D01*
X49751Y64003D01*
X-189865Y52167D02*
Y51767D01*
X-189065D01*
Y52167D01*
X-188665D01*
Y52967D01*
X-189065D01*
Y53367D01*
X-189865D01*
Y52967D01*
X-190265D01*
Y52167D01*
X-189865D01*
X-150495D02*
Y51767D01*
X-149695D01*
Y52167D01*
X-149294D01*
Y52967D01*
X-149695D01*
Y53367D01*
X-150495D01*
Y52967D01*
X-150894D01*
Y52167D01*
X-150495D01*
X-156400Y37600D02*
Y37200D01*
X-155600D01*
Y37600D01*
X-155200D01*
Y38400D01*
X-155600D01*
Y38800D01*
X-156400D01*
Y38400D01*
X-156800D01*
Y37600D01*
X-156400D01*
X9200Y-25800D02*
X9600D01*
X10000Y-25400D01*
X10400Y-25800D01*
X10800D01*
Y-25400D01*
X10400Y-25000D01*
X10800Y-24600D01*
Y-24200D01*
X10400D01*
X10000Y-24600D01*
X9600Y-24200D01*
X9200D01*
Y-24600D01*
X9600Y-25000D01*
X9200Y-25400D01*
Y-25800D01*
X-30800D02*
X-30400D01*
X-30000Y-25400D01*
X-29600Y-25800D01*
X-29200D01*
Y-25400D01*
X-29600Y-25000D01*
X-29200Y-24600D01*
Y-24200D01*
X-29600D01*
X-30000Y-24600D01*
X-30400Y-24200D01*
X-30800D01*
Y-24600D01*
X-30400Y-25000D01*
X-30800Y-25400D01*
Y-25800D01*
X-153300Y-25800D02*
X-152900D01*
X-152500Y-25400D01*
X-152100Y-25800D01*
X-151700D01*
Y-25400D01*
X-152100Y-25000D01*
X-151700Y-24600D01*
Y-24200D01*
X-152100D01*
X-152500Y-24600D01*
X-152900Y-24200D01*
X-153300D01*
Y-24600D01*
X-152900Y-25000D01*
X-153300Y-25400D01*
Y-25800D01*
X-113300D02*
X-112900D01*
X-112500Y-25400D01*
X-112100Y-25800D01*
X-111700D01*
Y-25400D01*
X-112100Y-25000D01*
X-111700Y-24600D01*
Y-24200D01*
X-112100D01*
X-112500Y-24600D01*
X-112900Y-24200D01*
X-113300D01*
Y-24600D01*
X-112900Y-25000D01*
X-113300Y-25400D01*
Y-25800D01*
X-93300Y-10800D02*
X-92900D01*
X-92500Y-10400D01*
X-92100Y-10800D01*
X-91700D01*
Y-10400D01*
X-92100Y-10000D01*
X-91700Y-9600D01*
Y-9200D01*
X-92100D01*
X-92500Y-9600D01*
X-92900Y-9200D01*
X-93300D01*
Y-9600D01*
X-92900Y-10000D01*
X-93300Y-10400D01*
Y-10800D01*
X-133300D02*
X-132900D01*
X-132500Y-10400D01*
X-132100Y-10800D01*
X-131700D01*
Y-10400D01*
X-132100Y-10000D01*
X-131700Y-9600D01*
Y-9200D01*
X-132100D01*
X-132500Y-9600D01*
X-132900Y-9200D01*
X-133300D01*
Y-9600D01*
X-132900Y-10000D01*
X-133300Y-10400D01*
Y-10800D01*
X-80000Y64200D02*
X-80800Y65800D01*
X-79200D01*
X-80000Y64200D01*
Y54200D02*
X-80800Y55800D01*
X-79200D01*
X-80000Y54200D01*
Y44200D02*
X-80800Y45800D01*
X-79200D01*
X-80000Y44200D01*
X-50000D02*
X-50800Y45800D01*
X-49200D01*
X-50000Y44200D01*
Y54200D02*
X-50800Y55800D01*
X-49200D01*
X-50000Y54200D01*
Y64200D02*
X-50800Y65800D01*
X-49200D01*
X-50000Y64200D01*
X-80000Y74200D02*
X-80800Y75800D01*
X-79200D01*
X-80000Y74200D01*
X-50000D02*
X-50800Y75800D01*
X-49200D01*
X-50000Y74200D01*
X-100000Y44200D02*
X-100800Y45800D01*
X-99200D01*
X-100000Y44200D01*
X-30000Y84200D02*
X-30800Y85800D01*
X-29200D01*
X-30000Y84200D01*
X-50800Y24200D02*
Y25800D01*
X-49200D01*
Y24200D01*
X-50800D01*
X-100000Y-25800D02*
X-100800Y-24200D01*
X-99200D01*
X-100000Y-25800D01*
X-90000Y64200D02*
X-90800Y65800D01*
X-89200D01*
X-90000Y64200D01*
X-100000Y64200D02*
X-100800Y65800D01*
X-99200D01*
X-100000Y64200D01*
X-90000Y104200D02*
X-90800Y105800D01*
X-89200D01*
X-90000Y104200D01*
X-100000D02*
X-100800Y105800D01*
X-99200D01*
X-100000Y104200D01*
X-110000D02*
X-110800Y105800D01*
X-109200D01*
X-110000Y104200D01*
X-120000D02*
X-120800Y105800D01*
X-119200D01*
X-120000Y104200D01*
X-90000Y94200D02*
X-90800Y95800D01*
X-89200D01*
X-90000Y94200D01*
X-100000D02*
X-100800Y95800D01*
X-99200D01*
X-100000Y94200D01*
X-110000D02*
X-110800Y95800D01*
X-109200D01*
X-110000Y94200D01*
X-120000D02*
X-120800Y95800D01*
X-119200D01*
X-120000Y94200D01*
X-126000Y134200D02*
X-126800Y135800D01*
X-125200D01*
X-126000Y134200D01*
X-116000D02*
X-116800Y135800D01*
X-115200D01*
X-116000Y134200D01*
X-106000D02*
X-106800Y135800D01*
X-105200D01*
X-106000Y134200D01*
X-96000D02*
X-96800Y135800D01*
X-95200D01*
X-96000Y134200D01*
X-86000D02*
X-86800Y135800D01*
X-85200D01*
X-86000Y134200D01*
X-76000D02*
X-76800Y135800D01*
X-75200D01*
X-76000Y134200D01*
X-66000D02*
X-66800Y135800D01*
X-65200D01*
X-66000Y134200D01*
X-56000D02*
X-56800Y135800D01*
X-55200D01*
X-56000Y134200D01*
X-46000D02*
X-46800Y135800D01*
X-45200D01*
X-46000Y134200D01*
X-36000D02*
X-36800Y135800D01*
X-35200D01*
X-36000Y134200D01*
X-20000D02*
X-20800Y135800D01*
X-19200D01*
X-20000Y134200D01*
X-10000D02*
X-10800Y135800D01*
X-9200D01*
X-10000Y134200D01*
X0D02*
X-800Y135800D01*
X800D01*
X0Y134200D01*
X10000D02*
X9200Y135800D01*
X10800D01*
X10000Y134200D01*
X20000D02*
X19200Y135800D01*
X20800D01*
X20000Y134200D01*
X30000D02*
X29200Y135800D01*
X30800D01*
X30000Y134200D01*
X40000D02*
X39200Y135800D01*
X40800D01*
X40000Y134200D01*
X50000D02*
X49200Y135800D01*
X50800D01*
X50000Y134200D01*
X-50800Y-5800D02*
Y-4200D01*
X-49200D01*
Y-5800D01*
X-50800D01*
Y34200D02*
Y35800D01*
X-49200D01*
Y34200D01*
X-50800D01*
X-100800Y124200D02*
Y125800D01*
X-99200D01*
Y124200D01*
X-100800D01*
X-90800D02*
Y125800D01*
X-89200D01*
Y124200D01*
X-90800D01*
X-80800D02*
Y125800D01*
X-79200D01*
Y124200D01*
X-80800D01*
X-70800D02*
Y125800D01*
X-69200D01*
Y124200D01*
X-70800D01*
X-60800D02*
Y125800D01*
X-59200D01*
Y124200D01*
X-60800D01*
X-50800D02*
Y125800D01*
X-49200D01*
Y124200D01*
X-50800D01*
X-195800Y150000D02*
X-195000Y150800D01*
X-194200Y150000D01*
X-195000Y149200D01*
X-195800Y150000D01*
Y130000D02*
X-195000Y130800D01*
X-194200Y130000D01*
X-195000Y129200D01*
X-195800Y130000D01*
Y110000D02*
X-195000Y110800D01*
X-194200Y110000D01*
X-195000Y109200D01*
X-195800Y110000D01*
Y90000D02*
X-195000Y90800D01*
X-194200Y90000D01*
X-195000Y89200D01*
X-195800Y90000D01*
Y70000D02*
X-195000Y70800D01*
X-194200Y70000D01*
X-195000Y69200D01*
X-195800Y70000D01*
Y35000D02*
X-195000Y35800D01*
X-194200Y35000D01*
X-195000Y34200D01*
X-195800Y35000D01*
Y15000D02*
X-195000Y15800D01*
X-194200Y15000D01*
X-195000Y14200D01*
X-195800Y15000D01*
Y-5000D02*
X-195000Y-4200D01*
X-194200Y-5000D01*
X-195000Y-5800D01*
X-195800Y-5000D01*
Y-27500D02*
X-195000Y-26700D01*
X-194200Y-27500D01*
X-195000Y-28300D01*
X-195800Y-27500D01*
Y-50000D02*
X-195000Y-49200D01*
X-194200Y-50000D01*
X-195000Y-50800D01*
X-195800Y-50000D01*
X-175800D02*
X-175000Y-49200D01*
X-174200Y-50000D01*
X-175000Y-50800D01*
X-175800Y-50000D01*
X-155800D02*
X-155000Y-49200D01*
X-154200Y-50000D01*
X-155000Y-50800D01*
X-155800Y-50000D01*
X-135800D02*
X-135000Y-49200D01*
X-134200Y-50000D01*
X-135000Y-50800D01*
X-135800Y-50000D01*
X-115800D02*
X-115000Y-49200D01*
X-114200Y-50000D01*
X-115000Y-50800D01*
X-115800Y-50000D01*
X-158300Y-32500D02*
X-157500Y-31700D01*
X-156700Y-32500D01*
X-157500Y-33300D01*
X-158300Y-32500D01*
X-138300Y5000D02*
X-137500Y5800D01*
X-136700Y5000D01*
X-137500Y4200D01*
X-138300Y5000D01*
X-85800Y-7500D02*
X-85000Y-6700D01*
X-84200Y-7500D01*
X-85000Y-8300D01*
X-85800Y-7500D01*
X-60800Y-5000D02*
X-60000Y-4200D01*
X-59200Y-5000D01*
X-60000Y-5800D01*
X-60800Y-5000D01*
X-100800Y35000D02*
X-100000Y35800D01*
X-99200Y35000D01*
X-100000Y34200D01*
X-100800Y35000D01*
X-140800Y85000D02*
X-140000Y85800D01*
X-139200Y85000D01*
X-140000Y84200D01*
X-140800Y85000D01*
Y95000D02*
X-140000Y95800D01*
X-139200Y95000D01*
X-140000Y94200D01*
X-140800Y95000D01*
Y125000D02*
X-140000Y125800D01*
X-139200Y125000D01*
X-140000Y124200D01*
X-140800Y125000D01*
Y115000D02*
X-140000Y115800D01*
X-139200Y115000D01*
X-140000Y114200D01*
X-140800Y115000D01*
X-60800Y5000D02*
X-60000Y5800D01*
X-59200Y5000D01*
X-60000Y4200D01*
X-60800Y5000D01*
Y15000D02*
X-60000Y15800D01*
X-59200Y15000D01*
X-60000Y14200D01*
X-60800Y15000D01*
X-40800Y30000D02*
X-40000Y30800D01*
X-39200Y30000D01*
X-40000Y29200D01*
X-40800Y30000D01*
Y37500D02*
X-40000Y38300D01*
X-39200Y37500D01*
X-40000Y36700D01*
X-40800Y37500D01*
X59200Y145000D02*
X60000Y145800D01*
X60800Y145000D01*
X60000Y144200D01*
X59200Y145000D01*
X64200Y125000D02*
X65000Y125800D01*
X65800Y125000D01*
X65000Y124200D01*
X64200Y125000D01*
Y105000D02*
X65000Y105800D01*
X65800Y105000D01*
X65000Y104200D01*
X64200Y105000D01*
Y35000D02*
X65000Y35800D01*
X65800Y35000D01*
X65000Y34200D01*
X64200Y35000D01*
Y15000D02*
X65000Y15800D01*
X65800Y15000D01*
X65000Y14200D01*
X64200Y15000D01*
Y-5000D02*
X65000Y-4200D01*
X65800Y-5000D01*
X65000Y-5800D01*
X64200Y-5000D01*
Y-40000D02*
X65000Y-39200D01*
X65800Y-40000D01*
X65000Y-40800D01*
X64200Y-40000D01*
X-158300Y-15000D02*
X-157500Y-14200D01*
X-156700Y-15000D01*
X-157500Y-15800D01*
X-158300Y-15000D01*
X-40800Y85000D02*
X-40000Y85800D01*
X-39200Y85000D01*
X-40000Y84200D01*
X-40800Y85000D01*
X-65800Y77500D02*
X-65000Y78300D01*
X-64200Y77500D01*
X-65000Y76700D01*
X-65800Y77500D01*
X-153300Y0D02*
X-152500Y800D01*
X-151700Y0D01*
X-152500Y-800D01*
X-153300Y0D01*
X-90800Y-17500D02*
X-90000Y-16700D01*
X-89200Y-17500D01*
X-90000Y-18300D01*
X-90800Y-17500D01*
X-188280Y-47946D02*
Y-46346D01*
X-186680D01*
Y-47946D01*
X-188280D01*
X-187880Y-47546D02*
Y-46746D01*
X-187080D01*
Y-47546D01*
X-187880D01*
X-183280Y-37946D02*
Y-36346D01*
X-181680D01*
Y-37946D01*
X-183280D01*
X-182880Y-37546D02*
Y-36746D01*
X-182080D01*
Y-37546D01*
X-182880D01*
X-183280Y-17946D02*
Y-16346D01*
X-181680D01*
Y-17946D01*
X-183280D01*
X-182880Y-17546D02*
Y-16746D01*
X-182080D01*
Y-17546D01*
X-182880D01*
X-183280Y22054D02*
Y23654D01*
X-181680D01*
Y22054D01*
X-183280D01*
X-182880Y22454D02*
Y23254D01*
X-182080D01*
Y22454D01*
X-182880D01*
X-188280Y32054D02*
Y33654D01*
X-186680D01*
Y32054D01*
X-188280D01*
X-187880Y32454D02*
Y33254D01*
X-187080D01*
Y32454D01*
X-187880D01*
X-183280Y42054D02*
Y43654D01*
X-181680D01*
Y42054D01*
X-183280D01*
X-182880Y42454D02*
Y43254D01*
X-182080D01*
Y42454D01*
X-182880D01*
X-183280Y62054D02*
Y63654D01*
X-181680D01*
Y62054D01*
X-183280D01*
X-182880Y62454D02*
Y63254D01*
X-182080D01*
Y62454D01*
X-182880D01*
X-188280Y72054D02*
Y73654D01*
X-186680D01*
Y72054D01*
X-188280D01*
X-187880Y72454D02*
Y73254D01*
X-187080D01*
Y72454D01*
X-187880D01*
X-183280Y82054D02*
Y83654D01*
X-181680D01*
Y82054D01*
X-183280D01*
X-182880Y82454D02*
Y83254D01*
X-182080D01*
Y82454D01*
X-182880D01*
X-188280Y92054D02*
Y93654D01*
X-186680D01*
Y92054D01*
X-188280D01*
X-187880Y92454D02*
Y93254D01*
X-187080D01*
Y92454D01*
X-187880D01*
X-183280Y102054D02*
Y103654D01*
X-181680D01*
Y102054D01*
X-183280D01*
X-182880Y102454D02*
Y103254D01*
X-182080D01*
Y102454D01*
X-182880D01*
X-188280Y112054D02*
Y113654D01*
X-186680D01*
Y112054D01*
X-188280D01*
X-187880Y112454D02*
Y113254D01*
X-187080D01*
Y112454D01*
X-187880D01*
X-183280Y122054D02*
Y123654D01*
X-181680D01*
Y122054D01*
X-183280D01*
X-182880Y122454D02*
Y123254D01*
X-182080D01*
Y122454D01*
X-182880D01*
X-188280Y132054D02*
Y133654D01*
X-186680D01*
Y132054D01*
X-188280D01*
X-187880Y132454D02*
Y133254D01*
X-187080D01*
Y132454D01*
X-187880D01*
X-183280Y142054D02*
Y143654D01*
X-181680D01*
Y142054D01*
X-183280D01*
X-182880Y142454D02*
Y143254D01*
X-182080D01*
Y142454D01*
X-182880D01*
X-178280Y-47946D02*
Y-46346D01*
X-176680D01*
Y-47946D01*
X-178280D01*
X-177880Y-47546D02*
Y-46746D01*
X-177080D01*
Y-47546D01*
X-177880D01*
X-173280Y-37946D02*
Y-36346D01*
X-171680D01*
Y-37946D01*
X-173280D01*
X-172880Y-37546D02*
Y-36746D01*
X-172080D01*
Y-37546D01*
X-172880D01*
X-173280Y-17946D02*
Y-16346D01*
X-171680D01*
Y-17946D01*
X-173280D01*
X-172880Y-17546D02*
Y-16746D01*
X-172080D01*
Y-17546D01*
X-172880D01*
X-173280Y2054D02*
Y3654D01*
X-171680D01*
Y2054D01*
X-173280D01*
X-172880Y2454D02*
Y3254D01*
X-172080D01*
Y2454D01*
X-172880D01*
X-173280Y22054D02*
Y23654D01*
X-171680D01*
Y22054D01*
X-173280D01*
X-172880Y22454D02*
Y23254D01*
X-172080D01*
Y22454D01*
X-172880D01*
X-178280Y32054D02*
Y33654D01*
X-176680D01*
Y32054D01*
X-178280D01*
X-177880Y32454D02*
Y33254D01*
X-177080D01*
Y32454D01*
X-177880D01*
X-173280Y42054D02*
Y43654D01*
X-171680D01*
Y42054D01*
X-173280D01*
X-172880Y42454D02*
Y43254D01*
X-172080D01*
Y42454D01*
X-172880D01*
X-178280Y52054D02*
Y53654D01*
X-176680D01*
Y52054D01*
X-178280D01*
X-177880Y52454D02*
Y53254D01*
X-177080D01*
Y52454D01*
X-177880D01*
X-173280Y62054D02*
Y63654D01*
X-171680D01*
Y62054D01*
X-173280D01*
X-172880Y62454D02*
Y63254D01*
X-172080D01*
Y62454D01*
X-172880D01*
X-178280Y72054D02*
Y73654D01*
X-176680D01*
Y72054D01*
X-178280D01*
X-177880Y72454D02*
Y73254D01*
X-177080D01*
Y72454D01*
X-177880D01*
X-173280Y82054D02*
Y83654D01*
X-171680D01*
Y82054D01*
X-173280D01*
X-172880Y82454D02*
Y83254D01*
X-172080D01*
Y82454D01*
X-172880D01*
X-178280Y92054D02*
Y93654D01*
X-176680D01*
Y92054D01*
X-178280D01*
X-177880Y92454D02*
Y93254D01*
X-177080D01*
Y92454D01*
X-177880D01*
X-173280Y102054D02*
Y103654D01*
X-171680D01*
Y102054D01*
X-173280D01*
X-172880Y102454D02*
Y103254D01*
X-172080D01*
Y102454D01*
X-172880D01*
X-178280Y112054D02*
Y113654D01*
X-176680D01*
Y112054D01*
X-178280D01*
X-177880Y112454D02*
Y113254D01*
X-177080D01*
Y112454D01*
X-177880D01*
X-173280Y122054D02*
Y123654D01*
X-171680D01*
Y122054D01*
X-173280D01*
X-172880Y122454D02*
Y123254D01*
X-172080D01*
Y122454D01*
X-172880D01*
X-178280Y132054D02*
Y133654D01*
X-176680D01*
Y132054D01*
X-178280D01*
X-177880Y132454D02*
Y133254D01*
X-177080D01*
Y132454D01*
X-177880D01*
X-173280Y142054D02*
Y143654D01*
X-171680D01*
Y142054D01*
X-173280D01*
X-172880Y142454D02*
Y143254D01*
X-172080D01*
Y142454D01*
X-172880D01*
X-168280Y-47946D02*
Y-46346D01*
X-166680D01*
Y-47946D01*
X-168280D01*
X-167880Y-47546D02*
Y-46746D01*
X-167080D01*
Y-47546D01*
X-167880D01*
X-163280Y-37946D02*
Y-36346D01*
X-161680D01*
Y-37946D01*
X-163280D01*
X-162880Y-37546D02*
Y-36746D01*
X-162080D01*
Y-37546D01*
X-162880D01*
X-168280Y-27946D02*
Y-26346D01*
X-166680D01*
Y-27946D01*
X-168280D01*
X-167880Y-27546D02*
Y-26746D01*
X-167080D01*
Y-27546D01*
X-167880D01*
X-163280Y-17946D02*
Y-16346D01*
X-161680D01*
Y-17946D01*
X-163280D01*
X-162880Y-17546D02*
Y-16746D01*
X-162080D01*
Y-17546D01*
X-162880D01*
X-163280Y2054D02*
Y3654D01*
X-161680D01*
Y2054D01*
X-163280D01*
X-162880Y2454D02*
Y3254D01*
X-162080D01*
Y2454D01*
X-162880D01*
X-163280Y22054D02*
Y23654D01*
X-161680D01*
Y22054D01*
X-163280D01*
X-162880Y22454D02*
Y23254D01*
X-162080D01*
Y22454D01*
X-162880D01*
X-168280Y32054D02*
Y33654D01*
X-166680D01*
Y32054D01*
X-168280D01*
X-167880Y32454D02*
Y33254D01*
X-167080D01*
Y32454D01*
X-167880D01*
X-168280Y52054D02*
Y53654D01*
X-166680D01*
Y52054D01*
X-168280D01*
X-167880Y52454D02*
Y53254D01*
X-167080D01*
Y52454D01*
X-167880D01*
X-163280Y62054D02*
Y63654D01*
X-161680D01*
Y62054D01*
X-163280D01*
X-162880Y62454D02*
Y63254D01*
X-162080D01*
Y62454D01*
X-162880D01*
X-168280Y72054D02*
Y73654D01*
X-166680D01*
Y72054D01*
X-168280D01*
X-167880Y72454D02*
Y73254D01*
X-167080D01*
Y72454D01*
X-167880D01*
X-163280Y82054D02*
Y83654D01*
X-161680D01*
Y82054D01*
X-163280D01*
X-162880Y82454D02*
Y83254D01*
X-162080D01*
Y82454D01*
X-162880D01*
X-168280Y92054D02*
Y93654D01*
X-166680D01*
Y92054D01*
X-168280D01*
X-167880Y92454D02*
Y93254D01*
X-167080D01*
Y92454D01*
X-167880D01*
X-163280Y102054D02*
Y103654D01*
X-161680D01*
Y102054D01*
X-163280D01*
X-162880Y102454D02*
Y103254D01*
X-162080D01*
Y102454D01*
X-162880D01*
X-168280Y112054D02*
Y113654D01*
X-166680D01*
Y112054D01*
X-168280D01*
X-167880Y112454D02*
Y113254D01*
X-167080D01*
Y112454D01*
X-167880D01*
X-163280Y122054D02*
Y123654D01*
X-161680D01*
Y122054D01*
X-163280D01*
X-162880Y122454D02*
Y123254D01*
X-162080D01*
Y122454D01*
X-162880D01*
X-168280Y132054D02*
Y133654D01*
X-166680D01*
Y132054D01*
X-168280D01*
X-167880Y132454D02*
Y133254D01*
X-167080D01*
Y132454D01*
X-167880D01*
X-163280Y142054D02*
Y143654D01*
X-161680D01*
Y142054D01*
X-163280D01*
X-162880Y142454D02*
Y143254D01*
X-162080D01*
Y142454D01*
X-162880D01*
X-158280Y-47946D02*
Y-46346D01*
X-156680D01*
Y-47946D01*
X-158280D01*
X-157880Y-47546D02*
Y-46746D01*
X-157080D01*
Y-47546D01*
X-157880D01*
X-153280Y-37946D02*
Y-36346D01*
X-151680D01*
Y-37946D01*
X-153280D01*
X-152880Y-37546D02*
Y-36746D01*
X-152080D01*
Y-37546D01*
X-152880D01*
X-158280Y-27946D02*
Y-26346D01*
X-156680D01*
Y-27946D01*
X-158280D01*
X-157880Y-27546D02*
Y-26746D01*
X-157080D01*
Y-27546D01*
X-157880D01*
X-153280Y-17946D02*
Y-16346D01*
X-151680D01*
Y-17946D01*
X-153280D01*
X-152880Y-17546D02*
Y-16746D01*
X-152080D01*
Y-17546D01*
X-152880D01*
X-153280Y22054D02*
Y23654D01*
X-151680D01*
Y22054D01*
X-153280D01*
X-152880Y22454D02*
Y23254D01*
X-152080D01*
Y22454D01*
X-152880D01*
X-153280Y62054D02*
Y63654D01*
X-151680D01*
Y62054D01*
X-153280D01*
X-152880Y62454D02*
Y63254D01*
X-152080D01*
Y62454D01*
X-152880D01*
X-158280Y72054D02*
Y73654D01*
X-156680D01*
Y72054D01*
X-158280D01*
X-157880Y72454D02*
Y73254D01*
X-157080D01*
Y72454D01*
X-157880D01*
X-153280Y82054D02*
Y83654D01*
X-151680D01*
Y82054D01*
X-153280D01*
X-152880Y82454D02*
Y83254D01*
X-152080D01*
Y82454D01*
X-152880D01*
X-158280Y92054D02*
Y93654D01*
X-156680D01*
Y92054D01*
X-158280D01*
X-157880Y92454D02*
Y93254D01*
X-157080D01*
Y92454D01*
X-157880D01*
X-153280Y102054D02*
Y103654D01*
X-151680D01*
Y102054D01*
X-153280D01*
X-152880Y102454D02*
Y103254D01*
X-152080D01*
Y102454D01*
X-152880D01*
X-158280Y112054D02*
Y113654D01*
X-156680D01*
Y112054D01*
X-158280D01*
X-157880Y112454D02*
Y113254D01*
X-157080D01*
Y112454D01*
X-157880D01*
X-153280Y122054D02*
Y123654D01*
X-151680D01*
Y122054D01*
X-153280D01*
X-152880Y122454D02*
Y123254D01*
X-152080D01*
Y122454D01*
X-152880D01*
X-158280Y132054D02*
Y133654D01*
X-156680D01*
Y132054D01*
X-158280D01*
X-157880Y132454D02*
Y133254D01*
X-157080D01*
Y132454D01*
X-157880D01*
X-153280Y142054D02*
Y143654D01*
X-151680D01*
Y142054D01*
X-153280D01*
X-152880Y142454D02*
Y143254D01*
X-152080D01*
Y142454D01*
X-152880D01*
X-148280Y-27946D02*
Y-26346D01*
X-146680D01*
Y-27946D01*
X-148280D01*
X-147880Y-27546D02*
Y-26746D01*
X-147080D01*
Y-27546D01*
X-147880D01*
X-143280Y-17946D02*
Y-16346D01*
X-141680D01*
Y-17946D01*
X-143280D01*
X-142880Y-17546D02*
Y-16746D01*
X-142080D01*
Y-17546D01*
X-142880D01*
X-143280Y22054D02*
Y23654D01*
X-141680D01*
Y22054D01*
X-143280D01*
X-142880Y22454D02*
Y23254D01*
X-142080D01*
Y22454D01*
X-142880D01*
X-148280Y32054D02*
Y33654D01*
X-146680D01*
Y32054D01*
X-148280D01*
X-147880Y32454D02*
Y33254D01*
X-147080D01*
Y32454D01*
X-147880D01*
X-143280Y42054D02*
Y43654D01*
X-141680D01*
Y42054D01*
X-143280D01*
X-142880Y42454D02*
Y43254D01*
X-142080D01*
Y42454D01*
X-142880D01*
X-143280Y62054D02*
Y63654D01*
X-141680D01*
Y62054D01*
X-143280D01*
X-142880Y62454D02*
Y63254D01*
X-142080D01*
Y62454D01*
X-142880D01*
X-148280Y72054D02*
Y73654D01*
X-146680D01*
Y72054D01*
X-148280D01*
X-147880Y72454D02*
Y73254D01*
X-147080D01*
Y72454D01*
X-147880D01*
X-143280Y82054D02*
Y83654D01*
X-141680D01*
Y82054D01*
X-143280D01*
X-142880Y82454D02*
Y83254D01*
X-142080D01*
Y82454D01*
X-142880D01*
X-148280Y92054D02*
Y93654D01*
X-146680D01*
Y92054D01*
X-148280D01*
X-147880Y92454D02*
Y93254D01*
X-147080D01*
Y92454D01*
X-147880D01*
X-143280Y102054D02*
Y103654D01*
X-141680D01*
Y102054D01*
X-143280D01*
X-142880Y102454D02*
Y103254D01*
X-142080D01*
Y102454D01*
X-142880D01*
X-148280Y112054D02*
Y113654D01*
X-146680D01*
Y112054D01*
X-148280D01*
X-147880Y112454D02*
Y113254D01*
X-147080D01*
Y112454D01*
X-147880D01*
X-143280Y122054D02*
Y123654D01*
X-141680D01*
Y122054D01*
X-143280D01*
X-142880Y122454D02*
Y123254D01*
X-142080D01*
Y122454D01*
X-142880D01*
X-148280Y132054D02*
Y133654D01*
X-146680D01*
Y132054D01*
X-148280D01*
X-147880Y132454D02*
Y133254D01*
X-147080D01*
Y132454D01*
X-147880D01*
X-133280Y-37946D02*
Y-36346D01*
X-131680D01*
Y-37946D01*
X-133280D01*
X-132880Y-37546D02*
Y-36746D01*
X-132080D01*
Y-37546D01*
X-132880D01*
X-138280Y-27946D02*
Y-26346D01*
X-136680D01*
Y-27946D01*
X-138280D01*
X-137880Y-27546D02*
Y-26746D01*
X-137080D01*
Y-27546D01*
X-137880D01*
X-133280Y-17946D02*
Y-16346D01*
X-131680D01*
Y-17946D01*
X-133280D01*
X-132880Y-17546D02*
Y-16746D01*
X-132080D01*
Y-17546D01*
X-132880D01*
X-133280Y2054D02*
Y3654D01*
X-131680D01*
Y2054D01*
X-133280D01*
X-132880Y2454D02*
Y3254D01*
X-132080D01*
Y2454D01*
X-132880D01*
X-133280Y22054D02*
Y23654D01*
X-131680D01*
Y22054D01*
X-133280D01*
X-132880Y22454D02*
Y23254D01*
X-132080D01*
Y22454D01*
X-132880D01*
X-138280Y32054D02*
Y33654D01*
X-136680D01*
Y32054D01*
X-138280D01*
X-137880Y32454D02*
Y33254D01*
X-137080D01*
Y32454D01*
X-137880D01*
X-138280Y52054D02*
Y53654D01*
X-136680D01*
Y52054D01*
X-138280D01*
X-137880Y52454D02*
Y53254D01*
X-137080D01*
Y52454D01*
X-137880D01*
X-133280Y62054D02*
Y63654D01*
X-131680D01*
Y62054D01*
X-133280D01*
X-132880Y62454D02*
Y63254D01*
X-132080D01*
Y62454D01*
X-132880D01*
X-138280Y72054D02*
Y73654D01*
X-136680D01*
Y72054D01*
X-138280D01*
X-137880Y72454D02*
Y73254D01*
X-137080D01*
Y72454D01*
X-137880D01*
X-138280Y92054D02*
Y93654D01*
X-136680D01*
Y92054D01*
X-138280D01*
X-137880Y92454D02*
Y93254D01*
X-137080D01*
Y92454D01*
X-137880D01*
X-133280Y102054D02*
Y103654D01*
X-131680D01*
Y102054D01*
X-133280D01*
X-132880Y102454D02*
Y103254D01*
X-132080D01*
Y102454D01*
X-132880D01*
X-138280Y112054D02*
Y113654D01*
X-136680D01*
Y112054D01*
X-138280D01*
X-137880Y112454D02*
Y113254D01*
X-137080D01*
Y112454D01*
X-137880D01*
X-138280Y132054D02*
Y133654D01*
X-136680D01*
Y132054D01*
X-138280D01*
X-137880Y132454D02*
Y133254D01*
X-137080D01*
Y132454D01*
X-137880D01*
X-128280Y-47946D02*
Y-46346D01*
X-126680D01*
Y-47946D01*
X-128280D01*
X-127880Y-47546D02*
Y-46746D01*
X-127080D01*
Y-47546D01*
X-127880D01*
X-123280Y-37946D02*
Y-36346D01*
X-121680D01*
Y-37946D01*
X-123280D01*
X-122880Y-37546D02*
Y-36746D01*
X-122080D01*
Y-37546D01*
X-122880D01*
X-128280Y-27946D02*
Y-26346D01*
X-126680D01*
Y-27946D01*
X-128280D01*
X-127880Y-27546D02*
Y-26746D01*
X-127080D01*
Y-27546D01*
X-127880D01*
X-123280Y-17946D02*
Y-16346D01*
X-121680D01*
Y-17946D01*
X-123280D01*
X-122880Y-17546D02*
Y-16746D01*
X-122080D01*
Y-17546D01*
X-122880D01*
X-128280Y-7946D02*
Y-6346D01*
X-126680D01*
Y-7946D01*
X-128280D01*
X-127880Y-7546D02*
Y-6746D01*
X-127080D01*
Y-7546D01*
X-127880D01*
X-123280Y2054D02*
Y3654D01*
X-121680D01*
Y2054D01*
X-123280D01*
X-122880Y2454D02*
Y3254D01*
X-122080D01*
Y2454D01*
X-122880D01*
X-123280Y22054D02*
Y23654D01*
X-121680D01*
Y22054D01*
X-123280D01*
X-122880Y22454D02*
Y23254D01*
X-122080D01*
Y22454D01*
X-122880D01*
X-128280Y32054D02*
Y33654D01*
X-126680D01*
Y32054D01*
X-128280D01*
X-127880Y32454D02*
Y33254D01*
X-127080D01*
Y32454D01*
X-127880D01*
X-123280Y42054D02*
Y43654D01*
X-121680D01*
Y42054D01*
X-123280D01*
X-122880Y42454D02*
Y43254D01*
X-122080D01*
Y42454D01*
X-122880D01*
X-128280Y52054D02*
Y53654D01*
X-126680D01*
Y52054D01*
X-128280D01*
X-127880Y52454D02*
Y53254D01*
X-127080D01*
Y52454D01*
X-127880D01*
X-123280Y62054D02*
Y63654D01*
X-121680D01*
Y62054D01*
X-123280D01*
X-122880Y62454D02*
Y63254D01*
X-122080D01*
Y62454D01*
X-122880D01*
X-128280Y112054D02*
Y113654D01*
X-126680D01*
Y112054D01*
X-128280D01*
X-127880Y112454D02*
Y113254D01*
X-127080D01*
Y112454D01*
X-127880D01*
X-118280Y-47946D02*
Y-46346D01*
X-116680D01*
Y-47946D01*
X-118280D01*
X-117880Y-47546D02*
Y-46746D01*
X-117080D01*
Y-47546D01*
X-117880D01*
X-113280Y-37946D02*
Y-36346D01*
X-111680D01*
Y-37946D01*
X-113280D01*
X-112880Y-37546D02*
Y-36746D01*
X-112080D01*
Y-37546D01*
X-112880D01*
X-118280Y-27946D02*
Y-26346D01*
X-116680D01*
Y-27946D01*
X-118280D01*
X-117880Y-27546D02*
Y-26746D01*
X-117080D01*
Y-27546D01*
X-117880D01*
X-113280Y-17946D02*
Y-16346D01*
X-111680D01*
Y-17946D01*
X-113280D01*
X-112880Y-17546D02*
Y-16746D01*
X-112080D01*
Y-17546D01*
X-112880D01*
X-118280Y-7946D02*
Y-6346D01*
X-116680D01*
Y-7946D01*
X-118280D01*
X-117880Y-7546D02*
Y-6746D01*
X-117080D01*
Y-7546D01*
X-117880D01*
X-118280Y32054D02*
Y33654D01*
X-116680D01*
Y32054D01*
X-118280D01*
X-117880Y32454D02*
Y33254D01*
X-117080D01*
Y32454D01*
X-117880D01*
X-113280Y42054D02*
Y43654D01*
X-111680D01*
Y42054D01*
X-113280D01*
X-112880Y42454D02*
Y43254D01*
X-112080D01*
Y42454D01*
X-112880D01*
X-118280Y52054D02*
Y53654D01*
X-116680D01*
Y52054D01*
X-118280D01*
X-117880Y52454D02*
Y53254D01*
X-117080D01*
Y52454D01*
X-117880D01*
X-118280Y72054D02*
Y73654D01*
X-116680D01*
Y72054D01*
X-118280D01*
X-117880Y72454D02*
Y73254D01*
X-117080D01*
Y72454D01*
X-117880D01*
X-108280Y-47946D02*
Y-46346D01*
X-106680D01*
Y-47946D01*
X-108280D01*
X-107880Y-47546D02*
Y-46746D01*
X-107080D01*
Y-47546D01*
X-107880D01*
X-103280Y-37946D02*
Y-36346D01*
X-101680D01*
Y-37946D01*
X-103280D01*
X-102880Y-37546D02*
Y-36746D01*
X-102080D01*
Y-37546D01*
X-102880D01*
X-103280Y-17946D02*
Y-16346D01*
X-101680D01*
Y-17946D01*
X-103280D01*
X-102880Y-17546D02*
Y-16746D01*
X-102080D01*
Y-17546D01*
X-102880D01*
X-103280Y2054D02*
Y3654D01*
X-101680D01*
Y2054D01*
X-103280D01*
X-102880Y2454D02*
Y3254D01*
X-102080D01*
Y2454D01*
X-102880D01*
X-103280Y22054D02*
Y23654D01*
X-101680D01*
Y22054D01*
X-103280D01*
X-102880Y22454D02*
Y23254D01*
X-102080D01*
Y22454D01*
X-102880D01*
X-108280Y32054D02*
Y33654D01*
X-106680D01*
Y32054D01*
X-108280D01*
X-107880Y32454D02*
Y33254D01*
X-107080D01*
Y32454D01*
X-107880D01*
X-108280Y52054D02*
Y53654D01*
X-106680D01*
Y52054D01*
X-108280D01*
X-107880Y52454D02*
Y53254D01*
X-107080D01*
Y52454D01*
X-107880D01*
X-108280Y72054D02*
Y73654D01*
X-106680D01*
Y72054D01*
X-108280D01*
X-107880Y72454D02*
Y73254D01*
X-107080D01*
Y72454D01*
X-107880D01*
X-98280Y-47946D02*
Y-46346D01*
X-96680D01*
Y-47946D01*
X-98280D01*
X-97880Y-47546D02*
Y-46746D01*
X-97080D01*
Y-47546D01*
X-97880D01*
X-93280Y-37946D02*
Y-36346D01*
X-91680D01*
Y-37946D01*
X-93280D01*
X-92880Y-37546D02*
Y-36746D01*
X-92080D01*
Y-37546D01*
X-92880D01*
X-98280Y-7946D02*
Y-6346D01*
X-96680D01*
Y-7946D01*
X-98280D01*
X-97880Y-7546D02*
Y-6746D01*
X-97080D01*
Y-7546D01*
X-97880D01*
X-93280Y22054D02*
Y23654D01*
X-91680D01*
Y22054D01*
X-93280D01*
X-92880Y22454D02*
Y23254D01*
X-92080D01*
Y22454D01*
X-92880D01*
X-98280Y32054D02*
Y33654D01*
X-96680D01*
Y32054D01*
X-98280D01*
X-97880Y32454D02*
Y33254D01*
X-97080D01*
Y32454D01*
X-97880D01*
X-93280Y42054D02*
Y43654D01*
X-91680D01*
Y42054D01*
X-93280D01*
X-92880Y42454D02*
Y43254D01*
X-92080D01*
Y42454D01*
X-92880D01*
X-83280Y-37946D02*
Y-36346D01*
X-81680D01*
Y-37946D01*
X-83280D01*
X-82880Y-37546D02*
Y-36746D01*
X-82080D01*
Y-37546D01*
X-82880D01*
X-83280Y-17946D02*
Y-16346D01*
X-81680D01*
Y-17946D01*
X-83280D01*
X-82880Y-17546D02*
Y-16746D01*
X-82080D01*
Y-17546D01*
X-82880D01*
X-83280Y22054D02*
Y23654D01*
X-81680D01*
Y22054D01*
X-83280D01*
X-82880Y22454D02*
Y23254D01*
X-82080D01*
Y22454D01*
X-82880D01*
X-88280Y32054D02*
Y33654D01*
X-86680D01*
Y32054D01*
X-88280D01*
X-87880Y32454D02*
Y33254D01*
X-87080D01*
Y32454D01*
X-87880D01*
X-73280Y-37946D02*
Y-36346D01*
X-71680D01*
Y-37946D01*
X-73280D01*
X-72880Y-37546D02*
Y-36746D01*
X-72080D01*
Y-37546D01*
X-72880D01*
X-73280Y-17946D02*
Y-16346D01*
X-71680D01*
Y-17946D01*
X-73280D01*
X-72880Y-17546D02*
Y-16746D01*
X-72080D01*
Y-17546D01*
X-72880D01*
X-78280Y-7946D02*
Y-6346D01*
X-76680D01*
Y-7946D01*
X-78280D01*
X-77880Y-7546D02*
Y-6746D01*
X-77080D01*
Y-7546D01*
X-77880D01*
X-73280Y2054D02*
Y3654D01*
X-71680D01*
Y2054D01*
X-73280D01*
X-72880Y2454D02*
Y3254D01*
X-72080D01*
Y2454D01*
X-72880D01*
X-78280Y32054D02*
Y33654D01*
X-76680D01*
Y32054D01*
X-78280D01*
X-77880Y32454D02*
Y33254D01*
X-77080D01*
Y32454D01*
X-77880D01*
X-73280Y42054D02*
Y43654D01*
X-71680D01*
Y42054D01*
X-73280D01*
X-72880Y42454D02*
Y43254D01*
X-72080D01*
Y42454D01*
X-72880D01*
X-73280Y62054D02*
Y63654D01*
X-71680D01*
Y62054D01*
X-73280D01*
X-72880Y62454D02*
Y63254D01*
X-72080D01*
Y62454D01*
X-72880D01*
X-63280Y-37946D02*
Y-36346D01*
X-61680D01*
Y-37946D01*
X-63280D01*
X-62880Y-37546D02*
Y-36746D01*
X-62080D01*
Y-37546D01*
X-62880D01*
X-63280Y-17946D02*
Y-16346D01*
X-61680D01*
Y-17946D01*
X-63280D01*
X-62880Y-17546D02*
Y-16746D01*
X-62080D01*
Y-17546D01*
X-62880D01*
X-68280Y-7946D02*
Y-6346D01*
X-66680D01*
Y-7946D01*
X-68280D01*
X-67880Y-7546D02*
Y-6746D01*
X-67080D01*
Y-7546D01*
X-67880D01*
X-63280Y2054D02*
Y3654D01*
X-61680D01*
Y2054D01*
X-63280D01*
X-62880Y2454D02*
Y3254D01*
X-62080D01*
Y2454D01*
X-62880D01*
X-68280Y12054D02*
Y13654D01*
X-66680D01*
Y12054D01*
X-68280D01*
X-67880Y12454D02*
Y13254D01*
X-67080D01*
Y12454D01*
X-67880D01*
X-68280Y72054D02*
Y73654D01*
X-66680D01*
Y72054D01*
X-68280D01*
X-67880Y72454D02*
Y73254D01*
X-67080D01*
Y72454D01*
X-67880D01*
X-53280Y-37946D02*
Y-36346D01*
X-51680D01*
Y-37946D01*
X-53280D01*
X-52880Y-37546D02*
Y-36746D01*
X-52080D01*
Y-37546D01*
X-52880D01*
X-58280Y-7946D02*
Y-6346D01*
X-56680D01*
Y-7946D01*
X-58280D01*
X-57880Y-7546D02*
Y-6746D01*
X-57080D01*
Y-7546D01*
X-57880D01*
X-58280Y12054D02*
Y13654D01*
X-56680D01*
Y12054D01*
X-58280D01*
X-57880Y12454D02*
Y13254D01*
X-57080D01*
Y12454D01*
X-57880D01*
X-58280Y72054D02*
Y73654D01*
X-56680D01*
Y72054D01*
X-58280D01*
X-57880Y72454D02*
Y73254D01*
X-57080D01*
Y72454D01*
X-57880D01*
X-43280Y-37946D02*
Y-36346D01*
X-41680D01*
Y-37946D01*
X-43280D01*
X-42880Y-37546D02*
Y-36746D01*
X-42080D01*
Y-37546D01*
X-42880D01*
X-43280Y-17946D02*
Y-16346D01*
X-41680D01*
Y-17946D01*
X-43280D01*
X-42880Y-17546D02*
Y-16746D01*
X-42080D01*
Y-17546D01*
X-42880D01*
X-43280Y82054D02*
Y83654D01*
X-41680D01*
Y82054D01*
X-43280D01*
X-42880Y82454D02*
Y83254D01*
X-42080D01*
Y82454D01*
X-42880D01*
X-33280Y-37946D02*
Y-36346D01*
X-31680D01*
Y-37946D01*
X-33280D01*
X-32880Y-37546D02*
Y-36746D01*
X-32080D01*
Y-37546D01*
X-32880D01*
X-33280Y-17946D02*
Y-16346D01*
X-31680D01*
Y-17946D01*
X-33280D01*
X-32880Y-17546D02*
Y-16746D01*
X-32080D01*
Y-17546D01*
X-32880D01*
X-38280Y-7946D02*
Y-6346D01*
X-36680D01*
Y-7946D01*
X-38280D01*
X-37880Y-7546D02*
Y-6746D01*
X-37080D01*
Y-7546D01*
X-37880D01*
X-38280Y32054D02*
Y33654D01*
X-36680D01*
Y32054D01*
X-38280D01*
X-37880Y32454D02*
Y33254D01*
X-37080D01*
Y32454D01*
X-37880D01*
X-33280Y122054D02*
Y123654D01*
X-31680D01*
Y122054D01*
X-33280D01*
X-32880Y122454D02*
Y123254D01*
X-32080D01*
Y122454D01*
X-32880D01*
X-23280Y-37946D02*
Y-36346D01*
X-21680D01*
Y-37946D01*
X-23280D01*
X-22880Y-37546D02*
Y-36746D01*
X-22080D01*
Y-37546D01*
X-22880D01*
X-23280Y-17946D02*
Y-16346D01*
X-21680D01*
Y-17946D01*
X-23280D01*
X-22880Y-17546D02*
Y-16746D01*
X-22080D01*
Y-17546D01*
X-22880D01*
X-28280Y-7946D02*
Y-6346D01*
X-26680D01*
Y-7946D01*
X-28280D01*
X-27880Y-7546D02*
Y-6746D01*
X-27080D01*
Y-7546D01*
X-27880D01*
X-28280Y32054D02*
Y33654D01*
X-26680D01*
Y32054D01*
X-28280D01*
X-27880Y32454D02*
Y33254D01*
X-27080D01*
Y32454D01*
X-27880D01*
X-23280Y62054D02*
Y63654D01*
X-21680D01*
Y62054D01*
X-23280D01*
X-22880Y62454D02*
Y63254D01*
X-22080D01*
Y62454D01*
X-22880D01*
X-28280Y112054D02*
Y113654D01*
X-26680D01*
Y112054D01*
X-28280D01*
X-27880Y112454D02*
Y113254D01*
X-27080D01*
Y112454D01*
X-27880D01*
X-23280Y122054D02*
Y123654D01*
X-21680D01*
Y122054D01*
X-23280D01*
X-22880Y122454D02*
Y123254D01*
X-22080D01*
Y122454D01*
X-22880D01*
X-28280Y132054D02*
Y133654D01*
X-26680D01*
Y132054D01*
X-28280D01*
X-27880Y132454D02*
Y133254D01*
X-27080D01*
Y132454D01*
X-27880D01*
X-13280Y-37946D02*
Y-36346D01*
X-11680D01*
Y-37946D01*
X-13280D01*
X-12880Y-37546D02*
Y-36746D01*
X-12080D01*
Y-37546D01*
X-12880D01*
X-18280Y-27946D02*
Y-26346D01*
X-16680D01*
Y-27946D01*
X-18280D01*
X-17880Y-27546D02*
Y-26746D01*
X-17080D01*
Y-27546D01*
X-17880D01*
X-13280Y-17946D02*
Y-16346D01*
X-11680D01*
Y-17946D01*
X-13280D01*
X-12880Y-17546D02*
Y-16746D01*
X-12080D01*
Y-17546D01*
X-12880D01*
X-18280Y-7946D02*
Y-6346D01*
X-16680D01*
Y-7946D01*
X-18280D01*
X-17880Y-7546D02*
Y-6746D01*
X-17080D01*
Y-7546D01*
X-17880D01*
X-13280Y42054D02*
Y43654D01*
X-11680D01*
Y42054D01*
X-13280D01*
X-12880Y42454D02*
Y43254D01*
X-12080D01*
Y42454D01*
X-12880D01*
X-13280Y102054D02*
Y103654D01*
X-11680D01*
Y102054D01*
X-13280D01*
X-12880Y102454D02*
Y103254D01*
X-12080D01*
Y102454D01*
X-12880D01*
X-18280Y112054D02*
Y113654D01*
X-16680D01*
Y112054D01*
X-18280D01*
X-17880Y112454D02*
Y113254D01*
X-17080D01*
Y112454D01*
X-17880D01*
X-13280Y122054D02*
Y123654D01*
X-11680D01*
Y122054D01*
X-13280D01*
X-12880Y122454D02*
Y123254D01*
X-12080D01*
Y122454D01*
X-12880D01*
X-8280Y-47946D02*
Y-46346D01*
X-6680D01*
Y-47946D01*
X-8280D01*
X-7880Y-47546D02*
Y-46746D01*
X-7080D01*
Y-47546D01*
X-7880D01*
X-3280Y-37946D02*
Y-36346D01*
X-1680D01*
Y-37946D01*
X-3280D01*
X-2880Y-37546D02*
Y-36746D01*
X-2080D01*
Y-37546D01*
X-2880D01*
X-8280Y-27946D02*
Y-26346D01*
X-6680D01*
Y-27946D01*
X-8280D01*
X-7880Y-27546D02*
Y-26746D01*
X-7080D01*
Y-27546D01*
X-7880D01*
X-3280Y-17946D02*
Y-16346D01*
X-1680D01*
Y-17946D01*
X-3280D01*
X-2880Y-17546D02*
Y-16746D01*
X-2080D01*
Y-17546D01*
X-2880D01*
X-8280Y-7946D02*
Y-6346D01*
X-6680D01*
Y-7946D01*
X-8280D01*
X-7880Y-7546D02*
Y-6746D01*
X-7080D01*
Y-7546D01*
X-7880D01*
X-8280Y32054D02*
Y33654D01*
X-6680D01*
Y32054D01*
X-8280D01*
X-7880Y32454D02*
Y33254D01*
X-7080D01*
Y32454D01*
X-7880D01*
X-3280Y42054D02*
Y43654D01*
X-1680D01*
Y42054D01*
X-3280D01*
X-2880Y42454D02*
Y43254D01*
X-2080D01*
Y42454D01*
X-2880D01*
X-8280Y52054D02*
Y53654D01*
X-6680D01*
Y52054D01*
X-8280D01*
X-7880Y52454D02*
Y53254D01*
X-7080D01*
Y52454D01*
X-7880D01*
X-3280Y62054D02*
Y63654D01*
X-1680D01*
Y62054D01*
X-3280D01*
X-2880Y62454D02*
Y63254D01*
X-2080D01*
Y62454D01*
X-2880D01*
X-8280Y72054D02*
Y73654D01*
X-6680D01*
Y72054D01*
X-8280D01*
X-7880Y72454D02*
Y73254D01*
X-7080D01*
Y72454D01*
X-7880D01*
X-3280Y82054D02*
Y83654D01*
X-1680D01*
Y82054D01*
X-3280D01*
X-2880Y82454D02*
Y83254D01*
X-2080D01*
Y82454D01*
X-2880D01*
X-8280Y92054D02*
Y93654D01*
X-6680D01*
Y92054D01*
X-8280D01*
X-7880Y92454D02*
Y93254D01*
X-7080D01*
Y92454D01*
X-7880D01*
X-3280Y102054D02*
Y103654D01*
X-1680D01*
Y102054D01*
X-3280D01*
X-2880Y102454D02*
Y103254D01*
X-2080D01*
Y102454D01*
X-2880D01*
X-8280Y112054D02*
Y113654D01*
X-6680D01*
Y112054D01*
X-8280D01*
X-7880Y112454D02*
Y113254D01*
X-7080D01*
Y112454D01*
X-7880D01*
X-3280Y122054D02*
Y123654D01*
X-1680D01*
Y122054D01*
X-3280D01*
X-2880Y122454D02*
Y123254D01*
X-2080D01*
Y122454D01*
X-2880D01*
X6720Y-37946D02*
Y-36346D01*
X8320D01*
Y-37946D01*
X6720D01*
X7120Y-37546D02*
Y-36746D01*
X7920D01*
Y-37546D01*
X7120D01*
X1720Y-27946D02*
Y-26346D01*
X3320D01*
Y-27946D01*
X1720D01*
X2120Y-27546D02*
Y-26746D01*
X2920D01*
Y-27546D01*
X2120D01*
X6720Y-17946D02*
Y-16346D01*
X8320D01*
Y-17946D01*
X6720D01*
X7120Y-17546D02*
Y-16746D01*
X7920D01*
Y-17546D01*
X7120D01*
X1720Y-7946D02*
Y-6346D01*
X3320D01*
Y-7946D01*
X1720D01*
X2120Y-7546D02*
Y-6746D01*
X2920D01*
Y-7546D01*
X2120D01*
X6720Y2054D02*
Y3654D01*
X8320D01*
Y2054D01*
X6720D01*
X7120Y2454D02*
Y3254D01*
X7920D01*
Y2454D01*
X7120D01*
X6720Y22054D02*
Y23654D01*
X8320D01*
Y22054D01*
X6720D01*
X7120Y22454D02*
Y23254D01*
X7920D01*
Y22454D01*
X7120D01*
X1720Y32054D02*
Y33654D01*
X3320D01*
Y32054D01*
X1720D01*
X2120Y32454D02*
Y33254D01*
X2920D01*
Y32454D01*
X2120D01*
X6720Y42054D02*
Y43654D01*
X8320D01*
Y42054D01*
X6720D01*
X7120Y42454D02*
Y43254D01*
X7920D01*
Y42454D01*
X7120D01*
X1720Y52054D02*
Y53654D01*
X3320D01*
Y52054D01*
X1720D01*
X2120Y52454D02*
Y53254D01*
X2920D01*
Y52454D01*
X2120D01*
X6720Y62054D02*
Y63654D01*
X8320D01*
Y62054D01*
X6720D01*
X7120Y62454D02*
Y63254D01*
X7920D01*
Y62454D01*
X7120D01*
X1720Y72054D02*
Y73654D01*
X3320D01*
Y72054D01*
X1720D01*
X2120Y72454D02*
Y73254D01*
X2920D01*
Y72454D01*
X2120D01*
X6720Y82054D02*
Y83654D01*
X8320D01*
Y82054D01*
X6720D01*
X7120Y82454D02*
Y83254D01*
X7920D01*
Y82454D01*
X7120D01*
X1720Y92054D02*
Y93654D01*
X3320D01*
Y92054D01*
X1720D01*
X2120Y92454D02*
Y93254D01*
X2920D01*
Y92454D01*
X2120D01*
X6720Y102054D02*
Y103654D01*
X8320D01*
Y102054D01*
X6720D01*
X7120Y102454D02*
Y103254D01*
X7920D01*
Y102454D01*
X7120D01*
X1720Y112054D02*
Y113654D01*
X3320D01*
Y112054D01*
X1720D01*
X2120Y112454D02*
Y113254D01*
X2920D01*
Y112454D01*
X2120D01*
X6720Y122054D02*
Y123654D01*
X8320D01*
Y122054D01*
X6720D01*
X7120Y122454D02*
Y123254D01*
X7920D01*
Y122454D01*
X7120D01*
X16720Y-17946D02*
Y-16346D01*
X18320D01*
Y-17946D01*
X16720D01*
X17120Y-17546D02*
Y-16746D01*
X17920D01*
Y-17546D01*
X17120D01*
X16720Y2054D02*
Y3654D01*
X18320D01*
Y2054D01*
X16720D01*
X17120Y2454D02*
Y3254D01*
X17920D01*
Y2454D01*
X17120D01*
X11720Y12054D02*
Y13654D01*
X13320D01*
Y12054D01*
X11720D01*
X12120Y12454D02*
Y13254D01*
X12920D01*
Y12454D01*
X12120D01*
X16720Y22054D02*
Y23654D01*
X18320D01*
Y22054D01*
X16720D01*
X17120Y22454D02*
Y23254D01*
X17920D01*
Y22454D01*
X17120D01*
X11720Y32054D02*
Y33654D01*
X13320D01*
Y32054D01*
X11720D01*
X12120Y32454D02*
Y33254D01*
X12920D01*
Y32454D01*
X12120D01*
X16720Y42054D02*
Y43654D01*
X18320D01*
Y42054D01*
X16720D01*
X17120Y42454D02*
Y43254D01*
X17920D01*
Y42454D01*
X17120D01*
X11720Y52054D02*
Y53654D01*
X13320D01*
Y52054D01*
X11720D01*
X12120Y52454D02*
Y53254D01*
X12920D01*
Y52454D01*
X12120D01*
X16720Y62054D02*
Y63654D01*
X18320D01*
Y62054D01*
X16720D01*
X17120Y62454D02*
Y63254D01*
X17920D01*
Y62454D01*
X17120D01*
X11720Y72054D02*
Y73654D01*
X13320D01*
Y72054D01*
X11720D01*
X12120Y72454D02*
Y73254D01*
X12920D01*
Y72454D01*
X12120D01*
X16720Y82054D02*
Y83654D01*
X18320D01*
Y82054D01*
X16720D01*
X17120Y82454D02*
Y83254D01*
X17920D01*
Y82454D01*
X17120D01*
X11720Y92054D02*
Y93654D01*
X13320D01*
Y92054D01*
X11720D01*
X12120Y92454D02*
Y93254D01*
X12920D01*
Y92454D01*
X12120D01*
X16720Y102054D02*
Y103654D01*
X18320D01*
Y102054D01*
X16720D01*
X17120Y102454D02*
Y103254D01*
X17920D01*
Y102454D01*
X17120D01*
X11720Y112054D02*
Y113654D01*
X13320D01*
Y112054D01*
X11720D01*
X12120Y112454D02*
Y113254D01*
X12920D01*
Y112454D01*
X12120D01*
X16720Y122054D02*
Y123654D01*
X18320D01*
Y122054D01*
X16720D01*
X17120Y122454D02*
Y123254D01*
X17920D01*
Y122454D01*
X17120D01*
X26720Y-17946D02*
Y-16346D01*
X28320D01*
Y-17946D01*
X26720D01*
X27120Y-17546D02*
Y-16746D01*
X27920D01*
Y-17546D01*
X27120D01*
X26720Y2054D02*
Y3654D01*
X28320D01*
Y2054D01*
X26720D01*
X27120Y2454D02*
Y3254D01*
X27920D01*
Y2454D01*
X27120D01*
X21720Y12054D02*
Y13654D01*
X23320D01*
Y12054D01*
X21720D01*
X22120Y12454D02*
Y13254D01*
X22920D01*
Y12454D01*
X22120D01*
X26720Y22054D02*
Y23654D01*
X28320D01*
Y22054D01*
X26720D01*
X27120Y22454D02*
Y23254D01*
X27920D01*
Y22454D01*
X27120D01*
X21720Y32054D02*
Y33654D01*
X23320D01*
Y32054D01*
X21720D01*
X22120Y32454D02*
Y33254D01*
X22920D01*
Y32454D01*
X22120D01*
X26720Y42054D02*
Y43654D01*
X28320D01*
Y42054D01*
X26720D01*
X27120Y42454D02*
Y43254D01*
X27920D01*
Y42454D01*
X27120D01*
X21720Y52054D02*
Y53654D01*
X23320D01*
Y52054D01*
X21720D01*
X22120Y52454D02*
Y53254D01*
X22920D01*
Y52454D01*
X22120D01*
X26720Y62054D02*
Y63654D01*
X28320D01*
Y62054D01*
X26720D01*
X27120Y62454D02*
Y63254D01*
X27920D01*
Y62454D01*
X27120D01*
X21720Y72054D02*
Y73654D01*
X23320D01*
Y72054D01*
X21720D01*
X22120Y72454D02*
Y73254D01*
X22920D01*
Y72454D01*
X22120D01*
X26720Y82054D02*
Y83654D01*
X28320D01*
Y82054D01*
X26720D01*
X27120Y82454D02*
Y83254D01*
X27920D01*
Y82454D01*
X27120D01*
X21720Y92054D02*
Y93654D01*
X23320D01*
Y92054D01*
X21720D01*
X22120Y92454D02*
Y93254D01*
X22920D01*
Y92454D01*
X22120D01*
X26720Y102054D02*
Y103654D01*
X28320D01*
Y102054D01*
X26720D01*
X27120Y102454D02*
Y103254D01*
X27920D01*
Y102454D01*
X27120D01*
X21720Y112054D02*
Y113654D01*
X23320D01*
Y112054D01*
X21720D01*
X22120Y112454D02*
Y113254D01*
X22920D01*
Y112454D01*
X22120D01*
X26720Y122054D02*
Y123654D01*
X28320D01*
Y122054D01*
X26720D01*
X27120Y122454D02*
Y123254D01*
X27920D01*
Y122454D01*
X27120D01*
X36720Y-37946D02*
Y-36346D01*
X38320D01*
Y-37946D01*
X36720D01*
X37120Y-37546D02*
Y-36746D01*
X37920D01*
Y-37546D01*
X37120D01*
X31720Y-27946D02*
Y-26346D01*
X33320D01*
Y-27946D01*
X31720D01*
X32120Y-27546D02*
Y-26746D01*
X32920D01*
Y-27546D01*
X32120D01*
X31720Y-7946D02*
Y-6346D01*
X33320D01*
Y-7946D01*
X31720D01*
X32120Y-7546D02*
Y-6746D01*
X32920D01*
Y-7546D01*
X32120D01*
X36720Y2054D02*
Y3654D01*
X38320D01*
Y2054D01*
X36720D01*
X37120Y2454D02*
Y3254D01*
X37920D01*
Y2454D01*
X37120D01*
X31720Y12054D02*
Y13654D01*
X33320D01*
Y12054D01*
X31720D01*
X32120Y12454D02*
Y13254D01*
X32920D01*
Y12454D01*
X32120D01*
X36720Y22054D02*
Y23654D01*
X38320D01*
Y22054D01*
X36720D01*
X37120Y22454D02*
Y23254D01*
X37920D01*
Y22454D01*
X37120D01*
X31720Y32054D02*
Y33654D01*
X33320D01*
Y32054D01*
X31720D01*
X32120Y32454D02*
Y33254D01*
X32920D01*
Y32454D01*
X32120D01*
X36720Y42054D02*
Y43654D01*
X38320D01*
Y42054D01*
X36720D01*
X37120Y42454D02*
Y43254D01*
X37920D01*
Y42454D01*
X37120D01*
X31720Y52054D02*
Y53654D01*
X33320D01*
Y52054D01*
X31720D01*
X32120Y52454D02*
Y53254D01*
X32920D01*
Y52454D01*
X32120D01*
X36720Y62054D02*
Y63654D01*
X38320D01*
Y62054D01*
X36720D01*
X37120Y62454D02*
Y63254D01*
X37920D01*
Y62454D01*
X37120D01*
X31720Y72054D02*
Y73654D01*
X33320D01*
Y72054D01*
X31720D01*
X32120Y72454D02*
Y73254D01*
X32920D01*
Y72454D01*
X32120D01*
X36720Y82054D02*
Y83654D01*
X38320D01*
Y82054D01*
X36720D01*
X37120Y82454D02*
Y83254D01*
X37920D01*
Y82454D01*
X37120D01*
X31720Y92054D02*
Y93654D01*
X33320D01*
Y92054D01*
X31720D01*
X32120Y92454D02*
Y93254D01*
X32920D01*
Y92454D01*
X32120D01*
X36720Y102054D02*
Y103654D01*
X38320D01*
Y102054D01*
X36720D01*
X37120Y102454D02*
Y103254D01*
X37920D01*
Y102454D01*
X37120D01*
X31720Y112054D02*
Y113654D01*
X33320D01*
Y112054D01*
X31720D01*
X32120Y112454D02*
Y113254D01*
X32920D01*
Y112454D01*
X32120D01*
X36720Y122054D02*
Y123654D01*
X38320D01*
Y122054D01*
X36720D01*
X37120Y122454D02*
Y123254D01*
X37920D01*
Y122454D01*
X37120D01*
X46720Y-37946D02*
Y-36346D01*
X48320D01*
Y-37946D01*
X46720D01*
X47120Y-37546D02*
Y-36746D01*
X47920D01*
Y-37546D01*
X47120D01*
X46720Y-17946D02*
Y-16346D01*
X48320D01*
Y-17946D01*
X46720D01*
X47120Y-17546D02*
Y-16746D01*
X47920D01*
Y-17546D01*
X47120D01*
X41720Y-7946D02*
Y-6346D01*
X43320D01*
Y-7946D01*
X41720D01*
X42120Y-7546D02*
Y-6746D01*
X42920D01*
Y-7546D01*
X42120D01*
X46720Y2054D02*
Y3654D01*
X48320D01*
Y2054D01*
X46720D01*
X47120Y2454D02*
Y3254D01*
X47920D01*
Y2454D01*
X47120D01*
X41720Y12054D02*
Y13654D01*
X43320D01*
Y12054D01*
X41720D01*
X42120Y12454D02*
Y13254D01*
X42920D01*
Y12454D01*
X42120D01*
X46720Y22054D02*
Y23654D01*
X48320D01*
Y22054D01*
X46720D01*
X47120Y22454D02*
Y23254D01*
X47920D01*
Y22454D01*
X47120D01*
X41720Y32054D02*
Y33654D01*
X43320D01*
Y32054D01*
X41720D01*
X42120Y32454D02*
Y33254D01*
X42920D01*
Y32454D01*
X42120D01*
X41720Y52054D02*
Y53654D01*
X43320D01*
Y52054D01*
X41720D01*
X42120Y52454D02*
Y53254D01*
X42920D01*
Y52454D01*
X42120D01*
X41720Y72054D02*
Y73654D01*
X43320D01*
Y72054D01*
X41720D01*
X42120Y72454D02*
Y73254D01*
X42920D01*
Y72454D01*
X42120D01*
X46720Y82054D02*
Y83654D01*
X48320D01*
Y82054D01*
X46720D01*
X47120Y82454D02*
Y83254D01*
X47920D01*
Y82454D01*
X47120D01*
X41720Y92054D02*
Y93654D01*
X43320D01*
Y92054D01*
X41720D01*
X42120Y92454D02*
Y93254D01*
X42920D01*
Y92454D01*
X42120D01*
X46720Y102054D02*
Y103654D01*
X48320D01*
Y102054D01*
X46720D01*
X47120Y102454D02*
Y103254D01*
X47920D01*
Y102454D01*
X47120D01*
X41720Y112054D02*
Y113654D01*
X43320D01*
Y112054D01*
X41720D01*
X42120Y112454D02*
Y113254D01*
X42920D01*
Y112454D01*
X42120D01*
X46720Y122054D02*
Y123654D01*
X48320D01*
Y122054D01*
X46720D01*
X47120Y122454D02*
Y123254D01*
X47920D01*
Y122454D01*
X47120D01*
X56720Y-37946D02*
Y-36346D01*
X58320D01*
Y-37946D01*
X56720D01*
X57120Y-37546D02*
Y-36746D01*
X57920D01*
Y-37546D01*
X57120D01*
X51720Y-7946D02*
Y-6346D01*
X53320D01*
Y-7946D01*
X51720D01*
X52120Y-7546D02*
Y-6746D01*
X52920D01*
Y-7546D01*
X52120D01*
X56720Y2054D02*
Y3654D01*
X58320D01*
Y2054D01*
X56720D01*
X57120Y2454D02*
Y3254D01*
X57920D01*
Y2454D01*
X57120D01*
X51720Y12054D02*
Y13654D01*
X53320D01*
Y12054D01*
X51720D01*
X52120Y12454D02*
Y13254D01*
X52920D01*
Y12454D01*
X52120D01*
X56720Y22054D02*
Y23654D01*
X58320D01*
Y22054D01*
X56720D01*
X57120Y22454D02*
Y23254D01*
X57920D01*
Y22454D01*
X57120D01*
X51720Y32054D02*
Y33654D01*
X53320D01*
Y32054D01*
X51720D01*
X52120Y32454D02*
Y33254D01*
X52920D01*
Y32454D01*
X52120D01*
X51720Y72054D02*
Y73654D01*
X53320D01*
Y72054D01*
X51720D01*
X52120Y72454D02*
Y73254D01*
X52920D01*
Y72454D01*
X52120D01*
X51720Y92054D02*
Y93654D01*
X53320D01*
Y92054D01*
X51720D01*
X52120Y92454D02*
Y93254D01*
X52920D01*
Y92454D01*
X52120D01*
X56720Y102054D02*
Y103654D01*
X58320D01*
Y102054D01*
X56720D01*
X57120Y102454D02*
Y103254D01*
X57920D01*
Y102454D01*
X57120D01*
X51720Y112054D02*
Y113654D01*
X53320D01*
Y112054D01*
X51720D01*
X52120Y112454D02*
Y113254D01*
X52920D01*
Y112454D01*
X52120D01*
X56720Y122054D02*
Y123654D01*
X58320D01*
Y122054D01*
X56720D01*
X57120Y122454D02*
Y123254D01*
X57920D01*
Y122454D01*
X57120D01*
X56720Y142054D02*
Y143654D01*
X58320D01*
Y142054D01*
X56720D01*
X57120Y142454D02*
Y143254D01*
X57920D01*
Y142454D01*
X57120D01*
X61720Y-47946D02*
Y-46346D01*
X63320D01*
Y-47946D01*
X61720D01*
X62120Y-47546D02*
Y-46746D01*
X62920D01*
Y-47546D01*
X62120D01*
X61720Y-7946D02*
Y-6346D01*
X63320D01*
Y-7946D01*
X61720D01*
X62120Y-7546D02*
Y-6746D01*
X62920D01*
Y-7546D01*
X62120D01*
X61720Y12054D02*
Y13654D01*
X63320D01*
Y12054D01*
X61720D01*
X62120Y12454D02*
Y13254D01*
X62920D01*
Y12454D01*
X62120D01*
X61720Y32054D02*
Y33654D01*
X63320D01*
Y32054D01*
X61720D01*
X62120Y32454D02*
Y33254D01*
X62920D01*
Y32454D01*
X62120D01*
X61720Y72054D02*
Y73654D01*
X63320D01*
Y72054D01*
X61720D01*
X62120Y72454D02*
Y73254D01*
X62920D01*
Y72454D01*
X62120D01*
X61720Y112054D02*
Y113654D01*
X63320D01*
Y112054D01*
X61720D01*
X62120Y112454D02*
Y113254D01*
X62920D01*
Y112454D01*
X62120D01*
X61720Y132054D02*
Y133654D01*
X63320D01*
Y132054D01*
X61720D01*
X62120Y132454D02*
Y133254D01*
X62920D01*
Y132454D01*
X62120D01*
X-75800Y89200D02*
Y90800D01*
X-74200D01*
Y89200D01*
X-75800D01*
X-75400Y89600D02*
Y90400D01*
X-74600D01*
Y89600D01*
X-75400D01*
X-65800Y89200D02*
Y90800D01*
X-64200D01*
Y89200D01*
X-65800D01*
X-65400Y89600D02*
Y90400D01*
X-64600D01*
Y89600D01*
X-65400D01*
X-55800Y89200D02*
Y90800D01*
X-54200D01*
Y89200D01*
X-55800D01*
X-55400Y89600D02*
Y90400D01*
X-54600D01*
Y89600D01*
X-55400D01*
X-55800Y109200D02*
Y110800D01*
X-54200D01*
Y109200D01*
X-55800D01*
X-55400Y109600D02*
Y110400D01*
X-54600D01*
Y109600D01*
X-55400D01*
X-65800Y109200D02*
Y110800D01*
X-64200D01*
Y109200D01*
X-65800D01*
X-65400Y109600D02*
Y110400D01*
X-64600D01*
Y109600D01*
X-65400D01*
X-75800Y109200D02*
Y110800D01*
X-74200D01*
Y109200D01*
X-75800D01*
X-75400Y109600D02*
Y110400D01*
X-74600D01*
Y109600D01*
X-75400D01*
X-55800Y119200D02*
Y120800D01*
X-54200D01*
Y119200D01*
X-55800D01*
X-55400Y119600D02*
Y120400D01*
X-54600D01*
Y119600D01*
X-55400D01*
X-65800Y119200D02*
Y120800D01*
X-64200D01*
Y119200D01*
X-65800D01*
X-65400Y119600D02*
Y120400D01*
X-64600D01*
Y119600D01*
X-65400D01*
X-75800Y119200D02*
Y120800D01*
X-74200D01*
Y119200D01*
X-75800D01*
X-75400Y119600D02*
Y120400D01*
X-74600D01*
Y119600D01*
X-75400D01*
X-85800Y119200D02*
Y120800D01*
X-84200D01*
Y119200D01*
X-85800D01*
X-85400Y119600D02*
Y120400D01*
X-84600D01*
Y119600D01*
X-85400D01*
X-95800Y119200D02*
Y120800D01*
X-94200D01*
Y119200D01*
X-95800D01*
X-95400Y119600D02*
Y120400D01*
X-94600D01*
Y119600D01*
X-95400D01*
X-105800Y119200D02*
Y120800D01*
X-104200D01*
Y119200D01*
X-105800D01*
X-105400Y119600D02*
Y120400D01*
X-104600D01*
Y119600D01*
X-105400D01*
X-115800Y119200D02*
Y120800D01*
X-114200D01*
Y119200D01*
X-115800D01*
X-115400Y119600D02*
Y120400D01*
X-114600D01*
Y119600D01*
X-115400D01*
X-125800Y119200D02*
Y120800D01*
X-124200D01*
Y119200D01*
X-125800D01*
X-125400Y119600D02*
Y120400D01*
X-124600D01*
Y119600D01*
X-125400D01*
X-95800Y109200D02*
Y110800D01*
X-94200D01*
Y109200D01*
X-95800D01*
X-95400Y109600D02*
Y110400D01*
X-94600D01*
Y109600D01*
X-95400D01*
X-105800Y109200D02*
Y110800D01*
X-104200D01*
Y109200D01*
X-105800D01*
X-105400Y109600D02*
Y110400D01*
X-104600D01*
Y109600D01*
X-105400D01*
X-115800Y109200D02*
Y110800D01*
X-114200D01*
Y109200D01*
X-115800D01*
X-115400Y109600D02*
Y110400D01*
X-114600D01*
Y109600D01*
X-115400D01*
X-115800Y76700D02*
Y78300D01*
X-114200D01*
Y76700D01*
X-115800D01*
X-115400Y77100D02*
Y77900D01*
X-114600D01*
Y77100D01*
X-115400D01*
X-95800Y79200D02*
Y80800D01*
X-94200D01*
Y79200D01*
X-95800D01*
X-95400Y79600D02*
Y80400D01*
X-94600D01*
Y79600D01*
X-95400D01*
X-105800Y79200D02*
Y80800D01*
X-104200D01*
Y79200D01*
X-105800D01*
X-105400Y79600D02*
Y80400D01*
X-104600D01*
Y79600D01*
X-105400D01*
X-35800Y14200D02*
Y15800D01*
X-34200D01*
Y14200D01*
X-35800D01*
X-35400Y14600D02*
Y15400D01*
X-34600D01*
Y14600D01*
X-35400D01*
X-25800Y14200D02*
Y15800D01*
X-24200D01*
Y14200D01*
X-25800D01*
X-25400Y14600D02*
Y15400D01*
X-24600D01*
Y14600D01*
X-25400D01*
X-15800Y14200D02*
Y15800D01*
X-14200D01*
Y14200D01*
X-15800D01*
X-15400Y14600D02*
Y15400D01*
X-14600D01*
Y14600D01*
X-15400D01*
X-5800Y14200D02*
Y15800D01*
X-4200D01*
Y14200D01*
X-5800D01*
X-5400Y14600D02*
Y15400D01*
X-4600D01*
Y14600D01*
X-5400D01*
X-5800Y4200D02*
Y5800D01*
X-4200D01*
Y4200D01*
X-5800D01*
X-5400Y4600D02*
Y5400D01*
X-4600D01*
Y4600D01*
X-5400D01*
X-15800Y4200D02*
Y5800D01*
X-14200D01*
Y4200D01*
X-15800D01*
X-15400Y4600D02*
Y5400D01*
X-14600D01*
Y4600D01*
X-15400D01*
X-25800Y4200D02*
Y5800D01*
X-24200D01*
Y4200D01*
X-25800D01*
X-25400Y4600D02*
Y5400D01*
X-24600D01*
Y4600D01*
X-25400D01*
X-35800Y4200D02*
Y5800D01*
X-34200D01*
Y4200D01*
X-35800D01*
X-35400Y4600D02*
Y5400D01*
X-34600D01*
Y4600D01*
X-35400D01*
X-160800Y46700D02*
Y48300D01*
X-159200D01*
Y46700D01*
X-160800D01*
X-160400Y47100D02*
Y47900D01*
X-159600D01*
Y47100D01*
X-160400D01*
X-35800Y69200D02*
Y70800D01*
X-34200D01*
Y69200D01*
X-35800D01*
X-35400Y69600D02*
Y70400D01*
X-34600D01*
Y69600D01*
X-35400D01*
X-45800Y69200D02*
Y70800D01*
X-44200D01*
Y69200D01*
X-45800D01*
X-45400Y69600D02*
Y70400D01*
X-44600D01*
Y69600D01*
X-45400D01*
X-45800Y59200D02*
Y60800D01*
X-44200D01*
Y59200D01*
X-45800D01*
X-45400Y59600D02*
Y60400D01*
X-44600D01*
Y59600D01*
X-45400D01*
X-35800Y59200D02*
Y60800D01*
X-34200D01*
Y59200D01*
X-35800D01*
X-35400Y59600D02*
Y60400D01*
X-34600D01*
Y59600D01*
X-35400D01*
X-35800Y49200D02*
Y50800D01*
X-34200D01*
Y49200D01*
X-35800D01*
X-35400Y49600D02*
Y50400D01*
X-34600D01*
Y49600D01*
X-35400D01*
X-45800Y49200D02*
Y50800D01*
X-44200D01*
Y49200D01*
X-45800D01*
X-45400Y49600D02*
Y50400D01*
X-44600D01*
Y49600D01*
X-45400D01*
X-85800Y59200D02*
Y60800D01*
X-84200D01*
Y59200D01*
X-85800D01*
X-85400Y59600D02*
Y60400D01*
X-84600D01*
Y59600D01*
X-85400D01*
X-85800Y69200D02*
Y70800D01*
X-84200D01*
Y69200D01*
X-85800D01*
X-85400Y69600D02*
Y70400D01*
X-84600D01*
Y69600D01*
X-85400D01*
X-95800Y69200D02*
Y70800D01*
X-94200D01*
Y69200D01*
X-95800D01*
X-95400Y69600D02*
Y70400D01*
X-94600D01*
Y69600D01*
X-95400D01*
X-95800Y59200D02*
Y60800D01*
X-94200D01*
Y59200D01*
X-95800D01*
X-95400Y59600D02*
Y60400D01*
X-94600D01*
Y59600D01*
X-95400D01*
X-95800Y49200D02*
Y50800D01*
X-94200D01*
Y49200D01*
X-95800D01*
X-95400Y49600D02*
Y50400D01*
X-94600D01*
Y49600D01*
X-95400D01*
X-85800Y49200D02*
Y50800D01*
X-84200D01*
Y49200D01*
X-85800D01*
X-85400Y49600D02*
Y50400D01*
X-84600D01*
Y49600D01*
X-85400D01*
D32*
X-181700Y-27500D02*
G03*
X-181700Y-27500I-800J0D01*
G01*
Y-7500D02*
G03*
X-181700Y-7500I-800J0D01*
G01*
Y12500D02*
G03*
X-181700Y12500I-800J0D01*
G01*
M02*
