G04 Layer_Color=8388736*
%FSLAX25Y25*%
%MOIN*%
G70*
G01*
G75*
%ADD24C,0.06600*%
%ADD25R,0.06600X0.06600*%
%ADD26C,0.10600*%
%ADD27C,0.13198*%
%ADD28C,0.07600*%
%ADD29C,0.12411*%
%ADD30C,0.06112*%
D24*
X0Y0D02*
D03*
X-10000D02*
D03*
X-20000D02*
D03*
X-30000D02*
D03*
X-40000D02*
D03*
X-130000Y45000D02*
D03*
X-110000Y65000D02*
D03*
Y25000D02*
D03*
X21500Y-25000D02*
D03*
Y-10000D02*
D03*
X41500Y-17500D02*
D03*
X-72500Y-25000D02*
D03*
X-50000Y-15000D02*
D03*
Y-25000D02*
D03*
X-145000Y5000D02*
D03*
Y-10000D02*
D03*
X-50000Y5000D02*
D03*
Y15000D02*
D03*
X0Y20000D02*
D03*
X-10000D02*
D03*
X-20000D02*
D03*
X-30000D02*
D03*
X-40000D02*
D03*
X-120000Y85000D02*
D03*
X-110000D02*
D03*
X-100000D02*
D03*
X-90000D02*
D03*
X-40000Y75000D02*
D03*
X-30000D02*
D03*
X-90000Y55000D02*
D03*
X-100000D02*
D03*
X-40000Y45000D02*
D03*
X-30000D02*
D03*
X-40000Y55000D02*
D03*
X-30000D02*
D03*
X-90000Y75000D02*
D03*
X-100000D02*
D03*
X-40000Y65000D02*
D03*
X-30000D02*
D03*
X-50000Y115000D02*
D03*
X-60000D02*
D03*
X-70000D02*
D03*
X-80000D02*
D03*
X-50000Y95000D02*
D03*
X-60000D02*
D03*
X-70000D02*
D03*
X-80000D02*
D03*
X-120000Y115000D02*
D03*
X-110000D02*
D03*
X-100000D02*
D03*
X-90000D02*
D03*
X-80000Y85000D02*
D03*
X-70000D02*
D03*
X-60000D02*
D03*
X-50000D02*
D03*
X-130000Y95000D02*
D03*
Y85000D02*
D03*
Y125000D02*
D03*
X-110000D02*
D03*
X-120000D02*
D03*
X-80000Y105000D02*
D03*
X-70000D02*
D03*
X-60000D02*
D03*
X-50000D02*
D03*
X-110000Y2500D02*
D03*
X-90000D02*
D03*
X0Y10000D02*
D03*
X-10000D02*
D03*
X-20000D02*
D03*
X-30000D02*
D03*
X-40000D02*
D03*
X-50000Y-45000D02*
D03*
X-60000D02*
D03*
X-70000D02*
D03*
X-80000D02*
D03*
X-90000D02*
D03*
X-30000D02*
D03*
X-40000D02*
D03*
X10000D02*
D03*
X20000D02*
D03*
X30000D02*
D03*
X40000D02*
D03*
X50000D02*
D03*
X20000Y145000D02*
D03*
X10000D02*
D03*
X0D02*
D03*
X-10000D02*
D03*
X-20000D02*
D03*
X40000D02*
D03*
X30000D02*
D03*
X-46000D02*
D03*
X-56000D02*
D03*
X-66000D02*
D03*
X-76000D02*
D03*
X-86000D02*
D03*
X-96000D02*
D03*
X-106000D02*
D03*
X-116000D02*
D03*
X-126000D02*
D03*
X-80000Y65000D02*
D03*
Y55000D02*
D03*
Y45000D02*
D03*
X-50000D02*
D03*
Y55000D02*
D03*
Y65000D02*
D03*
X-80000Y75000D02*
D03*
X-50000D02*
D03*
X-100000Y45000D02*
D03*
X-30000Y85000D02*
D03*
X-50000Y25000D02*
D03*
X-100000Y-25000D02*
D03*
X-90000Y65000D02*
D03*
X-100000Y65000D02*
D03*
X-90000Y105000D02*
D03*
X-100000D02*
D03*
X-110000D02*
D03*
X-120000D02*
D03*
X-90000Y95000D02*
D03*
X-100000D02*
D03*
X-110000D02*
D03*
X-120000D02*
D03*
X-126000Y135000D02*
D03*
X-116000D02*
D03*
X-106000D02*
D03*
X-96000D02*
D03*
X-86000D02*
D03*
X-76000D02*
D03*
X-66000D02*
D03*
X-56000D02*
D03*
X-46000D02*
D03*
X-36000D02*
D03*
X-20000D02*
D03*
X-10000D02*
D03*
X0D02*
D03*
X10000D02*
D03*
X20000D02*
D03*
X30000D02*
D03*
X40000D02*
D03*
X50000D02*
D03*
X-50000Y-5000D02*
D03*
Y35000D02*
D03*
X-100000Y125000D02*
D03*
X-90000D02*
D03*
X-80000D02*
D03*
X-70000D02*
D03*
X-60000D02*
D03*
X-50000D02*
D03*
D25*
X-80374Y-25000D02*
D03*
X-20000Y-45000D02*
D03*
X0D02*
D03*
X50000Y145000D02*
D03*
X-36000D02*
D03*
D26*
X-182500Y-27500D02*
D03*
Y-7500D02*
D03*
Y12500D02*
D03*
D27*
X-145000Y-45000D02*
D03*
X60000Y-25000D02*
D03*
Y85000D02*
D03*
X-140000Y145000D02*
D03*
D28*
X60551Y44803D02*
D03*
X50551D02*
D03*
X60551Y54803D02*
D03*
X50551D02*
D03*
X60551Y64803D02*
D03*
X50551D02*
D03*
D29*
X-189465Y52567D02*
D03*
X-150094D02*
D03*
X-156000Y38000D02*
D03*
D30*
X10000Y-25000D02*
D03*
X-30000D02*
D03*
X-152500Y-25000D02*
D03*
X-112500D02*
D03*
X-92500Y-10000D02*
D03*
X-132500D02*
D03*
M02*
