G04 Layer_Physical_Order=2*
G04 Layer_Color=16711680*
%FSLAX25Y25*%
%MOIN*%
G70*
G01*
G75*
%ADD10C,0.02500*%
%ADD11C,0.10000*%
%ADD12C,0.06000*%
%ADD13C,0.07874*%
%ADD14R,0.07874X0.07874*%
%ADD15R,0.07874X0.07874*%
%ADD16C,0.06299*%
%ADD17R,0.04724X0.04724*%
%ADD18C,0.04724*%
%ADD19R,0.07874X0.06000*%
%ADD20C,0.09055*%
%ADD21C,0.12600*%
%ADD22C,0.05000*%
%ADD23C,0.03937*%
%ADD24C,0.02000*%
D10*
X166808Y-38269D02*
X167282D01*
X251016Y-79836D02*
X258316D01*
X243016Y-71836D02*
X251016Y-79836D01*
X243016Y-71836D02*
Y-58936D01*
X233916Y-49836D02*
X243016Y-58936D01*
X273406Y39054D02*
X273516Y39164D01*
X273406Y20354D02*
Y39054D01*
X263406Y10354D02*
X273406Y20354D01*
X233406Y10354D02*
X263406D01*
X167282Y-38269D02*
X175906Y-29646D01*
X233406D01*
X166808Y-549D02*
Y40231D01*
Y-549D02*
X175906Y-9646D01*
X233406D01*
X242596Y91164D02*
X259516D01*
X238150Y95610D02*
X242596Y91164D01*
X223396Y95610D02*
X238150D01*
X259516Y91164D02*
X275906D01*
X286925D01*
X223516Y60464D02*
Y69164D01*
X258316Y-69836D02*
Y-59736D01*
X258406Y-59646D01*
X293496Y-19186D02*
Y-7236D01*
X293406Y-7146D02*
X293496Y-7236D01*
X293406Y27854D02*
Y38959D01*
X293201Y39164D02*
X293406Y38959D01*
X-39094Y72854D02*
X-29094Y82854D01*
X-39094Y72854D02*
X-26594D01*
X-39094D02*
X-29094Y62854D01*
X288851Y-72500D02*
X294516Y-66836D01*
X282500Y-72500D02*
X288851D01*
X289096Y-97836D02*
X294516D01*
X282500Y-104431D02*
X289096Y-97836D01*
X282500Y-105000D02*
Y-104431D01*
D11*
X-12500Y28386D02*
D03*
Y115000D02*
D03*
X-39094Y52854D02*
D03*
Y72854D02*
D03*
Y92854D02*
D03*
Y-62146D02*
D03*
Y-82146D02*
D03*
Y-102146D02*
D03*
X233406Y10354D02*
D03*
Y-9646D02*
D03*
Y-29646D02*
D03*
Y-49646D02*
D03*
D12*
X166906Y40354D02*
D03*
Y-38146D02*
D03*
D13*
X48406Y-58146D02*
D03*
Y60354D02*
D03*
X259516Y91164D02*
D03*
Y101164D02*
D03*
X293496Y-19186D02*
D03*
X273516Y39164D02*
D03*
X286925Y91164D02*
D03*
X232296Y-106436D02*
D03*
X258316Y-79836D02*
D03*
Y-89836D02*
D03*
D14*
X259516Y81164D02*
D03*
X232296Y-65255D02*
D03*
X258316Y-69836D02*
D03*
D15*
X273811Y-19186D02*
D03*
X293201Y39164D02*
D03*
X328106Y91164D02*
D03*
D16*
X223516Y77038D02*
D03*
D17*
Y69164D02*
D03*
X294516Y-58962D02*
D03*
Y-89962D02*
D03*
X223396Y95610D02*
D03*
D18*
X294516Y-66836D02*
D03*
Y-97836D02*
D03*
X223396Y103484D02*
D03*
D19*
X0Y0D02*
D03*
Y-9843D02*
D03*
Y-17717D02*
D03*
Y-27559D02*
D03*
D20*
X-14094Y12087D02*
D03*
Y-39646D02*
D03*
D21*
X7516Y95164D02*
D03*
X2516Y-94836D02*
D03*
X207516Y35164D02*
D03*
Y-74836D02*
D03*
X327516Y-94836D02*
D03*
D22*
X-27854Y-82146D02*
D03*
X-15000Y0D02*
D03*
X293406Y27854D02*
D03*
Y-7146D02*
D03*
X275906Y91164D02*
D03*
X242596D02*
D03*
X223406Y60354D02*
D03*
X258406Y-59646D02*
D03*
X-29094Y82854D02*
D03*
X-26594Y72854D02*
D03*
X-29094Y62854D02*
D03*
X282500Y-72500D02*
D03*
Y-105000D02*
D03*
D23*
X-31594Y115354D02*
X-11594D01*
X-39094Y-82146D02*
X-27854D01*
X-15000Y0D02*
X0D01*
X48406Y-58146D02*
Y20354D01*
X40906Y27854D02*
X48406Y20354D01*
X-10709Y27854D02*
X40906D01*
X-11594Y28740D02*
X-10709Y27854D01*
X-39094Y107854D02*
X-31594Y115354D01*
X-39094Y92854D02*
Y107854D01*
X40906Y52854D02*
X48406Y60354D01*
X-39094Y52854D02*
X40906D01*
D24*
X-26327Y-27559D02*
X0D01*
X-39094Y-40326D02*
X-26327Y-27559D01*
X-39094Y-62146D02*
Y-40326D01*
X-50204Y-73256D02*
X-39094Y-62146D01*
X-50204Y-108735D02*
Y-73256D01*
Y-108735D02*
X-40104Y-118836D01*
X300516D01*
X-39094Y-102146D02*
X-27404Y-113836D01*
X286190Y-58962D02*
X294516D01*
X265316Y-79836D02*
X286190Y-58962D01*
X258516Y-79836D02*
X265316D01*
X258316Y-89836D02*
X276416D01*
X248896D02*
X258316D01*
X276416D02*
X276542Y-89962D01*
X294516D01*
X259516Y53164D02*
Y81164D01*
Y53164D02*
X273516Y39164D01*
X232296Y-106436D02*
X248896Y-89836D01*
X-27404Y-113836D02*
X224896D01*
X232296Y-106436D01*
X223516Y77038D02*
X227642Y81164D01*
X259516D01*
X223396Y103484D02*
X225716Y101164D01*
X259516D01*
X312516Y75574D02*
X328106Y91164D01*
X312516Y-106836D02*
Y75574D01*
X300516Y-118836D02*
X312516Y-106836D01*
X259516Y101164D02*
X318106D01*
X328106Y91164D01*
X273811Y-28851D02*
Y-19186D01*
Y-28851D02*
X294516Y-49556D01*
Y-58962D02*
Y-49556D01*
M02*
