G04 Layer_Color=8388736*
%FSLAX25Y25*%
%MOIN*%
G70*
G01*
G75*
%ADD30C,0.10600*%
%ADD31C,0.06600*%
%ADD32C,0.08474*%
%ADD33R,0.08474X0.08474*%
%ADD34R,0.08474X0.08474*%
%ADD35C,0.06899*%
%ADD36R,0.05324X0.05324*%
%ADD37C,0.05324*%
%ADD38R,0.08474X0.06600*%
%ADD39C,0.09655*%
%ADD40C,0.13200*%
D30*
X-12500Y28386D02*
D03*
Y115000D02*
D03*
X-39094Y52854D02*
D03*
Y72854D02*
D03*
Y92854D02*
D03*
Y-62146D02*
D03*
Y-82146D02*
D03*
Y-102146D02*
D03*
X233406Y10354D02*
D03*
Y-9646D02*
D03*
Y-29646D02*
D03*
Y-49646D02*
D03*
D31*
X166906Y40354D02*
D03*
Y-38146D02*
D03*
D32*
X48406Y-58146D02*
D03*
Y60354D02*
D03*
X259516Y91164D02*
D03*
Y101164D02*
D03*
X293496Y-19186D02*
D03*
X273516Y39164D02*
D03*
X286925Y91164D02*
D03*
X232296Y-106436D02*
D03*
X258316Y-79836D02*
D03*
Y-89836D02*
D03*
D33*
X259516Y81164D02*
D03*
X232296Y-65255D02*
D03*
X258316Y-69836D02*
D03*
D34*
X273811Y-19186D02*
D03*
X293201Y39164D02*
D03*
X328106Y91164D02*
D03*
D35*
X223516Y77038D02*
D03*
D36*
Y69164D02*
D03*
X294516Y-58962D02*
D03*
Y-89962D02*
D03*
X223396Y95610D02*
D03*
D37*
X294516Y-66836D02*
D03*
Y-97836D02*
D03*
X223396Y103484D02*
D03*
D38*
X0Y0D02*
D03*
Y-9843D02*
D03*
Y-17717D02*
D03*
Y-27559D02*
D03*
D39*
X-14094Y12087D02*
D03*
Y-39646D02*
D03*
D40*
X7516Y95164D02*
D03*
X2516Y-94836D02*
D03*
X207516Y35164D02*
D03*
Y-74836D02*
D03*
X327516Y-94836D02*
D03*
M02*
