G04 Layer_Color=8421504*
%FSLAX25Y25*%
%MOIN*%
G70*
G01*
G75*
%ADD10R,0.04016X0.08622*%
%ADD11R,0.08622X0.04016*%
%ADD12R,0.01968X0.02362*%
%ADD13R,0.02362X0.01968*%
%ADD14R,0.03937X0.02756*%
%ADD15R,0.03150X0.02953*%
%ADD16R,0.04000X0.03000*%
%ADD17R,0.02953X0.03150*%
%ADD18R,0.03000X0.03200*%
%ADD19R,0.02756X0.03543*%
%ADD20R,0.03543X0.02756*%
%ADD21R,0.18504X0.18504*%
%ADD22O,0.00787X0.02559*%
%ADD23O,0.02559X0.00787*%
G04:AMPARAMS|DCode=24|XSize=31.5mil|YSize=29.53mil|CornerRadius=0mil|HoleSize=0mil|Usage=FLASHONLY|Rotation=40.000|XOffset=0mil|YOffset=0mil|HoleType=Round|Shape=Rectangle|*
%AMROTATEDRECTD24*
4,1,4,-0.00257,-0.02143,-0.02155,0.00119,0.00257,0.02143,0.02155,-0.00119,-0.00257,-0.02143,0.0*
%
%ADD24ROTATEDRECTD24*%

G04:AMPARAMS|DCode=25|XSize=19.68mil|YSize=25.59mil|CornerRadius=0mil|HoleSize=0mil|Usage=FLASHONLY|Rotation=40.000|XOffset=0mil|YOffset=0mil|HoleType=Round|Shape=Rectangle|*
%AMROTATEDRECTD25*
4,1,4,0.00069,-0.01613,-0.01576,0.00348,-0.00069,0.01613,0.01576,-0.00348,0.00069,-0.01613,0.0*
%
%ADD25ROTATEDRECTD25*%

%ADD26R,0.07087X0.03937*%
%ADD27R,0.02559X0.01968*%
%ADD28R,0.03740X0.03347*%
%ADD29R,0.03937X0.01772*%
D10*
X-118091Y87090D02*
D03*
X-108091D02*
D03*
X-98090D02*
D03*
X-88090D02*
D03*
X-108091Y75910D02*
D03*
X-118091D02*
D03*
X-98090D02*
D03*
X-88090D02*
D03*
Y15910D02*
D03*
X-98090D02*
D03*
X-108091D02*
D03*
X-118091D02*
D03*
X-88090Y27091D02*
D03*
X-98090D02*
D03*
X-108091D02*
D03*
X-118091D02*
D03*
X-32500Y75465D02*
D03*
Y87000D02*
D03*
X-72500Y75465D02*
D03*
X-42500D02*
D03*
X-52500Y75465D02*
D03*
X-2500Y75465D02*
D03*
X-12500D02*
D03*
X-72500Y87000D02*
D03*
X-42500D02*
D03*
X-52500D02*
D03*
X-2500D02*
D03*
X-12500D02*
D03*
X-62500Y75465D02*
D03*
X-22500D02*
D03*
X-62500Y87000D02*
D03*
X-22500D02*
D03*
X-123221Y-32705D02*
D03*
Y1941D02*
D03*
D11*
X-112500Y41500D02*
D03*
Y51500D02*
D03*
Y61500D02*
D03*
X-123681Y41500D02*
D03*
Y51500D02*
D03*
Y61500D02*
D03*
D12*
X-15700Y25194D02*
D03*
Y21257D02*
D03*
X-25701Y43295D02*
D03*
Y39358D02*
D03*
X1199Y43295D02*
D03*
Y39358D02*
D03*
X-16301D02*
D03*
Y43295D02*
D03*
X-12801Y39358D02*
D03*
Y43295D02*
D03*
X-21901Y39358D02*
D03*
Y43295D02*
D03*
X-56000Y26994D02*
D03*
Y23057D02*
D03*
X-3200Y17282D02*
D03*
Y21219D02*
D03*
X6800Y26219D02*
D03*
Y22282D02*
D03*
D13*
X-59632Y12625D02*
D03*
X-63569D02*
D03*
X-41432Y7125D02*
D03*
X-45369D02*
D03*
X-13369Y33525D02*
D03*
X-9432D02*
D03*
Y30025D02*
D03*
X-13369D02*
D03*
X-51232Y30625D02*
D03*
X-55169D02*
D03*
D14*
X-33600Y-32055D02*
D03*
Y-28315D02*
D03*
Y-24575D02*
D03*
X-43049D02*
D03*
Y-32055D02*
D03*
D15*
X-55600Y-24575D02*
D03*
Y-19260D02*
D03*
X-25600Y-24575D02*
D03*
Y-29890D02*
D03*
Y-17075D02*
D03*
Y-11760D02*
D03*
X-41100Y39788D02*
D03*
Y45103D02*
D03*
D16*
X-41868Y-13315D02*
D03*
X-33600Y-9575D02*
D03*
Y-17055D02*
D03*
D17*
X-33657Y-1500D02*
D03*
X-28343D02*
D03*
X-55858Y34725D02*
D03*
X-50543D02*
D03*
D18*
X-67750Y-30500D02*
D03*
X-73250D02*
D03*
D19*
X-55553Y-32075D02*
D03*
X-49647D02*
D03*
D20*
X-82100Y-30527D02*
D03*
Y-24622D02*
D03*
D21*
X-32200Y23225D02*
D03*
D22*
X-40861Y35135D02*
D03*
X-39287D02*
D03*
X-37712D02*
D03*
X-36137D02*
D03*
X-34562D02*
D03*
X-32987D02*
D03*
X-31413D02*
D03*
X-29838D02*
D03*
X-28263D02*
D03*
X-26688D02*
D03*
X-25113D02*
D03*
X-23539D02*
D03*
Y11316D02*
D03*
X-25113D02*
D03*
X-26688D02*
D03*
X-28263D02*
D03*
X-29838D02*
D03*
X-31413D02*
D03*
X-32987D02*
D03*
X-34562D02*
D03*
X-36137D02*
D03*
X-37712D02*
D03*
X-39287D02*
D03*
X-40861D02*
D03*
D23*
X-20291Y31887D02*
D03*
Y30312D02*
D03*
Y28737D02*
D03*
Y27162D02*
D03*
Y25588D02*
D03*
Y24013D02*
D03*
Y22438D02*
D03*
Y20863D02*
D03*
Y19288D02*
D03*
Y17714D02*
D03*
Y16139D02*
D03*
Y14564D02*
D03*
X-44110D02*
D03*
Y16139D02*
D03*
Y17714D02*
D03*
Y19288D02*
D03*
Y20863D02*
D03*
Y22438D02*
D03*
Y24013D02*
D03*
Y25588D02*
D03*
Y27162D02*
D03*
Y28737D02*
D03*
Y30312D02*
D03*
Y31887D02*
D03*
D24*
X-41289Y52010D02*
D03*
X-44705Y56081D02*
D03*
D25*
X-46899Y52078D02*
D03*
X-44495Y49213D02*
D03*
D26*
X-61600Y16804D02*
D03*
Y26647D02*
D03*
D27*
X-8230Y21225D02*
D03*
X-11970D02*
D03*
D28*
X-2946Y39062D02*
D03*
Y43590D02*
D03*
X-8655D02*
D03*
Y39062D02*
D03*
D29*
X-112000Y-20500D02*
D03*
Y-10264D02*
D03*
M02*
