M48
;Layer_Color=9474304
;FILE_FORMAT=2:5
INCH,LZ
;TYPE=PLATED
T1F00S00C0.03000
T2F00S00C0.03346
T3F00S00C0.03543
T4F00S00C0.07874
T5F00S00C0.12598
%
T01
X-01944Y-00098
X-0102Y-0028
X-0092
X-0082
X-0072
X-0062
X-0068Y-0008
X-0078
X-0043693Y-0007488
X-0035819
X-0032Y-0028
X-0042
X-0052
X-0012
X-0002
X0008
X0018
X0028
X0038
X003111Y-0013394
X00175Y-00175
X0008
X-00015
X00025Y001
X003111Y-0003394
X-0018Y0052
Y0062
Y0072
Y0082
X-0028
Y0072
Y0062
Y0052
Y0042
X-0038
X-0048
Y0052
X-0038
Y0062
Y0072
Y0082
X-0048
Y0072
Y0062
Y0102
Y0112
Y0122
Y0132
Y0142
Y0152
X-0032
Y0142
Y0132
Y0122
Y0112
X-0022
X-0012
X-0002
X0008
X0018
X0028
X0038
Y0122
X0028
X0018
X0008
X-0002
X-0012
X-0022
Y0132
X-0012
X-0002
X0008
X0018
X0028
X0038
Y0142
X0028
X0018
X0008
X-0002
X-0012
X-0022
Y0152
X-0012
X-0002
X0008
X0018
X0028
X0038
X0048Y0142
Y0132
Y0122
X0028Y0102
X0018
X0008
X-0002
X-0012
X-0022
X-0032
X-0058
Y0112
Y0122
Y0132
Y0142
Y0152
X-0068
X-0078
X-0088
X-0098
Y0142
X-0088
X-0078
X-0068
Y0132
X-0078
X-0088
X-0098
Y0122
X-0088
X-0078
X-0068
Y0112
X-0078
X-0088
X-0098
Y0102
X-0088
X-0078
X-0068
Y0082
Y0072
Y0062
Y0052
Y0042
X-0058
Y0052
Y0062
Y0072
Y0082
X-0078
X-0088
Y0072
Y0062
Y0052
Y0042
X-0078
Y0052
Y0062
Y0072
X-0098
Y0062
Y0052
Y0042
X-0108
Y0052
X-0118
Y0062
Y0072
Y0082
X-0108
X-0098
X-0108Y0072
Y0062
Y0102
X-0118
Y0112
Y0122
Y0132
Y0142
Y0152
X-0128
X-0138
Y0142
X-0128
Y0132
X-0138
Y0122
X-0128
Y0112
X-0138
Y0102
X-0128
X-0148
Y0112
Y0122
Y0132
X-01944Y00302
Y00102
X-0078299Y0010228
X-0068299
X-0068Y0162
X-0058
X-0078
X-0088
X-0098
X-0108
X-0118
X-0128
X-0138
X-0048
X-0032
X-0022
X-0012
X-0002
X0008
X0018
X0028
X0038
T02
X-0020071Y-0013709
Y0026291
X-0009Y002
X0031
X-0088654Y0010228
X-0128654
T03
X0038551Y0061803
X0048551
Y0071803
X0038551
Y0081803
X0048551
T04
X-0201465Y0069567
X-0162094
X-0168Y0055
T05
X-0157Y-0028
X0048Y-0008
Y0102
X-0152Y0162
M30
