M48
;Layer_Color=9474304
;FILE_FORMAT=2:5
INCH,LZ
;TYPE=PLATED
T1F00S00C0.01200
T2F00S00C0.01299
T3F00S00C0.02800
T4F00S00C0.03000
T5F00S00C0.03937
%
T01
X-0047Y-0028
X-00475Y-0019
X-0046Y-0013
X-0038Y-00225
X-00295Y-0021
X-0019
Y-0011
X-00255Y-0008
X-00245Y-00015
X-0018Y-00025
X-0008
X-0005Y-0005
X-0003Y-00125
X00075Y-001
X0002Y-00025
X-0005Y-0024
Y-0035
X0005
X0007Y-00325
X0015Y-0035
X0025
X0027Y-00325
X003Y-003
X0032Y-00225
X00275Y-0019
X0027Y-00125
X003Y-001
X0022Y-00225
X-0015Y-0035
X-00255Y-00335
X-006Y-00325
X-0063
X-00625Y-00285
X-0078Y-0028
X-008Y-0035
X-009
X-0093Y-00325
X-0095Y-0025
X-0098Y-00225
X-0095Y-0015
X-0104Y-0014
X-0099Y-0006
X-0108Y-00025
X-0118
X-01225Y-0007
X-0123Y-00125
X-0124Y-00235
X-0118Y-00225
X-0108Y-00235
X-0113Y-00325
X-0103
X-01Y-0035
X-013Y-002
X-0063Y-00125
X-00555Y-0015
X-0053Y-00125
X-00545Y-0005
X-0052Y0005
X-00596Y0009425
X-00638
X-00715Y00095
X-00785
X-0078Y00175
X-0068
X-00601Y0022425
X-00584Y0030725
X-00594Y0034725
X-00638Y0038125
X-0068Y00375
X-007Y003
X-0073Y00275
X-0083
X-0093
X-0103
X-0113
X-0123
X-013Y003
Y002
Y001
X-0114Y0006
X-01005Y00065
X-0093Y00075
X-0085Y0002
X-0062Y00025
X-0053184Y0037702
X-0053Y00475
X-0055Y0052125
X-0058Y00575
X-00615Y00595
X-0068Y00575
X-00685Y0063
X-0075Y0064
X-0078Y00575
X-0088
X-0098
X-0103Y00475
X-0093
X-0083
X-0073
X-007Y005
X-00635Y0048
X-00575Y0045
X-0078Y00375
X-0088
X-0098
X-0118
Y00575
X-0123Y00675
X-013Y007
Y008
Y009
X-0123Y00875
X-0113
X-0103
X-0093
X-0083
X-008Y009
X-0078Y00775
X-0083Y00675
X-0093
X-0103
X-0113
X-0103Y0017
X-005Y00145
X-0044Y0011414
X-00453Y0003825
X-00416Y0003925
X-0033Y00075
X-0023
X-0025Y0005
X-0015
X-0013Y00075
X-00065Y0013
X-0003Y0014
X00013Y0017951
Y0024551
X-0003Y00275
X-00063Y0030025
Y0033325
X-00029Y0035946
X00012Y0036126
X00075Y004
Y005
X00006Y0052426
Y0058126
X00075Y006
Y007
X0002Y0067
X-0005Y00655
X-0008Y00575
X-0012Y00585
X-0018Y00575
X-00209Y0058126
X-00217Y0046526
X-00259
X-00165Y0047
X-00129Y0046526
X-0009101Y0047326
X-0005Y00515
X-0014Y00525
X-0019101Y0043295
Y0039026
X-00361Y0039526
X-00452Y0038746
X-0049Y0057825
X-00425Y00615
X-0038Y00575
X-0008Y00775
X0002
X00075Y008
Y009
X0007Y003
Y0014
X00075Y001
Y0
X-00082Y0017925
X-0008484Y0024602
T02
X-0039287Y0016139
X-0034562
X-0029838
X-0025113
Y0020863
X-0029838
X-0034562
X-0039287
Y0025588
X-0034562
X-0029838
X-0025113
Y0030312
X-0029838
X-0034562
X-0039287
T03
X-00005Y-00295
Y-0019
X-0069Y-0002
T04
X-00415Y-0002
X0015Y-0014252
Y-0022126
Y-003
X-0069Y-001
X-0079
X-0089
X-0005Y0005
X0005
T05
X-0011Y-00295
Y-00195
Y-00095
M30
