G04 Layer_Color=2752767*
%FSLAX25Y25*%
%MOIN*%
G70*
G01*
G75*
%ADD76C,0.00200*%
%ADD77C,0.00267*%
D76*
X-89800Y-10800D02*
Y-9200D01*
X-88200D01*
Y-10800D01*
X-89800D01*
X-79800D02*
Y-9200D01*
X-78200D01*
Y-10800D01*
X-79800D01*
X-69800D02*
Y-9200D01*
X-68200D01*
Y-10800D01*
X-69800D01*
X-42300Y-2800D02*
Y-1200D01*
X-40700D01*
Y-2800D01*
X-42300D01*
X4200Y4200D02*
Y5800D01*
X5800D01*
Y4200D01*
X4200D01*
X-5800D02*
Y5800D01*
X-4200D01*
Y4200D01*
X-5800D01*
X14200Y-15052D02*
Y-13452D01*
X15800D01*
Y-15052D01*
X14200D01*
Y-22926D02*
Y-21326D01*
X15800D01*
Y-22926D01*
X14200D01*
Y-30800D02*
Y-29200D01*
X15800D01*
Y-30800D01*
X14200D01*
X-69000Y-2800D02*
X-69800Y-1200D01*
X-68200D01*
X-69000Y-2800D01*
X-5000Y-5800D02*
X-4600Y-5400D01*
X-4200D01*
X-4600Y-5000D01*
X-4200Y-4600D01*
X-4600D01*
X-5000Y-4200D01*
X-5400Y-4600D01*
X-5800D01*
X-5400Y-5000D01*
X-5800Y-5400D01*
X-5400D01*
X-5000Y-5800D01*
X-15000Y4200D02*
X-14600Y4600D01*
X-14200D01*
X-14600Y5000D01*
X-14200Y5400D01*
X-14600D01*
X-15000Y5800D01*
X-15400Y5400D01*
X-15800D01*
X-15400Y5000D01*
X-15800Y4600D01*
X-15400D01*
X-15000Y4200D01*
X-25000D02*
X-24600Y4600D01*
X-24200D01*
X-24600Y5000D01*
X-24200Y5400D01*
X-24600D01*
X-25000Y5800D01*
X-25400Y5400D01*
X-25800D01*
X-25400Y5000D01*
X-25800Y4600D01*
X-25400D01*
X-25000Y4200D01*
X-85000Y1200D02*
X-84600Y1600D01*
X-84200D01*
X-84600Y2000D01*
X-84200Y2400D01*
X-84600D01*
X-85000Y2800D01*
X-85400Y2400D01*
X-85800D01*
X-85400Y2000D01*
X-85800Y1600D01*
X-85400D01*
X-85000Y1200D01*
X-62000Y1700D02*
X-61600Y2100D01*
X-61200D01*
X-61600Y2500D01*
X-61200Y2900D01*
X-61600D01*
X-62000Y3300D01*
X-62400Y2900D01*
X-62800D01*
X-62400Y2500D01*
X-62800Y2100D01*
X-62400D01*
X-62000Y1700D01*
X-52000Y4200D02*
X-51600Y4600D01*
X-51200D01*
X-51600Y5000D01*
X-51200Y5400D01*
X-51600D01*
X-52000Y5800D01*
X-52400Y5400D01*
X-52800D01*
X-52400Y5000D01*
X-52800Y4600D01*
X-52400D01*
X-52000Y4200D01*
X-63500Y47200D02*
X-63100Y47600D01*
X-62700D01*
X-63100Y48000D01*
X-62700Y48400D01*
X-63100D01*
X-63500Y48800D01*
X-63900Y48400D01*
X-64300D01*
X-63900Y48000D01*
X-64300Y47600D01*
X-63900D01*
X-63500Y47200D01*
X-61500Y58700D02*
X-61100Y59100D01*
X-60700D01*
X-61100Y59500D01*
X-60700Y59900D01*
X-61100D01*
X-61500Y60300D01*
X-61900Y59900D01*
X-62300D01*
X-61900Y59500D01*
X-62300Y59100D01*
X-61900D01*
X-61500Y58700D01*
X-12000Y57700D02*
X-11600Y58100D01*
X-11200D01*
X-11600Y58500D01*
X-11200Y58900D01*
X-11600D01*
X-12000Y59300D01*
X-12400Y58900D01*
X-12800D01*
X-12400Y58500D01*
X-12800Y58100D01*
X-12400D01*
X-12000Y57700D01*
X-70000Y29200D02*
X-69600Y29600D01*
X-69200D01*
X-69600Y30000D01*
X-69200Y30400D01*
X-69600D01*
X-70000Y30800D01*
X-70400Y30400D01*
X-70800D01*
X-70400Y30000D01*
X-70800Y29600D01*
X-70400D01*
X-70000Y29200D01*
Y49200D02*
X-69600Y49600D01*
X-69200D01*
X-69600Y50000D01*
X-69200Y50400D01*
X-69600D01*
X-70000Y50800D01*
X-70400Y50400D01*
X-70800D01*
X-70400Y50000D01*
X-70800Y49600D01*
X-70400D01*
X-70000Y49200D01*
X-95000Y-25800D02*
X-94600Y-25400D01*
X-94200D01*
X-94600Y-25000D01*
X-94200Y-24600D01*
X-94600D01*
X-95000Y-24200D01*
X-95400Y-24600D01*
X-95800D01*
X-95400Y-25000D01*
X-95800Y-25400D01*
X-95400D01*
X-95000Y-25800D01*
Y-15800D02*
X-94600Y-15400D01*
X-94200D01*
X-94600Y-15000D01*
X-94200Y-14600D01*
X-94600D01*
X-95000Y-14200D01*
X-95400Y-14600D01*
X-95800D01*
X-95400Y-15000D01*
X-95800Y-15400D01*
X-95400D01*
X-95000Y-15800D01*
X30000Y-30800D02*
X30400Y-30400D01*
X30800D01*
X30400Y-30000D01*
X30800Y-29600D01*
X30400D01*
X30000Y-29200D01*
X29600Y-29600D01*
X29200D01*
X29600Y-30000D01*
X29200Y-30400D01*
X29600D01*
X30000Y-30800D01*
X27500Y-19800D02*
X27900Y-19400D01*
X28300D01*
X27900Y-19000D01*
X28300Y-18600D01*
X27900D01*
X27500Y-18200D01*
X27100Y-18600D01*
X26700D01*
X27100Y-19000D01*
X26700Y-19400D01*
X27100D01*
X27500Y-19800D01*
X30000Y-10800D02*
X30400Y-10400D01*
X30800D01*
X30400Y-10000D01*
X30800Y-9600D01*
X30400D01*
X30000Y-9200D01*
X29600Y-9600D01*
X29200D01*
X29600Y-10000D01*
X29200Y-10400D01*
X29600D01*
X30000Y-10800D01*
X25000Y-35800D02*
X25400Y-35400D01*
X25800D01*
X25400Y-35000D01*
X25800Y-34600D01*
X25400D01*
X25000Y-34200D01*
X24600Y-34600D01*
X24200D01*
X24600Y-35000D01*
X24200Y-35400D01*
X24600D01*
X25000Y-35800D01*
X15000D02*
X15400Y-35400D01*
X15800D01*
X15400Y-35000D01*
X15800Y-34600D01*
X15400D01*
X15000Y-34200D01*
X14600Y-34600D01*
X14200D01*
X14600Y-35000D01*
X14200Y-35400D01*
X14600D01*
X15000Y-35800D01*
X7500Y-10800D02*
X7900Y-10400D01*
X8300D01*
X7900Y-10000D01*
X8300Y-9600D01*
X7900D01*
X7500Y-9200D01*
X7100Y-9600D01*
X6700D01*
X7100Y-10000D01*
X6700Y-10400D01*
X7100D01*
X7500Y-10800D01*
Y-800D02*
X7900Y-400D01*
X8300D01*
X7900Y0D01*
X8300Y400D01*
X7900D01*
X7500Y800D01*
X7100Y400D01*
X6700D01*
X7100Y0D01*
X6700Y-400D01*
X7100D01*
X7500Y-800D01*
Y9200D02*
X7900Y9600D01*
X8300D01*
X7900Y10000D01*
X8300Y10400D01*
X7900D01*
X7500Y10800D01*
X7100Y10400D01*
X6700D01*
X7100Y10000D01*
X6700Y9600D01*
X7100D01*
X7500Y9200D01*
X-130000Y-20800D02*
X-129600Y-20400D01*
X-129200D01*
X-129600Y-20000D01*
X-129200Y-19600D01*
X-129600D01*
X-130000Y-19200D01*
X-130400Y-19600D01*
X-130800D01*
X-130400Y-20000D01*
X-130800Y-20400D01*
X-130400D01*
X-130000Y-20800D01*
X-122500Y-7800D02*
X-122100Y-7400D01*
X-121700D01*
X-122100Y-7000D01*
X-121700Y-6600D01*
X-122100D01*
X-122500Y-6200D01*
X-122900Y-6600D01*
X-123300D01*
X-122900Y-7000D01*
X-123300Y-7400D01*
X-122900D01*
X-122500Y-7800D01*
X-130000Y9200D02*
X-129600Y9600D01*
X-129200D01*
X-129600Y10000D01*
X-129200Y10400D01*
X-129600D01*
X-130000Y10800D01*
X-130400Y10400D01*
X-130800D01*
X-130400Y10000D01*
X-130800Y9600D01*
X-130400D01*
X-130000Y9200D01*
Y19200D02*
X-129600Y19600D01*
X-129200D01*
X-129600Y20000D01*
X-129200Y20400D01*
X-129600D01*
X-130000Y20800D01*
X-130400Y20400D01*
X-130800D01*
X-130400Y20000D01*
X-130800Y19600D01*
X-130400D01*
X-130000Y19200D01*
Y29200D02*
X-129600Y29600D01*
X-129200D01*
X-129600Y30000D01*
X-129200Y30400D01*
X-129600D01*
X-130000Y30800D01*
X-130400Y30400D01*
X-130800D01*
X-130400Y30000D01*
X-130800Y29600D01*
X-130400D01*
X-130000Y29200D01*
Y69200D02*
X-129600Y69600D01*
X-129200D01*
X-129600Y70000D01*
X-129200Y70400D01*
X-129600D01*
X-130000Y70800D01*
X-130400Y70400D01*
X-130800D01*
X-130400Y70000D01*
X-130800Y69600D01*
X-130400D01*
X-130000Y69200D01*
Y79200D02*
X-129600Y79600D01*
X-129200D01*
X-129600Y80000D01*
X-129200Y80400D01*
X-129600D01*
X-130000Y80800D01*
X-130400Y80400D01*
X-130800D01*
X-130400Y80000D01*
X-130800Y79600D01*
X-130400D01*
X-130000Y79200D01*
X7500Y39200D02*
X7900Y39600D01*
X8300D01*
X7900Y40000D01*
X8300Y40400D01*
X7900D01*
X7500Y40800D01*
X7100Y40400D01*
X6700D01*
X7100Y40000D01*
X6700Y39600D01*
X7100D01*
X7500Y39200D01*
Y49200D02*
X7900Y49600D01*
X8300D01*
X7900Y50000D01*
X8300Y50400D01*
X7900D01*
X7500Y50800D01*
X7100Y50400D01*
X6700D01*
X7100Y50000D01*
X6700Y49600D01*
X7100D01*
X7500Y49200D01*
Y59200D02*
X7900Y59600D01*
X8300D01*
X7900Y60000D01*
X8300Y60400D01*
X7900D01*
X7500Y60800D01*
X7100Y60400D01*
X6700D01*
X7100Y60000D01*
X6700Y59600D01*
X7100D01*
X7500Y59200D01*
Y69200D02*
X7900Y69600D01*
X8300D01*
X7900Y70000D01*
X8300Y70400D01*
X7900D01*
X7500Y70800D01*
X7100Y70400D01*
X6700D01*
X7100Y70000D01*
X6700Y69600D01*
X7100D01*
X7500Y69200D01*
Y79200D02*
X7900Y79600D01*
X8300D01*
X7900Y80000D01*
X8300Y80400D01*
X7900D01*
X7500Y80800D01*
X7100Y80400D01*
X6700D01*
X7100Y80000D01*
X6700Y79600D01*
X7100D01*
X7500Y79200D01*
Y89200D02*
X7900Y89600D01*
X8300D01*
X7900Y90000D01*
X8300Y90400D01*
X7900D01*
X7500Y90800D01*
X7100Y90400D01*
X6700D01*
X7100Y90000D01*
X6700Y89600D01*
X7100D01*
X7500Y89200D01*
X-80000D02*
X-79600Y89600D01*
X-79200D01*
X-79600Y90000D01*
X-79200Y90400D01*
X-79600D01*
X-80000Y90800D01*
X-80400Y90400D01*
X-80800D01*
X-80400Y90000D01*
X-80800Y89600D01*
X-80400D01*
X-80000Y89200D01*
X-3000Y13200D02*
X-2600Y13600D01*
X-2200D01*
X-2600Y14000D01*
X-2200Y14400D01*
X-2600D01*
X-3000Y14800D01*
X-3400Y14400D01*
X-3800D01*
X-3400Y14000D01*
X-3800Y13600D01*
X-3400D01*
X-3000Y13200D01*
X5000Y-35800D02*
X5400Y-35400D01*
X5800D01*
X5400Y-35000D01*
X5800Y-34600D01*
X5400D01*
X5000Y-34200D01*
X4600Y-34600D01*
X4200D01*
X4600Y-35000D01*
X4200Y-35400D01*
X4600D01*
X5000Y-35800D01*
X-5000D02*
X-4600Y-35400D01*
X-4200D01*
X-4600Y-35000D01*
X-4200Y-34600D01*
X-4600D01*
X-5000Y-34200D01*
X-5400Y-34600D01*
X-5800D01*
X-5400Y-35000D01*
X-5800Y-35400D01*
X-5400D01*
X-5000Y-35800D01*
X-15000D02*
X-14600Y-35400D01*
X-14200D01*
X-14600Y-35000D01*
X-14200Y-34600D01*
X-14600D01*
X-15000Y-34200D01*
X-15400Y-34600D01*
X-15800D01*
X-15400Y-35000D01*
X-15800Y-35400D01*
X-15400D01*
X-15000Y-35800D01*
X-80000D02*
X-79600Y-35400D01*
X-79200D01*
X-79600Y-35000D01*
X-79200Y-34600D01*
X-79600D01*
X-80000Y-34200D01*
X-80400Y-34600D01*
X-80800D01*
X-80400Y-35000D01*
X-80800Y-35400D01*
X-80400D01*
X-80000Y-35800D01*
X7000Y29200D02*
X7400Y29600D01*
X7800D01*
X7400Y30000D01*
X7800Y30400D01*
X7400D01*
X7000Y30800D01*
X6600Y30400D01*
X6200D01*
X6600Y30000D01*
X6200Y29600D01*
X6600D01*
X7000Y29200D01*
X-25500Y-34300D02*
X-25100Y-33900D01*
X-24700D01*
X-25100Y-33500D01*
X-24700Y-33100D01*
X-25100D01*
X-25500Y-32700D01*
X-25900Y-33100D01*
X-26300D01*
X-25900Y-33500D01*
X-26300Y-33900D01*
X-25900D01*
X-25500Y-34300D01*
Y-8800D02*
X-25100Y-8400D01*
X-24700D01*
X-25100Y-8000D01*
X-24700Y-7600D01*
X-25100D01*
X-25500Y-7200D01*
X-25900Y-7600D01*
X-26300D01*
X-25900Y-8000D01*
X-26300Y-8400D01*
X-25900D01*
X-25500Y-8800D01*
X-60000Y-33300D02*
X-59600Y-32900D01*
X-59200D01*
X-59600Y-32500D01*
X-59200Y-32100D01*
X-59600D01*
X-60000Y-31700D01*
X-60400Y-32100D01*
X-60800D01*
X-60400Y-32500D01*
X-60800Y-32900D01*
X-60400D01*
X-60000Y-33300D01*
X-46000Y-13800D02*
X-45600Y-13400D01*
X-45200D01*
X-45600Y-13000D01*
X-45200Y-12600D01*
X-45600D01*
X-46000Y-12200D01*
X-46400Y-12600D01*
X-46800D01*
X-46400Y-13000D01*
X-46800Y-13400D01*
X-46400D01*
X-46000Y-13800D01*
X-55500Y-15800D02*
X-55100Y-15400D01*
X-54700D01*
X-55100Y-15000D01*
X-54700Y-14600D01*
X-55100D01*
X-55500Y-14200D01*
X-55900Y-14600D01*
X-56300D01*
X-55900Y-15000D01*
X-56300Y-15400D01*
X-55900D01*
X-55500Y-15800D01*
X-24500Y-2300D02*
X-24100Y-1900D01*
X-23700D01*
X-24100Y-1500D01*
X-23700Y-1100D01*
X-24100D01*
X-24500Y-700D01*
X-24900Y-1100D01*
X-25300D01*
X-24900Y-1500D01*
X-25300Y-1900D01*
X-24900D01*
X-24500Y-2300D01*
X-90000Y-35800D02*
X-89600Y-35400D01*
X-89200D01*
X-89600Y-35000D01*
X-89200Y-34600D01*
X-89600D01*
X-90000Y-34200D01*
X-90400Y-34600D01*
X-90800D01*
X-90400Y-35000D01*
X-90800Y-35400D01*
X-90400D01*
X-90000Y-35800D01*
X-100000D02*
X-99600Y-35400D01*
X-99200D01*
X-99600Y-35000D01*
X-99200Y-34600D01*
X-99600D01*
X-100000Y-34200D01*
X-100400Y-34600D01*
X-100800D01*
X-100400Y-35000D01*
X-100800Y-35400D01*
X-100400D01*
X-100000Y-35800D01*
X-108000Y-24300D02*
X-107600Y-23900D01*
X-107200D01*
X-107600Y-23500D01*
X-107200Y-23100D01*
X-107600D01*
X-108000Y-22700D01*
X-108400Y-23100D01*
X-108800D01*
X-108400Y-23500D01*
X-108800Y-23900D01*
X-108400D01*
X-108000Y-24300D01*
X-124000D02*
X-123600Y-23900D01*
X-123200D01*
X-123600Y-23500D01*
X-123200Y-23100D01*
X-123600D01*
X-124000Y-22700D01*
X-124400Y-23100D01*
X-124800D01*
X-124400Y-23500D01*
X-124800Y-23900D01*
X-124400D01*
X-124000Y-24300D01*
X-114000Y5200D02*
X-113600Y5600D01*
X-113200D01*
X-113600Y6000D01*
X-113200Y6400D01*
X-113600D01*
X-114000Y6800D01*
X-114400Y6400D01*
X-114800D01*
X-114400Y6000D01*
X-114800Y5600D01*
X-114400D01*
X-114000Y5200D01*
X-130000Y89200D02*
X-129600Y89600D01*
X-129200D01*
X-129600Y90000D01*
X-129200Y90400D01*
X-129600D01*
X-130000Y90800D01*
X-130400Y90400D01*
X-130800D01*
X-130400Y90000D01*
X-130800Y89600D01*
X-130400D01*
X-130000Y89200D01*
X-5000Y64700D02*
X-4600Y65100D01*
X-4200D01*
X-4600Y65500D01*
X-4200Y65900D01*
X-4600D01*
X-5000Y66300D01*
X-5400Y65900D01*
X-5800D01*
X-5400Y65500D01*
X-5800Y65100D01*
X-5400D01*
X-5000Y64700D01*
X2000Y66200D02*
X2400Y66600D01*
X2800D01*
X2400Y67000D01*
X2800Y67400D01*
X2400D01*
X2000Y67800D01*
X1600Y67400D01*
X1200D01*
X1600Y67000D01*
X1200Y66600D01*
X1600D01*
X2000Y66200D01*
X-36100Y38726D02*
X-35700Y39126D01*
X-35300D01*
X-35700Y39526D01*
X-35300Y39926D01*
X-35700D01*
X-36100Y40326D01*
X-36500Y39926D01*
X-36900D01*
X-36500Y39526D01*
X-36900Y39126D01*
X-36500D01*
X-36100Y38726D01*
X-68500Y62200D02*
X-68100Y62600D01*
X-67700D01*
X-68100Y63000D01*
X-67700Y63400D01*
X-68100D01*
X-68500Y63800D01*
X-68900Y63400D01*
X-69300D01*
X-68900Y63000D01*
X-69300Y62600D01*
X-68900D01*
X-68500Y62200D01*
X-75000Y63200D02*
X-74600Y63600D01*
X-74200D01*
X-74600Y64000D01*
X-74200Y64400D01*
X-74600D01*
X-75000Y64800D01*
X-75400Y64400D01*
X-75800D01*
X-75400Y64000D01*
X-75800Y63600D01*
X-75400D01*
X-75000Y63200D01*
X-45300Y3025D02*
X-44900Y3425D01*
X-44500D01*
X-44900Y3825D01*
X-44500Y4225D01*
X-44900D01*
X-45300Y4625D01*
X-45700Y4225D01*
X-46100D01*
X-45700Y3825D01*
X-46100Y3425D01*
X-45700D01*
X-45300Y3025D01*
X-41600Y3125D02*
X-41200Y3525D01*
X-40800D01*
X-41200Y3925D01*
X-40800Y4325D01*
X-41200D01*
X-41600Y4725D01*
X-42000Y4325D01*
X-42400D01*
X-42000Y3925D01*
X-42400Y3525D01*
X-42000D01*
X-41600Y3125D01*
X-19101Y42495D02*
X-18701Y42895D01*
X-18301D01*
X-18701Y43295D01*
X-18301Y43695D01*
X-18701D01*
X-19101Y44095D01*
X-19501Y43695D01*
X-19901D01*
X-19501Y43295D01*
X-19901Y42895D01*
X-19501D01*
X-19101Y42495D01*
X600Y57326D02*
X1000Y57726D01*
X1400D01*
X1000Y58126D01*
X1400Y58526D01*
X1000D01*
X600Y58926D01*
X200Y58526D01*
X-200D01*
X200Y58126D01*
X-200Y57726D01*
X200D01*
X600Y57326D01*
X-20900D02*
X-20500Y57726D01*
X-20100D01*
X-20500Y58126D01*
X-20100Y58526D01*
X-20500D01*
X-20900Y58926D01*
X-21300Y58526D01*
X-21700D01*
X-21300Y58126D01*
X-21700Y57726D01*
X-21300D01*
X-20900Y57326D01*
X-45200Y37946D02*
X-44800Y38346D01*
X-44400D01*
X-44800Y38746D01*
X-44400Y39146D01*
X-44800D01*
X-45200Y39546D01*
X-45600Y39146D01*
X-46000D01*
X-45600Y38746D01*
X-46000Y38346D01*
X-45600D01*
X-45200Y37946D01*
X-49000Y57025D02*
X-48600Y57425D01*
X-48200D01*
X-48600Y57825D01*
X-48200Y58225D01*
X-48600D01*
X-49000Y58625D01*
X-49400Y58225D01*
X-49800D01*
X-49400Y57825D01*
X-49800Y57425D01*
X-49400D01*
X-49000Y57025D01*
X-60100Y21625D02*
X-59700Y22025D01*
X-59300D01*
X-59700Y22425D01*
X-59300Y22825D01*
X-59700D01*
X-60100Y23225D01*
X-60500Y22825D01*
X-60900D01*
X-60500Y22425D01*
X-60900Y22025D01*
X-60500D01*
X-60100Y21625D01*
X-63800Y8625D02*
X-63400Y9025D01*
X-63000D01*
X-63400Y9425D01*
X-63000Y9825D01*
X-63400D01*
X-63800Y10225D01*
X-64200Y9825D01*
X-64600D01*
X-64200Y9425D01*
X-64600Y9025D01*
X-64200D01*
X-63800Y8625D01*
X-59600D02*
X-59200Y9025D01*
X-58800D01*
X-59200Y9425D01*
X-58800Y9825D01*
X-59200D01*
X-59600Y10225D01*
X-60000Y9825D01*
X-60400D01*
X-60000Y9425D01*
X-60400Y9025D01*
X-60000D01*
X-59600Y8625D01*
X7000Y13200D02*
X7400Y13600D01*
X7800D01*
X7400Y14000D01*
X7800Y14400D01*
X7400D01*
X7000Y14800D01*
X6600Y14400D01*
X6200D01*
X6600Y14000D01*
X6200Y13600D01*
X6600D01*
X7000Y13200D01*
X-6500Y12200D02*
X-6100Y12600D01*
X-5700D01*
X-6100Y13000D01*
X-5700Y13400D01*
X-6100D01*
X-6500Y13800D01*
X-6900Y13400D01*
X-7300D01*
X-6900Y13000D01*
X-7300Y12600D01*
X-6900D01*
X-6500Y12200D01*
X1300Y17151D02*
X1700Y17551D01*
X2100D01*
X1700Y17951D01*
X2100Y18351D01*
X1700D01*
X1300Y18751D01*
X900Y18351D01*
X500D01*
X900Y17951D01*
X500Y17551D01*
X900D01*
X1300Y17151D01*
X-8200Y17125D02*
X-7800Y17525D01*
X-7400D01*
X-7800Y17925D01*
X-7400Y18325D01*
X-7800D01*
X-8200Y18725D01*
X-8600Y18325D01*
X-9000D01*
X-8600Y17925D01*
X-9000Y17525D01*
X-8600D01*
X-8200Y17125D01*
X1300Y23751D02*
X1700Y24151D01*
X2100D01*
X1700Y24551D01*
X2100Y24951D01*
X1700D01*
X1300Y25351D01*
X900Y24951D01*
X500D01*
X900Y24551D01*
X500Y24151D01*
X900D01*
X1300Y23751D01*
X1200Y35326D02*
X1600Y35726D01*
X2000D01*
X1600Y36126D01*
X2000Y36526D01*
X1600D01*
X1200Y36926D01*
X800Y36526D01*
X400D01*
X800Y36126D01*
X400Y35726D01*
X800D01*
X1200Y35326D01*
X-9101Y46526D02*
X-8701Y46926D01*
X-8301D01*
X-8701Y47326D01*
X-8301Y47726D01*
X-8701D01*
X-9101Y48126D01*
X-9501Y47726D01*
X-9901D01*
X-9501Y47326D01*
X-9901Y46926D01*
X-9501D01*
X-9101Y46526D01*
X600Y51626D02*
X1000Y52026D01*
X1400D01*
X1000Y52426D01*
X1400Y52826D01*
X1000D01*
X600Y53226D01*
X200Y52826D01*
X-200D01*
X200Y52426D01*
X-200Y52026D01*
X200D01*
X600Y51626D01*
X-12900Y45726D02*
X-12500Y46126D01*
X-12100D01*
X-12500Y46526D01*
X-12100Y46926D01*
X-12500D01*
X-12900Y47326D01*
X-13300Y46926D01*
X-13700D01*
X-13300Y46526D01*
X-13700Y46126D01*
X-13300D01*
X-12900Y45726D01*
X-16500Y46200D02*
X-16100Y46600D01*
X-15700D01*
X-16100Y47000D01*
X-15700Y47400D01*
X-16100D01*
X-16500Y47800D01*
X-16900Y47400D01*
X-17300D01*
X-16900Y47000D01*
X-17300Y46600D01*
X-16900D01*
X-16500Y46200D01*
X-21700Y45726D02*
X-21300Y46126D01*
X-20900D01*
X-21300Y46526D01*
X-20900Y46926D01*
X-21300D01*
X-21700Y47326D01*
X-22100Y46926D01*
X-22500D01*
X-22100Y46526D01*
X-22500Y46126D01*
X-22100D01*
X-21700Y45726D01*
X-63800Y37325D02*
X-63400Y37725D01*
X-63000D01*
X-63400Y38125D01*
X-63000Y38525D01*
X-63400D01*
X-63800Y38925D01*
X-64200Y38525D01*
X-64600D01*
X-64200Y38125D01*
X-64600Y37725D01*
X-64200D01*
X-63800Y37325D01*
X-57500Y44200D02*
X-57100Y44600D01*
X-56700D01*
X-57100Y45000D01*
X-56700Y45400D01*
X-57100D01*
X-57500Y45800D01*
X-57900Y45400D01*
X-58300D01*
X-57900Y45000D01*
X-58300Y44600D01*
X-57900D01*
X-57500Y44200D01*
X-53184Y36902D02*
X-52784Y37302D01*
X-52384D01*
X-52784Y37702D01*
X-52384Y38102D01*
X-52784D01*
X-53184Y38502D01*
X-53584Y38102D01*
X-53984D01*
X-53584Y37702D01*
X-53984Y37302D01*
X-53584D01*
X-53184Y36902D01*
X-59400Y33925D02*
X-59000Y34325D01*
X-58600D01*
X-59000Y34725D01*
X-58600Y35125D01*
X-59000D01*
X-59400Y35525D01*
X-59800Y35125D01*
X-60200D01*
X-59800Y34725D01*
X-60200Y34325D01*
X-59800D01*
X-59400Y33925D01*
X-19101Y38226D02*
X-18701Y38626D01*
X-18301D01*
X-18701Y39026D01*
X-18301Y39426D01*
X-18701D01*
X-19101Y39826D01*
X-19501Y39426D01*
X-19901D01*
X-19501Y39026D01*
X-19901Y38626D01*
X-19501D01*
X-19101Y38226D01*
X-44000Y10614D02*
X-43600Y11014D01*
X-43200D01*
X-43600Y11414D01*
X-43200Y11814D01*
X-43600D01*
X-44000Y12214D01*
X-44400Y11814D01*
X-44800D01*
X-44400Y11414D01*
X-44800Y11014D01*
X-44400D01*
X-44000Y10614D01*
X-58400Y29925D02*
X-58000Y30325D01*
X-57600D01*
X-58000Y30725D01*
X-57600Y31125D01*
X-58000D01*
X-58400Y31525D01*
X-58800Y31125D01*
X-59200D01*
X-58800Y30725D01*
X-59200Y30325D01*
X-58800D01*
X-58400Y29925D01*
X-6300Y29225D02*
X-5900Y29625D01*
X-5500D01*
X-5900Y30025D01*
X-5500Y30425D01*
X-5900D01*
X-6300Y30825D01*
X-6700Y30425D01*
X-7100D01*
X-6700Y30025D01*
X-7100Y29625D01*
X-6700D01*
X-6300Y29225D01*
Y32525D02*
X-5900Y32925D01*
X-5500D01*
X-5900Y33325D01*
X-5500Y33725D01*
X-5900D01*
X-6300Y34125D01*
X-6700Y33725D01*
X-7100D01*
X-6700Y33325D01*
X-7100Y32925D01*
X-6700D01*
X-6300Y32525D01*
X-55000Y51325D02*
X-54600Y51725D01*
X-54200D01*
X-54600Y52125D01*
X-54200Y52525D01*
X-54600D01*
X-55000Y52925D01*
X-55400Y52525D01*
X-55800D01*
X-55400Y52125D01*
X-55800Y51725D01*
X-55400D01*
X-55000Y51325D01*
X-8484Y23802D02*
X-8084Y24202D01*
X-7684D01*
X-8084Y24602D01*
X-7684Y25002D01*
X-8084D01*
X-8484Y25402D01*
X-8884Y25002D01*
X-9284D01*
X-8884Y24602D01*
X-9284Y24202D01*
X-8884D01*
X-8484Y23802D01*
X-25900Y45726D02*
X-25500Y46126D01*
X-25100D01*
X-25500Y46526D01*
X-25100Y46926D01*
X-25500D01*
X-25900Y47326D01*
X-26300Y46926D01*
X-26700D01*
X-26300Y46526D01*
X-26700Y46126D01*
X-26300D01*
X-25900Y45726D01*
X-2900Y35146D02*
X-2500Y35546D01*
X-2100D01*
X-2500Y35946D01*
X-2100Y36346D01*
X-2500D01*
X-2900Y36746D01*
X-3300Y36346D01*
X-3700D01*
X-3300Y35946D01*
X-3700Y35546D01*
X-3300D01*
X-2900Y35146D01*
X-25913Y15339D02*
X-25513Y16139D01*
X-25913Y16939D01*
X-25113Y16539D01*
X-24313Y16939D01*
X-24713Y16139D01*
X-24313Y15339D01*
X-25113Y15739D01*
X-25913Y15339D01*
X-30638D02*
X-30238Y16139D01*
X-30638Y16939D01*
X-29838Y16539D01*
X-29038Y16939D01*
X-29438Y16139D01*
X-29038Y15339D01*
X-29838Y15739D01*
X-30638Y15339D01*
X-35362D02*
X-34962Y16139D01*
X-35362Y16939D01*
X-34562Y16539D01*
X-33762Y16939D01*
X-34162Y16139D01*
X-33762Y15339D01*
X-34562Y15739D01*
X-35362Y15339D01*
X-40087D02*
X-39687Y16139D01*
X-40087Y16939D01*
X-39287Y16539D01*
X-38487Y16939D01*
X-38887Y16139D01*
X-38487Y15339D01*
X-39287Y15739D01*
X-40087Y15339D01*
X-25913Y20063D02*
X-25513Y20863D01*
X-25913Y21663D01*
X-25113Y21263D01*
X-24313Y21663D01*
X-24713Y20863D01*
X-24313Y20063D01*
X-25113Y20463D01*
X-25913Y20063D01*
X-30638D02*
X-30238Y20863D01*
X-30638Y21663D01*
X-29838Y21263D01*
X-29038Y21663D01*
X-29438Y20863D01*
X-29038Y20063D01*
X-29838Y20463D01*
X-30638Y20063D01*
X-35362D02*
X-34962Y20863D01*
X-35362Y21663D01*
X-34562Y21263D01*
X-33762Y21663D01*
X-34162Y20863D01*
X-33762Y20063D01*
X-34562Y20463D01*
X-35362Y20063D01*
X-40087D02*
X-39687Y20863D01*
X-40087Y21663D01*
X-39287Y21263D01*
X-38487Y21663D01*
X-38887Y20863D01*
X-38487Y20063D01*
X-39287Y20463D01*
X-40087Y20063D01*
X-25913Y24788D02*
X-25513Y25588D01*
X-25913Y26388D01*
X-25113Y25988D01*
X-24313Y26388D01*
X-24713Y25588D01*
X-24313Y24788D01*
X-25113Y25188D01*
X-25913Y24788D01*
X-30638D02*
X-30238Y25588D01*
X-30638Y26388D01*
X-29838Y25988D01*
X-29038Y26388D01*
X-29438Y25588D01*
X-29038Y24788D01*
X-29838Y25188D01*
X-30638Y24788D01*
X-35362D02*
X-34962Y25588D01*
X-35362Y26388D01*
X-34562Y25988D01*
X-33762Y26388D01*
X-34162Y25588D01*
X-33762Y24788D01*
X-34562Y25188D01*
X-35362Y24788D01*
X-40087D02*
X-39687Y25588D01*
X-40087Y26388D01*
X-39287Y25988D01*
X-38487Y26388D01*
X-38887Y25588D01*
X-38487Y24788D01*
X-39287Y25188D01*
X-40087Y24788D01*
X-25913Y29512D02*
X-25513Y30312D01*
X-25913Y31112D01*
X-25113Y30712D01*
X-24313Y31112D01*
X-24713Y30312D01*
X-24313Y29512D01*
X-25113Y29912D01*
X-25913Y29512D01*
X-30638D02*
X-30238Y30312D01*
X-30638Y31112D01*
X-29838Y30712D01*
X-29038Y31112D01*
X-29438Y30312D01*
X-29038Y29512D01*
X-29838Y29912D01*
X-30638Y29512D01*
X-35362D02*
X-34962Y30312D01*
X-35362Y31112D01*
X-34562Y30712D01*
X-33762Y31112D01*
X-34162Y30312D01*
X-33762Y29512D01*
X-34562Y29912D01*
X-35362Y29512D01*
X-40087D02*
X-39687Y30312D01*
X-40087Y31112D01*
X-39287Y30712D01*
X-38487Y31112D01*
X-38887Y30312D01*
X-38487Y29512D01*
X-39287Y29912D01*
X-40087Y29512D01*
X-500Y-30300D02*
X-1300Y-28700D01*
X300D01*
X-500Y-30300D01*
Y-19800D02*
X-1300Y-18200D01*
X300D01*
X-500Y-19800D01*
X-19000Y-21800D02*
X-18600Y-21400D01*
X-18200D01*
X-18600Y-21000D01*
X-18200Y-20600D01*
X-18600D01*
X-19000Y-20200D01*
X-19400Y-20600D01*
X-19800D01*
X-19400Y-21000D01*
X-19800Y-21400D01*
X-19400D01*
X-19000Y-21800D01*
X-29500D02*
X-29100Y-21400D01*
X-28700D01*
X-29100Y-21000D01*
X-28700Y-20600D01*
X-29100D01*
X-29500Y-20200D01*
X-29900Y-20600D01*
X-30300D01*
X-29900Y-21000D01*
X-30300Y-21400D01*
X-29900D01*
X-29500Y-21800D01*
X-103000Y16200D02*
X-102600Y16600D01*
X-102200D01*
X-102600Y17000D01*
X-102200Y17400D01*
X-102600D01*
X-103000Y17800D01*
X-103400Y17400D01*
X-103800D01*
X-103400Y17000D01*
X-103800Y16600D01*
X-103400D01*
X-103000Y16200D01*
X-100500Y5700D02*
X-100100Y6100D01*
X-99700D01*
X-100100Y6500D01*
X-99700Y6900D01*
X-100100D01*
X-100500Y7300D01*
X-100900Y6900D01*
X-101300D01*
X-100900Y6500D01*
X-101300Y6100D01*
X-100900D01*
X-100500Y5700D01*
X-47000Y-28800D02*
X-46600Y-28400D01*
X-46200D01*
X-46600Y-28000D01*
X-46200Y-27600D01*
X-46600D01*
X-47000Y-27200D01*
X-47400Y-27600D01*
X-47800D01*
X-47400Y-28000D01*
X-47800Y-28400D01*
X-47400D01*
X-47000Y-28800D01*
X-62500Y-29300D02*
X-62100Y-28900D01*
X-61700D01*
X-62100Y-28500D01*
X-61700Y-28100D01*
X-62100D01*
X-62500Y-27700D01*
X-62900Y-28100D01*
X-63300D01*
X-62900Y-28500D01*
X-63300Y-28900D01*
X-62900D01*
X-62500Y-29300D01*
X-78000Y-28800D02*
X-77600Y-28400D01*
X-77200D01*
X-77600Y-28000D01*
X-77200Y-27600D01*
X-77600D01*
X-78000Y-27200D01*
X-78400Y-27600D01*
X-78800D01*
X-78400Y-28000D01*
X-78800Y-28400D01*
X-78400D01*
X-78000Y-28800D01*
X-5000Y-24800D02*
X-4600Y-24400D01*
X-4200D01*
X-4600Y-24000D01*
X-4200Y-23600D01*
X-4600D01*
X-5000Y-23200D01*
X-5400Y-23600D01*
X-5800D01*
X-5400Y-24000D01*
X-5800Y-24400D01*
X-5400D01*
X-5000Y-24800D01*
X-50000Y13700D02*
X-49600Y14100D01*
X-49200D01*
X-49600Y14500D01*
X-49200Y14900D01*
X-49600D01*
X-50000Y15300D01*
X-50400Y14900D01*
X-50800D01*
X-50400Y14500D01*
X-50800Y14100D01*
X-50400D01*
X-50000Y13700D01*
X-54500Y-5800D02*
X-54100Y-5400D01*
X-53700D01*
X-54100Y-5000D01*
X-53700Y-4600D01*
X-54100D01*
X-54500Y-4200D01*
X-54900Y-4600D01*
X-55300D01*
X-54900Y-5000D01*
X-55300Y-5400D01*
X-54900D01*
X-54500Y-5800D01*
X-47500Y-19800D02*
X-47100Y-19400D01*
X-46700D01*
X-47100Y-19000D01*
X-46700Y-18600D01*
X-47100D01*
X-47500Y-18200D01*
X-47900Y-18600D01*
X-48300D01*
X-47900Y-19000D01*
X-48300Y-19400D01*
X-47900D01*
X-47500Y-19800D01*
X-42500Y60700D02*
X-42100Y61100D01*
X-41700D01*
X-42100Y61500D01*
X-41700Y61900D01*
X-42100D01*
X-42500Y62300D01*
X-42900Y61900D01*
X-43300D01*
X-42900Y61500D01*
X-43300Y61100D01*
X-42900D01*
X-42500Y60700D01*
X-14000Y51700D02*
X-13600Y52100D01*
X-13200D01*
X-13600Y52500D01*
X-13200Y52900D01*
X-13600D01*
X-14000Y53300D01*
X-14400Y52900D01*
X-14800D01*
X-14400Y52500D01*
X-14800Y52100D01*
X-14400D01*
X-14000Y51700D01*
X-5000Y50700D02*
X-4600Y51100D01*
X-4200D01*
X-4600Y51500D01*
X-4200Y51900D01*
X-4600D01*
X-5000Y52300D01*
X-5400Y51900D01*
X-5800D01*
X-5400Y51500D01*
X-5800Y51100D01*
X-5400D01*
X-5000Y50700D01*
X-78500Y8700D02*
X-78100Y9100D01*
X-77700D01*
X-78100Y9500D01*
X-77700Y9900D01*
X-78100D01*
X-78500Y10300D01*
X-78900Y9900D01*
X-79300D01*
X-78900Y9500D01*
X-79300Y9100D01*
X-78900D01*
X-78500Y8700D01*
X-71500D02*
X-71100Y9100D01*
X-70700D01*
X-71100Y9500D01*
X-70700Y9900D01*
X-71100D01*
X-71500Y10300D01*
X-71900Y9900D01*
X-72300D01*
X-71900Y9500D01*
X-72300Y9100D01*
X-71900D01*
X-71500Y8700D01*
X-99000Y-6800D02*
X-98600Y-6400D01*
X-98200D01*
X-98600Y-6000D01*
X-98200Y-5600D01*
X-98600D01*
X-99000Y-5200D01*
X-99400Y-5600D01*
X-99800D01*
X-99400Y-6000D01*
X-99800Y-6400D01*
X-99400D01*
X-99000Y-6800D01*
X-104000Y-14800D02*
X-103600Y-14400D01*
X-103200D01*
X-103600Y-14000D01*
X-103200Y-13600D01*
X-103600D01*
X-104000Y-13200D01*
X-104400Y-13600D01*
X-104800D01*
X-104400Y-14000D01*
X-104800Y-14400D01*
X-104400D01*
X-104000Y-14800D01*
X-19000Y-11800D02*
X-18600Y-11400D01*
X-18200D01*
X-18600Y-11000D01*
X-18200Y-10600D01*
X-18600D01*
X-19000Y-10200D01*
X-19400Y-10600D01*
X-19800D01*
X-19400Y-11000D01*
X-19800Y-11400D01*
X-19400D01*
X-19000Y-11800D01*
X-118000Y-23300D02*
X-117600Y-22900D01*
X-117200D01*
X-117600Y-22500D01*
X-117200Y-22100D01*
X-117600D01*
X-118000Y-21700D01*
X-118400Y-22100D01*
X-118800D01*
X-118400Y-22500D01*
X-118800Y-22900D01*
X-118400D01*
X-118000Y-23300D01*
X-123000Y-13300D02*
X-122600Y-12900D01*
X-122200D01*
X-122600Y-12500D01*
X-122200Y-12100D01*
X-122600D01*
X-123000Y-11700D01*
X-123400Y-12100D01*
X-123800D01*
X-123400Y-12500D01*
X-123800Y-12900D01*
X-123400D01*
X-123000Y-13300D01*
X-118000Y-3300D02*
X-117600Y-2900D01*
X-117200D01*
X-117600Y-2500D01*
X-117200Y-2100D01*
X-117600D01*
X-118000Y-1700D01*
X-118400Y-2100D01*
X-118800D01*
X-118400Y-2500D01*
X-118800Y-2900D01*
X-118400D01*
X-118000Y-3300D01*
X-123000Y26700D02*
X-122600Y27100D01*
X-122200D01*
X-122600Y27500D01*
X-122200Y27900D01*
X-122600D01*
X-123000Y28300D01*
X-123400Y27900D01*
X-123800D01*
X-123400Y27500D01*
X-123800Y27100D01*
X-123400D01*
X-123000Y26700D01*
X-118000Y36700D02*
X-117600Y37100D01*
X-117200D01*
X-117600Y37500D01*
X-117200Y37900D01*
X-117600D01*
X-118000Y38300D01*
X-118400Y37900D01*
X-118800D01*
X-118400Y37500D01*
X-118800Y37100D01*
X-118400D01*
X-118000Y36700D01*
Y56700D02*
X-117600Y57100D01*
X-117200D01*
X-117600Y57500D01*
X-117200Y57900D01*
X-117600D01*
X-118000Y58300D01*
X-118400Y57900D01*
X-118800D01*
X-118400Y57500D01*
X-118800Y57100D01*
X-118400D01*
X-118000Y56700D01*
X-123000Y66700D02*
X-122600Y67100D01*
X-122200D01*
X-122600Y67500D01*
X-122200Y67900D01*
X-122600D01*
X-123000Y68300D01*
X-123400Y67900D01*
X-123800D01*
X-123400Y67500D01*
X-123800Y67100D01*
X-123400D01*
X-123000Y66700D01*
Y86700D02*
X-122600Y87100D01*
X-122200D01*
X-122600Y87500D01*
X-122200Y87900D01*
X-122600D01*
X-123000Y88300D01*
X-123400Y87900D01*
X-123800D01*
X-123400Y87500D01*
X-123800Y87100D01*
X-123400D01*
X-123000Y86700D01*
X-113000Y-33300D02*
X-112600Y-32900D01*
X-112200D01*
X-112600Y-32500D01*
X-112200Y-32100D01*
X-112600D01*
X-113000Y-31700D01*
X-113400Y-32100D01*
X-113800D01*
X-113400Y-32500D01*
X-113800Y-32900D01*
X-113400D01*
X-113000Y-33300D01*
X-108000Y-3300D02*
X-107600Y-2900D01*
X-107200D01*
X-107600Y-2500D01*
X-107200Y-2100D01*
X-107600D01*
X-108000Y-1700D01*
X-108400Y-2100D01*
X-108800D01*
X-108400Y-2500D01*
X-108800Y-2900D01*
X-108400D01*
X-108000Y-3300D01*
X-113000Y26700D02*
X-112600Y27100D01*
X-112200D01*
X-112600Y27500D01*
X-112200Y27900D01*
X-112600D01*
X-113000Y28300D01*
X-113400Y27900D01*
X-113800D01*
X-113400Y27500D01*
X-113800Y27100D01*
X-113400D01*
X-113000Y26700D01*
Y66700D02*
X-112600Y67100D01*
X-112200D01*
X-112600Y67500D01*
X-112200Y67900D01*
X-112600D01*
X-113000Y68300D01*
X-113400Y67900D01*
X-113800D01*
X-113400Y67500D01*
X-113800Y67100D01*
X-113400D01*
X-113000Y66700D01*
Y86700D02*
X-112600Y87100D01*
X-112200D01*
X-112600Y87500D01*
X-112200Y87900D01*
X-112600D01*
X-113000Y88300D01*
X-113400Y87900D01*
X-113800D01*
X-113400Y87500D01*
X-113800Y87100D01*
X-113400D01*
X-113000Y86700D01*
X-103000Y-33300D02*
X-102600Y-32900D01*
X-102200D01*
X-102600Y-32500D01*
X-102200Y-32100D01*
X-102600D01*
X-103000Y-31700D01*
X-103400Y-32100D01*
X-103800D01*
X-103400Y-32500D01*
X-103800Y-32900D01*
X-103400D01*
X-103000Y-33300D01*
X-98000Y-23300D02*
X-97600Y-22900D01*
X-97200D01*
X-97600Y-22500D01*
X-97200Y-22100D01*
X-97600D01*
X-98000Y-21700D01*
X-98400Y-22100D01*
X-98800D01*
X-98400Y-22500D01*
X-98800Y-22900D01*
X-98400D01*
X-98000Y-23300D01*
X-103000Y26700D02*
X-102600Y27100D01*
X-102200D01*
X-102600Y27500D01*
X-102200Y27900D01*
X-102600D01*
X-103000Y28300D01*
X-103400Y27900D01*
X-103800D01*
X-103400Y27500D01*
X-103800Y27100D01*
X-103400D01*
X-103000Y26700D01*
X-98000Y36700D02*
X-97600Y37100D01*
X-97200D01*
X-97600Y37500D01*
X-97200Y37900D01*
X-97600D01*
X-98000Y38300D01*
X-98400Y37900D01*
X-98800D01*
X-98400Y37500D01*
X-98800Y37100D01*
X-98400D01*
X-98000Y36700D01*
X-103000Y46700D02*
X-102600Y47100D01*
X-102200D01*
X-102600Y47500D01*
X-102200Y47900D01*
X-102600D01*
X-103000Y48300D01*
X-103400Y47900D01*
X-103800D01*
X-103400Y47500D01*
X-103800Y47100D01*
X-103400D01*
X-103000Y46700D01*
X-98000Y56700D02*
X-97600Y57100D01*
X-97200D01*
X-97600Y57500D01*
X-97200Y57900D01*
X-97600D01*
X-98000Y58300D01*
X-98400Y57900D01*
X-98800D01*
X-98400Y57500D01*
X-98800Y57100D01*
X-98400D01*
X-98000Y56700D01*
X-103000Y66700D02*
X-102600Y67100D01*
X-102200D01*
X-102600Y67500D01*
X-102200Y67900D01*
X-102600D01*
X-103000Y68300D01*
X-103400Y67900D01*
X-103800D01*
X-103400Y67500D01*
X-103800Y67100D01*
X-103400D01*
X-103000Y66700D01*
Y86700D02*
X-102600Y87100D01*
X-102200D01*
X-102600Y87500D01*
X-102200Y87900D01*
X-102600D01*
X-103000Y88300D01*
X-103400Y87900D01*
X-103800D01*
X-103400Y87500D01*
X-103800Y87100D01*
X-103400D01*
X-103000Y86700D01*
X-93000Y-33300D02*
X-92600Y-32900D01*
X-92200D01*
X-92600Y-32500D01*
X-92200Y-32100D01*
X-92600D01*
X-93000Y-31700D01*
X-93400Y-32100D01*
X-93800D01*
X-93400Y-32500D01*
X-93800Y-32900D01*
X-93400D01*
X-93000Y-33300D01*
Y6700D02*
X-92600Y7100D01*
X-92200D01*
X-92600Y7500D01*
X-92200Y7900D01*
X-92600D01*
X-93000Y8300D01*
X-93400Y7900D01*
X-93800D01*
X-93400Y7500D01*
X-93800Y7100D01*
X-93400D01*
X-93000Y6700D01*
Y26700D02*
X-92600Y27100D01*
X-92200D01*
X-92600Y27500D01*
X-92200Y27900D01*
X-92600D01*
X-93000Y28300D01*
X-93400Y27900D01*
X-93800D01*
X-93400Y27500D01*
X-93800Y27100D01*
X-93400D01*
X-93000Y26700D01*
X-88000Y36700D02*
X-87600Y37100D01*
X-87200D01*
X-87600Y37500D01*
X-87200Y37900D01*
X-87600D01*
X-88000Y38300D01*
X-88400Y37900D01*
X-88800D01*
X-88400Y37500D01*
X-88800Y37100D01*
X-88400D01*
X-88000Y36700D01*
X-93000Y46700D02*
X-92600Y47100D01*
X-92200D01*
X-92600Y47500D01*
X-92200Y47900D01*
X-92600D01*
X-93000Y48300D01*
X-93400Y47900D01*
X-93800D01*
X-93400Y47500D01*
X-93800Y47100D01*
X-93400D01*
X-93000Y46700D01*
X-88000Y56700D02*
X-87600Y57100D01*
X-87200D01*
X-87600Y57500D01*
X-87200Y57900D01*
X-87600D01*
X-88000Y58300D01*
X-88400Y57900D01*
X-88800D01*
X-88400Y57500D01*
X-88800Y57100D01*
X-88400D01*
X-88000Y56700D01*
X-93000Y66700D02*
X-92600Y67100D01*
X-92200D01*
X-92600Y67500D01*
X-92200Y67900D01*
X-92600D01*
X-93000Y68300D01*
X-93400Y67900D01*
X-93800D01*
X-93400Y67500D01*
X-93800Y67100D01*
X-93400D01*
X-93000Y66700D01*
Y86700D02*
X-92600Y87100D01*
X-92200D01*
X-92600Y87500D01*
X-92200Y87900D01*
X-92600D01*
X-93000Y88300D01*
X-93400Y87900D01*
X-93800D01*
X-93400Y87500D01*
X-93800Y87100D01*
X-93400D01*
X-93000Y86700D01*
X-78000Y16700D02*
X-77600Y17100D01*
X-77200D01*
X-77600Y17500D01*
X-77200Y17900D01*
X-77600D01*
X-78000Y18300D01*
X-78400Y17900D01*
X-78800D01*
X-78400Y17500D01*
X-78800Y17100D01*
X-78400D01*
X-78000Y16700D01*
X-83000Y26700D02*
X-82600Y27100D01*
X-82200D01*
X-82600Y27500D01*
X-82200Y27900D01*
X-82600D01*
X-83000Y28300D01*
X-83400Y27900D01*
X-83800D01*
X-83400Y27500D01*
X-83800Y27100D01*
X-83400D01*
X-83000Y26700D01*
X-78000Y36700D02*
X-77600Y37100D01*
X-77200D01*
X-77600Y37500D01*
X-77200Y37900D01*
X-77600D01*
X-78000Y38300D01*
X-78400Y37900D01*
X-78800D01*
X-78400Y37500D01*
X-78800Y37100D01*
X-78400D01*
X-78000Y36700D01*
X-83000Y46700D02*
X-82600Y47100D01*
X-82200D01*
X-82600Y47500D01*
X-82200Y47900D01*
X-82600D01*
X-83000Y48300D01*
X-83400Y47900D01*
X-83800D01*
X-83400Y47500D01*
X-83800Y47100D01*
X-83400D01*
X-83000Y46700D01*
X-78000Y56700D02*
X-77600Y57100D01*
X-77200D01*
X-77600Y57500D01*
X-77200Y57900D01*
X-77600D01*
X-78000Y58300D01*
X-78400Y57900D01*
X-78800D01*
X-78400Y57500D01*
X-78800Y57100D01*
X-78400D01*
X-78000Y56700D01*
X-83000Y66700D02*
X-82600Y67100D01*
X-82200D01*
X-82600Y67500D01*
X-82200Y67900D01*
X-82600D01*
X-83000Y68300D01*
X-83400Y67900D01*
X-83800D01*
X-83400Y67500D01*
X-83800Y67100D01*
X-83400D01*
X-83000Y66700D01*
X-78000Y76700D02*
X-77600Y77100D01*
X-77200D01*
X-77600Y77500D01*
X-77200Y77900D01*
X-77600D01*
X-78000Y78300D01*
X-78400Y77900D01*
X-78800D01*
X-78400Y77500D01*
X-78800Y77100D01*
X-78400D01*
X-78000Y76700D01*
X-83000Y86700D02*
X-82600Y87100D01*
X-82200D01*
X-82600Y87500D01*
X-82200Y87900D01*
X-82600D01*
X-83000Y88300D01*
X-83400Y87900D01*
X-83800D01*
X-83400Y87500D01*
X-83800Y87100D01*
X-83400D01*
X-83000Y86700D01*
X-68000Y16700D02*
X-67600Y17100D01*
X-67200D01*
X-67600Y17500D01*
X-67200Y17900D01*
X-67600D01*
X-68000Y18300D01*
X-68400Y17900D01*
X-68800D01*
X-68400Y17500D01*
X-68800Y17100D01*
X-68400D01*
X-68000Y16700D01*
X-73000Y26700D02*
X-72600Y27100D01*
X-72200D01*
X-72600Y27500D01*
X-72200Y27900D01*
X-72600D01*
X-73000Y28300D01*
X-73400Y27900D01*
X-73800D01*
X-73400Y27500D01*
X-73800Y27100D01*
X-73400D01*
X-73000Y26700D01*
X-68000Y36700D02*
X-67600Y37100D01*
X-67200D01*
X-67600Y37500D01*
X-67200Y37900D01*
X-67600D01*
X-68000Y38300D01*
X-68400Y37900D01*
X-68800D01*
X-68400Y37500D01*
X-68800Y37100D01*
X-68400D01*
X-68000Y36700D01*
X-73000Y46700D02*
X-72600Y47100D01*
X-72200D01*
X-72600Y47500D01*
X-72200Y47900D01*
X-72600D01*
X-73000Y48300D01*
X-73400Y47900D01*
X-73800D01*
X-73400Y47500D01*
X-73800Y47100D01*
X-73400D01*
X-73000Y46700D01*
X-68000Y56700D02*
X-67600Y57100D01*
X-67200D01*
X-67600Y57500D01*
X-67200Y57900D01*
X-67600D01*
X-68000Y58300D01*
X-68400Y57900D01*
X-68800D01*
X-68400Y57500D01*
X-68800Y57100D01*
X-68400D01*
X-68000Y56700D01*
X-63000Y-33300D02*
X-62600Y-32900D01*
X-62200D01*
X-62600Y-32500D01*
X-62200Y-32100D01*
X-62600D01*
X-63000Y-31700D01*
X-63400Y-32100D01*
X-63800D01*
X-63400Y-32500D01*
X-63800Y-32900D01*
X-63400D01*
X-63000Y-33300D01*
Y-13300D02*
X-62600Y-12900D01*
X-62200D01*
X-62600Y-12500D01*
X-62200Y-12100D01*
X-62600D01*
X-63000Y-11700D01*
X-63400Y-12100D01*
X-63800D01*
X-63400Y-12500D01*
X-63800Y-12900D01*
X-63400D01*
X-63000Y-13300D01*
X-58000Y56700D02*
X-57600Y57100D01*
X-57200D01*
X-57600Y57500D01*
X-57200Y57900D01*
X-57600D01*
X-58000Y58300D01*
X-58400Y57900D01*
X-58800D01*
X-58400Y57500D01*
X-58800Y57100D01*
X-58400D01*
X-58000Y56700D01*
X-53000Y-13300D02*
X-52600Y-12900D01*
X-52200D01*
X-52600Y-12500D01*
X-52200Y-12100D01*
X-52600D01*
X-53000Y-11700D01*
X-53400Y-12100D01*
X-53800D01*
X-53400Y-12500D01*
X-53800Y-12900D01*
X-53400D01*
X-53000Y-13300D01*
Y46700D02*
X-52600Y47100D01*
X-52200D01*
X-52600Y47500D01*
X-52200Y47900D01*
X-52600D01*
X-53000Y48300D01*
X-53400Y47900D01*
X-53800D01*
X-53400Y47500D01*
X-53800Y47100D01*
X-53400D01*
X-53000Y46700D01*
X-38000Y-23300D02*
X-37600Y-22900D01*
X-37200D01*
X-37600Y-22500D01*
X-37200Y-22100D01*
X-37600D01*
X-38000Y-21700D01*
X-38400Y-22100D01*
X-38800D01*
X-38400Y-22500D01*
X-38800Y-22900D01*
X-38400D01*
X-38000Y-23300D01*
Y56700D02*
X-37600Y57100D01*
X-37200D01*
X-37600Y57500D01*
X-37200Y57900D01*
X-37600D01*
X-38000Y58300D01*
X-38400Y57900D01*
X-38800D01*
X-38400Y57500D01*
X-38800Y57100D01*
X-38400D01*
X-38000Y56700D01*
X-33000Y6700D02*
X-32600Y7100D01*
X-32200D01*
X-32600Y7500D01*
X-32200Y7900D01*
X-32600D01*
X-33000Y8300D01*
X-33400Y7900D01*
X-33800D01*
X-33400Y7500D01*
X-33800Y7100D01*
X-33400D01*
X-33000Y6700D01*
X-18000Y-3300D02*
X-17600Y-2900D01*
X-17200D01*
X-17600Y-2500D01*
X-17200Y-2100D01*
X-17600D01*
X-18000Y-1700D01*
X-18400Y-2100D01*
X-18800D01*
X-18400Y-2500D01*
X-18800Y-2900D01*
X-18400D01*
X-18000Y-3300D01*
X-23000Y6700D02*
X-22600Y7100D01*
X-22200D01*
X-22600Y7500D01*
X-22200Y7900D01*
X-22600D01*
X-23000Y8300D01*
X-23400Y7900D01*
X-23800D01*
X-23400Y7500D01*
X-23800Y7100D01*
X-23400D01*
X-23000Y6700D01*
X-18000Y56700D02*
X-17600Y57100D01*
X-17200D01*
X-17600Y57500D01*
X-17200Y57900D01*
X-17600D01*
X-18000Y58300D01*
X-18400Y57900D01*
X-18800D01*
X-18400Y57500D01*
X-18800Y57100D01*
X-18400D01*
X-18000Y56700D01*
X-8000Y-3300D02*
X-7600Y-2900D01*
X-7200D01*
X-7600Y-2500D01*
X-7200Y-2100D01*
X-7600D01*
X-8000Y-1700D01*
X-8400Y-2100D01*
X-8800D01*
X-8400Y-2500D01*
X-8800Y-2900D01*
X-8400D01*
X-8000Y-3300D01*
X-13000Y6700D02*
X-12600Y7100D01*
X-12200D01*
X-12600Y7500D01*
X-12200Y7900D01*
X-12600D01*
X-13000Y8300D01*
X-13400Y7900D01*
X-13800D01*
X-13400Y7500D01*
X-13800Y7100D01*
X-13400D01*
X-13000Y6700D01*
X-8000Y56700D02*
X-7600Y57100D01*
X-7200D01*
X-7600Y57500D01*
X-7200Y57900D01*
X-7600D01*
X-8000Y58300D01*
X-8400Y57900D01*
X-8800D01*
X-8400Y57500D01*
X-8800Y57100D01*
X-8400D01*
X-8000Y56700D01*
Y76700D02*
X-7600Y77100D01*
X-7200D01*
X-7600Y77500D01*
X-7200Y77900D01*
X-7600D01*
X-8000Y78300D01*
X-8400Y77900D01*
X-8800D01*
X-8400Y77500D01*
X-8800Y77100D01*
X-8400D01*
X-8000Y76700D01*
X-3000Y-13300D02*
X-2600Y-12900D01*
X-2200D01*
X-2600Y-12500D01*
X-2200Y-12100D01*
X-2600D01*
X-3000Y-11700D01*
X-3400Y-12100D01*
X-3800D01*
X-3400Y-12500D01*
X-3800Y-12900D01*
X-3400D01*
X-3000Y-13300D01*
X2000Y-3300D02*
X2400Y-2900D01*
X2800D01*
X2400Y-2500D01*
X2800Y-2100D01*
X2400D01*
X2000Y-1700D01*
X1600Y-2100D01*
X1200D01*
X1600Y-2500D01*
X1200Y-2900D01*
X1600D01*
X2000Y-3300D01*
X-3000Y26700D02*
X-2600Y27100D01*
X-2200D01*
X-2600Y27500D01*
X-2200Y27900D01*
X-2600D01*
X-3000Y28300D01*
X-3400Y27900D01*
X-3800D01*
X-3400Y27500D01*
X-3800Y27100D01*
X-3400D01*
X-3000Y26700D01*
X2000Y76700D02*
X2400Y77100D01*
X2800D01*
X2400Y77500D01*
X2800Y77900D01*
X2400D01*
X2000Y78300D01*
X1600Y77900D01*
X1200D01*
X1600Y77500D01*
X1200Y77100D01*
X1600D01*
X2000Y76700D01*
X7000Y-33300D02*
X7400Y-32900D01*
X7800D01*
X7400Y-32500D01*
X7800Y-32100D01*
X7400D01*
X7000Y-31700D01*
X6600Y-32100D01*
X6200D01*
X6600Y-32500D01*
X6200Y-32900D01*
X6600D01*
X7000Y-33300D01*
X22000Y-23300D02*
X22400Y-22900D01*
X22800D01*
X22400Y-22500D01*
X22800Y-22100D01*
X22400D01*
X22000Y-21700D01*
X21600Y-22100D01*
X21200D01*
X21600Y-22500D01*
X21200Y-22900D01*
X21600D01*
X22000Y-23300D01*
X27000Y-33300D02*
X27400Y-32900D01*
X27800D01*
X27400Y-32500D01*
X27800Y-32100D01*
X27400D01*
X27000Y-31700D01*
X26600Y-32100D01*
X26200D01*
X26600Y-32500D01*
X26200Y-32900D01*
X26600D01*
X27000Y-33300D01*
X32000Y-23300D02*
X32400Y-22900D01*
X32800D01*
X32400Y-22500D01*
X32800Y-22100D01*
X32400D01*
X32000Y-21700D01*
X31600Y-22100D01*
X31200D01*
X31600Y-22500D01*
X31200Y-22900D01*
X31600D01*
X32000Y-23300D01*
X27000Y-13300D02*
X27400Y-12900D01*
X27800D01*
X27400Y-12500D01*
X27800Y-12100D01*
X27400D01*
X27000Y-11700D01*
X26600Y-12100D01*
X26200D01*
X26600Y-12500D01*
X26200Y-12900D01*
X26600D01*
X27000Y-13300D01*
D77*
X-10200Y-29500D02*
G03*
X-10200Y-29500I-800J0D01*
G01*
Y-19500D02*
G03*
X-10200Y-19500I-800J0D01*
G01*
Y-9500D02*
G03*
X-10200Y-9500I-800J0D01*
G01*
M02*
