G04 Layer_Physical_Order=2*
G04 Layer_Color=16711680*
%FSLAX25Y25*%
%MOIN*%
G70*
G01*
G75*
%ADD31C,0.01000*%
%ADD32C,0.01968*%
%ADD33C,0.01500*%
%ADD41C,0.06000*%
%ADD42C,0.07874*%
%ADD43C,0.05000*%
%ADD44C,0.02400*%
%ADD45C,0.02598*%
G36*
X9000Y7102D02*
X8500Y7003D01*
X8494Y7017D01*
X7853Y7853D01*
X7017Y8494D01*
X6044Y8897D01*
X5000Y9035D01*
X3956Y8897D01*
X2983Y8494D01*
X2147Y7853D01*
X1506Y7017D01*
X1103Y6044D01*
X965Y5000D01*
X1103Y3956D01*
X1506Y2983D01*
X2147Y2147D01*
X2983Y1506D01*
X3956Y1103D01*
X5000Y965D01*
X6044Y1103D01*
X7017Y1506D01*
X7853Y2147D01*
X8494Y2983D01*
X8500Y2997D01*
X9000Y2898D01*
Y-8500D01*
X34474Y-8500D01*
Y-38675D01*
X-133175D01*
Y92374D01*
X9000D01*
Y7102D01*
D02*
G37*
%LPC*%
G36*
X-89000Y-5965D02*
X-90044Y-6103D01*
X-91017Y-6506D01*
X-91853Y-7147D01*
X-92494Y-7983D01*
X-92897Y-8956D01*
X-93034Y-10000D01*
X-92897Y-11044D01*
X-92494Y-12017D01*
X-91853Y-12853D01*
X-91017Y-13494D01*
X-90044Y-13897D01*
X-89000Y-14035D01*
X-87956Y-13897D01*
X-86983Y-13494D01*
X-86147Y-12853D01*
X-85506Y-12017D01*
X-85103Y-11044D01*
X-84965Y-10000D01*
X-85103Y-8956D01*
X-85506Y-7983D01*
X-86147Y-7147D01*
X-86983Y-6506D01*
X-87956Y-6103D01*
X-89000Y-5965D01*
D02*
G37*
G36*
X-79500Y-10500D02*
X-82969D01*
X-82897Y-11044D01*
X-82494Y-12017D01*
X-81853Y-12853D01*
X-81017Y-13494D01*
X-80044Y-13897D01*
X-79500Y-13969D01*
Y-10500D01*
D02*
G37*
G36*
X-75031D02*
X-78500D01*
Y-13969D01*
X-77956Y-13897D01*
X-76983Y-13494D01*
X-76147Y-12853D01*
X-75506Y-12017D01*
X-75103Y-11044D01*
X-75031Y-10500D01*
D02*
G37*
G36*
X14500Y-30500D02*
X11031D01*
X11103Y-31044D01*
X11506Y-32017D01*
X12147Y-32853D01*
X12983Y-33494D01*
X13956Y-33897D01*
X14500Y-33969D01*
Y-30500D01*
D02*
G37*
G36*
X18969D02*
X15500D01*
Y-33969D01*
X16044Y-33897D01*
X17017Y-33494D01*
X17853Y-32853D01*
X18494Y-32017D01*
X18897Y-31044D01*
X18969Y-30500D01*
D02*
G37*
G36*
X-11000Y-4520D02*
X-12289Y-4690D01*
X-13490Y-5187D01*
X-14521Y-5979D01*
X-15313Y-7010D01*
X-15810Y-8211D01*
X-15980Y-9500D01*
X-15810Y-10789D01*
X-15313Y-11990D01*
X-14521Y-13021D01*
X-13490Y-13813D01*
X-12483Y-14229D01*
Y-14771D01*
X-13490Y-15188D01*
X-14521Y-15979D01*
X-15313Y-17010D01*
X-15810Y-18211D01*
X-15980Y-19500D01*
X-15810Y-20789D01*
X-15313Y-21990D01*
X-14521Y-23021D01*
X-13490Y-23812D01*
X-12483Y-24229D01*
Y-24771D01*
X-13490Y-25188D01*
X-14521Y-25979D01*
X-15313Y-27010D01*
X-15810Y-28211D01*
X-15980Y-29500D01*
X-15810Y-30789D01*
X-15313Y-31990D01*
X-14521Y-33021D01*
X-13490Y-33812D01*
X-12289Y-34310D01*
X-11000Y-34480D01*
X-9711Y-34310D01*
X-8510Y-33812D01*
X-7479Y-33021D01*
X-6688Y-31990D01*
X-6494Y-31523D01*
X-3359D01*
X-2996Y-31996D01*
X-2265Y-32557D01*
X-1414Y-32910D01*
X-500Y-33030D01*
X414Y-32910D01*
X1265Y-32557D01*
X1996Y-31996D01*
X2557Y-31265D01*
X2910Y-30414D01*
X3030Y-29500D01*
X2952Y-28909D01*
X7712Y-24149D01*
X11511D01*
X12147Y-24979D01*
X12983Y-25620D01*
X13399Y-25792D01*
Y-26334D01*
X12983Y-26506D01*
X12147Y-27147D01*
X11506Y-27983D01*
X11103Y-28956D01*
X11031Y-29500D01*
X15000D01*
X18969D01*
X18897Y-28956D01*
X18494Y-27983D01*
X17853Y-27147D01*
X17017Y-26506D01*
X16601Y-26334D01*
Y-25792D01*
X17017Y-25620D01*
X17853Y-24979D01*
X18494Y-24143D01*
X18897Y-23170D01*
X19035Y-22126D01*
X18897Y-21082D01*
X18494Y-20109D01*
X17853Y-19273D01*
X17017Y-18632D01*
X16601Y-18460D01*
Y-17918D01*
X17017Y-17746D01*
X17853Y-17105D01*
X18494Y-16269D01*
X18897Y-15296D01*
X18969Y-14752D01*
X11031D01*
X11103Y-15296D01*
X11506Y-16269D01*
X12147Y-17105D01*
X12983Y-17746D01*
X13399Y-17918D01*
Y-18460D01*
X12983Y-18632D01*
X12147Y-19273D01*
X11511Y-20103D01*
X6874D01*
X6100Y-20257D01*
X5443Y-20695D01*
X91Y-26048D01*
X-500Y-25970D01*
X-1414Y-26090D01*
X-2265Y-26443D01*
X-2996Y-27004D01*
X-3359Y-27477D01*
X-6494D01*
X-6688Y-27010D01*
X-7479Y-25979D01*
X-8510Y-25188D01*
X-9517Y-24771D01*
Y-24229D01*
X-8510Y-23812D01*
X-7479Y-23021D01*
X-6688Y-21990D01*
X-6287Y-21023D01*
X-3359D01*
X-2996Y-21496D01*
X-2265Y-22057D01*
X-1414Y-22410D01*
X-500Y-22530D01*
X414Y-22410D01*
X1265Y-22057D01*
X1996Y-21496D01*
X2557Y-20765D01*
X2910Y-19914D01*
X3030Y-19000D01*
X2910Y-18086D01*
X2557Y-17235D01*
X1996Y-16504D01*
X1265Y-15943D01*
X414Y-15590D01*
X-500Y-15470D01*
X-1414Y-15590D01*
X-2265Y-15943D01*
X-2996Y-16504D01*
X-3359Y-16977D01*
X-6713D01*
X-7479Y-15979D01*
X-8510Y-15188D01*
X-9517Y-14771D01*
Y-14229D01*
X-8510Y-13813D01*
X-7479Y-13021D01*
X-6688Y-11990D01*
X-6190Y-10789D01*
X-6020Y-9500D01*
X-6190Y-8211D01*
X-6688Y-7010D01*
X-7479Y-5979D01*
X-8510Y-5187D01*
X-9711Y-4690D01*
X-11000Y-4520D01*
D02*
G37*
G36*
X-78500Y-6031D02*
Y-9500D01*
X-75031D01*
X-75103Y-8956D01*
X-75506Y-7983D01*
X-76147Y-7147D01*
X-76983Y-6506D01*
X-77956Y-6103D01*
X-78500Y-6031D01*
D02*
G37*
G36*
X-5000Y9035D02*
X-6044Y8897D01*
X-7017Y8494D01*
X-7853Y7853D01*
X-8494Y7017D01*
X-8897Y6044D01*
X-9035Y5000D01*
X-8897Y3956D01*
X-8494Y2983D01*
X-7853Y2147D01*
X-7017Y1506D01*
X-6044Y1103D01*
X-5000Y965D01*
X-3956Y1103D01*
X-2983Y1506D01*
X-2147Y2147D01*
X-1506Y2983D01*
X-1103Y3956D01*
X-965Y5000D01*
X-1103Y6044D01*
X-1506Y7017D01*
X-2147Y7853D01*
X-2983Y8494D01*
X-3956Y8897D01*
X-5000Y9035D01*
D02*
G37*
G36*
X-19101Y41269D02*
X-19959Y41098D01*
X-20687Y40612D01*
X-21173Y39884D01*
X-21344Y39026D01*
X-21331Y38959D01*
X-22335Y37955D01*
X-50992D01*
X-51112Y38560D01*
X-51598Y39288D01*
X-52326Y39774D01*
X-53184Y39945D01*
X-54043Y39774D01*
X-54770Y39288D01*
X-55257Y38560D01*
X-55427Y37702D01*
X-55257Y36843D01*
X-54969Y36412D01*
Y28891D01*
X-54833Y28208D01*
X-54446Y27630D01*
X-48579Y21763D01*
Y9120D01*
X-48443Y8438D01*
X-48057Y7859D01*
X-43773Y3576D01*
X-43672Y3067D01*
X-43523Y2844D01*
Y1489D01*
X-44353Y853D01*
X-44989Y23D01*
X-66141D01*
X-66504Y496D01*
X-67235Y1057D01*
X-68086Y1410D01*
X-69000Y1530D01*
X-69914Y1410D01*
X-70765Y1057D01*
X-71496Y496D01*
X-72057Y-235D01*
X-72410Y-1086D01*
X-72530Y-2000D01*
X-72410Y-2914D01*
X-72057Y-3765D01*
X-71496Y-4496D01*
X-71023Y-4859D01*
Y-6510D01*
X-71853Y-7147D01*
X-72494Y-7983D01*
X-72897Y-8956D01*
X-73035Y-10000D01*
X-72897Y-11044D01*
X-72494Y-12017D01*
X-71853Y-12853D01*
X-71017Y-13494D01*
X-70044Y-13897D01*
X-69000Y-14035D01*
X-67956Y-13897D01*
X-66983Y-13494D01*
X-66147Y-12853D01*
X-65506Y-12017D01*
X-65103Y-11044D01*
X-64965Y-10000D01*
X-65103Y-8956D01*
X-65506Y-7983D01*
X-66147Y-7147D01*
X-66977Y-6510D01*
Y-4859D01*
X-66504Y-4496D01*
X-66141Y-4023D01*
X-44989D01*
X-44353Y-4853D01*
X-43517Y-5494D01*
X-42544Y-5897D01*
X-41500Y-6035D01*
X-40456Y-5897D01*
X-39483Y-5494D01*
X-38647Y-4853D01*
X-38006Y-4017D01*
X-37603Y-3044D01*
X-37466Y-2000D01*
X-37603Y-956D01*
X-38006Y17D01*
X-38647Y853D01*
X-39477Y1489D01*
Y3322D01*
X-39357Y3925D01*
X-39528Y4784D01*
X-40014Y5511D01*
X-40742Y5998D01*
X-41250Y6099D01*
X-45011Y9860D01*
Y22502D01*
X-45011Y22502D01*
X-45147Y23185D01*
X-45533Y23764D01*
X-45533Y23764D01*
X-51400Y29630D01*
Y34896D01*
X-21701D01*
X-21116Y35012D01*
X-20620Y35344D01*
X-19168Y36796D01*
X-19101Y36783D01*
X-18242Y36954D01*
X-17515Y37440D01*
X-17029Y38168D01*
X-16858Y39026D01*
X-17029Y39884D01*
X-17515Y40612D01*
X-18242Y41098D01*
X-19101Y41269D01*
D02*
G37*
G36*
X14500Y-10283D02*
X13956Y-10355D01*
X12983Y-10758D01*
X12147Y-11399D01*
X11506Y-12235D01*
X11103Y-13208D01*
X11031Y-13752D01*
X14500D01*
Y-10283D01*
D02*
G37*
G36*
X15500D02*
Y-13752D01*
X18969D01*
X18897Y-13208D01*
X18494Y-12235D01*
X17853Y-11399D01*
X17017Y-10758D01*
X16044Y-10355D01*
X15500Y-10283D01*
D02*
G37*
G36*
X-79500Y-6031D02*
X-80044Y-6103D01*
X-81017Y-6506D01*
X-81853Y-7147D01*
X-82494Y-7983D01*
X-82897Y-8956D01*
X-82969Y-9500D01*
X-79500D01*
Y-6031D01*
D02*
G37*
%LPD*%
D31*
X-53184Y37702D02*
X-51908Y36425D01*
X-21701D01*
X-19101Y39026D01*
D32*
X-69000Y-2209D02*
X-68791Y-2000D01*
X-41500D01*
X-69000Y-10000D02*
Y-2209D01*
X-41500Y-2000D02*
Y3825D01*
X-41600Y3925D02*
X-41500Y3825D01*
X-12600Y-29075D02*
X-12175Y-29500D01*
X-500D02*
X6874Y-22126D01*
X15000D01*
X-12600Y-19075D02*
X-12525Y-19000D01*
X-12175Y-29500D02*
X-11000D01*
X-500D01*
X-12525Y-19000D02*
X-500D01*
D33*
X-46795Y9120D02*
X-41600Y3925D01*
X-53184Y28891D02*
Y37702D01*
Y28891D02*
X-46795Y22502D01*
Y9120D02*
Y22502D01*
D41*
X-89000Y-10000D02*
D03*
X-79000D02*
D03*
X-69000D02*
D03*
X-41500Y-2000D02*
D03*
X5000Y5000D02*
D03*
X-5000D02*
D03*
X15000Y-14252D02*
D03*
Y-22126D02*
D03*
Y-30000D02*
D03*
D42*
X-11000Y-29500D02*
D03*
Y-19500D02*
D03*
Y-9500D02*
D03*
D43*
X-69000Y-2000D02*
D03*
X-500Y-29500D02*
D03*
Y-19000D02*
D03*
D44*
X-5000Y-5000D02*
D03*
X-15000Y5000D02*
D03*
X-25000D02*
D03*
X-85000Y2000D02*
D03*
X-62000Y2500D02*
D03*
X-52000Y5000D02*
D03*
X-63500Y48000D02*
D03*
X-61500Y59500D02*
D03*
X-12000Y58500D02*
D03*
X-70000Y30000D02*
D03*
Y50000D02*
D03*
X-95000Y-25000D02*
D03*
Y-15000D02*
D03*
X30000Y-30000D02*
D03*
X27500Y-19000D02*
D03*
X30000Y-10000D02*
D03*
X25000Y-35000D02*
D03*
X15000D02*
D03*
X7500Y-10000D02*
D03*
Y0D02*
D03*
Y10000D02*
D03*
X-130000Y-20000D02*
D03*
X-122500Y-7000D02*
D03*
X-130000Y10000D02*
D03*
Y20000D02*
D03*
Y30000D02*
D03*
Y70000D02*
D03*
Y80000D02*
D03*
X7500Y40000D02*
D03*
Y50000D02*
D03*
Y60000D02*
D03*
Y70000D02*
D03*
Y80000D02*
D03*
Y90000D02*
D03*
X-80000D02*
D03*
X-3000Y14000D02*
D03*
X5000Y-35000D02*
D03*
X-5000D02*
D03*
X-15000D02*
D03*
X-80000D02*
D03*
X7000Y30000D02*
D03*
X-25500Y-33500D02*
D03*
Y-8000D02*
D03*
X-60000Y-32500D02*
D03*
X-46000Y-13000D02*
D03*
X-55500Y-15000D02*
D03*
X-24500Y-1500D02*
D03*
X-90000Y-35000D02*
D03*
X-100000D02*
D03*
X-108000Y-23500D02*
D03*
X-124000D02*
D03*
X-114000Y6000D02*
D03*
X-130000Y90000D02*
D03*
X-5000Y65500D02*
D03*
X2000Y67000D02*
D03*
X-36100Y39526D02*
D03*
X-68500Y63000D02*
D03*
X-75000Y64000D02*
D03*
X-45300Y3825D02*
D03*
X-41600Y3925D02*
D03*
X-19101Y43295D02*
D03*
X600Y58126D02*
D03*
X-20900D02*
D03*
X-45200Y38746D02*
D03*
X-49000Y57825D02*
D03*
X-60100Y22425D02*
D03*
X-63800Y9425D02*
D03*
X-59600D02*
D03*
X7000Y14000D02*
D03*
X-6500Y13000D02*
D03*
X1300Y17951D02*
D03*
X-8200Y17925D02*
D03*
X1300Y24551D02*
D03*
X1200Y36126D02*
D03*
X-9101Y47326D02*
D03*
X600Y52426D02*
D03*
X-12900Y46526D02*
D03*
X-16500Y47000D02*
D03*
X-21700Y46526D02*
D03*
X-63800Y38125D02*
D03*
X-57500Y45000D02*
D03*
X-53184Y37702D02*
D03*
X-59400Y34725D02*
D03*
X-19101Y39026D02*
D03*
X-44000Y11414D02*
D03*
X-58400Y30725D02*
D03*
X-6300Y30025D02*
D03*
Y33325D02*
D03*
X-55000Y52125D02*
D03*
X-8484Y24602D02*
D03*
X-25900Y46526D02*
D03*
X-2900Y35946D02*
D03*
X-19000Y-21000D02*
D03*
X-29500D02*
D03*
X-103000Y17000D02*
D03*
X-100500Y6500D02*
D03*
X-47000Y-28000D02*
D03*
X-62500Y-28500D02*
D03*
X-78000Y-28000D02*
D03*
X-5000Y-24000D02*
D03*
X-50000Y14500D02*
D03*
X-54500Y-5000D02*
D03*
X-47500Y-19000D02*
D03*
X-42500Y61500D02*
D03*
X-14000Y52500D02*
D03*
X-5000Y51500D02*
D03*
X-78500Y9500D02*
D03*
X-71500D02*
D03*
X-99000Y-6000D02*
D03*
X-104000Y-14000D02*
D03*
X-19000Y-11000D02*
D03*
X-118000Y-22500D02*
D03*
X-123000Y-12500D02*
D03*
X-118000Y-2500D02*
D03*
X-123000Y27500D02*
D03*
X-118000Y37500D02*
D03*
Y57500D02*
D03*
X-123000Y67500D02*
D03*
Y87500D02*
D03*
X-113000Y-32500D02*
D03*
X-108000Y-2500D02*
D03*
X-113000Y27500D02*
D03*
Y67500D02*
D03*
Y87500D02*
D03*
X-103000Y-32500D02*
D03*
X-98000Y-22500D02*
D03*
X-103000Y27500D02*
D03*
X-98000Y37500D02*
D03*
X-103000Y47500D02*
D03*
X-98000Y57500D02*
D03*
X-103000Y67500D02*
D03*
Y87500D02*
D03*
X-93000Y-32500D02*
D03*
Y7500D02*
D03*
Y27500D02*
D03*
X-88000Y37500D02*
D03*
X-93000Y47500D02*
D03*
X-88000Y57500D02*
D03*
X-93000Y67500D02*
D03*
Y87500D02*
D03*
X-78000Y17500D02*
D03*
X-83000Y27500D02*
D03*
X-78000Y37500D02*
D03*
X-83000Y47500D02*
D03*
X-78000Y57500D02*
D03*
X-83000Y67500D02*
D03*
X-78000Y77500D02*
D03*
X-83000Y87500D02*
D03*
X-68000Y17500D02*
D03*
X-73000Y27500D02*
D03*
X-68000Y37500D02*
D03*
X-73000Y47500D02*
D03*
X-68000Y57500D02*
D03*
X-63000Y-32500D02*
D03*
Y-12500D02*
D03*
X-58000Y57500D02*
D03*
X-53000Y-12500D02*
D03*
Y47500D02*
D03*
X-38000Y-22500D02*
D03*
Y57500D02*
D03*
X-33000Y7500D02*
D03*
X-18000Y-2500D02*
D03*
X-23000Y7500D02*
D03*
X-18000Y57500D02*
D03*
X-8000Y-2500D02*
D03*
X-13000Y7500D02*
D03*
X-8000Y57500D02*
D03*
Y77500D02*
D03*
X-3000Y-12500D02*
D03*
X2000Y-2500D02*
D03*
X-3000Y27500D02*
D03*
X2000Y77500D02*
D03*
X7000Y-32500D02*
D03*
X22000Y-22500D02*
D03*
X27000Y-32500D02*
D03*
X32000Y-22500D02*
D03*
X27000Y-12500D02*
D03*
D45*
X-25113Y16139D02*
D03*
X-29838D02*
D03*
X-34562D02*
D03*
X-39287D02*
D03*
X-25113Y20863D02*
D03*
X-29838D02*
D03*
X-34562D02*
D03*
X-39287D02*
D03*
X-25113Y25588D02*
D03*
X-29838D02*
D03*
X-34562D02*
D03*
X-39287D02*
D03*
X-25113Y30312D02*
D03*
X-29838D02*
D03*
X-34562D02*
D03*
X-39287D02*
D03*
M02*
