G04 Layer_Physical_Order=2*
G04 Layer_Color=16711680*
%FSLAX25Y25*%
%MOIN*%
G70*
G01*
G75*
%ADD10C,0.01000*%
%ADD11C,0.06000*%
%ADD12C,0.05512*%
%ADD13C,0.11811*%
%ADD14C,0.07000*%
%ADD15R,0.06000X0.06000*%
%ADD16C,0.12598*%
%ADD17C,0.10000*%
%ADD18C,0.02400*%
%ADD19C,0.02402*%
%ADD20C,0.01500*%
%ADD21C,0.01968*%
G36*
X68156Y144170D02*
Y90677D01*
X67656Y90498D01*
X66683Y91683D01*
X65251Y92858D01*
X63617Y93732D01*
X61844Y94270D01*
X60000Y94451D01*
X58156Y94270D01*
X56383Y93732D01*
X54749Y92858D01*
X53317Y91683D01*
X52142Y90251D01*
X51268Y88617D01*
X50730Y86844D01*
X50549Y85000D01*
X50730Y83156D01*
X51268Y81383D01*
X52142Y79749D01*
X53317Y78317D01*
X54749Y77142D01*
X56383Y76268D01*
X58156Y75730D01*
X60000Y75549D01*
X61844Y75730D01*
X63617Y76268D01*
X65251Y77142D01*
X66683Y78317D01*
X67656Y79502D01*
X68156Y79323D01*
Y-20137D01*
X67671Y-20258D01*
X67519Y-19976D01*
X66395Y-18605D01*
X65024Y-17481D01*
X63461Y-16645D01*
X61764Y-16130D01*
X60000Y-15957D01*
X58236Y-16130D01*
X56539Y-16645D01*
X54976Y-17481D01*
X53605Y-18605D01*
X52481Y-19976D01*
X51645Y-21539D01*
X51130Y-23236D01*
X50956Y-25000D01*
X51130Y-26764D01*
X51645Y-28461D01*
X52481Y-30024D01*
X53605Y-31395D01*
X54976Y-32519D01*
X56539Y-33355D01*
X58236Y-33870D01*
X60000Y-34043D01*
X61764Y-33870D01*
X63461Y-33355D01*
X65024Y-32519D01*
X66395Y-31395D01*
X67519Y-30024D01*
X67671Y-29741D01*
X68156Y-29863D01*
Y-43540D01*
X59209Y-52486D01*
X-139193D01*
X-139362Y-52015D01*
X-138605Y-51395D01*
X-137481Y-50024D01*
X-136645Y-48461D01*
X-136130Y-46764D01*
X-135956Y-45000D01*
X-136130Y-43236D01*
X-136645Y-41539D01*
X-137481Y-39976D01*
X-138605Y-38605D01*
X-139976Y-37481D01*
X-141539Y-36645D01*
X-143236Y-36130D01*
X-145000Y-35956D01*
X-146764Y-36130D01*
X-148461Y-36645D01*
X-150024Y-37481D01*
X-151395Y-38605D01*
X-152519Y-39976D01*
X-153355Y-41539D01*
X-153870Y-43236D01*
X-154044Y-45000D01*
X-153870Y-46764D01*
X-153355Y-48461D01*
X-152519Y-50024D01*
X-151395Y-51395D01*
X-150638Y-52015D01*
X-150807Y-52486D01*
X-197486D01*
Y153116D01*
X-144936D01*
X-144815Y152631D01*
X-145024Y152519D01*
X-146395Y151395D01*
X-147519Y150024D01*
X-148355Y148461D01*
X-148870Y146764D01*
X-149044Y145000D01*
X-148870Y143236D01*
X-148355Y141539D01*
X-147519Y139976D01*
X-146395Y138605D01*
X-145024Y137481D01*
X-143461Y136645D01*
X-141764Y136130D01*
X-140000Y135956D01*
X-138236Y136130D01*
X-136539Y136645D01*
X-134976Y137481D01*
X-133605Y138605D01*
X-132481Y139976D01*
X-131645Y141539D01*
X-131130Y143236D01*
X-130956Y145000D01*
X-131130Y146764D01*
X-131645Y148461D01*
X-132481Y150024D01*
X-133605Y151395D01*
X-134976Y152519D01*
X-135185Y152631D01*
X-135064Y153116D01*
X59209D01*
X68156Y144170D01*
D02*
G37*
%LPC*%
G36*
X3969Y9500D02*
X500D01*
Y6031D01*
X1044Y6103D01*
X2017Y6506D01*
X2853Y7147D01*
X3494Y7983D01*
X3897Y8956D01*
X3969Y9500D01*
D02*
G37*
G36*
X-40500Y13969D02*
X-41044Y13897D01*
X-42017Y13494D01*
X-42853Y12853D01*
X-43494Y12017D01*
X-43897Y11044D01*
X-43969Y10500D01*
X-40500D01*
Y13969D01*
D02*
G37*
G36*
X-6031Y9500D02*
X-9500D01*
Y6031D01*
X-8956Y6103D01*
X-7983Y6506D01*
X-7147Y7147D01*
X-6506Y7983D01*
X-6103Y8956D01*
X-6031Y9500D01*
D02*
G37*
G36*
X-500D02*
X-3969D01*
X-3897Y8956D01*
X-3494Y7983D01*
X-2853Y7147D01*
X-2017Y6506D01*
X-1044Y6103D01*
X-500Y6031D01*
Y9500D01*
D02*
G37*
G36*
X-39500Y13969D02*
Y10500D01*
X-36031D01*
X-36103Y11044D01*
X-36506Y12017D01*
X-37147Y12853D01*
X-37983Y13494D01*
X-38956Y13897D01*
X-39500Y13969D01*
D02*
G37*
G36*
X-29500D02*
Y10500D01*
X-26031D01*
X-26103Y11044D01*
X-26506Y12017D01*
X-27147Y12853D01*
X-27983Y13494D01*
X-28956Y13897D01*
X-29500Y13969D01*
D02*
G37*
G36*
X-20500D02*
X-21044Y13897D01*
X-22017Y13494D01*
X-22853Y12853D01*
X-23494Y12017D01*
X-23897Y11044D01*
X-23969Y10500D01*
X-20500D01*
Y13969D01*
D02*
G37*
G36*
X-19500D02*
Y10500D01*
X-16031D01*
X-16103Y11044D01*
X-16506Y12017D01*
X-17147Y12853D01*
X-17983Y13494D01*
X-18956Y13897D01*
X-19500Y13969D01*
D02*
G37*
G36*
X-30500D02*
X-31044Y13897D01*
X-32017Y13494D01*
X-32853Y12853D01*
X-33494Y12017D01*
X-33897Y11044D01*
X-33969Y10500D01*
X-30500D01*
Y13969D01*
D02*
G37*
G36*
X-10500Y9500D02*
X-13969D01*
X-13897Y8956D01*
X-13494Y7983D01*
X-12853Y7147D01*
X-12017Y6506D01*
X-11044Y6103D01*
X-10500Y6031D01*
Y9500D01*
D02*
G37*
G36*
X-49500Y8969D02*
Y5500D01*
X-46031D01*
X-46103Y6044D01*
X-46506Y7017D01*
X-47147Y7853D01*
X-47983Y8494D01*
X-48956Y8897D01*
X-49500Y8969D01*
D02*
G37*
G36*
X-40500Y9500D02*
X-43969D01*
X-43897Y8956D01*
X-43494Y7983D01*
X-42853Y7147D01*
X-42017Y6506D01*
X-41044Y6103D01*
X-40500Y6031D01*
Y9500D01*
D02*
G37*
G36*
X0Y4034D02*
X-1044Y3897D01*
X-2017Y3494D01*
X-2853Y2853D01*
X-3494Y2017D01*
X-3696Y1529D01*
X-6304D01*
X-6506Y2017D01*
X-7147Y2853D01*
X-7983Y3494D01*
X-8956Y3897D01*
X-10000Y4034D01*
X-11044Y3897D01*
X-12017Y3494D01*
X-12853Y2853D01*
X-13494Y2017D01*
X-13696Y1529D01*
X-16304D01*
X-16506Y2017D01*
X-17147Y2853D01*
X-17983Y3494D01*
X-18956Y3897D01*
X-20000Y4034D01*
X-21044Y3897D01*
X-22017Y3494D01*
X-22853Y2853D01*
X-23494Y2017D01*
X-23696Y1529D01*
X-26304D01*
X-26506Y2017D01*
X-27147Y2853D01*
X-27983Y3494D01*
X-28956Y3897D01*
X-30000Y4034D01*
X-31044Y3897D01*
X-32017Y3494D01*
X-32853Y2853D01*
X-33494Y2017D01*
X-33696Y1529D01*
X-36304D01*
X-36506Y2017D01*
X-37147Y2853D01*
X-37983Y3494D01*
X-38956Y3897D01*
X-40000Y4034D01*
X-41044Y3897D01*
X-42017Y3494D01*
X-42853Y2853D01*
X-43494Y2017D01*
X-43897Y1044D01*
X-44034Y0D01*
X-43897Y-1044D01*
X-43494Y-2017D01*
X-42853Y-2853D01*
X-42017Y-3494D01*
X-41044Y-3897D01*
X-40000Y-4034D01*
X-38956Y-3897D01*
X-37983Y-3494D01*
X-37147Y-2853D01*
X-36506Y-2017D01*
X-36304Y-1529D01*
X-33696D01*
X-33494Y-2017D01*
X-32853Y-2853D01*
X-32017Y-3494D01*
X-31044Y-3897D01*
X-30000Y-4034D01*
X-28956Y-3897D01*
X-27983Y-3494D01*
X-27147Y-2853D01*
X-26506Y-2017D01*
X-26304Y-1529D01*
X-23696D01*
X-23494Y-2017D01*
X-22853Y-2853D01*
X-22017Y-3494D01*
X-21044Y-3897D01*
X-20000Y-4034D01*
X-18956Y-3897D01*
X-17983Y-3494D01*
X-17147Y-2853D01*
X-16506Y-2017D01*
X-16304Y-1529D01*
X-13696D01*
X-13494Y-2017D01*
X-12853Y-2853D01*
X-12017Y-3494D01*
X-11044Y-3897D01*
X-10000Y-4034D01*
X-8956Y-3897D01*
X-7983Y-3494D01*
X-7147Y-2853D01*
X-6506Y-2017D01*
X-6304Y-1529D01*
X-3696D01*
X-3494Y-2017D01*
X-2853Y-2853D01*
X-2017Y-3494D01*
X-1044Y-3897D01*
X0Y-4034D01*
X1044Y-3897D01*
X2017Y-3494D01*
X2853Y-2853D01*
X3494Y-2017D01*
X3696Y-1529D01*
X4366D01*
X13919Y-11081D01*
X14415Y-11413D01*
X15000Y-11529D01*
X17804D01*
X18006Y-12017D01*
X18647Y-12853D01*
X19483Y-13494D01*
X20456Y-13897D01*
X21500Y-14035D01*
X22544Y-13897D01*
X23517Y-13494D01*
X24353Y-12853D01*
X24994Y-12017D01*
X25397Y-11044D01*
X25534Y-10000D01*
X25397Y-8956D01*
X24994Y-7983D01*
X24353Y-7147D01*
X23517Y-6506D01*
X22544Y-6103D01*
X21500Y-5965D01*
X20456Y-6103D01*
X19483Y-6506D01*
X18647Y-7147D01*
X18006Y-7983D01*
X17804Y-8471D01*
X15633D01*
X6081Y1081D01*
X5585Y1413D01*
X5000Y1529D01*
X3696D01*
X3494Y2017D01*
X2853Y2853D01*
X2017Y3494D01*
X1044Y3897D01*
X0Y4034D01*
D02*
G37*
G36*
X-50500Y8969D02*
X-51044Y8897D01*
X-52017Y8494D01*
X-52853Y7853D01*
X-53494Y7017D01*
X-53897Y6044D01*
X-53969Y5500D01*
X-50500D01*
Y8969D01*
D02*
G37*
G36*
X-36031Y9500D02*
X-39500D01*
Y6031D01*
X-38956Y6103D01*
X-37983Y6506D01*
X-37147Y7147D01*
X-36506Y7983D01*
X-36103Y8956D01*
X-36031Y9500D01*
D02*
G37*
G36*
X-20500D02*
X-23969D01*
X-23897Y8956D01*
X-23494Y7983D01*
X-22853Y7147D01*
X-22017Y6506D01*
X-21044Y6103D01*
X-20500Y6031D01*
Y9500D01*
D02*
G37*
G36*
X-16031D02*
X-19500D01*
Y6031D01*
X-18956Y6103D01*
X-17983Y6506D01*
X-17147Y7147D01*
X-16506Y7983D01*
X-16103Y8956D01*
X-16031Y9500D01*
D02*
G37*
G36*
X-30500D02*
X-33969D01*
X-33897Y8956D01*
X-33494Y7983D01*
X-32853Y7147D01*
X-32017Y6506D01*
X-31044Y6103D01*
X-30500Y6031D01*
Y9500D01*
D02*
G37*
G36*
X-26031D02*
X-29500D01*
Y6031D01*
X-28956Y6103D01*
X-27983Y6506D01*
X-27147Y7147D01*
X-26506Y7983D01*
X-26103Y8956D01*
X-26031Y9500D01*
D02*
G37*
G36*
X-49500Y28969D02*
Y25500D01*
X-46031D01*
X-46103Y26044D01*
X-46506Y27017D01*
X-47147Y27853D01*
X-47983Y28494D01*
X-48956Y28897D01*
X-49500Y28969D01*
D02*
G37*
G36*
X-50500Y34500D02*
X-53969D01*
X-53897Y33956D01*
X-53494Y32983D01*
X-52853Y32147D01*
X-52017Y31506D01*
X-51044Y31103D01*
X-50500Y31031D01*
Y34500D01*
D02*
G37*
G36*
X-46031Y24500D02*
X-49500D01*
Y21031D01*
X-48956Y21103D01*
X-47983Y21506D01*
X-47147Y22147D01*
X-46506Y22983D01*
X-46103Y23956D01*
X-46031Y24500D01*
D02*
G37*
G36*
X-50500Y28969D02*
X-51044Y28897D01*
X-52017Y28494D01*
X-52853Y27853D01*
X-53494Y27017D01*
X-53897Y26044D01*
X-53969Y25500D01*
X-50500D01*
Y28969D01*
D02*
G37*
G36*
X-46031Y34500D02*
X-49500D01*
Y31031D01*
X-48956Y31103D01*
X-47983Y31506D01*
X-47147Y32147D01*
X-46506Y32983D01*
X-46103Y33956D01*
X-46031Y34500D01*
D02*
G37*
G36*
X-130000Y49035D02*
X-131044Y48897D01*
X-132017Y48494D01*
X-132853Y47853D01*
X-133494Y47017D01*
X-133897Y46044D01*
X-134035Y45000D01*
X-133897Y43956D01*
X-133695Y43468D01*
X-137634Y39529D01*
X-149248D01*
X-149589Y40655D01*
X-150231Y41855D01*
X-151093Y42907D01*
X-152145Y43769D01*
X-153345Y44411D01*
X-154646Y44806D01*
X-156000Y44939D01*
X-157354Y44806D01*
X-158655Y44411D01*
X-159855Y43769D01*
X-160907Y42907D01*
X-161769Y41855D01*
X-162411Y40655D01*
X-162806Y39354D01*
X-162939Y38000D01*
X-162806Y36646D01*
X-162411Y35345D01*
X-161769Y34145D01*
X-160907Y33093D01*
X-159855Y32230D01*
X-158655Y31589D01*
X-157354Y31194D01*
X-156000Y31061D01*
X-154646Y31194D01*
X-153345Y31589D01*
X-152145Y32230D01*
X-151093Y33093D01*
X-150231Y34145D01*
X-149589Y35345D01*
X-149248Y36471D01*
X-137000D01*
X-136415Y36587D01*
X-135919Y36919D01*
X-131532Y41305D01*
X-131044Y41103D01*
X-130000Y40966D01*
X-128956Y41103D01*
X-127983Y41506D01*
X-127147Y42147D01*
X-126506Y42983D01*
X-126103Y43956D01*
X-125965Y45000D01*
X-126103Y46044D01*
X-126506Y47017D01*
X-127147Y47853D01*
X-127983Y48494D01*
X-128956Y48897D01*
X-130000Y49035D01*
D02*
G37*
G36*
X50551Y49342D02*
X49376Y49187D01*
X48282Y48734D01*
X47342Y48013D01*
X46621Y47073D01*
X46167Y45978D01*
X46012Y44803D01*
X46167Y43628D01*
X46621Y42534D01*
X47342Y41594D01*
X48282Y40872D01*
X49376Y40419D01*
X50551Y40264D01*
X51726Y40419D01*
X52821Y40872D01*
X53761Y41594D01*
X54482Y42534D01*
X54935Y43628D01*
X55090Y44803D01*
X54935Y45978D01*
X54482Y47073D01*
X53761Y48013D01*
X52821Y48734D01*
X51726Y49187D01*
X50551Y49342D01*
D02*
G37*
G36*
X-50500Y38969D02*
X-51044Y38897D01*
X-52017Y38494D01*
X-52853Y37853D01*
X-53494Y37017D01*
X-53897Y36044D01*
X-53969Y35500D01*
X-50500D01*
Y38969D01*
D02*
G37*
G36*
X-49500D02*
Y35500D01*
X-46031D01*
X-46103Y36044D01*
X-46506Y37017D01*
X-47147Y37853D01*
X-47983Y38494D01*
X-48956Y38897D01*
X-49500Y38969D01*
D02*
G37*
G36*
X-50500Y24500D02*
X-53969D01*
X-53897Y23956D01*
X-53494Y22983D01*
X-52853Y22147D01*
X-52017Y21506D01*
X-51044Y21103D01*
X-50500Y21031D01*
Y24500D01*
D02*
G37*
G36*
X-500Y13969D02*
X-1044Y13897D01*
X-2017Y13494D01*
X-2853Y12853D01*
X-3494Y12017D01*
X-3897Y11044D01*
X-3969Y10500D01*
X-500D01*
Y13969D01*
D02*
G37*
G36*
X500D02*
Y10500D01*
X3969D01*
X3897Y11044D01*
X3494Y12017D01*
X2853Y12853D01*
X2017Y13494D01*
X1044Y13897D01*
X500Y13969D01*
D02*
G37*
G36*
X-10500D02*
X-11044Y13897D01*
X-12017Y13494D01*
X-12853Y12853D01*
X-13494Y12017D01*
X-13897Y11044D01*
X-13969Y10500D01*
X-10500D01*
Y13969D01*
D02*
G37*
G36*
X-9500D02*
Y10500D01*
X-6031D01*
X-6103Y11044D01*
X-6506Y12017D01*
X-7147Y12853D01*
X-7983Y13494D01*
X-8956Y13897D01*
X-9500Y13969D01*
D02*
G37*
G36*
X-50500Y14500D02*
X-53969D01*
X-53897Y13956D01*
X-53494Y12983D01*
X-52853Y12147D01*
X-52017Y11506D01*
X-51044Y11103D01*
X-50500Y11031D01*
Y14500D01*
D02*
G37*
G36*
X-49500Y18969D02*
Y15500D01*
X-46031D01*
X-46103Y16044D01*
X-46506Y17017D01*
X-47147Y17853D01*
X-47983Y18494D01*
X-48956Y18897D01*
X-49500Y18969D01*
D02*
G37*
G36*
X-110000Y29035D02*
X-111044Y28897D01*
X-112017Y28494D01*
X-112853Y27853D01*
X-113494Y27017D01*
X-113897Y26044D01*
X-114034Y25000D01*
X-113897Y23956D01*
X-113494Y22983D01*
X-112853Y22147D01*
X-112017Y21506D01*
X-111044Y21103D01*
X-110000Y20966D01*
X-108956Y21103D01*
X-107983Y21506D01*
X-107147Y22147D01*
X-106506Y22983D01*
X-106103Y23956D01*
X-105965Y25000D01*
X-106103Y26044D01*
X-106506Y27017D01*
X-107147Y27853D01*
X-107983Y28494D01*
X-108956Y28897D01*
X-110000Y29035D01*
D02*
G37*
G36*
X-46031Y14500D02*
X-49500D01*
Y11031D01*
X-48956Y11103D01*
X-47983Y11506D01*
X-47147Y12147D01*
X-46506Y12983D01*
X-46103Y13956D01*
X-46031Y14500D01*
D02*
G37*
G36*
X-50500Y18969D02*
X-51044Y18897D01*
X-52017Y18494D01*
X-52853Y17853D01*
X-53494Y17017D01*
X-53897Y16044D01*
X-53969Y15500D01*
X-50500D01*
Y18969D01*
D02*
G37*
G36*
X-46031Y4500D02*
X-49500D01*
Y1031D01*
X-48956Y1103D01*
X-47983Y1506D01*
X-47147Y2147D01*
X-46506Y2983D01*
X-46103Y3956D01*
X-46031Y4500D01*
D02*
G37*
G36*
X3000Y-40980D02*
X-3000D01*
X-3390Y-41058D01*
X-3721Y-41279D01*
X-3942Y-41610D01*
X-4020Y-42000D01*
Y-48000D01*
X-3942Y-48390D01*
X-3721Y-48721D01*
X-3390Y-48942D01*
X-3000Y-49020D01*
X3000D01*
X3390Y-48942D01*
X3721Y-48721D01*
X3942Y-48390D01*
X4020Y-48000D01*
Y-42000D01*
X3942Y-41610D01*
X3721Y-41279D01*
X3390Y-41058D01*
X3000Y-40980D01*
D02*
G37*
G36*
X-40500Y-45500D02*
X-43969D01*
X-43897Y-46044D01*
X-43494Y-47017D01*
X-42853Y-47853D01*
X-42017Y-48494D01*
X-41044Y-48897D01*
X-40500Y-48969D01*
Y-45500D01*
D02*
G37*
G36*
X50000Y-40966D02*
X48956Y-41103D01*
X47983Y-41506D01*
X47147Y-42147D01*
X46506Y-42983D01*
X46103Y-43956D01*
X45965Y-45000D01*
X46103Y-46044D01*
X46506Y-47017D01*
X47147Y-47853D01*
X47983Y-48494D01*
X48956Y-48897D01*
X50000Y-49035D01*
X51044Y-48897D01*
X52017Y-48494D01*
X52853Y-47853D01*
X53494Y-47017D01*
X53897Y-46044D01*
X54035Y-45000D01*
X53897Y-43956D01*
X53494Y-42983D01*
X52853Y-42147D01*
X52017Y-41506D01*
X51044Y-41103D01*
X50000Y-40966D01*
D02*
G37*
G36*
X-17000Y-40980D02*
X-23000D01*
X-23390Y-41058D01*
X-23721Y-41279D01*
X-23942Y-41610D01*
X-24020Y-42000D01*
Y-48000D01*
X-23942Y-48390D01*
X-23721Y-48721D01*
X-23390Y-48942D01*
X-23000Y-49020D01*
X-17000D01*
X-16610Y-48942D01*
X-16279Y-48721D01*
X-16058Y-48390D01*
X-15980Y-48000D01*
Y-42000D01*
X-16058Y-41610D01*
X-16279Y-41279D01*
X-16610Y-41058D01*
X-17000Y-40980D01*
D02*
G37*
G36*
X-36031Y-45500D02*
X-39500D01*
Y-48969D01*
X-38956Y-48897D01*
X-37983Y-48494D01*
X-37147Y-47853D01*
X-36506Y-47017D01*
X-36103Y-46044D01*
X-36031Y-45500D01*
D02*
G37*
G36*
X-153000Y-25500D02*
X-156222D01*
X-156159Y-25981D01*
X-155781Y-26894D01*
X-155179Y-27679D01*
X-154394Y-28281D01*
X-153480Y-28659D01*
X-153000Y-28723D01*
Y-25500D01*
D02*
G37*
G36*
X-148777D02*
X-152000D01*
Y-28723D01*
X-151519Y-28659D01*
X-150606Y-28281D01*
X-149821Y-27679D01*
X-149219Y-26894D01*
X-148841Y-25981D01*
X-148777Y-25500D01*
D02*
G37*
G36*
X-40500Y-41031D02*
X-41044Y-41103D01*
X-42017Y-41506D01*
X-42853Y-42147D01*
X-43494Y-42983D01*
X-43897Y-43956D01*
X-43969Y-44500D01*
X-40500D01*
Y-41031D01*
D02*
G37*
G36*
X-39500D02*
Y-44500D01*
X-36031D01*
X-36103Y-43956D01*
X-36506Y-42983D01*
X-37147Y-42147D01*
X-37983Y-41506D01*
X-38956Y-41103D01*
X-39500Y-41031D01*
D02*
G37*
G36*
X40000Y-40966D02*
X38956Y-41103D01*
X37983Y-41506D01*
X37147Y-42147D01*
X36506Y-42983D01*
X36103Y-43956D01*
X35965Y-45000D01*
X36103Y-46044D01*
X36506Y-47017D01*
X37147Y-47853D01*
X37983Y-48494D01*
X38956Y-48897D01*
X40000Y-49035D01*
X41044Y-48897D01*
X42017Y-48494D01*
X42853Y-47853D01*
X43494Y-47017D01*
X43897Y-46044D01*
X44034Y-45000D01*
X43897Y-43956D01*
X43494Y-42983D01*
X42853Y-42147D01*
X42017Y-41506D01*
X41044Y-41103D01*
X40000Y-40966D01*
D02*
G37*
G36*
X-70000D02*
X-71044Y-41103D01*
X-72017Y-41506D01*
X-72853Y-42147D01*
X-73494Y-42983D01*
X-73897Y-43956D01*
X-74035Y-45000D01*
X-73897Y-46044D01*
X-73494Y-47017D01*
X-72853Y-47853D01*
X-72017Y-48494D01*
X-71044Y-48897D01*
X-70000Y-49035D01*
X-68956Y-48897D01*
X-67983Y-48494D01*
X-67147Y-47853D01*
X-66506Y-47017D01*
X-66103Y-46044D01*
X-65965Y-45000D01*
X-66103Y-43956D01*
X-66506Y-42983D01*
X-67147Y-42147D01*
X-67983Y-41506D01*
X-68956Y-41103D01*
X-70000Y-40966D01*
D02*
G37*
G36*
X-60000D02*
X-61044Y-41103D01*
X-62017Y-41506D01*
X-62853Y-42147D01*
X-63494Y-42983D01*
X-63897Y-43956D01*
X-64034Y-45000D01*
X-63897Y-46044D01*
X-63494Y-47017D01*
X-62853Y-47853D01*
X-62017Y-48494D01*
X-61044Y-48897D01*
X-60000Y-49035D01*
X-58956Y-48897D01*
X-57983Y-48494D01*
X-57147Y-47853D01*
X-56506Y-47017D01*
X-56103Y-46044D01*
X-55966Y-45000D01*
X-56103Y-43956D01*
X-56506Y-42983D01*
X-57147Y-42147D01*
X-57983Y-41506D01*
X-58956Y-41103D01*
X-60000Y-40966D01*
D02*
G37*
G36*
X-90000D02*
X-91044Y-41103D01*
X-92017Y-41506D01*
X-92853Y-42147D01*
X-93494Y-42983D01*
X-93897Y-43956D01*
X-94034Y-45000D01*
X-93897Y-46044D01*
X-93494Y-47017D01*
X-92853Y-47853D01*
X-92017Y-48494D01*
X-91044Y-48897D01*
X-90000Y-49035D01*
X-88956Y-48897D01*
X-87983Y-48494D01*
X-87147Y-47853D01*
X-86506Y-47017D01*
X-86103Y-46044D01*
X-85966Y-45000D01*
X-86103Y-43956D01*
X-86506Y-42983D01*
X-87147Y-42147D01*
X-87983Y-41506D01*
X-88956Y-41103D01*
X-90000Y-40966D01*
D02*
G37*
G36*
X-80000D02*
X-81044Y-41103D01*
X-82017Y-41506D01*
X-82853Y-42147D01*
X-83494Y-42983D01*
X-83897Y-43956D01*
X-84035Y-45000D01*
X-83897Y-46044D01*
X-83494Y-47017D01*
X-82853Y-47853D01*
X-82017Y-48494D01*
X-81044Y-48897D01*
X-80000Y-49035D01*
X-78956Y-48897D01*
X-77983Y-48494D01*
X-77147Y-47853D01*
X-76506Y-47017D01*
X-76103Y-46044D01*
X-75965Y-45000D01*
X-76103Y-43956D01*
X-76506Y-42983D01*
X-77147Y-42147D01*
X-77983Y-41506D01*
X-78956Y-41103D01*
X-80000Y-40966D01*
D02*
G37*
G36*
X-50000D02*
X-51044Y-41103D01*
X-52017Y-41506D01*
X-52853Y-42147D01*
X-53494Y-42983D01*
X-53897Y-43956D01*
X-54035Y-45000D01*
X-53897Y-46044D01*
X-53494Y-47017D01*
X-52853Y-47853D01*
X-52017Y-48494D01*
X-51044Y-48897D01*
X-50000Y-49035D01*
X-48956Y-48897D01*
X-47983Y-48494D01*
X-47147Y-47853D01*
X-46506Y-47017D01*
X-46103Y-46044D01*
X-45965Y-45000D01*
X-46103Y-43956D01*
X-46506Y-42983D01*
X-47147Y-42147D01*
X-47983Y-41506D01*
X-48956Y-41103D01*
X-50000Y-40966D01*
D02*
G37*
G36*
X20000D02*
X18956Y-41103D01*
X17983Y-41506D01*
X17147Y-42147D01*
X16506Y-42983D01*
X16103Y-43956D01*
X15966Y-45000D01*
X16103Y-46044D01*
X16506Y-47017D01*
X17147Y-47853D01*
X17983Y-48494D01*
X18956Y-48897D01*
X20000Y-49035D01*
X21044Y-48897D01*
X22017Y-48494D01*
X22853Y-47853D01*
X23494Y-47017D01*
X23897Y-46044D01*
X24035Y-45000D01*
X23897Y-43956D01*
X23494Y-42983D01*
X22853Y-42147D01*
X22017Y-41506D01*
X21044Y-41103D01*
X20000Y-40966D01*
D02*
G37*
G36*
X30000D02*
X28956Y-41103D01*
X27983Y-41506D01*
X27147Y-42147D01*
X26506Y-42983D01*
X26103Y-43956D01*
X25965Y-45000D01*
X26103Y-46044D01*
X26506Y-47017D01*
X27147Y-47853D01*
X27983Y-48494D01*
X28956Y-48897D01*
X30000Y-49035D01*
X31044Y-48897D01*
X32017Y-48494D01*
X32853Y-47853D01*
X33494Y-47017D01*
X33897Y-46044D01*
X34034Y-45000D01*
X33897Y-43956D01*
X33494Y-42983D01*
X32853Y-42147D01*
X32017Y-41506D01*
X31044Y-41103D01*
X30000Y-40966D01*
D02*
G37*
G36*
X-30000D02*
X-31044Y-41103D01*
X-32017Y-41506D01*
X-32853Y-42147D01*
X-33494Y-42983D01*
X-33897Y-43956D01*
X-34034Y-45000D01*
X-33897Y-46044D01*
X-33494Y-47017D01*
X-32853Y-47853D01*
X-32017Y-48494D01*
X-31044Y-48897D01*
X-30000Y-49035D01*
X-28956Y-48897D01*
X-27983Y-48494D01*
X-27147Y-47853D01*
X-26506Y-47017D01*
X-26103Y-46044D01*
X-25965Y-45000D01*
X-26103Y-43956D01*
X-26506Y-42983D01*
X-27147Y-42147D01*
X-27983Y-41506D01*
X-28956Y-41103D01*
X-30000Y-40966D01*
D02*
G37*
G36*
X41500Y-13465D02*
X40456Y-13603D01*
X39483Y-14006D01*
X38647Y-14647D01*
X38006Y-15483D01*
X37603Y-16456D01*
X37466Y-17500D01*
X37603Y-18544D01*
X38006Y-19517D01*
X38647Y-20353D01*
X39483Y-20994D01*
X39971Y-21196D01*
Y-25367D01*
X31866Y-33471D01*
X15000D01*
X14415Y-33587D01*
X13919Y-33919D01*
X8919Y-38919D01*
X8587Y-39415D01*
X8471Y-40000D01*
Y-41304D01*
X7983Y-41506D01*
X7147Y-42147D01*
X6506Y-42983D01*
X6103Y-43956D01*
X5965Y-45000D01*
X6103Y-46044D01*
X6506Y-47017D01*
X7147Y-47853D01*
X7983Y-48494D01*
X8956Y-48897D01*
X10000Y-49035D01*
X11044Y-48897D01*
X12017Y-48494D01*
X12853Y-47853D01*
X13494Y-47017D01*
X13897Y-46044D01*
X14035Y-45000D01*
X13897Y-43956D01*
X13494Y-42983D01*
X12853Y-42147D01*
X12017Y-41506D01*
X11529Y-41304D01*
Y-40633D01*
X15633Y-36529D01*
X32500D01*
X33085Y-36413D01*
X33581Y-36081D01*
X42581Y-27081D01*
X42913Y-26585D01*
X43029Y-26000D01*
Y-21196D01*
X43517Y-20994D01*
X44353Y-20353D01*
X44994Y-19517D01*
X45397Y-18544D01*
X45535Y-17500D01*
X45397Y-16456D01*
X44994Y-15483D01*
X44353Y-14647D01*
X43517Y-14006D01*
X42544Y-13603D01*
X41500Y-13465D01*
D02*
G37*
G36*
X-50500Y-5500D02*
X-53969D01*
X-53897Y-6044D01*
X-53494Y-7017D01*
X-52853Y-7853D01*
X-52017Y-8494D01*
X-51044Y-8897D01*
X-50500Y-8969D01*
Y-5500D01*
D02*
G37*
G36*
X-46031D02*
X-49500D01*
Y-8969D01*
X-48956Y-8897D01*
X-47983Y-8494D01*
X-47147Y-7853D01*
X-46506Y-7017D01*
X-46103Y-6044D01*
X-46031Y-5500D01*
D02*
G37*
G36*
X-93000Y-6278D02*
X-93480Y-6341D01*
X-94394Y-6719D01*
X-95179Y-7321D01*
X-95781Y-8106D01*
X-96159Y-9020D01*
X-96223Y-9500D01*
X-93000D01*
Y-6278D01*
D02*
G37*
G36*
X-92000D02*
Y-9500D01*
X-88778D01*
X-88841Y-9020D01*
X-89219Y-8106D01*
X-89821Y-7321D01*
X-90606Y-6719D01*
X-91519Y-6341D01*
X-92000Y-6278D01*
D02*
G37*
G36*
X-50500Y-1031D02*
X-51044Y-1103D01*
X-52017Y-1506D01*
X-52853Y-2147D01*
X-53494Y-2983D01*
X-53897Y-3956D01*
X-53969Y-4500D01*
X-50500D01*
Y-1031D01*
D02*
G37*
G36*
X-141031Y4500D02*
X-144500D01*
Y1031D01*
X-143956Y1103D01*
X-142983Y1506D01*
X-142147Y2147D01*
X-141506Y2983D01*
X-141103Y3956D01*
X-141031Y4500D01*
D02*
G37*
G36*
X-50500D02*
X-53969D01*
X-53897Y3956D01*
X-53494Y2983D01*
X-52853Y2147D01*
X-52017Y1506D01*
X-51044Y1103D01*
X-50500Y1031D01*
Y4500D01*
D02*
G37*
G36*
X-49500Y-1031D02*
Y-4500D01*
X-46031D01*
X-46103Y-3956D01*
X-46506Y-2983D01*
X-47147Y-2147D01*
X-47983Y-1506D01*
X-48956Y-1103D01*
X-49500Y-1031D01*
D02*
G37*
G36*
X-145500Y4500D02*
X-148969D01*
X-148897Y3956D01*
X-148494Y2983D01*
X-147853Y2147D01*
X-147017Y1506D01*
X-146044Y1103D01*
X-145500Y1031D01*
Y4500D01*
D02*
G37*
G36*
X-88778Y-10500D02*
X-92000D01*
Y-13723D01*
X-91519Y-13659D01*
X-90606Y-13281D01*
X-89821Y-12679D01*
X-89219Y-11894D01*
X-88841Y-10981D01*
X-88778Y-10500D01*
D02*
G37*
G36*
X-110000Y6534D02*
X-111044Y6397D01*
X-112017Y5994D01*
X-112853Y5353D01*
X-113494Y4517D01*
X-113897Y3544D01*
X-114034Y2500D01*
X-113897Y1456D01*
X-113494Y483D01*
X-112853Y-353D01*
X-112017Y-994D01*
X-111529Y-1196D01*
Y-15000D01*
X-111413Y-15585D01*
X-111081Y-16082D01*
X-104192Y-22971D01*
X-104399Y-23471D01*
X-109068D01*
X-109219Y-23106D01*
X-109821Y-22321D01*
X-110606Y-21719D01*
X-111519Y-21341D01*
X-112500Y-21212D01*
X-113480Y-21341D01*
X-114394Y-21719D01*
X-115179Y-22321D01*
X-115781Y-23106D01*
X-116159Y-24020D01*
X-116288Y-25000D01*
X-116159Y-25981D01*
X-115781Y-26894D01*
X-115179Y-27679D01*
X-114394Y-28281D01*
X-113480Y-28659D01*
X-112500Y-28789D01*
X-111519Y-28659D01*
X-110606Y-28281D01*
X-109821Y-27679D01*
X-109219Y-26894D01*
X-109068Y-26529D01*
X-103696D01*
X-103494Y-27017D01*
X-102853Y-27853D01*
X-102017Y-28494D01*
X-101044Y-28897D01*
X-100000Y-29035D01*
X-98956Y-28897D01*
X-97983Y-28494D01*
X-97147Y-27853D01*
X-96506Y-27017D01*
X-96304Y-26529D01*
X-84747Y-26529D01*
X-84394Y-26883D01*
Y-28000D01*
X-84316Y-28390D01*
X-84095Y-28721D01*
X-83764Y-28942D01*
X-83374Y-29020D01*
X-77374D01*
X-76984Y-28942D01*
X-76653Y-28721D01*
X-76432Y-28390D01*
X-76354Y-28000D01*
Y-27369D01*
X-75854Y-27199D01*
X-75353Y-27853D01*
X-74517Y-28494D01*
X-73544Y-28897D01*
X-72500Y-29035D01*
X-71456Y-28897D01*
X-70483Y-28494D01*
X-69647Y-27853D01*
X-69006Y-27017D01*
X-68804Y-26529D01*
X-53696D01*
X-53494Y-27017D01*
X-52853Y-27853D01*
X-52017Y-28494D01*
X-51044Y-28897D01*
X-50000Y-29035D01*
X-48956Y-28897D01*
X-47983Y-28494D01*
X-47147Y-27853D01*
X-46506Y-27017D01*
X-46304Y-26529D01*
X-33432D01*
X-33281Y-26894D01*
X-32679Y-27679D01*
X-31894Y-28281D01*
X-30981Y-28659D01*
X-30000Y-28788D01*
X-29019Y-28659D01*
X-28106Y-28281D01*
X-27321Y-27679D01*
X-26719Y-26894D01*
X-26341Y-25980D01*
X-26212Y-25000D01*
X-26341Y-24019D01*
X-26719Y-23106D01*
X-27321Y-22321D01*
X-28106Y-21719D01*
X-29019Y-21341D01*
X-30000Y-21212D01*
X-30981Y-21341D01*
X-31894Y-21719D01*
X-32679Y-22321D01*
X-33281Y-23106D01*
X-33432Y-23471D01*
X-46304D01*
X-46506Y-22983D01*
X-47147Y-22147D01*
X-47983Y-21506D01*
X-48956Y-21103D01*
X-50000Y-20966D01*
X-51044Y-21103D01*
X-52017Y-21506D01*
X-52853Y-22147D01*
X-53494Y-22983D01*
X-53696Y-23471D01*
X-68804D01*
X-69006Y-22983D01*
X-69647Y-22147D01*
X-70483Y-21506D01*
X-71456Y-21103D01*
X-72500Y-20966D01*
X-73544Y-21103D01*
X-74517Y-21506D01*
X-75353Y-22147D01*
X-75854Y-22801D01*
X-76354Y-22631D01*
Y-22000D01*
X-76432Y-21610D01*
X-76653Y-21279D01*
X-76984Y-21058D01*
X-77374Y-20980D01*
X-83374D01*
X-83764Y-21058D01*
X-84095Y-21279D01*
X-84316Y-21610D01*
X-84394Y-22000D01*
Y-23471D01*
X-96304Y-23471D01*
X-96506Y-22983D01*
X-97147Y-22147D01*
X-97983Y-21506D01*
X-98956Y-21103D01*
X-100000Y-20966D01*
X-101044Y-21103D01*
X-101532Y-21305D01*
X-108471Y-14367D01*
Y-1196D01*
X-107983Y-994D01*
X-107147Y-353D01*
X-106506Y483D01*
X-106103Y1456D01*
X-105965Y2500D01*
X-106103Y3544D01*
X-106506Y4517D01*
X-107147Y5353D01*
X-107983Y5994D01*
X-108956Y6397D01*
X-110000Y6534D01*
D02*
G37*
G36*
X21500Y-20966D02*
X20456Y-21103D01*
X19483Y-21506D01*
X18647Y-22147D01*
X18006Y-22983D01*
X17804Y-23470D01*
X13432D01*
X13281Y-23106D01*
X12679Y-22321D01*
X11894Y-21719D01*
X10981Y-21341D01*
X10000Y-21212D01*
X9020Y-21341D01*
X8106Y-21719D01*
X7321Y-22321D01*
X6719Y-23106D01*
X6341Y-24019D01*
X6212Y-25000D01*
X6341Y-25980D01*
X6719Y-26894D01*
X7321Y-27679D01*
X8106Y-28281D01*
X9020Y-28659D01*
X10000Y-28788D01*
X10981Y-28659D01*
X11894Y-28281D01*
X12679Y-27679D01*
X13281Y-26894D01*
X13432Y-26529D01*
X17804D01*
X18006Y-27017D01*
X18647Y-27853D01*
X19483Y-28494D01*
X20456Y-28897D01*
X21500Y-29035D01*
X22544Y-28897D01*
X23517Y-28494D01*
X24353Y-27853D01*
X24994Y-27017D01*
X25397Y-26044D01*
X25534Y-25000D01*
X25397Y-23956D01*
X24994Y-22983D01*
X24353Y-22147D01*
X23517Y-21506D01*
X22544Y-21103D01*
X21500Y-20966D01*
D02*
G37*
G36*
X-153000Y-21278D02*
X-153480Y-21341D01*
X-154394Y-21719D01*
X-155179Y-22321D01*
X-155781Y-23106D01*
X-156159Y-24020D01*
X-156222Y-24500D01*
X-153000D01*
Y-21278D01*
D02*
G37*
G36*
X-152000D02*
Y-24500D01*
X-148777D01*
X-148841Y-24020D01*
X-149219Y-23106D01*
X-149821Y-22321D01*
X-150606Y-21719D01*
X-151519Y-21341D01*
X-152000Y-21278D01*
D02*
G37*
G36*
X-50500Y-15500D02*
X-53969D01*
X-53897Y-16044D01*
X-53494Y-17017D01*
X-52853Y-17853D01*
X-52017Y-18494D01*
X-51044Y-18897D01*
X-50500Y-18969D01*
Y-15500D01*
D02*
G37*
G36*
X-49500Y-11031D02*
Y-14500D01*
X-46031D01*
X-46103Y-13956D01*
X-46506Y-12983D01*
X-47147Y-12147D01*
X-47983Y-11506D01*
X-48956Y-11103D01*
X-49500Y-11031D01*
D02*
G37*
G36*
X-93000Y-10500D02*
X-96223D01*
X-96159Y-10981D01*
X-95781Y-11894D01*
X-95179Y-12679D01*
X-94394Y-13281D01*
X-93480Y-13659D01*
X-93000Y-13723D01*
Y-10500D01*
D02*
G37*
G36*
X-46031Y-15500D02*
X-49500D01*
Y-18969D01*
X-48956Y-18897D01*
X-47983Y-18494D01*
X-47147Y-17853D01*
X-46506Y-17017D01*
X-46103Y-16044D01*
X-46031Y-15500D01*
D02*
G37*
G36*
X-50500Y-11031D02*
X-51044Y-11103D01*
X-52017Y-11506D01*
X-52853Y-12147D01*
X-53494Y-12983D01*
X-53897Y-13956D01*
X-53969Y-14500D01*
X-50500D01*
Y-11031D01*
D02*
G37*
G36*
X60551Y49342D02*
X59377Y49187D01*
X58282Y48734D01*
X57342Y48013D01*
X56621Y47073D01*
X56167Y45978D01*
X56012Y44803D01*
X56167Y43628D01*
X56621Y42534D01*
X57342Y41594D01*
X58282Y40872D01*
X59377Y40419D01*
X60551Y40264D01*
X61726Y40419D01*
X62821Y40872D01*
X63761Y41594D01*
X64482Y42534D01*
X64935Y43628D01*
X65090Y44803D01*
X64935Y45978D01*
X64482Y47073D01*
X63761Y48013D01*
X62821Y48734D01*
X61726Y49187D01*
X60551Y49342D01*
D02*
G37*
G36*
X-50000Y129034D02*
X-51044Y128897D01*
X-52017Y128494D01*
X-52853Y127853D01*
X-53494Y127017D01*
X-53696Y126529D01*
X-56304D01*
X-56506Y127017D01*
X-57147Y127853D01*
X-57983Y128494D01*
X-58956Y128897D01*
X-60000Y129034D01*
X-61044Y128897D01*
X-62017Y128494D01*
X-62853Y127853D01*
X-63494Y127017D01*
X-63696Y126529D01*
X-66304D01*
X-66506Y127017D01*
X-67147Y127853D01*
X-67983Y128494D01*
X-68956Y128897D01*
X-70000Y129034D01*
X-71044Y128897D01*
X-72017Y128494D01*
X-72853Y127853D01*
X-73494Y127017D01*
X-73696Y126529D01*
X-76304D01*
X-76506Y127017D01*
X-77147Y127853D01*
X-77983Y128494D01*
X-78956Y128897D01*
X-80000Y129034D01*
X-81044Y128897D01*
X-82017Y128494D01*
X-82853Y127853D01*
X-83494Y127017D01*
X-83696Y126529D01*
X-86304D01*
X-86506Y127017D01*
X-87147Y127853D01*
X-87983Y128494D01*
X-88956Y128897D01*
X-90000Y129034D01*
X-91044Y128897D01*
X-92017Y128494D01*
X-92853Y127853D01*
X-93494Y127017D01*
X-93696Y126529D01*
X-96304D01*
X-96506Y127017D01*
X-97147Y127853D01*
X-97983Y128494D01*
X-98956Y128897D01*
X-100000Y129034D01*
X-101044Y128897D01*
X-102017Y128494D01*
X-102853Y127853D01*
X-103494Y127017D01*
X-103897Y126044D01*
X-104034Y125000D01*
X-103897Y123956D01*
X-103494Y122983D01*
X-102853Y122147D01*
X-102017Y121506D01*
X-101044Y121103D01*
X-100000Y120966D01*
X-98956Y121103D01*
X-97983Y121506D01*
X-97147Y122147D01*
X-96506Y122983D01*
X-96304Y123471D01*
X-93696D01*
X-93494Y122983D01*
X-92853Y122147D01*
X-92017Y121506D01*
X-91044Y121103D01*
X-90000Y120966D01*
X-88956Y121103D01*
X-87983Y121506D01*
X-87147Y122147D01*
X-86506Y122983D01*
X-86304Y123471D01*
X-83696D01*
X-83494Y122983D01*
X-82853Y122147D01*
X-82017Y121506D01*
X-81044Y121103D01*
X-80000Y120966D01*
X-78956Y121103D01*
X-77983Y121506D01*
X-77147Y122147D01*
X-76506Y122983D01*
X-76304Y123471D01*
X-73696D01*
X-73494Y122983D01*
X-72853Y122147D01*
X-72017Y121506D01*
X-71044Y121103D01*
X-70000Y120966D01*
X-68956Y121103D01*
X-67983Y121506D01*
X-67147Y122147D01*
X-66506Y122983D01*
X-66304Y123471D01*
X-63696D01*
X-63494Y122983D01*
X-62853Y122147D01*
X-62017Y121506D01*
X-61044Y121103D01*
X-60000Y120966D01*
X-58956Y121103D01*
X-57983Y121506D01*
X-57147Y122147D01*
X-56506Y122983D01*
X-56304Y123471D01*
X-53696D01*
X-53494Y122983D01*
X-52853Y122147D01*
X-52017Y121506D01*
X-51044Y121103D01*
X-50000Y120966D01*
X-48956Y121103D01*
X-47983Y121506D01*
X-47147Y122147D01*
X-46804Y122595D01*
X-46305Y122627D01*
X-40669Y116991D01*
X-40860Y116529D01*
X-46304D01*
X-46506Y117017D01*
X-47147Y117853D01*
X-47983Y118494D01*
X-48956Y118897D01*
X-50000Y119035D01*
X-51044Y118897D01*
X-52017Y118494D01*
X-52853Y117853D01*
X-53494Y117017D01*
X-53696Y116529D01*
X-56304D01*
X-56506Y117017D01*
X-57147Y117853D01*
X-57983Y118494D01*
X-58956Y118897D01*
X-60000Y119035D01*
X-61044Y118897D01*
X-62017Y118494D01*
X-62853Y117853D01*
X-63494Y117017D01*
X-63696Y116529D01*
X-66304D01*
X-66506Y117017D01*
X-67147Y117853D01*
X-67983Y118494D01*
X-68956Y118897D01*
X-70000Y119035D01*
X-71044Y118897D01*
X-72017Y118494D01*
X-72853Y117853D01*
X-73494Y117017D01*
X-73696Y116529D01*
X-76304D01*
X-76506Y117017D01*
X-77147Y117853D01*
X-77983Y118494D01*
X-78956Y118897D01*
X-80000Y119035D01*
X-81044Y118897D01*
X-82017Y118494D01*
X-82853Y117853D01*
X-83494Y117017D01*
X-83897Y116044D01*
X-84035Y115000D01*
X-83897Y113956D01*
X-83494Y112983D01*
X-82853Y112147D01*
X-82017Y111506D01*
X-81044Y111103D01*
X-80000Y110966D01*
X-78956Y111103D01*
X-77983Y111506D01*
X-77147Y112147D01*
X-76506Y112983D01*
X-76304Y113471D01*
X-73696D01*
X-73494Y112983D01*
X-72853Y112147D01*
X-72017Y111506D01*
X-71044Y111103D01*
X-70000Y110966D01*
X-68956Y111103D01*
X-67983Y111506D01*
X-67147Y112147D01*
X-66506Y112983D01*
X-66304Y113471D01*
X-63696D01*
X-63494Y112983D01*
X-62853Y112147D01*
X-62017Y111506D01*
X-61044Y111103D01*
X-60000Y110966D01*
X-58956Y111103D01*
X-57983Y111506D01*
X-57147Y112147D01*
X-56506Y112983D01*
X-56304Y113471D01*
X-53696D01*
X-53494Y112983D01*
X-52853Y112147D01*
X-52017Y111506D01*
X-51044Y111103D01*
X-50000Y110966D01*
X-48956Y111103D01*
X-47983Y111506D01*
X-47147Y112147D01*
X-46506Y112983D01*
X-46304Y113471D01*
X-39977D01*
X-33497Y106991D01*
X-33689Y106529D01*
X-46304D01*
X-46506Y107017D01*
X-47147Y107853D01*
X-47983Y108494D01*
X-48956Y108897D01*
X-50000Y109035D01*
X-51044Y108897D01*
X-52017Y108494D01*
X-52853Y107853D01*
X-53494Y107017D01*
X-53696Y106529D01*
X-56304D01*
X-56506Y107017D01*
X-57147Y107853D01*
X-57983Y108494D01*
X-58956Y108897D01*
X-60000Y109035D01*
X-61044Y108897D01*
X-62017Y108494D01*
X-62853Y107853D01*
X-63494Y107017D01*
X-63696Y106529D01*
X-66304D01*
X-66506Y107017D01*
X-67147Y107853D01*
X-67983Y108494D01*
X-68956Y108897D01*
X-70000Y109035D01*
X-71044Y108897D01*
X-72017Y108494D01*
X-72853Y107853D01*
X-73494Y107017D01*
X-73696Y106529D01*
X-76304D01*
X-76506Y107017D01*
X-77147Y107853D01*
X-77983Y108494D01*
X-78956Y108897D01*
X-80000Y109035D01*
X-81044Y108897D01*
X-82017Y108494D01*
X-82853Y107853D01*
X-82997Y107665D01*
X-83471Y107826D01*
Y110000D01*
X-83587Y110585D01*
X-83919Y111081D01*
X-86305Y113468D01*
X-86103Y113956D01*
X-85966Y115000D01*
X-86103Y116044D01*
X-86506Y117017D01*
X-87147Y117853D01*
X-87983Y118494D01*
X-88956Y118897D01*
X-90000Y119035D01*
X-91044Y118897D01*
X-92017Y118494D01*
X-92853Y117853D01*
X-93494Y117017D01*
X-93696Y116529D01*
X-96304D01*
X-96506Y117017D01*
X-97147Y117853D01*
X-97983Y118494D01*
X-98956Y118897D01*
X-100000Y119035D01*
X-101044Y118897D01*
X-102017Y118494D01*
X-102853Y117853D01*
X-103494Y117017D01*
X-103696Y116529D01*
X-106304D01*
X-106506Y117017D01*
X-107147Y117853D01*
X-107983Y118494D01*
X-108956Y118897D01*
X-110000Y119035D01*
X-111044Y118897D01*
X-112017Y118494D01*
X-112853Y117853D01*
X-113494Y117017D01*
X-113696Y116529D01*
X-116304D01*
X-116506Y117017D01*
X-117147Y117853D01*
X-117983Y118494D01*
X-118956Y118897D01*
X-120000Y119035D01*
X-121044Y118897D01*
X-122017Y118494D01*
X-122853Y117853D01*
X-123494Y117017D01*
X-123897Y116044D01*
X-124035Y115000D01*
X-123897Y113956D01*
X-123494Y112983D01*
X-122853Y112147D01*
X-122017Y111506D01*
X-121044Y111103D01*
X-120000Y110966D01*
X-118956Y111103D01*
X-117983Y111506D01*
X-117147Y112147D01*
X-116506Y112983D01*
X-116304Y113471D01*
X-113696D01*
X-113494Y112983D01*
X-112853Y112147D01*
X-112017Y111506D01*
X-111044Y111103D01*
X-110000Y110966D01*
X-108956Y111103D01*
X-107983Y111506D01*
X-107147Y112147D01*
X-106506Y112983D01*
X-106304Y113471D01*
X-103696D01*
X-103494Y112983D01*
X-102853Y112147D01*
X-102017Y111506D01*
X-101044Y111103D01*
X-100000Y110966D01*
X-98956Y111103D01*
X-97983Y111506D01*
X-97147Y112147D01*
X-96506Y112983D01*
X-96304Y113471D01*
X-93696D01*
X-93494Y112983D01*
X-92853Y112147D01*
X-92017Y111506D01*
X-91044Y111103D01*
X-90000Y110966D01*
X-88956Y111103D01*
X-88468Y111305D01*
X-86529Y109367D01*
Y107826D01*
X-87003Y107665D01*
X-87147Y107853D01*
X-87983Y108494D01*
X-88956Y108897D01*
X-90000Y109035D01*
X-91044Y108897D01*
X-92017Y108494D01*
X-92853Y107853D01*
X-93494Y107017D01*
X-93696Y106529D01*
X-96304D01*
X-96506Y107017D01*
X-97147Y107853D01*
X-97983Y108494D01*
X-98956Y108897D01*
X-100000Y109035D01*
X-101044Y108897D01*
X-102017Y108494D01*
X-102853Y107853D01*
X-103494Y107017D01*
X-103696Y106529D01*
X-106304D01*
X-106506Y107017D01*
X-107147Y107853D01*
X-107983Y108494D01*
X-108956Y108897D01*
X-110000Y109035D01*
X-111044Y108897D01*
X-112017Y108494D01*
X-112853Y107853D01*
X-113494Y107017D01*
X-113696Y106529D01*
X-116304D01*
X-116506Y107017D01*
X-117147Y107853D01*
X-117983Y108494D01*
X-118956Y108897D01*
X-120000Y109035D01*
X-121044Y108897D01*
X-122017Y108494D01*
X-122853Y107853D01*
X-123494Y107017D01*
X-123897Y106044D01*
X-124035Y105000D01*
X-123897Y103956D01*
X-123695Y103468D01*
X-126081Y101081D01*
X-126413Y100585D01*
X-126529Y100000D01*
Y97825D01*
X-127003Y97665D01*
X-127147Y97853D01*
X-127983Y98494D01*
X-128956Y98897D01*
X-129500Y98969D01*
Y95000D01*
Y91031D01*
X-128956Y91103D01*
X-127983Y91506D01*
X-127147Y92147D01*
X-127003Y92335D01*
X-126529Y92175D01*
Y87826D01*
X-127003Y87665D01*
X-127147Y87853D01*
X-127983Y88494D01*
X-128956Y88897D01*
X-129500Y88969D01*
Y85000D01*
Y81031D01*
X-128956Y81103D01*
X-127983Y81506D01*
X-127147Y82147D01*
X-127003Y82335D01*
X-126529Y82174D01*
Y70000D01*
X-126413Y69415D01*
X-126081Y68919D01*
X-121081Y63918D01*
X-120585Y63587D01*
X-120000Y63471D01*
X-113696D01*
X-113494Y62983D01*
X-112853Y62147D01*
X-112017Y61506D01*
X-111044Y61103D01*
X-110000Y60966D01*
X-108956Y61103D01*
X-107983Y61506D01*
X-107147Y62147D01*
X-106506Y62983D01*
X-106410Y63216D01*
X-103590D01*
X-103494Y62983D01*
X-102853Y62147D01*
X-102017Y61506D01*
X-101044Y61103D01*
X-100000Y60966D01*
X-98956Y61103D01*
X-97983Y61506D01*
X-97147Y62147D01*
X-96506Y62983D01*
X-96409Y63216D01*
X-93591D01*
X-93494Y62983D01*
X-92853Y62147D01*
X-92017Y61506D01*
X-91044Y61103D01*
X-90000Y60965D01*
X-88956Y61103D01*
X-87983Y61506D01*
X-87147Y62147D01*
X-86506Y62983D01*
X-86410Y63216D01*
X-83590D01*
X-83494Y62983D01*
X-82853Y62147D01*
X-82017Y61506D01*
X-81044Y61103D01*
X-80000Y60966D01*
X-78956Y61103D01*
X-77983Y61506D01*
X-77147Y62147D01*
X-76506Y62983D01*
X-76103Y63956D01*
X-75965Y65000D01*
X-76103Y66044D01*
X-76506Y67017D01*
X-77147Y67853D01*
X-77983Y68494D01*
X-78956Y68897D01*
X-80000Y69034D01*
X-81044Y68897D01*
X-82017Y68494D01*
X-82853Y67853D01*
X-83494Y67017D01*
X-83591Y66784D01*
X-86410D01*
X-86506Y67017D01*
X-87147Y67853D01*
X-87983Y68494D01*
X-88956Y68897D01*
X-90000Y69034D01*
X-91044Y68897D01*
X-92017Y68494D01*
X-92853Y67853D01*
X-93494Y67017D01*
X-93591Y66784D01*
X-96409D01*
X-96506Y67017D01*
X-97147Y67853D01*
X-97983Y68494D01*
X-98956Y68897D01*
X-100000Y69034D01*
X-101044Y68897D01*
X-102017Y68494D01*
X-102853Y67853D01*
X-103494Y67017D01*
X-103590Y66784D01*
X-106410D01*
X-106506Y67017D01*
X-107147Y67853D01*
X-107983Y68494D01*
X-108956Y68897D01*
X-110000Y69034D01*
X-111044Y68897D01*
X-112017Y68494D01*
X-112853Y67853D01*
X-113494Y67017D01*
X-113696Y66529D01*
X-119366D01*
X-123471Y70634D01*
Y82174D01*
X-122997Y82335D01*
X-122853Y82147D01*
X-122017Y81506D01*
X-121044Y81103D01*
X-120000Y80966D01*
X-118956Y81103D01*
X-117983Y81506D01*
X-117147Y82147D01*
X-116506Y82983D01*
X-116304Y83471D01*
X-113696D01*
X-113494Y82983D01*
X-112853Y82147D01*
X-112017Y81506D01*
X-111044Y81103D01*
X-110000Y80966D01*
X-108956Y81103D01*
X-107983Y81506D01*
X-107147Y82147D01*
X-106506Y82983D01*
X-106304Y83471D01*
X-103696D01*
X-103494Y82983D01*
X-102853Y82147D01*
X-102017Y81506D01*
X-101044Y81103D01*
X-100000Y80966D01*
X-98956Y81103D01*
X-97983Y81506D01*
X-97147Y82147D01*
X-96506Y82983D01*
X-96304Y83471D01*
X-93696D01*
X-93494Y82983D01*
X-92853Y82147D01*
X-92017Y81506D01*
X-91044Y81103D01*
X-90000Y80966D01*
X-88956Y81103D01*
X-87983Y81506D01*
X-87147Y82147D01*
X-87003Y82335D01*
X-86529Y82174D01*
Y80000D01*
X-86413Y79415D01*
X-86081Y78919D01*
X-84192Y77029D01*
X-84399Y76529D01*
X-86304D01*
X-86506Y77017D01*
X-87147Y77853D01*
X-87983Y78494D01*
X-88956Y78897D01*
X-90000Y79034D01*
X-91044Y78897D01*
X-92017Y78494D01*
X-92853Y77853D01*
X-93494Y77017D01*
X-93696Y76529D01*
X-96304D01*
X-96506Y77017D01*
X-97147Y77853D01*
X-97983Y78494D01*
X-98956Y78897D01*
X-100000Y79034D01*
X-101044Y78897D01*
X-102017Y78494D01*
X-102853Y77853D01*
X-103494Y77017D01*
X-103897Y76044D01*
X-104034Y75000D01*
X-103897Y73956D01*
X-103494Y72983D01*
X-102853Y72147D01*
X-102017Y71506D01*
X-101044Y71103D01*
X-100000Y70965D01*
X-98956Y71103D01*
X-97983Y71506D01*
X-97147Y72147D01*
X-96506Y72983D01*
X-96304Y73471D01*
X-93696D01*
X-93494Y72983D01*
X-92853Y72147D01*
X-92017Y71506D01*
X-91044Y71103D01*
X-90000Y70965D01*
X-88956Y71103D01*
X-87983Y71506D01*
X-87147Y72147D01*
X-86506Y72983D01*
X-86304Y73471D01*
X-83696D01*
X-83494Y72983D01*
X-82853Y72147D01*
X-82017Y71506D01*
X-81044Y71103D01*
X-80000Y70965D01*
X-78956Y71103D01*
X-77983Y71506D01*
X-77147Y72147D01*
X-76506Y72983D01*
X-76103Y73956D01*
X-75965Y75000D01*
X-76103Y76044D01*
X-76506Y77017D01*
X-77147Y77853D01*
X-77983Y78494D01*
X-78956Y78897D01*
X-80000Y79035D01*
X-81044Y78897D01*
X-81532Y78695D01*
X-83471Y80633D01*
Y82174D01*
X-82997Y82335D01*
X-82853Y82147D01*
X-82017Y81506D01*
X-81044Y81103D01*
X-80500Y81031D01*
Y85000D01*
Y88969D01*
X-81044Y88897D01*
X-82017Y88494D01*
X-82853Y87853D01*
X-82997Y87665D01*
X-83471Y87826D01*
Y92175D01*
X-82997Y92335D01*
X-82853Y92147D01*
X-82017Y91506D01*
X-81044Y91103D01*
X-80000Y90965D01*
X-78956Y91103D01*
X-77983Y91506D01*
X-77147Y92147D01*
X-76506Y92983D01*
X-76304Y93471D01*
X-73696D01*
X-73494Y92983D01*
X-72853Y92147D01*
X-72017Y91506D01*
X-71044Y91103D01*
X-70000Y90965D01*
X-68956Y91103D01*
X-67983Y91506D01*
X-67147Y92147D01*
X-66506Y92983D01*
X-66304Y93471D01*
X-63696D01*
X-63494Y92983D01*
X-62853Y92147D01*
X-62017Y91506D01*
X-61044Y91103D01*
X-60000Y90965D01*
X-58956Y91103D01*
X-57983Y91506D01*
X-57147Y92147D01*
X-56506Y92983D01*
X-56304Y93471D01*
X-53696D01*
X-53494Y92983D01*
X-52853Y92147D01*
X-52017Y91506D01*
X-51044Y91103D01*
X-50000Y90965D01*
X-48956Y91103D01*
X-47983Y91506D01*
X-47147Y92147D01*
X-46506Y92983D01*
X-46304Y93471D01*
X-25633D01*
X-21529Y89367D01*
Y70634D01*
X-25633Y66529D01*
X-26304D01*
X-26506Y67017D01*
X-27147Y67853D01*
X-27983Y68494D01*
X-28956Y68897D01*
X-30000Y69034D01*
X-31044Y68897D01*
X-32017Y68494D01*
X-32853Y67853D01*
X-33494Y67017D01*
X-33696Y66529D01*
X-36304D01*
X-36506Y67017D01*
X-37147Y67853D01*
X-37983Y68494D01*
X-38956Y68897D01*
X-40000Y69034D01*
X-41044Y68897D01*
X-42017Y68494D01*
X-42853Y67853D01*
X-43494Y67017D01*
X-43696Y66529D01*
X-46304D01*
X-46506Y67017D01*
X-47147Y67853D01*
X-47983Y68494D01*
X-48956Y68897D01*
X-50000Y69034D01*
X-51044Y68897D01*
X-52017Y68494D01*
X-52853Y67853D01*
X-53494Y67017D01*
X-53897Y66044D01*
X-54035Y65000D01*
X-53897Y63956D01*
X-53494Y62983D01*
X-52853Y62147D01*
X-52017Y61506D01*
X-51044Y61103D01*
X-50000Y60966D01*
X-48956Y61103D01*
X-47983Y61506D01*
X-47147Y62147D01*
X-46506Y62983D01*
X-46304Y63471D01*
X-43696D01*
X-43494Y62983D01*
X-42853Y62147D01*
X-42017Y61506D01*
X-41044Y61103D01*
X-40000Y60966D01*
X-38956Y61103D01*
X-37983Y61506D01*
X-37147Y62147D01*
X-36506Y62983D01*
X-36304Y63471D01*
X-33696D01*
X-33494Y62983D01*
X-32853Y62147D01*
X-32017Y61506D01*
X-31044Y61103D01*
X-30000Y60966D01*
X-28956Y61103D01*
X-27983Y61506D01*
X-27147Y62147D01*
X-26506Y62983D01*
X-26304Y63471D01*
X-25000D01*
X-24415Y63587D01*
X-23919Y63919D01*
X-19491Y68346D01*
X-19029Y68154D01*
Y60633D01*
X-23134Y56529D01*
X-26304D01*
X-26506Y57017D01*
X-27147Y57853D01*
X-27983Y58494D01*
X-28956Y58897D01*
X-30000Y59034D01*
X-31044Y58897D01*
X-32017Y58494D01*
X-32853Y57853D01*
X-33494Y57017D01*
X-33696Y56529D01*
X-36304D01*
X-36506Y57017D01*
X-37147Y57853D01*
X-37983Y58494D01*
X-38956Y58897D01*
X-40000Y59034D01*
X-41044Y58897D01*
X-42017Y58494D01*
X-42853Y57853D01*
X-43494Y57017D01*
X-43696Y56529D01*
X-46304D01*
X-46506Y57017D01*
X-47147Y57853D01*
X-47983Y58494D01*
X-48956Y58897D01*
X-50000Y59035D01*
X-51044Y58897D01*
X-52017Y58494D01*
X-52853Y57853D01*
X-53494Y57017D01*
X-53897Y56044D01*
X-53939Y55724D01*
X-60254Y49409D01*
X-60716Y49600D01*
Y61761D01*
X-51277Y71200D01*
X-51044Y71103D01*
X-50000Y70965D01*
X-48956Y71103D01*
X-47983Y71506D01*
X-47147Y72147D01*
X-46506Y72983D01*
X-46409Y73216D01*
X-43591D01*
X-43494Y72983D01*
X-42853Y72147D01*
X-42017Y71506D01*
X-41044Y71103D01*
X-40000Y70965D01*
X-38956Y71103D01*
X-37983Y71506D01*
X-37147Y72147D01*
X-36506Y72983D01*
X-36410Y73216D01*
X-33590D01*
X-33494Y72983D01*
X-32853Y72147D01*
X-32017Y71506D01*
X-31044Y71103D01*
X-30000Y70965D01*
X-28956Y71103D01*
X-27983Y71506D01*
X-27147Y72147D01*
X-26506Y72983D01*
X-26103Y73956D01*
X-25965Y75000D01*
X-26103Y76044D01*
X-26506Y77017D01*
X-27147Y77853D01*
X-27983Y78494D01*
X-28956Y78897D01*
X-30000Y79035D01*
X-31044Y78897D01*
X-32017Y78494D01*
X-32853Y77853D01*
X-33494Y77017D01*
X-33590Y76784D01*
X-36410D01*
X-36506Y77017D01*
X-37147Y77853D01*
X-37983Y78494D01*
X-38956Y78897D01*
X-40000Y79035D01*
X-41044Y78897D01*
X-42017Y78494D01*
X-42853Y77853D01*
X-43494Y77017D01*
X-43591Y76784D01*
X-46409D01*
X-46506Y77017D01*
X-47147Y77853D01*
X-47983Y78494D01*
X-48956Y78897D01*
X-50000Y79035D01*
X-51044Y78897D01*
X-52017Y78494D01*
X-52853Y77853D01*
X-53494Y77017D01*
X-53897Y76044D01*
X-54035Y75000D01*
X-53897Y73956D01*
X-53800Y73723D01*
X-63762Y63762D01*
X-64148Y63183D01*
X-64284Y62500D01*
Y49961D01*
X-64746Y49770D01*
X-71238Y56262D01*
X-71817Y56648D01*
X-72500Y56784D01*
X-76410D01*
X-76506Y57017D01*
X-77147Y57853D01*
X-77983Y58494D01*
X-78956Y58897D01*
X-80000Y59035D01*
X-81044Y58897D01*
X-82017Y58494D01*
X-82853Y57853D01*
X-83494Y57017D01*
X-83591Y56784D01*
X-86409D01*
X-86506Y57017D01*
X-87147Y57853D01*
X-87983Y58494D01*
X-88956Y58897D01*
X-90000Y59035D01*
X-91044Y58897D01*
X-92017Y58494D01*
X-92853Y57853D01*
X-93494Y57017D01*
X-93590Y56784D01*
X-96409D01*
X-96506Y57017D01*
X-97147Y57853D01*
X-97983Y58494D01*
X-98956Y58897D01*
X-100000Y59035D01*
X-101044Y58897D01*
X-102017Y58494D01*
X-102853Y57853D01*
X-103494Y57017D01*
X-103897Y56044D01*
X-104034Y55000D01*
X-103897Y53956D01*
X-103494Y52983D01*
X-102853Y52147D01*
X-102017Y51506D01*
X-101044Y51103D01*
X-100000Y50965D01*
X-98956Y51103D01*
X-97983Y51506D01*
X-97147Y52147D01*
X-96506Y52983D01*
X-96409Y53216D01*
X-93590D01*
X-93494Y52983D01*
X-92853Y52147D01*
X-92017Y51506D01*
X-91044Y51103D01*
X-90000Y50965D01*
X-88956Y51103D01*
X-87983Y51506D01*
X-87147Y52147D01*
X-86506Y52983D01*
X-86409Y53216D01*
X-83591D01*
X-83494Y52983D01*
X-82853Y52147D01*
X-82017Y51506D01*
X-81044Y51103D01*
X-80000Y50965D01*
X-78956Y51103D01*
X-77983Y51506D01*
X-77147Y52147D01*
X-76506Y52983D01*
X-76410Y53216D01*
X-73239D01*
X-66784Y46761D01*
Y29275D01*
X-81775Y14284D01*
X-176771D01*
X-176930Y14807D01*
X-177487Y15849D01*
X-178237Y16763D01*
X-179150Y17513D01*
X-180193Y18070D01*
X-181324Y18413D01*
X-182500Y18529D01*
X-183676Y18413D01*
X-184807Y18070D01*
X-185849Y17513D01*
X-186763Y16763D01*
X-187513Y15849D01*
X-188070Y14807D01*
X-188413Y13676D01*
X-188529Y12500D01*
X-188413Y11324D01*
X-188070Y10193D01*
X-187513Y9150D01*
X-186763Y8237D01*
X-185849Y7487D01*
X-185356Y7223D01*
X-185434Y6698D01*
X-185683Y6649D01*
X-185683Y6648D01*
X-185683Y6648D01*
X-186262Y6261D01*
X-191262Y1262D01*
X-191648Y683D01*
X-191648Y683D01*
X-191648Y683D01*
X-191784Y-0D01*
Y-19200D01*
X-191648Y-19883D01*
X-191262Y-20462D01*
X-187534Y-24190D01*
X-188070Y-25193D01*
X-188413Y-26324D01*
X-188529Y-27500D01*
X-188413Y-28676D01*
X-188070Y-29807D01*
X-187513Y-30849D01*
X-186763Y-31763D01*
X-185849Y-32513D01*
X-184807Y-33070D01*
X-183676Y-33413D01*
X-182500Y-33529D01*
X-181324Y-33413D01*
X-180193Y-33070D01*
X-179150Y-32513D01*
X-178237Y-31763D01*
X-177487Y-30849D01*
X-176930Y-29807D01*
X-176587Y-28676D01*
X-176471Y-27500D01*
X-176587Y-26324D01*
X-176930Y-25193D01*
X-177487Y-24150D01*
X-178237Y-23237D01*
X-179150Y-22487D01*
X-180193Y-21930D01*
X-181324Y-21587D01*
X-182500Y-21471D01*
X-183676Y-21587D01*
X-184761Y-21916D01*
X-188216Y-18461D01*
Y-10595D01*
X-187716Y-10470D01*
X-187513Y-10850D01*
X-186763Y-11763D01*
X-185849Y-12513D01*
X-184807Y-13070D01*
X-183676Y-13413D01*
X-182500Y-13529D01*
X-181324Y-13413D01*
X-180193Y-13070D01*
X-179150Y-12513D01*
X-178237Y-11763D01*
X-177487Y-10850D01*
X-176930Y-9807D01*
X-176631Y-8823D01*
X-172638D01*
X-170030Y-11431D01*
X-169374Y-11869D01*
X-168600Y-12023D01*
X-148489D01*
X-147853Y-12853D01*
X-147017Y-13494D01*
X-146044Y-13897D01*
X-145000Y-14035D01*
X-143956Y-13897D01*
X-142983Y-13494D01*
X-142147Y-12853D01*
X-141510Y-12023D01*
X-135682D01*
X-135179Y-12679D01*
X-134394Y-13281D01*
X-133481Y-13659D01*
X-132500Y-13788D01*
X-131519Y-13659D01*
X-130606Y-13281D01*
X-129821Y-12679D01*
X-129219Y-11894D01*
X-128841Y-10981D01*
X-128712Y-10000D01*
X-128841Y-9020D01*
X-129219Y-8106D01*
X-129821Y-7321D01*
X-130606Y-6719D01*
X-131519Y-6341D01*
X-132500Y-6212D01*
X-133481Y-6341D01*
X-134394Y-6719D01*
X-135179Y-7321D01*
X-135682Y-7977D01*
X-141510D01*
X-142147Y-7147D01*
X-142983Y-6506D01*
X-143956Y-6103D01*
X-145000Y-5965D01*
X-146044Y-6103D01*
X-147017Y-6506D01*
X-147853Y-7147D01*
X-148489Y-7977D01*
X-167762D01*
X-170369Y-5369D01*
X-171026Y-4931D01*
X-171800Y-4777D01*
X-177152D01*
X-177487Y-4151D01*
X-178237Y-3237D01*
X-179150Y-2487D01*
X-180193Y-1930D01*
X-181324Y-1587D01*
X-182500Y-1471D01*
X-183676Y-1587D01*
X-184807Y-1930D01*
X-185849Y-2487D01*
X-186763Y-3237D01*
X-187513Y-4151D01*
X-187716Y-4530D01*
X-188216Y-4405D01*
Y-739D01*
X-184261Y3216D01*
X-175000D01*
X-174317Y3351D01*
X-173738Y3738D01*
X-169261Y8216D01*
X-148148D01*
X-147958Y7716D01*
X-148494Y7017D01*
X-148897Y6044D01*
X-148969Y5500D01*
X-141031D01*
X-141103Y6044D01*
X-141506Y7017D01*
X-142042Y7716D01*
X-141852Y8216D01*
X-81419D01*
X-81227Y7754D01*
X-84952Y4029D01*
X-86304D01*
X-86506Y4517D01*
X-87147Y5353D01*
X-87983Y5994D01*
X-88956Y6397D01*
X-90000Y6534D01*
X-91044Y6397D01*
X-92017Y5994D01*
X-92853Y5353D01*
X-93494Y4517D01*
X-93897Y3544D01*
X-94034Y2500D01*
X-93897Y1456D01*
X-93494Y483D01*
X-92853Y-353D01*
X-92017Y-994D01*
X-91044Y-1397D01*
X-90000Y-1534D01*
X-88956Y-1397D01*
X-87983Y-994D01*
X-87147Y-353D01*
X-86506Y483D01*
X-86304Y971D01*
X-84318D01*
X-83733Y1087D01*
X-83237Y1419D01*
X-58919Y25737D01*
X-58587Y26233D01*
X-58471Y26818D01*
Y46867D01*
X-53169Y52168D01*
X-52853Y52147D01*
X-52017Y51506D01*
X-51044Y51103D01*
X-50000Y50965D01*
X-48956Y51103D01*
X-47983Y51506D01*
X-47147Y52147D01*
X-46506Y52983D01*
X-46304Y53471D01*
X-43696D01*
X-43494Y52983D01*
X-42853Y52147D01*
X-42017Y51506D01*
X-41044Y51103D01*
X-40000Y50965D01*
X-38956Y51103D01*
X-37983Y51506D01*
X-37147Y52147D01*
X-36506Y52983D01*
X-36304Y53470D01*
X-33696D01*
X-33494Y52983D01*
X-32853Y52147D01*
X-32017Y51506D01*
X-31044Y51103D01*
X-30000Y50965D01*
X-28956Y51103D01*
X-27983Y51506D01*
X-27147Y52147D01*
X-26506Y52983D01*
X-26304Y53470D01*
X-22500D01*
X-21915Y53587D01*
X-21419Y53918D01*
X-16991Y58346D01*
X-16529Y58154D01*
Y50962D01*
X-20962Y46529D01*
X-26304D01*
X-26506Y47017D01*
X-27147Y47853D01*
X-27983Y48494D01*
X-28956Y48897D01*
X-30000Y49034D01*
X-31044Y48897D01*
X-32017Y48494D01*
X-32853Y47853D01*
X-33494Y47017D01*
X-33696Y46529D01*
X-36304D01*
X-36506Y47017D01*
X-37147Y47853D01*
X-37983Y48494D01*
X-38956Y48897D01*
X-40000Y49034D01*
X-41044Y48897D01*
X-42017Y48494D01*
X-42853Y47853D01*
X-43494Y47017D01*
X-43696Y46529D01*
X-46304D01*
X-46506Y47017D01*
X-47147Y47853D01*
X-47983Y48494D01*
X-48956Y48897D01*
X-50000Y49035D01*
X-51044Y48897D01*
X-52017Y48494D01*
X-52853Y47853D01*
X-53494Y47017D01*
X-53897Y46044D01*
X-54035Y45000D01*
X-53897Y43956D01*
X-53494Y42983D01*
X-52853Y42147D01*
X-52017Y41506D01*
X-51044Y41103D01*
X-50000Y40966D01*
X-48956Y41103D01*
X-47983Y41506D01*
X-47147Y42147D01*
X-46506Y42983D01*
X-46304Y43470D01*
X-43696D01*
X-43494Y42983D01*
X-42853Y42147D01*
X-42017Y41506D01*
X-41044Y41103D01*
X-40000Y40965D01*
X-38956Y41103D01*
X-37983Y41506D01*
X-37147Y42147D01*
X-36506Y42983D01*
X-36304Y43470D01*
X-33696D01*
X-33494Y42983D01*
X-32853Y42147D01*
X-32017Y41506D01*
X-31044Y41103D01*
X-30000Y40965D01*
X-28956Y41103D01*
X-27983Y41506D01*
X-27147Y42147D01*
X-26506Y42983D01*
X-26304Y43470D01*
X-21711D01*
X-21436Y42970D01*
X-21529Y42500D01*
Y23696D01*
X-22017Y23494D01*
X-22853Y22853D01*
X-23494Y22017D01*
X-23696Y21529D01*
X-26304D01*
X-26506Y22017D01*
X-27147Y22853D01*
X-27983Y23494D01*
X-28956Y23897D01*
X-30000Y24035D01*
X-31044Y23897D01*
X-32017Y23494D01*
X-32853Y22853D01*
X-33494Y22017D01*
X-33696Y21529D01*
X-36304D01*
X-36506Y22017D01*
X-37147Y22853D01*
X-37983Y23494D01*
X-38956Y23897D01*
X-40000Y24035D01*
X-41044Y23897D01*
X-42017Y23494D01*
X-42853Y22853D01*
X-43494Y22017D01*
X-43897Y21044D01*
X-44034Y20000D01*
X-43897Y18956D01*
X-43494Y17983D01*
X-42853Y17147D01*
X-42017Y16506D01*
X-41044Y16103D01*
X-40000Y15966D01*
X-38956Y16103D01*
X-37983Y16506D01*
X-37147Y17147D01*
X-36506Y17983D01*
X-36304Y18471D01*
X-33696D01*
X-33494Y17983D01*
X-32853Y17147D01*
X-32017Y16506D01*
X-31044Y16103D01*
X-30000Y15966D01*
X-28956Y16103D01*
X-27983Y16506D01*
X-27147Y17147D01*
X-26506Y17983D01*
X-26304Y18471D01*
X-23696D01*
X-23494Y17983D01*
X-22853Y17147D01*
X-22017Y16506D01*
X-21044Y16103D01*
X-20000Y15966D01*
X-18956Y16103D01*
X-17983Y16506D01*
X-17147Y17147D01*
X-16506Y17983D01*
X-16304Y18471D01*
X-13696D01*
X-13494Y17983D01*
X-12853Y17147D01*
X-12017Y16506D01*
X-11044Y16103D01*
X-10000Y15966D01*
X-8956Y16103D01*
X-7983Y16506D01*
X-7147Y17147D01*
X-6506Y17983D01*
X-6304Y18471D01*
X-3696D01*
X-3494Y17983D01*
X-2853Y17147D01*
X-2017Y16506D01*
X-1044Y16103D01*
X0Y15966D01*
X1044Y16103D01*
X2017Y16506D01*
X2853Y17147D01*
X3494Y17983D01*
X3897Y18956D01*
X4034Y20000D01*
X3897Y21044D01*
X3494Y22017D01*
X2853Y22853D01*
X2017Y23494D01*
X1044Y23897D01*
X0Y24035D01*
X-1044Y23897D01*
X-2017Y23494D01*
X-2853Y22853D01*
X-3494Y22017D01*
X-3696Y21529D01*
X-6304D01*
X-6506Y22017D01*
X-7147Y22853D01*
X-7983Y23494D01*
X-8956Y23897D01*
X-10000Y24035D01*
X-11044Y23897D01*
X-12017Y23494D01*
X-12853Y22853D01*
X-13494Y22017D01*
X-13696Y21529D01*
X-16304D01*
X-16506Y22017D01*
X-17147Y22853D01*
X-17983Y23494D01*
X-18471Y23696D01*
Y41866D01*
X-11419Y48919D01*
X-11087Y49415D01*
X-10971Y50000D01*
Y90985D01*
X-11087Y91571D01*
X-11419Y92067D01*
X-45433Y126081D01*
X-45930Y126413D01*
X-46285Y126484D01*
X-46506Y127017D01*
X-47147Y127853D01*
X-47983Y128494D01*
X-48956Y128897D01*
X-50000Y129034D01*
D02*
G37*
G36*
X-126000Y149035D02*
X-127044Y148897D01*
X-128017Y148494D01*
X-128853Y147853D01*
X-129494Y147017D01*
X-129897Y146044D01*
X-130034Y145000D01*
X-129897Y143956D01*
X-129494Y142983D01*
X-128853Y142147D01*
X-128017Y141506D01*
X-127529Y141304D01*
Y138696D01*
X-128017Y138494D01*
X-128853Y137853D01*
X-129494Y137017D01*
X-129897Y136044D01*
X-130034Y135000D01*
X-129897Y133956D01*
X-129494Y132983D01*
X-128853Y132147D01*
X-128017Y131506D01*
X-127044Y131103D01*
X-126000Y130965D01*
X-124956Y131103D01*
X-123983Y131506D01*
X-123147Y132147D01*
X-122506Y132983D01*
X-122103Y133956D01*
X-121966Y135000D01*
X-122103Y136044D01*
X-122506Y137017D01*
X-123147Y137853D01*
X-123983Y138494D01*
X-124471Y138696D01*
Y141304D01*
X-123983Y141506D01*
X-123147Y142147D01*
X-122506Y142983D01*
X-122103Y143956D01*
X-121966Y145000D01*
X-122103Y146044D01*
X-122506Y147017D01*
X-123147Y147853D01*
X-123983Y148494D01*
X-124956Y148897D01*
X-126000Y149035D01*
D02*
G37*
G36*
X-110500Y128969D02*
X-111044Y128897D01*
X-112017Y128494D01*
X-112853Y127853D01*
X-113494Y127017D01*
X-113897Y126044D01*
X-113969Y125500D01*
X-110500D01*
Y128969D01*
D02*
G37*
G36*
X-109500D02*
Y125500D01*
X-106031D01*
X-106103Y126044D01*
X-106506Y127017D01*
X-107147Y127853D01*
X-107983Y128494D01*
X-108956Y128897D01*
X-109500Y128969D01*
D02*
G37*
G36*
X-116000Y149035D02*
X-117044Y148897D01*
X-118017Y148494D01*
X-118853Y147853D01*
X-119494Y147017D01*
X-119897Y146044D01*
X-120035Y145000D01*
X-119897Y143956D01*
X-119494Y142983D01*
X-118853Y142147D01*
X-118017Y141506D01*
X-117529Y141304D01*
Y138696D01*
X-118017Y138494D01*
X-118853Y137853D01*
X-119494Y137017D01*
X-119897Y136044D01*
X-120035Y135000D01*
X-119897Y133956D01*
X-119494Y132983D01*
X-118853Y132147D01*
X-118017Y131506D01*
X-117044Y131103D01*
X-116000Y130965D01*
X-114956Y131103D01*
X-113983Y131506D01*
X-113147Y132147D01*
X-112506Y132983D01*
X-112103Y133956D01*
X-111966Y135000D01*
X-112103Y136044D01*
X-112506Y137017D01*
X-113147Y137853D01*
X-113983Y138494D01*
X-114471Y138696D01*
Y141304D01*
X-113983Y141506D01*
X-113147Y142147D01*
X-112506Y142983D01*
X-112103Y143956D01*
X-111966Y145000D01*
X-112103Y146044D01*
X-112506Y147017D01*
X-113147Y147853D01*
X-113983Y148494D01*
X-114956Y148897D01*
X-116000Y149035D01*
D02*
G37*
G36*
X-76000D02*
X-77044Y148897D01*
X-78017Y148494D01*
X-78853Y147853D01*
X-79494Y147017D01*
X-79897Y146044D01*
X-80035Y145000D01*
X-79897Y143956D01*
X-79494Y142983D01*
X-78853Y142147D01*
X-78017Y141506D01*
X-77529Y141304D01*
Y138696D01*
X-78017Y138494D01*
X-78853Y137853D01*
X-79494Y137017D01*
X-79897Y136044D01*
X-80035Y135000D01*
X-79897Y133956D01*
X-79494Y132983D01*
X-78853Y132147D01*
X-78017Y131506D01*
X-77044Y131103D01*
X-76000Y130965D01*
X-74956Y131103D01*
X-73983Y131506D01*
X-73147Y132147D01*
X-72506Y132983D01*
X-72103Y133956D01*
X-71965Y135000D01*
X-72103Y136044D01*
X-72506Y137017D01*
X-73147Y137853D01*
X-73983Y138494D01*
X-74471Y138696D01*
Y141304D01*
X-73983Y141506D01*
X-73147Y142147D01*
X-72506Y142983D01*
X-72103Y143956D01*
X-71965Y145000D01*
X-72103Y146044D01*
X-72506Y147017D01*
X-73147Y147853D01*
X-73983Y148494D01*
X-74956Y148897D01*
X-76000Y149035D01*
D02*
G37*
G36*
X-66000D02*
X-67044Y148897D01*
X-68017Y148494D01*
X-68853Y147853D01*
X-69494Y147017D01*
X-69897Y146044D01*
X-70034Y145000D01*
X-69897Y143956D01*
X-69494Y142983D01*
X-68853Y142147D01*
X-68017Y141506D01*
X-67529Y141304D01*
Y138696D01*
X-68017Y138494D01*
X-68853Y137853D01*
X-69494Y137017D01*
X-69897Y136044D01*
X-70034Y135000D01*
X-69897Y133956D01*
X-69494Y132983D01*
X-68853Y132147D01*
X-68017Y131506D01*
X-67044Y131103D01*
X-66000Y130965D01*
X-64956Y131103D01*
X-63983Y131506D01*
X-63147Y132147D01*
X-62506Y132983D01*
X-62103Y133956D01*
X-61966Y135000D01*
X-62103Y136044D01*
X-62506Y137017D01*
X-63147Y137853D01*
X-63983Y138494D01*
X-64471Y138696D01*
Y141304D01*
X-63983Y141506D01*
X-63147Y142147D01*
X-62506Y142983D01*
X-62103Y143956D01*
X-61966Y145000D01*
X-62103Y146044D01*
X-62506Y147017D01*
X-63147Y147853D01*
X-63983Y148494D01*
X-64956Y148897D01*
X-66000Y149035D01*
D02*
G37*
G36*
X-106000D02*
X-107044Y148897D01*
X-108017Y148494D01*
X-108853Y147853D01*
X-109494Y147017D01*
X-109897Y146044D01*
X-110035Y145000D01*
X-109897Y143956D01*
X-109494Y142983D01*
X-108853Y142147D01*
X-108017Y141506D01*
X-107529Y141304D01*
Y138696D01*
X-108017Y138494D01*
X-108853Y137853D01*
X-109494Y137017D01*
X-109897Y136044D01*
X-110035Y135000D01*
X-109897Y133956D01*
X-109494Y132983D01*
X-108853Y132147D01*
X-108017Y131506D01*
X-107044Y131103D01*
X-106000Y130965D01*
X-104956Y131103D01*
X-103983Y131506D01*
X-103147Y132147D01*
X-102506Y132983D01*
X-102103Y133956D01*
X-101965Y135000D01*
X-102103Y136044D01*
X-102506Y137017D01*
X-103147Y137853D01*
X-103983Y138494D01*
X-104471Y138696D01*
Y141304D01*
X-103983Y141506D01*
X-103147Y142147D01*
X-102506Y142983D01*
X-102103Y143956D01*
X-101965Y145000D01*
X-102103Y146044D01*
X-102506Y147017D01*
X-103147Y147853D01*
X-103983Y148494D01*
X-104956Y148897D01*
X-106000Y149035D01*
D02*
G37*
G36*
X-86000D02*
X-87044Y148897D01*
X-88017Y148494D01*
X-88853Y147853D01*
X-89494Y147017D01*
X-89897Y146044D01*
X-90035Y145000D01*
X-89897Y143956D01*
X-89494Y142983D01*
X-88853Y142147D01*
X-88017Y141506D01*
X-87529Y141304D01*
Y138696D01*
X-88017Y138494D01*
X-88853Y137853D01*
X-89494Y137017D01*
X-89897Y136044D01*
X-90035Y135000D01*
X-89897Y133956D01*
X-89494Y132983D01*
X-88853Y132147D01*
X-88017Y131506D01*
X-87044Y131103D01*
X-86000Y130965D01*
X-84956Y131103D01*
X-83983Y131506D01*
X-83147Y132147D01*
X-82506Y132983D01*
X-82103Y133956D01*
X-81966Y135000D01*
X-82103Y136044D01*
X-82506Y137017D01*
X-83147Y137853D01*
X-83983Y138494D01*
X-84471Y138696D01*
Y141304D01*
X-83983Y141506D01*
X-83147Y142147D01*
X-82506Y142983D01*
X-82103Y143956D01*
X-81966Y145000D01*
X-82103Y146044D01*
X-82506Y147017D01*
X-83147Y147853D01*
X-83983Y148494D01*
X-84956Y148897D01*
X-86000Y149035D01*
D02*
G37*
G36*
X-119500Y128969D02*
Y125500D01*
X-116031D01*
X-116103Y126044D01*
X-116506Y127017D01*
X-117147Y127853D01*
X-117983Y128494D01*
X-118956Y128897D01*
X-119500Y128969D01*
D02*
G37*
G36*
X-120500Y124500D02*
X-123969D01*
X-123897Y123956D01*
X-123494Y122983D01*
X-122853Y122147D01*
X-122017Y121506D01*
X-121044Y121103D01*
X-120500Y121031D01*
Y124500D01*
D02*
G37*
G36*
X-116031D02*
X-119500D01*
Y121031D01*
X-118956Y121103D01*
X-117983Y121506D01*
X-117147Y122147D01*
X-116506Y122983D01*
X-116103Y123956D01*
X-116031Y124500D01*
D02*
G37*
G36*
X-130500D02*
X-133969D01*
X-133897Y123956D01*
X-133494Y122983D01*
X-132853Y122147D01*
X-132017Y121506D01*
X-131044Y121103D01*
X-130500Y121031D01*
Y124500D01*
D02*
G37*
G36*
X-126031D02*
X-129500D01*
Y121031D01*
X-128956Y121103D01*
X-127983Y121506D01*
X-127147Y122147D01*
X-126506Y122983D01*
X-126103Y123956D01*
X-126031Y124500D01*
D02*
G37*
G36*
X-110500D02*
X-113969D01*
X-113897Y123956D01*
X-113494Y122983D01*
X-112853Y122147D01*
X-112017Y121506D01*
X-111044Y121103D01*
X-110500Y121031D01*
Y124500D01*
D02*
G37*
G36*
X-129500Y128969D02*
Y125500D01*
X-126031D01*
X-126103Y126044D01*
X-126506Y127017D01*
X-127147Y127853D01*
X-127983Y128494D01*
X-128956Y128897D01*
X-129500Y128969D01*
D02*
G37*
G36*
X-120500D02*
X-121044Y128897D01*
X-122017Y128494D01*
X-122853Y127853D01*
X-123494Y127017D01*
X-123897Y126044D01*
X-123969Y125500D01*
X-120500D01*
Y128969D01*
D02*
G37*
G36*
X-106031Y124500D02*
X-109500D01*
Y121031D01*
X-108956Y121103D01*
X-107983Y121506D01*
X-107147Y122147D01*
X-106506Y122983D01*
X-106103Y123956D01*
X-106031Y124500D01*
D02*
G37*
G36*
X-130500Y128969D02*
X-131044Y128897D01*
X-132017Y128494D01*
X-132853Y127853D01*
X-133494Y127017D01*
X-133897Y126044D01*
X-133969Y125500D01*
X-130500D01*
Y128969D01*
D02*
G37*
G36*
X-92031Y134500D02*
X-95500D01*
Y131031D01*
X-94956Y131103D01*
X-93983Y131506D01*
X-93147Y132147D01*
X-92506Y132983D01*
X-92103Y133956D01*
X-92031Y134500D01*
D02*
G37*
G36*
X-96500Y138969D02*
X-97044Y138897D01*
X-98017Y138494D01*
X-98853Y137853D01*
X-99494Y137017D01*
X-99897Y136044D01*
X-99969Y135500D01*
X-96500D01*
Y138969D01*
D02*
G37*
G36*
X53000Y149020D02*
X47000D01*
X46610Y148942D01*
X46279Y148721D01*
X46058Y148390D01*
X45980Y148000D01*
Y142000D01*
X46058Y141610D01*
X46279Y141279D01*
X46610Y141058D01*
X47000Y140980D01*
X48471D01*
Y138696D01*
X47983Y138494D01*
X47147Y137853D01*
X46506Y137017D01*
X46103Y136044D01*
X45965Y135000D01*
X46103Y133956D01*
X46506Y132983D01*
X47147Y132147D01*
X47983Y131506D01*
X48956Y131103D01*
X50000Y130965D01*
X51044Y131103D01*
X52017Y131506D01*
X52853Y132147D01*
X53494Y132983D01*
X53897Y133956D01*
X54035Y135000D01*
X53897Y136044D01*
X53494Y137017D01*
X52853Y137853D01*
X52017Y138494D01*
X51529Y138696D01*
Y140980D01*
X53000D01*
X53390Y141058D01*
X53721Y141279D01*
X53942Y141610D01*
X54020Y142000D01*
Y148000D01*
X53942Y148390D01*
X53721Y148721D01*
X53390Y148942D01*
X53000Y149020D01*
D02*
G37*
G36*
X-96500Y134500D02*
X-99969D01*
X-99897Y133956D01*
X-99494Y132983D01*
X-98853Y132147D01*
X-98017Y131506D01*
X-97044Y131103D01*
X-96500Y131031D01*
Y134500D01*
D02*
G37*
G36*
X-95500Y138969D02*
Y135500D01*
X-92031D01*
X-92103Y136044D01*
X-92506Y137017D01*
X-93147Y137853D01*
X-93983Y138494D01*
X-94956Y138897D01*
X-95500Y138969D01*
D02*
G37*
G36*
X-96500Y148969D02*
X-97044Y148897D01*
X-98017Y148494D01*
X-98853Y147853D01*
X-99494Y147017D01*
X-99897Y146044D01*
X-99969Y145500D01*
X-96500D01*
Y148969D01*
D02*
G37*
G36*
X-95500D02*
Y145500D01*
X-92031D01*
X-92103Y146044D01*
X-92506Y147017D01*
X-93147Y147853D01*
X-93983Y148494D01*
X-94956Y148897D01*
X-95500Y148969D01*
D02*
G37*
G36*
X-96500Y144500D02*
X-99969D01*
X-99897Y143956D01*
X-99494Y142983D01*
X-98853Y142147D01*
X-98017Y141506D01*
X-97044Y141103D01*
X-96500Y141031D01*
Y144500D01*
D02*
G37*
G36*
X-92031D02*
X-95500D01*
Y141031D01*
X-94956Y141103D01*
X-93983Y141506D01*
X-93147Y142147D01*
X-92506Y142983D01*
X-92103Y143956D01*
X-92031Y144500D01*
D02*
G37*
G36*
X40000Y149035D02*
X38956Y148897D01*
X37983Y148494D01*
X37147Y147853D01*
X36506Y147017D01*
X36103Y146044D01*
X35965Y145000D01*
X36103Y143956D01*
X36506Y142983D01*
X37147Y142147D01*
X37983Y141506D01*
X38471Y141304D01*
Y138696D01*
X37983Y138494D01*
X37147Y137853D01*
X36506Y137017D01*
X36103Y136044D01*
X35965Y135000D01*
X36103Y133956D01*
X36506Y132983D01*
X37147Y132147D01*
X37983Y131506D01*
X38956Y131103D01*
X40000Y130965D01*
X41044Y131103D01*
X42017Y131506D01*
X42853Y132147D01*
X43494Y132983D01*
X43897Y133956D01*
X44034Y135000D01*
X43897Y136044D01*
X43494Y137017D01*
X42853Y137853D01*
X42017Y138494D01*
X41529Y138696D01*
Y141304D01*
X42017Y141506D01*
X42853Y142147D01*
X43494Y142983D01*
X43897Y143956D01*
X44034Y145000D01*
X43897Y146044D01*
X43494Y147017D01*
X42853Y147853D01*
X42017Y148494D01*
X41044Y148897D01*
X40000Y149035D01*
D02*
G37*
G36*
X-33000Y149020D02*
X-39000D01*
X-39390Y148942D01*
X-39721Y148721D01*
X-39942Y148390D01*
X-40020Y148000D01*
Y142000D01*
X-39942Y141610D01*
X-39721Y141279D01*
X-39390Y141058D01*
X-39000Y140980D01*
X-37529D01*
Y138696D01*
X-38017Y138494D01*
X-38853Y137853D01*
X-39494Y137017D01*
X-39897Y136044D01*
X-40034Y135000D01*
X-39897Y133956D01*
X-39494Y132983D01*
X-38853Y132147D01*
X-38017Y131506D01*
X-37044Y131103D01*
X-36000Y130965D01*
X-34956Y131103D01*
X-33983Y131506D01*
X-33147Y132147D01*
X-32506Y132983D01*
X-32103Y133956D01*
X-31966Y135000D01*
X-32103Y136044D01*
X-32506Y137017D01*
X-33147Y137853D01*
X-33983Y138494D01*
X-34471Y138696D01*
Y140980D01*
X-33000D01*
X-32610Y141058D01*
X-32279Y141279D01*
X-32058Y141610D01*
X-31980Y142000D01*
Y148000D01*
X-32058Y148390D01*
X-32279Y148721D01*
X-32610Y148942D01*
X-33000Y149020D01*
D02*
G37*
G36*
X-20000Y149035D02*
X-21044Y148897D01*
X-22017Y148494D01*
X-22853Y147853D01*
X-23494Y147017D01*
X-23897Y146044D01*
X-24035Y145000D01*
X-23897Y143956D01*
X-23494Y142983D01*
X-22853Y142147D01*
X-22017Y141506D01*
X-21529Y141304D01*
Y138696D01*
X-22017Y138494D01*
X-22853Y137853D01*
X-23494Y137017D01*
X-23897Y136044D01*
X-24035Y135000D01*
X-23897Y133956D01*
X-23494Y132983D01*
X-22853Y132147D01*
X-22017Y131506D01*
X-21044Y131103D01*
X-20000Y130965D01*
X-18956Y131103D01*
X-17983Y131506D01*
X-17147Y132147D01*
X-16506Y132983D01*
X-16103Y133956D01*
X-15966Y135000D01*
X-16103Y136044D01*
X-16506Y137017D01*
X-17147Y137853D01*
X-17983Y138494D01*
X-18471Y138696D01*
Y141304D01*
X-17983Y141506D01*
X-17147Y142147D01*
X-16506Y142983D01*
X-16103Y143956D01*
X-15966Y145000D01*
X-16103Y146044D01*
X-16506Y147017D01*
X-17147Y147853D01*
X-17983Y148494D01*
X-18956Y148897D01*
X-20000Y149035D01*
D02*
G37*
G36*
X-56000D02*
X-57044Y148897D01*
X-58017Y148494D01*
X-58853Y147853D01*
X-59494Y147017D01*
X-59897Y146044D01*
X-60035Y145000D01*
X-59897Y143956D01*
X-59494Y142983D01*
X-58853Y142147D01*
X-58017Y141506D01*
X-57529Y141304D01*
Y138696D01*
X-58017Y138494D01*
X-58853Y137853D01*
X-59494Y137017D01*
X-59897Y136044D01*
X-60035Y135000D01*
X-59897Y133956D01*
X-59494Y132983D01*
X-58853Y132147D01*
X-58017Y131506D01*
X-57044Y131103D01*
X-56000Y130965D01*
X-54956Y131103D01*
X-53983Y131506D01*
X-53147Y132147D01*
X-52506Y132983D01*
X-52103Y133956D01*
X-51965Y135000D01*
X-52103Y136044D01*
X-52506Y137017D01*
X-53147Y137853D01*
X-53983Y138494D01*
X-54471Y138696D01*
Y141304D01*
X-53983Y141506D01*
X-53147Y142147D01*
X-52506Y142983D01*
X-52103Y143956D01*
X-51965Y145000D01*
X-52103Y146044D01*
X-52506Y147017D01*
X-53147Y147853D01*
X-53983Y148494D01*
X-54956Y148897D01*
X-56000Y149035D01*
D02*
G37*
G36*
X-46000D02*
X-47044Y148897D01*
X-48017Y148494D01*
X-48853Y147853D01*
X-49494Y147017D01*
X-49897Y146044D01*
X-50034Y145000D01*
X-49897Y143956D01*
X-49494Y142983D01*
X-48853Y142147D01*
X-48017Y141506D01*
X-47529Y141304D01*
Y138696D01*
X-48017Y138494D01*
X-48853Y137853D01*
X-49494Y137017D01*
X-49897Y136044D01*
X-50034Y135000D01*
X-49897Y133956D01*
X-49494Y132983D01*
X-48853Y132147D01*
X-48017Y131506D01*
X-47044Y131103D01*
X-46000Y130965D01*
X-44956Y131103D01*
X-43983Y131506D01*
X-43147Y132147D01*
X-42506Y132983D01*
X-42103Y133956D01*
X-41965Y135000D01*
X-42103Y136044D01*
X-42506Y137017D01*
X-43147Y137853D01*
X-43983Y138494D01*
X-44471Y138696D01*
Y141304D01*
X-43983Y141506D01*
X-43147Y142147D01*
X-42506Y142983D01*
X-42103Y143956D01*
X-41965Y145000D01*
X-42103Y146044D01*
X-42506Y147017D01*
X-43147Y147853D01*
X-43983Y148494D01*
X-44956Y148897D01*
X-46000Y149035D01*
D02*
G37*
G36*
X-10000D02*
X-11044Y148897D01*
X-12017Y148494D01*
X-12853Y147853D01*
X-13494Y147017D01*
X-13897Y146044D01*
X-14035Y145000D01*
X-13897Y143956D01*
X-13494Y142983D01*
X-12853Y142147D01*
X-12017Y141506D01*
X-11529Y141304D01*
Y138696D01*
X-12017Y138494D01*
X-12853Y137853D01*
X-13494Y137017D01*
X-13897Y136044D01*
X-14035Y135000D01*
X-13897Y133956D01*
X-13494Y132983D01*
X-12853Y132147D01*
X-12017Y131506D01*
X-11044Y131103D01*
X-10000Y130965D01*
X-8956Y131103D01*
X-7983Y131506D01*
X-7147Y132147D01*
X-6506Y132983D01*
X-6103Y133956D01*
X-5965Y135000D01*
X-6103Y136044D01*
X-6506Y137017D01*
X-7147Y137853D01*
X-7983Y138494D01*
X-8471Y138696D01*
Y141304D01*
X-7983Y141506D01*
X-7147Y142147D01*
X-6506Y142983D01*
X-6103Y143956D01*
X-5965Y145000D01*
X-6103Y146044D01*
X-6506Y147017D01*
X-7147Y147853D01*
X-7983Y148494D01*
X-8956Y148897D01*
X-10000Y149035D01*
D02*
G37*
G36*
X20000D02*
X18956Y148897D01*
X17983Y148494D01*
X17147Y147853D01*
X16506Y147017D01*
X16103Y146044D01*
X15966Y145000D01*
X16103Y143956D01*
X16506Y142983D01*
X17147Y142147D01*
X17983Y141506D01*
X18471Y141304D01*
Y138696D01*
X17983Y138494D01*
X17147Y137853D01*
X16506Y137017D01*
X16103Y136044D01*
X15966Y135000D01*
X16103Y133956D01*
X16506Y132983D01*
X17147Y132147D01*
X17983Y131506D01*
X18956Y131103D01*
X20000Y130965D01*
X21044Y131103D01*
X22017Y131506D01*
X22853Y132147D01*
X23494Y132983D01*
X23897Y133956D01*
X24035Y135000D01*
X23897Y136044D01*
X23494Y137017D01*
X22853Y137853D01*
X22017Y138494D01*
X21529Y138696D01*
Y141304D01*
X22017Y141506D01*
X22853Y142147D01*
X23494Y142983D01*
X23897Y143956D01*
X24035Y145000D01*
X23897Y146044D01*
X23494Y147017D01*
X22853Y147853D01*
X22017Y148494D01*
X21044Y148897D01*
X20000Y149035D01*
D02*
G37*
G36*
X30000D02*
X28956Y148897D01*
X27983Y148494D01*
X27147Y147853D01*
X26506Y147017D01*
X26103Y146044D01*
X25965Y145000D01*
X26103Y143956D01*
X26506Y142983D01*
X27147Y142147D01*
X27983Y141506D01*
X28471Y141304D01*
Y138696D01*
X27983Y138494D01*
X27147Y137853D01*
X26506Y137017D01*
X26103Y136044D01*
X25965Y135000D01*
X26103Y133956D01*
X26506Y132983D01*
X27147Y132147D01*
X27983Y131506D01*
X28956Y131103D01*
X30000Y130965D01*
X31044Y131103D01*
X32017Y131506D01*
X32853Y132147D01*
X33494Y132983D01*
X33897Y133956D01*
X34034Y135000D01*
X33897Y136044D01*
X33494Y137017D01*
X32853Y137853D01*
X32017Y138494D01*
X31529Y138696D01*
Y141304D01*
X32017Y141506D01*
X32853Y142147D01*
X33494Y142983D01*
X33897Y143956D01*
X34034Y145000D01*
X33897Y146044D01*
X33494Y147017D01*
X32853Y147853D01*
X32017Y148494D01*
X31044Y148897D01*
X30000Y149035D01*
D02*
G37*
G36*
X0D02*
X-1044Y148897D01*
X-2017Y148494D01*
X-2853Y147853D01*
X-3494Y147017D01*
X-3897Y146044D01*
X-4034Y145000D01*
X-3897Y143956D01*
X-3494Y142983D01*
X-2853Y142147D01*
X-2017Y141506D01*
X-1529Y141304D01*
Y138696D01*
X-2017Y138494D01*
X-2853Y137853D01*
X-3494Y137017D01*
X-3897Y136044D01*
X-4034Y135000D01*
X-3897Y133956D01*
X-3494Y132983D01*
X-2853Y132147D01*
X-2017Y131506D01*
X-1044Y131103D01*
X0Y130965D01*
X1044Y131103D01*
X2017Y131506D01*
X2853Y132147D01*
X3494Y132983D01*
X3897Y133956D01*
X4034Y135000D01*
X3897Y136044D01*
X3494Y137017D01*
X2853Y137853D01*
X2017Y138494D01*
X1529Y138696D01*
Y141304D01*
X2017Y141506D01*
X2853Y142147D01*
X3494Y142983D01*
X3897Y143956D01*
X4034Y145000D01*
X3897Y146044D01*
X3494Y147017D01*
X2853Y147853D01*
X2017Y148494D01*
X1044Y148897D01*
X0Y149035D01*
D02*
G37*
G36*
X10000D02*
X8956Y148897D01*
X7983Y148494D01*
X7147Y147853D01*
X6506Y147017D01*
X6103Y146044D01*
X5965Y145000D01*
X6103Y143956D01*
X6506Y142983D01*
X7147Y142147D01*
X7983Y141506D01*
X8471Y141304D01*
Y138696D01*
X7983Y138494D01*
X7147Y137853D01*
X6506Y137017D01*
X6103Y136044D01*
X5965Y135000D01*
X6103Y133956D01*
X6506Y132983D01*
X7147Y132147D01*
X7983Y131506D01*
X8956Y131103D01*
X10000Y130965D01*
X11044Y131103D01*
X12017Y131506D01*
X12853Y132147D01*
X13494Y132983D01*
X13897Y133956D01*
X14035Y135000D01*
X13897Y136044D01*
X13494Y137017D01*
X12853Y137853D01*
X12017Y138494D01*
X11529Y138696D01*
Y141304D01*
X12017Y141506D01*
X12853Y142147D01*
X13494Y142983D01*
X13897Y143956D01*
X14035Y145000D01*
X13897Y146044D01*
X13494Y147017D01*
X12853Y147853D01*
X12017Y148494D01*
X11044Y148897D01*
X10000Y149035D01*
D02*
G37*
G36*
X-130500Y98969D02*
X-131044Y98897D01*
X-132017Y98494D01*
X-132853Y97853D01*
X-133494Y97017D01*
X-133897Y96044D01*
X-133969Y95500D01*
X-130500D01*
Y98969D01*
D02*
G37*
G36*
X-150594Y59457D02*
X-151448Y59373D01*
X-152750Y58978D01*
X-153949Y58336D01*
X-155001Y57473D01*
X-155864Y56422D01*
X-156505Y55222D01*
X-156900Y53921D01*
X-156984Y53067D01*
X-150594D01*
Y59457D01*
D02*
G37*
G36*
X-188965D02*
Y53067D01*
X-182575D01*
X-182659Y53921D01*
X-183054Y55222D01*
X-183695Y56422D01*
X-184558Y57473D01*
X-185609Y58336D01*
X-186809Y58978D01*
X-188111Y59373D01*
X-188965Y59457D01*
D02*
G37*
G36*
X60551Y59342D02*
X59377Y59187D01*
X58282Y58734D01*
X57342Y58013D01*
X56621Y57073D01*
X56167Y55978D01*
X56012Y54803D01*
X56167Y53628D01*
X56621Y52534D01*
X57342Y51594D01*
X58282Y50872D01*
X59377Y50419D01*
X60551Y50264D01*
X61726Y50419D01*
X62821Y50872D01*
X63761Y51594D01*
X64482Y52534D01*
X64935Y53628D01*
X65090Y54803D01*
X64935Y55978D01*
X64482Y57073D01*
X63761Y58013D01*
X62821Y58734D01*
X61726Y59187D01*
X60551Y59342D01*
D02*
G37*
G36*
X-189965Y59457D02*
X-190818Y59373D01*
X-192120Y58978D01*
X-193320Y58336D01*
X-194371Y57473D01*
X-195234Y56422D01*
X-195875Y55222D01*
X-196270Y53921D01*
X-196354Y53067D01*
X-189965D01*
Y59457D01*
D02*
G37*
G36*
X-149594D02*
Y53067D01*
X-143205D01*
X-143289Y53921D01*
X-143684Y55222D01*
X-144325Y56422D01*
X-145188Y57473D01*
X-146239Y58336D01*
X-147439Y58978D01*
X-148741Y59373D01*
X-149594Y59457D01*
D02*
G37*
G36*
X-130500Y84500D02*
X-133969D01*
X-133897Y83956D01*
X-133494Y82983D01*
X-132853Y82147D01*
X-132017Y81506D01*
X-131044Y81103D01*
X-130500Y81031D01*
Y84500D01*
D02*
G37*
G36*
X-76031D02*
X-79500D01*
Y81031D01*
X-78956Y81103D01*
X-77983Y81506D01*
X-77147Y82147D01*
X-76506Y82983D01*
X-76103Y83956D01*
X-76031Y84500D01*
D02*
G37*
G36*
X50551Y69342D02*
X49376Y69187D01*
X48282Y68734D01*
X47342Y68013D01*
X46621Y67073D01*
X46167Y65978D01*
X46012Y64803D01*
X46167Y63629D01*
X46621Y62534D01*
X47342Y61594D01*
X48282Y60873D01*
X49376Y60419D01*
X50551Y60264D01*
X51726Y60419D01*
X52821Y60873D01*
X53761Y61594D01*
X54482Y62534D01*
X54935Y63629D01*
X55090Y64803D01*
X54935Y65978D01*
X54482Y67073D01*
X53761Y68013D01*
X52821Y68734D01*
X51726Y69187D01*
X50551Y69342D01*
D02*
G37*
G36*
X60551D02*
X59377Y69187D01*
X58282Y68734D01*
X57342Y68013D01*
X56621Y67073D01*
X56167Y65978D01*
X56012Y64803D01*
X56167Y63629D01*
X56621Y62534D01*
X57342Y61594D01*
X58282Y60873D01*
X59377Y60419D01*
X60551Y60264D01*
X61726Y60419D01*
X62821Y60873D01*
X63761Y61594D01*
X64482Y62534D01*
X64935Y63629D01*
X65090Y64803D01*
X64935Y65978D01*
X64482Y67073D01*
X63761Y68013D01*
X62821Y68734D01*
X61726Y69187D01*
X60551Y69342D01*
D02*
G37*
G36*
X50551Y59342D02*
X49376Y59187D01*
X48282Y58734D01*
X47342Y58013D01*
X46621Y57073D01*
X46167Y55978D01*
X46012Y54803D01*
X46167Y53628D01*
X46621Y52534D01*
X47342Y51594D01*
X48282Y50872D01*
X49376Y50419D01*
X50551Y50264D01*
X51726Y50419D01*
X52821Y50872D01*
X53761Y51594D01*
X54482Y52534D01*
X54935Y53628D01*
X55090Y54803D01*
X54935Y55978D01*
X54482Y57073D01*
X53761Y58013D01*
X52821Y58734D01*
X51726Y59187D01*
X50551Y59342D01*
D02*
G37*
G36*
X-96031Y44500D02*
X-99500D01*
Y41031D01*
X-98956Y41103D01*
X-97983Y41506D01*
X-97147Y42147D01*
X-96506Y42983D01*
X-96103Y43956D01*
X-96031Y44500D01*
D02*
G37*
G36*
X-100500Y48969D02*
X-101044Y48897D01*
X-102017Y48494D01*
X-102853Y47853D01*
X-103494Y47017D01*
X-103897Y46044D01*
X-103969Y45500D01*
X-100500D01*
Y48969D01*
D02*
G37*
G36*
X-80000Y49035D02*
X-81044Y48897D01*
X-82017Y48494D01*
X-82853Y47853D01*
X-83494Y47017D01*
X-83897Y46044D01*
X-84035Y45000D01*
X-83897Y43956D01*
X-83494Y42983D01*
X-82853Y42147D01*
X-82017Y41506D01*
X-81044Y41103D01*
X-80000Y40966D01*
X-78956Y41103D01*
X-77983Y41506D01*
X-77147Y42147D01*
X-76506Y42983D01*
X-76103Y43956D01*
X-75965Y45000D01*
X-76103Y46044D01*
X-76506Y47017D01*
X-77147Y47853D01*
X-77983Y48494D01*
X-78956Y48897D01*
X-80000Y49035D01*
D02*
G37*
G36*
X-100500Y44500D02*
X-103969D01*
X-103897Y43956D01*
X-103494Y42983D01*
X-102853Y42147D01*
X-102017Y41506D01*
X-101044Y41103D01*
X-100500Y41031D01*
Y44500D01*
D02*
G37*
G36*
X-99500Y48969D02*
Y45500D01*
X-96031D01*
X-96103Y46044D01*
X-96506Y47017D01*
X-97147Y47853D01*
X-97983Y48494D01*
X-98956Y48897D01*
X-99500Y48969D01*
D02*
G37*
G36*
X-182575Y52067D02*
X-188965D01*
Y45677D01*
X-188111Y45761D01*
X-186809Y46156D01*
X-185609Y46797D01*
X-184558Y47660D01*
X-183695Y48712D01*
X-183054Y49911D01*
X-182659Y51213D01*
X-182575Y52067D01*
D02*
G37*
G36*
X-143205D02*
X-149594D01*
Y45677D01*
X-148741Y45761D01*
X-147439Y46156D01*
X-146239Y46797D01*
X-145188Y47660D01*
X-144325Y48712D01*
X-143684Y49911D01*
X-143289Y51213D01*
X-143205Y52067D01*
D02*
G37*
G36*
X-189965D02*
X-196354D01*
X-196270Y51213D01*
X-195875Y49911D01*
X-195234Y48712D01*
X-194371Y47660D01*
X-193320Y46797D01*
X-192120Y46156D01*
X-190818Y45761D01*
X-189965Y45677D01*
Y52067D01*
D02*
G37*
G36*
X-150594D02*
X-156984D01*
X-156900Y51213D01*
X-156505Y49911D01*
X-155864Y48712D01*
X-155001Y47660D01*
X-153949Y46797D01*
X-152750Y46156D01*
X-151448Y45761D01*
X-150594Y45677D01*
Y52067D01*
D02*
G37*
G36*
X-60500Y88969D02*
X-61044Y88897D01*
X-62017Y88494D01*
X-62853Y87853D01*
X-63494Y87017D01*
X-63897Y86044D01*
X-63969Y85500D01*
X-60500D01*
Y88969D01*
D02*
G37*
G36*
X-59500D02*
Y85500D01*
X-56031D01*
X-56103Y86044D01*
X-56506Y87017D01*
X-57147Y87853D01*
X-57983Y88494D01*
X-58956Y88897D01*
X-59500Y88969D01*
D02*
G37*
G36*
X-70500D02*
X-71044Y88897D01*
X-72017Y88494D01*
X-72853Y87853D01*
X-73494Y87017D01*
X-73897Y86044D01*
X-73969Y85500D01*
X-70500D01*
Y88969D01*
D02*
G37*
G36*
X-69500D02*
Y85500D01*
X-66031D01*
X-66103Y86044D01*
X-66506Y87017D01*
X-67147Y87853D01*
X-67983Y88494D01*
X-68956Y88897D01*
X-69500Y88969D01*
D02*
G37*
G36*
X-50500D02*
X-51044Y88897D01*
X-52017Y88494D01*
X-52853Y87853D01*
X-53494Y87017D01*
X-53897Y86044D01*
X-53969Y85500D01*
X-50500D01*
Y88969D01*
D02*
G37*
G36*
X-29500D02*
Y85500D01*
X-26031D01*
X-26103Y86044D01*
X-26506Y87017D01*
X-27147Y87853D01*
X-27983Y88494D01*
X-28956Y88897D01*
X-29500Y88969D01*
D02*
G37*
G36*
X-130500Y94500D02*
X-133969D01*
X-133897Y93956D01*
X-133494Y92983D01*
X-132853Y92147D01*
X-132017Y91506D01*
X-131044Y91103D01*
X-130500Y91031D01*
Y94500D01*
D02*
G37*
G36*
X-49500Y88969D02*
Y85500D01*
X-46031D01*
X-46103Y86044D01*
X-46506Y87017D01*
X-47147Y87853D01*
X-47983Y88494D01*
X-48956Y88897D01*
X-49500Y88969D01*
D02*
G37*
G36*
X-30500D02*
X-31044Y88897D01*
X-32017Y88494D01*
X-32853Y87853D01*
X-33494Y87017D01*
X-33897Y86044D01*
X-33969Y85500D01*
X-30500D01*
Y88969D01*
D02*
G37*
G36*
X-79500D02*
Y85500D01*
X-76031D01*
X-76103Y86044D01*
X-76506Y87017D01*
X-77147Y87853D01*
X-77983Y88494D01*
X-78956Y88897D01*
X-79500Y88969D01*
D02*
G37*
G36*
X-60500Y84500D02*
X-63969D01*
X-63897Y83956D01*
X-63494Y82983D01*
X-62853Y82147D01*
X-62017Y81506D01*
X-61044Y81103D01*
X-60500Y81031D01*
Y84500D01*
D02*
G37*
G36*
X-56031D02*
X-59500D01*
Y81031D01*
X-58956Y81103D01*
X-57983Y81506D01*
X-57147Y82147D01*
X-56506Y82983D01*
X-56103Y83956D01*
X-56031Y84500D01*
D02*
G37*
G36*
X-70500D02*
X-73969D01*
X-73897Y83956D01*
X-73494Y82983D01*
X-72853Y82147D01*
X-72017Y81506D01*
X-71044Y81103D01*
X-70500Y81031D01*
Y84500D01*
D02*
G37*
G36*
X-66031D02*
X-69500D01*
Y81031D01*
X-68956Y81103D01*
X-67983Y81506D01*
X-67147Y82147D01*
X-66506Y82983D01*
X-66103Y83956D01*
X-66031Y84500D01*
D02*
G37*
G36*
X-50500D02*
X-53969D01*
X-53897Y83956D01*
X-53494Y82983D01*
X-52853Y82147D01*
X-52017Y81506D01*
X-51044Y81103D01*
X-50500Y81031D01*
Y84500D01*
D02*
G37*
G36*
X-26031D02*
X-29500D01*
Y81031D01*
X-28956Y81103D01*
X-27983Y81506D01*
X-27147Y82147D01*
X-26506Y82983D01*
X-26103Y83956D01*
X-26031Y84500D01*
D02*
G37*
G36*
X-130500Y88969D02*
X-131044Y88897D01*
X-132017Y88494D01*
X-132853Y87853D01*
X-133494Y87017D01*
X-133897Y86044D01*
X-133969Y85500D01*
X-130500D01*
Y88969D01*
D02*
G37*
G36*
X-46031Y84500D02*
X-49500D01*
Y81031D01*
X-48956Y81103D01*
X-47983Y81506D01*
X-47147Y82147D01*
X-46506Y82983D01*
X-46103Y83956D01*
X-46031Y84500D01*
D02*
G37*
G36*
X-30500D02*
X-33969D01*
X-33897Y83956D01*
X-33494Y82983D01*
X-32853Y82147D01*
X-32017Y81506D01*
X-31044Y81103D01*
X-30500Y81031D01*
Y84500D01*
D02*
G37*
%LPD*%
D10*
X-100000Y75000D02*
X-80000D01*
X-20000Y70000D02*
Y90000D01*
X-25000Y65000D02*
X-20000Y70000D01*
X-30000Y65000D02*
X-25000D01*
X-17500Y60000D02*
Y90328D01*
X-22500Y55000D02*
X-17500Y60000D01*
X-30000Y55000D02*
X-22500D01*
X-15000Y50328D02*
Y90657D01*
X-20329Y45000D02*
X-15000Y50328D01*
X-30000Y45000D02*
X-20329D01*
X-12500Y50000D02*
Y90985D01*
X-20000Y42500D02*
X-12500Y50000D01*
X-20000Y20000D02*
Y42500D01*
X-46515Y125000D02*
X-12500Y90985D01*
X-100000Y125000D02*
X-46515D01*
X-25000Y95000D02*
X-20000Y90000D01*
X-120000Y65000D02*
X-111000D01*
X-125000Y70000D02*
X-120000Y65000D01*
X-125000Y70000D02*
Y100000D01*
X-32172Y105000D02*
X-17500Y90328D01*
X-60000Y47500D02*
X-52500Y55000D01*
X-60000Y26818D02*
Y47500D01*
X-84318Y2500D02*
X-60000Y26818D01*
X-90000Y2500D02*
X-84318D01*
X10000Y-40000D02*
X15000Y-35000D01*
X10000Y-45000D02*
Y-40000D01*
X-110000Y95000D02*
X-100000D01*
X-120000D02*
X-110000D01*
X-100000D02*
X-90000D01*
X-110000Y105000D02*
X-100000D01*
X-120000D02*
X-110000D01*
X-100000D02*
X-90000D01*
X-112500Y-25000D02*
X-100000D01*
X-110000Y-15000D02*
Y2500D01*
Y-15000D02*
X-100000Y-25000D01*
X10000Y-25000D02*
X10000Y-25000D01*
X-60000Y105000D02*
X-50000D01*
X-80000D02*
X-70000D01*
X-60000D01*
X-50000D02*
X-32172D01*
X-40000Y55000D02*
X-30000D01*
X-40000Y55000D02*
X-40000Y55000D01*
X-50000Y55000D02*
X-40000D01*
X-36000Y135000D02*
Y145000D01*
X-46000Y135000D02*
Y145000D01*
X-56000Y135000D02*
Y145000D01*
X-66000Y135000D02*
Y145000D01*
X-76000Y135000D02*
Y145000D01*
X-86000Y135000D02*
Y145000D01*
X-106000Y135000D02*
Y145000D01*
X-116000Y135000D02*
Y145000D01*
X-126000Y135000D02*
Y145000D01*
X50000Y135000D02*
Y145000D01*
X40000Y135000D02*
Y145000D01*
X30000Y135000D02*
Y145000D01*
X20000Y135000D02*
Y145000D01*
X10000Y135000D02*
Y145000D01*
X0Y135000D02*
Y145000D01*
X-10000Y135000D02*
Y145000D01*
X-20000Y135000D02*
Y145000D01*
X-50000Y45000D02*
X-40000D01*
X-50000Y65000D02*
X-40000D01*
X-100000Y115000D02*
X-90000D01*
X-110000D02*
X-100000D01*
X-120000D02*
X-110000D01*
X-125000Y100000D02*
X-120000Y105000D01*
X-90000Y115000D02*
X-85000Y110000D01*
Y80000D02*
Y110000D01*
Y80000D02*
X-80000Y75000D01*
X-50000Y95000D02*
X-25000D01*
X-50000Y115000D02*
X-39343D01*
X-15000Y90657D01*
X-80000Y95000D02*
X-70000D01*
X-60000D01*
X-50000D01*
X-80000Y115000D02*
X-70000D01*
X-60000D01*
X-50000D01*
X-40000Y65000D02*
X-30000D01*
X-100000Y75000D02*
X-100000Y75000D01*
X-40000Y45000D02*
X-30000D01*
X-50000Y45000D02*
X-50000Y45000D01*
X-100000Y-25000D02*
X-100000Y-25000D01*
X-100000Y65000D02*
X-100000Y65000D01*
X-100000Y85000D02*
X-90000D01*
X-120000D02*
X-110000D01*
X-100000D01*
X-40000Y20000D02*
X-30000D01*
X-20000D01*
X-10000D01*
X0D01*
X-72126Y-25000D02*
X-50000D01*
X-30000D01*
X-100000Y-25000D02*
X-80374Y-25000D01*
X-80000D01*
X10000Y-25000D02*
X21500D01*
X21500Y-25000D01*
X15000Y-35000D02*
X32500D01*
X41500Y-26000D01*
Y-17500D01*
X15000Y-10000D02*
X21500D01*
X5000Y0D02*
X15000Y-10000D01*
X-40000Y0D02*
X-30000D01*
X-20000D01*
X-10000D01*
X0D01*
X5000D01*
X-52500Y55000D02*
X-50000D01*
X-137000Y38000D02*
X-130000Y45000D01*
X-156000Y38000D02*
X-137000D01*
D11*
X-50000Y125000D02*
D03*
X-60000D02*
D03*
X-70000D02*
D03*
X-80000D02*
D03*
X-90000D02*
D03*
X-100000D02*
D03*
X-50000Y35000D02*
D03*
Y-5000D02*
D03*
X50000Y135000D02*
D03*
X40000D02*
D03*
X30000D02*
D03*
X20000D02*
D03*
X10000D02*
D03*
X0D02*
D03*
X-10000D02*
D03*
X-20000D02*
D03*
X-36000D02*
D03*
X-46000D02*
D03*
X-56000D02*
D03*
X-66000D02*
D03*
X-76000D02*
D03*
X-86000D02*
D03*
X-96000D02*
D03*
X-106000D02*
D03*
X-116000D02*
D03*
X-126000D02*
D03*
X-120000Y95000D02*
D03*
X-110000D02*
D03*
X-100000D02*
D03*
X-90000D02*
D03*
X-120000Y105000D02*
D03*
X-110000D02*
D03*
X-100000D02*
D03*
X-90000D02*
D03*
X-100000Y65000D02*
D03*
X-90000Y65000D02*
D03*
X-100000Y-25000D02*
D03*
X-50000Y25000D02*
D03*
X-30000Y85000D02*
D03*
X-100000Y45000D02*
D03*
X-50000Y75000D02*
D03*
X-80000D02*
D03*
X-50000Y65000D02*
D03*
Y55000D02*
D03*
Y45000D02*
D03*
X-80000D02*
D03*
Y55000D02*
D03*
Y65000D02*
D03*
X-126000Y145000D02*
D03*
X-116000D02*
D03*
X-106000D02*
D03*
X-96000D02*
D03*
X-86000D02*
D03*
X-76000D02*
D03*
X-66000D02*
D03*
X-56000D02*
D03*
X-46000D02*
D03*
X30000D02*
D03*
X40000D02*
D03*
X-20000D02*
D03*
X-10000D02*
D03*
X0D02*
D03*
X10000D02*
D03*
X20000D02*
D03*
X50000Y-45000D02*
D03*
X40000D02*
D03*
X30000D02*
D03*
X20000D02*
D03*
X10000D02*
D03*
X-40000D02*
D03*
X-30000D02*
D03*
X-90000D02*
D03*
X-80000D02*
D03*
X-70000D02*
D03*
X-60000D02*
D03*
X-50000D02*
D03*
X-40000Y10000D02*
D03*
X-30000D02*
D03*
X-20000D02*
D03*
X-10000D02*
D03*
X0D02*
D03*
X-90000Y2500D02*
D03*
X-110000D02*
D03*
X-50000Y105000D02*
D03*
X-60000D02*
D03*
X-70000D02*
D03*
X-80000D02*
D03*
X-120000Y125000D02*
D03*
X-110000D02*
D03*
X-130000D02*
D03*
Y85000D02*
D03*
Y95000D02*
D03*
X-50000Y85000D02*
D03*
X-60000D02*
D03*
X-70000D02*
D03*
X-80000D02*
D03*
X-90000Y115000D02*
D03*
X-100000D02*
D03*
X-110000D02*
D03*
X-120000D02*
D03*
X-80000Y95000D02*
D03*
X-70000D02*
D03*
X-60000D02*
D03*
X-50000D02*
D03*
X-80000Y115000D02*
D03*
X-70000D02*
D03*
X-60000D02*
D03*
X-50000D02*
D03*
X-30000Y65000D02*
D03*
X-40000D02*
D03*
X-100000Y75000D02*
D03*
X-90000D02*
D03*
X-30000Y55000D02*
D03*
X-40000D02*
D03*
X-30000Y45000D02*
D03*
X-40000D02*
D03*
X-100000Y55000D02*
D03*
X-90000D02*
D03*
X-30000Y75000D02*
D03*
X-40000D02*
D03*
X-90000Y85000D02*
D03*
X-100000D02*
D03*
X-110000D02*
D03*
X-120000D02*
D03*
X-40000Y20000D02*
D03*
X-30000D02*
D03*
X-20000D02*
D03*
X-10000D02*
D03*
X0D02*
D03*
X-50000Y15000D02*
D03*
Y5000D02*
D03*
X-145000Y-10000D02*
D03*
Y5000D02*
D03*
X-50000Y-25000D02*
D03*
Y-15000D02*
D03*
X-72500Y-25000D02*
D03*
X41500Y-17500D02*
D03*
X21500Y-10000D02*
D03*
Y-25000D02*
D03*
X-110000Y25000D02*
D03*
Y65000D02*
D03*
X-130000Y45000D02*
D03*
X-40000Y0D02*
D03*
X-30000D02*
D03*
X-20000D02*
D03*
X-10000D02*
D03*
X0D02*
D03*
D12*
X-132500Y-10000D02*
D03*
X-92500D02*
D03*
X-112500Y-25000D02*
D03*
X-152500D02*
D03*
X-30000Y-25000D02*
D03*
X10000D02*
D03*
D13*
X-156000Y38000D02*
D03*
X-150094Y52567D02*
D03*
X-189465D02*
D03*
D14*
X50551Y64803D02*
D03*
X60551D02*
D03*
X50551Y54803D02*
D03*
X60551D02*
D03*
X50551Y44803D02*
D03*
X60551D02*
D03*
D15*
X-36000Y145000D02*
D03*
X50000D02*
D03*
X0Y-45000D02*
D03*
X-20000D02*
D03*
X-80374Y-25000D02*
D03*
D16*
X-140000Y145000D02*
D03*
X60000Y85000D02*
D03*
Y-25000D02*
D03*
X-145000Y-45000D02*
D03*
D17*
X-182500Y12500D02*
D03*
Y-7500D02*
D03*
Y-27500D02*
D03*
D18*
X-85000Y50000D02*
D03*
X-95000D02*
D03*
Y60000D02*
D03*
Y70000D02*
D03*
X-85000D02*
D03*
Y60000D02*
D03*
X-45000Y50000D02*
D03*
X-35000D02*
D03*
Y60000D02*
D03*
X-45000D02*
D03*
Y70000D02*
D03*
X-35000D02*
D03*
X-160000Y47500D02*
D03*
X-35000Y5000D02*
D03*
X-25000D02*
D03*
X-15000D02*
D03*
X-5000D02*
D03*
Y15000D02*
D03*
X-15000D02*
D03*
X-25000D02*
D03*
X-35000D02*
D03*
X-105000Y80000D02*
D03*
X-95000D02*
D03*
X-115000Y77500D02*
D03*
Y110000D02*
D03*
X-105000D02*
D03*
X-95000D02*
D03*
X-125000Y120000D02*
D03*
X-115000D02*
D03*
X-105000D02*
D03*
X-95000D02*
D03*
X-85000D02*
D03*
X-75000D02*
D03*
X-65000D02*
D03*
X-55000D02*
D03*
X-75000Y110000D02*
D03*
X-65000D02*
D03*
X-55000D02*
D03*
Y90000D02*
D03*
X-65000D02*
D03*
X-75000D02*
D03*
X62520Y132854D02*
D03*
Y112854D02*
D03*
Y72854D02*
D03*
Y32854D02*
D03*
Y12854D02*
D03*
Y-7146D02*
D03*
Y-47146D02*
D03*
X57520Y142854D02*
D03*
Y122854D02*
D03*
X52520Y112854D02*
D03*
X57520Y102854D02*
D03*
X52520Y92854D02*
D03*
Y72854D02*
D03*
Y32854D02*
D03*
X57520Y22854D02*
D03*
X52520Y12854D02*
D03*
X57520Y2854D02*
D03*
X52520Y-7146D02*
D03*
X57520Y-37146D02*
D03*
X47520Y122854D02*
D03*
X42520Y112854D02*
D03*
X47520Y102854D02*
D03*
X42520Y92854D02*
D03*
X47520Y82854D02*
D03*
X42520Y72854D02*
D03*
Y52854D02*
D03*
Y32854D02*
D03*
X47520Y22854D02*
D03*
X42520Y12854D02*
D03*
X47520Y2854D02*
D03*
X42520Y-7146D02*
D03*
X47520Y-17146D02*
D03*
Y-37146D02*
D03*
X37520Y122854D02*
D03*
X32520Y112854D02*
D03*
X37520Y102854D02*
D03*
X32520Y92854D02*
D03*
X37520Y82854D02*
D03*
X32520Y72854D02*
D03*
X37520Y62854D02*
D03*
X32520Y52854D02*
D03*
X37520Y42854D02*
D03*
X32520Y32854D02*
D03*
X37520Y22854D02*
D03*
X32520Y12854D02*
D03*
X37520Y2854D02*
D03*
X32520Y-7146D02*
D03*
Y-27146D02*
D03*
X37520Y-37146D02*
D03*
X27520Y122854D02*
D03*
X22520Y112854D02*
D03*
X27520Y102854D02*
D03*
X22520Y92854D02*
D03*
X27520Y82854D02*
D03*
X22520Y72854D02*
D03*
X27520Y62854D02*
D03*
X22520Y52854D02*
D03*
X27520Y42854D02*
D03*
X22520Y32854D02*
D03*
X27520Y22854D02*
D03*
X22520Y12854D02*
D03*
X27520Y2854D02*
D03*
Y-17146D02*
D03*
X17520Y122854D02*
D03*
X12520Y112854D02*
D03*
X17520Y102854D02*
D03*
X12520Y92854D02*
D03*
X17520Y82854D02*
D03*
X12520Y72854D02*
D03*
X17520Y62854D02*
D03*
X12520Y52854D02*
D03*
X17520Y42854D02*
D03*
X12520Y32854D02*
D03*
X17520Y22854D02*
D03*
X12520Y12854D02*
D03*
X17520Y2854D02*
D03*
Y-17146D02*
D03*
X7520Y122854D02*
D03*
X2520Y112854D02*
D03*
X7520Y102854D02*
D03*
X2520Y92854D02*
D03*
X7520Y82854D02*
D03*
X2520Y72854D02*
D03*
X7520Y62854D02*
D03*
X2520Y52854D02*
D03*
X7520Y42854D02*
D03*
X2520Y32854D02*
D03*
X7520Y22854D02*
D03*
Y2854D02*
D03*
X2520Y-7146D02*
D03*
X7520Y-17146D02*
D03*
X2520Y-27146D02*
D03*
X7520Y-37146D02*
D03*
X-2480Y122854D02*
D03*
X-7480Y112854D02*
D03*
X-2480Y102854D02*
D03*
X-7480Y92854D02*
D03*
X-2480Y82854D02*
D03*
X-7480Y72854D02*
D03*
X-2480Y62854D02*
D03*
X-7480Y52854D02*
D03*
X-2480Y42854D02*
D03*
X-7480Y32854D02*
D03*
Y-7146D02*
D03*
X-2480Y-17146D02*
D03*
X-7480Y-27146D02*
D03*
X-2480Y-37146D02*
D03*
X-7480Y-47146D02*
D03*
X-12480Y122854D02*
D03*
X-17480Y112854D02*
D03*
X-12480Y102854D02*
D03*
Y42854D02*
D03*
X-17480Y-7146D02*
D03*
X-12480Y-17146D02*
D03*
X-17480Y-27146D02*
D03*
X-12480Y-37146D02*
D03*
X-27480Y132854D02*
D03*
X-22480Y122854D02*
D03*
X-27480Y112854D02*
D03*
X-22480Y62854D02*
D03*
X-27480Y32854D02*
D03*
Y-7146D02*
D03*
X-22480Y-17146D02*
D03*
Y-37146D02*
D03*
X-32480Y122854D02*
D03*
X-37480Y32854D02*
D03*
Y-7146D02*
D03*
X-32480Y-17146D02*
D03*
Y-37146D02*
D03*
X-42480Y82854D02*
D03*
Y-17146D02*
D03*
Y-37146D02*
D03*
X-57480Y72854D02*
D03*
Y12854D02*
D03*
Y-7146D02*
D03*
X-52480Y-37146D02*
D03*
X-67480Y72854D02*
D03*
Y12854D02*
D03*
X-62480Y2854D02*
D03*
X-67480Y-7146D02*
D03*
X-62480Y-17146D02*
D03*
Y-37146D02*
D03*
X-72480Y62854D02*
D03*
Y42854D02*
D03*
X-77480Y32854D02*
D03*
X-72480Y2854D02*
D03*
X-77480Y-7146D02*
D03*
X-72480Y-17146D02*
D03*
Y-37146D02*
D03*
X-87480Y32854D02*
D03*
X-82480Y22854D02*
D03*
Y-17146D02*
D03*
Y-37146D02*
D03*
X-92480Y42854D02*
D03*
X-97480Y32854D02*
D03*
X-92480Y22854D02*
D03*
X-97480Y-7146D02*
D03*
X-92480Y-37146D02*
D03*
X-97480Y-47146D02*
D03*
X-107480Y72854D02*
D03*
Y52854D02*
D03*
Y32854D02*
D03*
X-102480Y22854D02*
D03*
Y2854D02*
D03*
Y-17146D02*
D03*
Y-37146D02*
D03*
X-107480Y-47146D02*
D03*
X-117480Y72854D02*
D03*
Y52854D02*
D03*
X-112480Y42854D02*
D03*
X-117480Y32854D02*
D03*
Y-7146D02*
D03*
X-112480Y-17146D02*
D03*
X-117480Y-27146D02*
D03*
X-112480Y-37146D02*
D03*
X-117480Y-47146D02*
D03*
X-127480Y112854D02*
D03*
X-122480Y62854D02*
D03*
X-127480Y52854D02*
D03*
X-122480Y42854D02*
D03*
X-127480Y32854D02*
D03*
X-122480Y22854D02*
D03*
Y2854D02*
D03*
X-127480Y-7146D02*
D03*
X-122480Y-17146D02*
D03*
X-127480Y-27146D02*
D03*
X-122480Y-37146D02*
D03*
X-127480Y-47146D02*
D03*
X-137480Y132854D02*
D03*
Y112854D02*
D03*
X-132480Y102854D02*
D03*
X-137480Y92854D02*
D03*
Y72854D02*
D03*
X-132480Y62854D02*
D03*
X-137480Y52854D02*
D03*
Y32854D02*
D03*
X-132480Y22854D02*
D03*
Y2854D02*
D03*
Y-17146D02*
D03*
X-137480Y-27146D02*
D03*
X-132480Y-37146D02*
D03*
X-147480Y132854D02*
D03*
X-142480Y122854D02*
D03*
X-147480Y112854D02*
D03*
X-142480Y102854D02*
D03*
X-147480Y92854D02*
D03*
X-142480Y82854D02*
D03*
X-147480Y72854D02*
D03*
X-142480Y62854D02*
D03*
Y42854D02*
D03*
X-147480Y32854D02*
D03*
X-142480Y22854D02*
D03*
Y-17146D02*
D03*
X-147480Y-27146D02*
D03*
X-152480Y142854D02*
D03*
X-157480Y132854D02*
D03*
X-152480Y122854D02*
D03*
X-157480Y112854D02*
D03*
X-152480Y102854D02*
D03*
X-157480Y92854D02*
D03*
X-152480Y82854D02*
D03*
X-157480Y72854D02*
D03*
X-152480Y62854D02*
D03*
Y22854D02*
D03*
Y-17146D02*
D03*
X-157480Y-27146D02*
D03*
X-152480Y-37146D02*
D03*
X-157480Y-47146D02*
D03*
X-162480Y142854D02*
D03*
X-167480Y132854D02*
D03*
X-162480Y122854D02*
D03*
X-167480Y112854D02*
D03*
X-162480Y102854D02*
D03*
X-167480Y92854D02*
D03*
X-162480Y82854D02*
D03*
X-167480Y72854D02*
D03*
X-162480Y62854D02*
D03*
X-167480Y52854D02*
D03*
Y32854D02*
D03*
X-162480Y22854D02*
D03*
Y2854D02*
D03*
Y-17146D02*
D03*
X-167480Y-27146D02*
D03*
X-162480Y-37146D02*
D03*
X-167480Y-47146D02*
D03*
X-172480Y142854D02*
D03*
X-177480Y132854D02*
D03*
X-172480Y122854D02*
D03*
X-177480Y112854D02*
D03*
X-172480Y102854D02*
D03*
X-177480Y92854D02*
D03*
X-172480Y82854D02*
D03*
X-177480Y72854D02*
D03*
X-172480Y62854D02*
D03*
X-177480Y52854D02*
D03*
X-172480Y42854D02*
D03*
X-177480Y32854D02*
D03*
X-172480Y22854D02*
D03*
Y2854D02*
D03*
Y-17146D02*
D03*
Y-37146D02*
D03*
X-177480Y-47146D02*
D03*
X-182480Y142854D02*
D03*
X-187480Y132854D02*
D03*
X-182480Y122854D02*
D03*
X-187480Y112854D02*
D03*
X-182480Y102854D02*
D03*
X-187480Y92854D02*
D03*
X-182480Y82854D02*
D03*
X-187480Y72854D02*
D03*
X-182480Y62854D02*
D03*
Y42854D02*
D03*
X-187480Y32854D02*
D03*
X-182480Y22854D02*
D03*
Y-17146D02*
D03*
Y-37146D02*
D03*
X-187480Y-47146D02*
D03*
D19*
X-90000Y-17500D02*
D03*
X-152500Y0D02*
D03*
X-65000Y77500D02*
D03*
X-40000Y85000D02*
D03*
X-157500Y-15000D02*
D03*
X65000Y-40000D02*
D03*
Y-5000D02*
D03*
Y15000D02*
D03*
Y35000D02*
D03*
Y105000D02*
D03*
Y125000D02*
D03*
X60000Y145000D02*
D03*
X-40000Y37500D02*
D03*
Y30000D02*
D03*
X-60000Y15000D02*
D03*
Y5000D02*
D03*
X-140000Y115000D02*
D03*
Y125000D02*
D03*
Y95000D02*
D03*
Y85000D02*
D03*
X-100000Y35000D02*
D03*
X-60000Y-5000D02*
D03*
X-85000Y-7500D02*
D03*
X-137500Y5000D02*
D03*
X-157500Y-32500D02*
D03*
X-115000Y-50000D02*
D03*
X-135000D02*
D03*
X-155000D02*
D03*
X-175000D02*
D03*
X-195000D02*
D03*
Y-27500D02*
D03*
Y-5000D02*
D03*
Y15000D02*
D03*
Y35000D02*
D03*
Y70000D02*
D03*
Y90000D02*
D03*
Y110000D02*
D03*
Y130000D02*
D03*
Y150000D02*
D03*
D20*
X-72500Y55000D02*
X-65000Y47500D01*
Y28536D02*
Y47500D01*
X-81036Y12500D02*
X-65000Y28536D01*
X-182500Y12500D02*
X-81036D01*
X-80000Y10000D02*
X-62500Y27500D01*
X-170000Y10000D02*
X-80000D01*
X-175000Y5000D02*
X-170000Y10000D01*
X-62500Y27500D02*
Y62500D01*
X-96000Y135000D02*
Y145000D01*
X-100000Y65000D02*
X-90000D01*
X-50000Y75000D02*
X-40000D01*
X-90000Y55000D02*
X-80000D01*
X-100000D02*
X-90000D01*
X-40000Y75000D02*
X-30000D01*
X-190000Y-19200D02*
Y-0D01*
X-190000Y-0D01*
Y0D01*
X-185000Y5000D01*
X-185000Y5000D02*
X-175000D01*
X-185000Y5000D02*
X-185000Y5000D01*
X-185000Y5000D02*
X-185000D01*
X-182400Y13200D02*
X-180600Y15000D01*
X-190000Y-19200D02*
X-182400Y-26800D01*
Y-6800D02*
X-182200Y-7000D01*
X-62500Y62500D02*
X-50000Y75000D01*
X-90000Y65000D02*
X-80000D01*
X-80000Y65000D01*
Y55000D02*
X-72500D01*
X-110000Y65000D02*
X-100000D01*
D21*
X-171800Y-6800D02*
X-168600Y-10000D01*
X-182400Y-6800D02*
X-171800D01*
X-168600Y-10000D02*
X-145000D01*
X-132500D01*
M02*
