G04 Layer_Color=2752767*
%FSLAX25Y25*%
%MOIN*%
G70*
G01*
G75*
%ADD31C,0.00200*%
%ADD32C,0.00267*%
D31*
X-50800Y124200D02*
Y125800D01*
X-49200D01*
Y124200D01*
X-50800D01*
X-60800D02*
Y125800D01*
X-59200D01*
Y124200D01*
X-60800D01*
X-70800D02*
Y125800D01*
X-69200D01*
Y124200D01*
X-70800D01*
X-80800D02*
Y125800D01*
X-79200D01*
Y124200D01*
X-80800D01*
X-90800D02*
Y125800D01*
X-89200D01*
Y124200D01*
X-90800D01*
X-100800D02*
Y125800D01*
X-99200D01*
Y124200D01*
X-100800D01*
X-50800Y34200D02*
Y35800D01*
X-49200D01*
Y34200D01*
X-50800D01*
Y-5800D02*
Y-4200D01*
X-49200D01*
Y-5800D01*
X-50800D01*
Y24200D02*
Y25800D01*
X-49200D01*
Y24200D01*
X-50800D01*
X-132500Y-10800D02*
X-133300Y-9200D01*
X-131700D01*
X-132500Y-10800D01*
X-92500D02*
X-93300Y-9200D01*
X-91700D01*
X-92500Y-10800D01*
X-112500Y-25800D02*
X-113300Y-24200D01*
X-111700D01*
X-112500Y-25800D01*
X-152500D02*
X-153300Y-24200D01*
X-151700D01*
X-152500Y-25800D01*
X-30000Y-25800D02*
X-30800Y-24200D01*
X-29200D01*
X-30000Y-25800D01*
X10000D02*
X9200Y-24200D01*
X10800D01*
X10000Y-25800D01*
X-156000Y37200D02*
X-155600Y37600D01*
X-155200D01*
X-155600Y38000D01*
X-155200Y38400D01*
X-155600D01*
X-156000Y38800D01*
X-156400Y38400D01*
X-156800D01*
X-156400Y38000D01*
X-156800Y37600D01*
X-156400D01*
X-156000Y37200D01*
X-150094Y51767D02*
X-149695Y52167D01*
X-149294D01*
X-149695Y52567D01*
X-149294Y52967D01*
X-149695D01*
X-150094Y53367D01*
X-150495Y52967D01*
X-150894D01*
X-150495Y52567D01*
X-150894Y52167D01*
X-150495D01*
X-150094Y51767D01*
X-189465D02*
X-189065Y52167D01*
X-188665D01*
X-189065Y52567D01*
X-188665Y52967D01*
X-189065D01*
X-189465Y53367D01*
X-189865Y52967D01*
X-190265D01*
X-189865Y52567D01*
X-190265Y52167D01*
X-189865D01*
X-189465Y51767D01*
X49751Y64003D02*
X50151Y64803D01*
X49751Y65603D01*
X50551Y65203D01*
X51351Y65603D01*
X50951Y64803D01*
X51351Y64003D01*
X50551Y64403D01*
X49751Y64003D01*
X59751D02*
X60151Y64803D01*
X59751Y65603D01*
X60551Y65203D01*
X61351Y65603D01*
X60951Y64803D01*
X61351Y64003D01*
X60551Y64403D01*
X59751Y64003D01*
X49751Y54003D02*
X50151Y54803D01*
X49751Y55603D01*
X50551Y55203D01*
X51351Y55603D01*
X50951Y54803D01*
X51351Y54003D01*
X50551Y54403D01*
X49751Y54003D01*
X59751D02*
X60151Y54803D01*
X59751Y55603D01*
X60551Y55203D01*
X61351Y55603D01*
X60951Y54803D01*
X61351Y54003D01*
X60551Y54403D01*
X59751Y54003D01*
X49751Y44003D02*
X50151Y44803D01*
X49751Y45603D01*
X50551Y45203D01*
X51351Y45603D01*
X50951Y44803D01*
X51351Y44003D01*
X50551Y44403D01*
X49751Y44003D01*
X59751D02*
X60151Y44803D01*
X59751Y45603D01*
X60551Y45203D01*
X61351Y45603D01*
X60951Y44803D01*
X61351Y44003D01*
X60551Y44403D01*
X59751Y44003D01*
X-140400Y144600D02*
Y144200D01*
X-139600D01*
Y144600D01*
X-139200D01*
Y145400D01*
X-139600D01*
Y145800D01*
X-140400D01*
Y145400D01*
X-140800D01*
Y144600D01*
X-140400D01*
X59600Y84600D02*
Y84200D01*
X60400D01*
Y84600D01*
X60800D01*
Y85400D01*
X60400D01*
Y85800D01*
X59600D01*
Y85400D01*
X59200D01*
Y84600D01*
X59600D01*
Y-25400D02*
Y-25800D01*
X60400D01*
Y-25400D01*
X60800D01*
Y-24600D01*
X60400D01*
Y-24200D01*
X59600D01*
Y-24600D01*
X59200D01*
Y-25400D01*
X59600D01*
X-145400Y-45400D02*
Y-45800D01*
X-144600D01*
Y-45400D01*
X-144200D01*
Y-44600D01*
X-144600D01*
Y-44200D01*
X-145400D01*
Y-44600D01*
X-145800D01*
Y-45400D01*
X-145400D01*
X-50800Y14200D02*
Y15800D01*
X-49200D01*
Y14200D01*
X-50800D01*
Y4200D02*
Y5800D01*
X-49200D01*
Y4200D01*
X-50800D01*
X-183300Y11700D02*
X-182900D01*
X-182500Y12100D01*
X-182100Y11700D01*
X-181700D01*
Y12100D01*
X-182100Y12500D01*
X-181700Y12900D01*
Y13300D01*
X-182100D01*
X-182500Y12900D01*
X-182900Y13300D01*
X-183300D01*
Y12900D01*
X-182900Y12500D01*
X-183300Y12100D01*
Y11700D01*
Y-8300D02*
X-182900D01*
X-182500Y-7900D01*
X-182100Y-8300D01*
X-181700D01*
Y-7900D01*
X-182100Y-7500D01*
X-181700Y-7100D01*
Y-6700D01*
X-182100D01*
X-182500Y-7100D01*
X-182900Y-6700D01*
X-183300D01*
Y-7100D01*
X-182900Y-7500D01*
X-183300Y-7900D01*
Y-8300D01*
Y-28300D02*
X-182900D01*
X-182500Y-27900D01*
X-182100Y-28300D01*
X-181700D01*
Y-27900D01*
X-182100Y-27500D01*
X-181700Y-27100D01*
Y-26700D01*
X-182100D01*
X-182500Y-27100D01*
X-182900Y-26700D01*
X-183300D01*
Y-27100D01*
X-182900Y-27500D01*
X-183300Y-27900D01*
Y-28300D01*
X-50800Y-25800D02*
Y-24200D01*
X-49200D01*
Y-25800D01*
X-50800D01*
Y-15800D02*
Y-14200D01*
X-49200D01*
Y-15800D01*
X-50800D01*
X-73300Y-25800D02*
Y-24200D01*
X-71700D01*
Y-25800D01*
X-73300D01*
X-81174D02*
Y-24200D01*
X-79574D01*
Y-25800D01*
X-81174D01*
X40700Y-18300D02*
Y-16700D01*
X42300D01*
Y-18300D01*
X40700D01*
X20700Y-10800D02*
Y-9200D01*
X22300D01*
Y-10800D01*
X20700D01*
Y-25800D02*
Y-24200D01*
X22300D01*
Y-25800D01*
X20700D01*
X-110800Y24200D02*
Y25800D01*
X-109200D01*
Y24200D01*
X-110800D01*
Y64200D02*
Y65800D01*
X-109200D01*
Y64200D01*
X-110800D01*
X-130800Y44200D02*
Y45800D01*
X-129200D01*
Y44200D01*
X-130800D01*
X-40800Y-800D02*
Y800D01*
X-39200D01*
Y-800D01*
X-40800D01*
X-30800D02*
Y800D01*
X-29200D01*
Y-800D01*
X-30800D01*
X-20800D02*
Y800D01*
X-19200D01*
Y-800D01*
X-20800D01*
X-10800D02*
Y800D01*
X-9200D01*
Y-800D01*
X-10800D01*
X-800D02*
Y800D01*
X800D01*
Y-800D01*
X-800D01*
X-85800Y50000D02*
X-85000Y50800D01*
X-84200Y50000D01*
X-85000Y49200D01*
X-85800Y50000D01*
X-95800D02*
X-95000Y50800D01*
X-94200Y50000D01*
X-95000Y49200D01*
X-95800Y50000D01*
Y60000D02*
X-95000Y60800D01*
X-94200Y60000D01*
X-95000Y59200D01*
X-95800Y60000D01*
Y70000D02*
X-95000Y70800D01*
X-94200Y70000D01*
X-95000Y69200D01*
X-95800Y70000D01*
X-85800D02*
X-85000Y70800D01*
X-84200Y70000D01*
X-85000Y69200D01*
X-85800Y70000D01*
Y60000D02*
X-85000Y60800D01*
X-84200Y60000D01*
X-85000Y59200D01*
X-85800Y60000D01*
X-45800Y50000D02*
X-45000Y50800D01*
X-44200Y50000D01*
X-45000Y49200D01*
X-45800Y50000D01*
X-35800D02*
X-35000Y50800D01*
X-34200Y50000D01*
X-35000Y49200D01*
X-35800Y50000D01*
Y60000D02*
X-35000Y60800D01*
X-34200Y60000D01*
X-35000Y59200D01*
X-35800Y60000D01*
X-45800D02*
X-45000Y60800D01*
X-44200Y60000D01*
X-45000Y59200D01*
X-45800Y60000D01*
Y70000D02*
X-45000Y70800D01*
X-44200Y70000D01*
X-45000Y69200D01*
X-45800Y70000D01*
X-35800D02*
X-35000Y70800D01*
X-34200Y70000D01*
X-35000Y69200D01*
X-35800Y70000D01*
X-160800Y47500D02*
X-160000Y48300D01*
X-159200Y47500D01*
X-160000Y46700D01*
X-160800Y47500D01*
X-35800Y5000D02*
X-35000Y5800D01*
X-34200Y5000D01*
X-35000Y4200D01*
X-35800Y5000D01*
X-25800D02*
X-25000Y5800D01*
X-24200Y5000D01*
X-25000Y4200D01*
X-25800Y5000D01*
X-15800D02*
X-15000Y5800D01*
X-14200Y5000D01*
X-15000Y4200D01*
X-15800Y5000D01*
X-5800D02*
X-5000Y5800D01*
X-4200Y5000D01*
X-5000Y4200D01*
X-5800Y5000D01*
Y15000D02*
X-5000Y15800D01*
X-4200Y15000D01*
X-5000Y14200D01*
X-5800Y15000D01*
X-15800D02*
X-15000Y15800D01*
X-14200Y15000D01*
X-15000Y14200D01*
X-15800Y15000D01*
X-25800D02*
X-25000Y15800D01*
X-24200Y15000D01*
X-25000Y14200D01*
X-25800Y15000D01*
X-35800D02*
X-35000Y15800D01*
X-34200Y15000D01*
X-35000Y14200D01*
X-35800Y15000D01*
X-105800Y80000D02*
X-105000Y80800D01*
X-104200Y80000D01*
X-105000Y79200D01*
X-105800Y80000D01*
X-95800D02*
X-95000Y80800D01*
X-94200Y80000D01*
X-95000Y79200D01*
X-95800Y80000D01*
X-115800Y77500D02*
X-115000Y78300D01*
X-114200Y77500D01*
X-115000Y76700D01*
X-115800Y77500D01*
Y110000D02*
X-115000Y110800D01*
X-114200Y110000D01*
X-115000Y109200D01*
X-115800Y110000D01*
X-105800D02*
X-105000Y110800D01*
X-104200Y110000D01*
X-105000Y109200D01*
X-105800Y110000D01*
X-95800D02*
X-95000Y110800D01*
X-94200Y110000D01*
X-95000Y109200D01*
X-95800Y110000D01*
X-125800Y120000D02*
X-125000Y120800D01*
X-124200Y120000D01*
X-125000Y119200D01*
X-125800Y120000D01*
X-115800D02*
X-115000Y120800D01*
X-114200Y120000D01*
X-115000Y119200D01*
X-115800Y120000D01*
X-105800D02*
X-105000Y120800D01*
X-104200Y120000D01*
X-105000Y119200D01*
X-105800Y120000D01*
X-95800D02*
X-95000Y120800D01*
X-94200Y120000D01*
X-95000Y119200D01*
X-95800Y120000D01*
X-85800D02*
X-85000Y120800D01*
X-84200Y120000D01*
X-85000Y119200D01*
X-85800Y120000D01*
X-75800D02*
X-75000Y120800D01*
X-74200Y120000D01*
X-75000Y119200D01*
X-75800Y120000D01*
X-65800D02*
X-65000Y120800D01*
X-64200Y120000D01*
X-65000Y119200D01*
X-65800Y120000D01*
X-55800D02*
X-55000Y120800D01*
X-54200Y120000D01*
X-55000Y119200D01*
X-55800Y120000D01*
X-75800Y110000D02*
X-75000Y110800D01*
X-74200Y110000D01*
X-75000Y109200D01*
X-75800Y110000D01*
X-65800D02*
X-65000Y110800D01*
X-64200Y110000D01*
X-65000Y109200D01*
X-65800Y110000D01*
X-55800D02*
X-55000Y110800D01*
X-54200Y110000D01*
X-55000Y109200D01*
X-55800Y110000D01*
Y90000D02*
X-55000Y90800D01*
X-54200Y90000D01*
X-55000Y89200D01*
X-55800Y90000D01*
X-65800D02*
X-65000Y90800D01*
X-64200Y90000D01*
X-65000Y89200D01*
X-65800Y90000D01*
X-75800D02*
X-75000Y90800D01*
X-74200Y90000D01*
X-75000Y89200D01*
X-75800Y90000D01*
X61720Y132854D02*
X62520Y133654D01*
X63320Y132854D01*
X62520Y132054D01*
X61720Y132854D01*
Y112854D02*
X62520Y113654D01*
X63320Y112854D01*
X62520Y112054D01*
X61720Y112854D01*
Y72854D02*
X62520Y73654D01*
X63320Y72854D01*
X62520Y72054D01*
X61720Y72854D01*
Y32854D02*
X62520Y33654D01*
X63320Y32854D01*
X62520Y32054D01*
X61720Y32854D01*
Y12854D02*
X62520Y13654D01*
X63320Y12854D01*
X62520Y12054D01*
X61720Y12854D01*
Y-7146D02*
X62520Y-6346D01*
X63320Y-7146D01*
X62520Y-7946D01*
X61720Y-7146D01*
Y-47146D02*
X62520Y-46346D01*
X63320Y-47146D01*
X62520Y-47946D01*
X61720Y-47146D01*
X56720Y142854D02*
X57520Y143654D01*
X58320Y142854D01*
X57520Y142054D01*
X56720Y142854D01*
Y122854D02*
X57520Y123654D01*
X58320Y122854D01*
X57520Y122054D01*
X56720Y122854D01*
X51720Y112854D02*
X52520Y113654D01*
X53320Y112854D01*
X52520Y112054D01*
X51720Y112854D01*
X56720Y102854D02*
X57520Y103654D01*
X58320Y102854D01*
X57520Y102054D01*
X56720Y102854D01*
X51720Y92854D02*
X52520Y93654D01*
X53320Y92854D01*
X52520Y92054D01*
X51720Y92854D01*
Y72854D02*
X52520Y73654D01*
X53320Y72854D01*
X52520Y72054D01*
X51720Y72854D01*
Y32854D02*
X52520Y33654D01*
X53320Y32854D01*
X52520Y32054D01*
X51720Y32854D01*
X56720Y22854D02*
X57520Y23654D01*
X58320Y22854D01*
X57520Y22054D01*
X56720Y22854D01*
X51720Y12854D02*
X52520Y13654D01*
X53320Y12854D01*
X52520Y12054D01*
X51720Y12854D01*
X56720Y2854D02*
X57520Y3654D01*
X58320Y2854D01*
X57520Y2054D01*
X56720Y2854D01*
X51720Y-7146D02*
X52520Y-6346D01*
X53320Y-7146D01*
X52520Y-7946D01*
X51720Y-7146D01*
X56720Y-37146D02*
X57520Y-36346D01*
X58320Y-37146D01*
X57520Y-37946D01*
X56720Y-37146D01*
X46720Y122854D02*
X47520Y123654D01*
X48320Y122854D01*
X47520Y122054D01*
X46720Y122854D01*
X41720Y112854D02*
X42520Y113654D01*
X43320Y112854D01*
X42520Y112054D01*
X41720Y112854D01*
X46720Y102854D02*
X47520Y103654D01*
X48320Y102854D01*
X47520Y102054D01*
X46720Y102854D01*
X41720Y92854D02*
X42520Y93654D01*
X43320Y92854D01*
X42520Y92054D01*
X41720Y92854D01*
X46720Y82854D02*
X47520Y83654D01*
X48320Y82854D01*
X47520Y82054D01*
X46720Y82854D01*
X41720Y72854D02*
X42520Y73654D01*
X43320Y72854D01*
X42520Y72054D01*
X41720Y72854D01*
Y52854D02*
X42520Y53654D01*
X43320Y52854D01*
X42520Y52054D01*
X41720Y52854D01*
Y32854D02*
X42520Y33654D01*
X43320Y32854D01*
X42520Y32054D01*
X41720Y32854D01*
X46720Y22854D02*
X47520Y23654D01*
X48320Y22854D01*
X47520Y22054D01*
X46720Y22854D01*
X41720Y12854D02*
X42520Y13654D01*
X43320Y12854D01*
X42520Y12054D01*
X41720Y12854D01*
X46720Y2854D02*
X47520Y3654D01*
X48320Y2854D01*
X47520Y2054D01*
X46720Y2854D01*
X41720Y-7146D02*
X42520Y-6346D01*
X43320Y-7146D01*
X42520Y-7946D01*
X41720Y-7146D01*
X46720Y-17146D02*
X47520Y-16346D01*
X48320Y-17146D01*
X47520Y-17946D01*
X46720Y-17146D01*
Y-37146D02*
X47520Y-36346D01*
X48320Y-37146D01*
X47520Y-37946D01*
X46720Y-37146D01*
X36720Y122854D02*
X37520Y123654D01*
X38320Y122854D01*
X37520Y122054D01*
X36720Y122854D01*
X31720Y112854D02*
X32520Y113654D01*
X33320Y112854D01*
X32520Y112054D01*
X31720Y112854D01*
X36720Y102854D02*
X37520Y103654D01*
X38320Y102854D01*
X37520Y102054D01*
X36720Y102854D01*
X31720Y92854D02*
X32520Y93654D01*
X33320Y92854D01*
X32520Y92054D01*
X31720Y92854D01*
X36720Y82854D02*
X37520Y83654D01*
X38320Y82854D01*
X37520Y82054D01*
X36720Y82854D01*
X31720Y72854D02*
X32520Y73654D01*
X33320Y72854D01*
X32520Y72054D01*
X31720Y72854D01*
X36720Y62854D02*
X37520Y63654D01*
X38320Y62854D01*
X37520Y62054D01*
X36720Y62854D01*
X31720Y52854D02*
X32520Y53654D01*
X33320Y52854D01*
X32520Y52054D01*
X31720Y52854D01*
X36720Y42854D02*
X37520Y43654D01*
X38320Y42854D01*
X37520Y42054D01*
X36720Y42854D01*
X31720Y32854D02*
X32520Y33654D01*
X33320Y32854D01*
X32520Y32054D01*
X31720Y32854D01*
X36720Y22854D02*
X37520Y23654D01*
X38320Y22854D01*
X37520Y22054D01*
X36720Y22854D01*
X31720Y12854D02*
X32520Y13654D01*
X33320Y12854D01*
X32520Y12054D01*
X31720Y12854D01*
X36720Y2854D02*
X37520Y3654D01*
X38320Y2854D01*
X37520Y2054D01*
X36720Y2854D01*
X31720Y-7146D02*
X32520Y-6346D01*
X33320Y-7146D01*
X32520Y-7946D01*
X31720Y-7146D01*
Y-27146D02*
X32520Y-26346D01*
X33320Y-27146D01*
X32520Y-27946D01*
X31720Y-27146D01*
X36720Y-37146D02*
X37520Y-36346D01*
X38320Y-37146D01*
X37520Y-37946D01*
X36720Y-37146D01*
X26720Y122854D02*
X27520Y123654D01*
X28320Y122854D01*
X27520Y122054D01*
X26720Y122854D01*
X21720Y112854D02*
X22520Y113654D01*
X23320Y112854D01*
X22520Y112054D01*
X21720Y112854D01*
X26720Y102854D02*
X27520Y103654D01*
X28320Y102854D01*
X27520Y102054D01*
X26720Y102854D01*
X21720Y92854D02*
X22520Y93654D01*
X23320Y92854D01*
X22520Y92054D01*
X21720Y92854D01*
X26720Y82854D02*
X27520Y83654D01*
X28320Y82854D01*
X27520Y82054D01*
X26720Y82854D01*
X21720Y72854D02*
X22520Y73654D01*
X23320Y72854D01*
X22520Y72054D01*
X21720Y72854D01*
X26720Y62854D02*
X27520Y63654D01*
X28320Y62854D01*
X27520Y62054D01*
X26720Y62854D01*
X21720Y52854D02*
X22520Y53654D01*
X23320Y52854D01*
X22520Y52054D01*
X21720Y52854D01*
X26720Y42854D02*
X27520Y43654D01*
X28320Y42854D01*
X27520Y42054D01*
X26720Y42854D01*
X21720Y32854D02*
X22520Y33654D01*
X23320Y32854D01*
X22520Y32054D01*
X21720Y32854D01*
X26720Y22854D02*
X27520Y23654D01*
X28320Y22854D01*
X27520Y22054D01*
X26720Y22854D01*
X21720Y12854D02*
X22520Y13654D01*
X23320Y12854D01*
X22520Y12054D01*
X21720Y12854D01*
X26720Y2854D02*
X27520Y3654D01*
X28320Y2854D01*
X27520Y2054D01*
X26720Y2854D01*
Y-17146D02*
X27520Y-16346D01*
X28320Y-17146D01*
X27520Y-17946D01*
X26720Y-17146D01*
X16720Y122854D02*
X17520Y123654D01*
X18320Y122854D01*
X17520Y122054D01*
X16720Y122854D01*
X11720Y112854D02*
X12520Y113654D01*
X13320Y112854D01*
X12520Y112054D01*
X11720Y112854D01*
X16720Y102854D02*
X17520Y103654D01*
X18320Y102854D01*
X17520Y102054D01*
X16720Y102854D01*
X11720Y92854D02*
X12520Y93654D01*
X13320Y92854D01*
X12520Y92054D01*
X11720Y92854D01*
X16720Y82854D02*
X17520Y83654D01*
X18320Y82854D01*
X17520Y82054D01*
X16720Y82854D01*
X11720Y72854D02*
X12520Y73654D01*
X13320Y72854D01*
X12520Y72054D01*
X11720Y72854D01*
X16720Y62854D02*
X17520Y63654D01*
X18320Y62854D01*
X17520Y62054D01*
X16720Y62854D01*
X11720Y52854D02*
X12520Y53654D01*
X13320Y52854D01*
X12520Y52054D01*
X11720Y52854D01*
X16720Y42854D02*
X17520Y43654D01*
X18320Y42854D01*
X17520Y42054D01*
X16720Y42854D01*
X11720Y32854D02*
X12520Y33654D01*
X13320Y32854D01*
X12520Y32054D01*
X11720Y32854D01*
X16720Y22854D02*
X17520Y23654D01*
X18320Y22854D01*
X17520Y22054D01*
X16720Y22854D01*
X11720Y12854D02*
X12520Y13654D01*
X13320Y12854D01*
X12520Y12054D01*
X11720Y12854D01*
X16720Y2854D02*
X17520Y3654D01*
X18320Y2854D01*
X17520Y2054D01*
X16720Y2854D01*
Y-17146D02*
X17520Y-16346D01*
X18320Y-17146D01*
X17520Y-17946D01*
X16720Y-17146D01*
X6720Y122854D02*
X7520Y123654D01*
X8320Y122854D01*
X7520Y122054D01*
X6720Y122854D01*
X1720Y112854D02*
X2520Y113654D01*
X3320Y112854D01*
X2520Y112054D01*
X1720Y112854D01*
X6720Y102854D02*
X7520Y103654D01*
X8320Y102854D01*
X7520Y102054D01*
X6720Y102854D01*
X1720Y92854D02*
X2520Y93654D01*
X3320Y92854D01*
X2520Y92054D01*
X1720Y92854D01*
X6720Y82854D02*
X7520Y83654D01*
X8320Y82854D01*
X7520Y82054D01*
X6720Y82854D01*
X1720Y72854D02*
X2520Y73654D01*
X3320Y72854D01*
X2520Y72054D01*
X1720Y72854D01*
X6720Y62854D02*
X7520Y63654D01*
X8320Y62854D01*
X7520Y62054D01*
X6720Y62854D01*
X1720Y52854D02*
X2520Y53654D01*
X3320Y52854D01*
X2520Y52054D01*
X1720Y52854D01*
X6720Y42854D02*
X7520Y43654D01*
X8320Y42854D01*
X7520Y42054D01*
X6720Y42854D01*
X1720Y32854D02*
X2520Y33654D01*
X3320Y32854D01*
X2520Y32054D01*
X1720Y32854D01*
X6720Y22854D02*
X7520Y23654D01*
X8320Y22854D01*
X7520Y22054D01*
X6720Y22854D01*
Y2854D02*
X7520Y3654D01*
X8320Y2854D01*
X7520Y2054D01*
X6720Y2854D01*
X1720Y-7146D02*
X2520Y-6346D01*
X3320Y-7146D01*
X2520Y-7946D01*
X1720Y-7146D01*
X6720Y-17146D02*
X7520Y-16346D01*
X8320Y-17146D01*
X7520Y-17946D01*
X6720Y-17146D01*
X1720Y-27146D02*
X2520Y-26346D01*
X3320Y-27146D01*
X2520Y-27946D01*
X1720Y-27146D01*
X6720Y-37146D02*
X7520Y-36346D01*
X8320Y-37146D01*
X7520Y-37946D01*
X6720Y-37146D01*
X-3280Y122854D02*
X-2480Y123654D01*
X-1680Y122854D01*
X-2480Y122054D01*
X-3280Y122854D01*
X-8280Y112854D02*
X-7480Y113654D01*
X-6680Y112854D01*
X-7480Y112054D01*
X-8280Y112854D01*
X-3280Y102854D02*
X-2480Y103654D01*
X-1680Y102854D01*
X-2480Y102054D01*
X-3280Y102854D01*
X-8280Y92854D02*
X-7480Y93654D01*
X-6680Y92854D01*
X-7480Y92054D01*
X-8280Y92854D01*
X-3280Y82854D02*
X-2480Y83654D01*
X-1680Y82854D01*
X-2480Y82054D01*
X-3280Y82854D01*
X-8280Y72854D02*
X-7480Y73654D01*
X-6680Y72854D01*
X-7480Y72054D01*
X-8280Y72854D01*
X-3280Y62854D02*
X-2480Y63654D01*
X-1680Y62854D01*
X-2480Y62054D01*
X-3280Y62854D01*
X-8280Y52854D02*
X-7480Y53654D01*
X-6680Y52854D01*
X-7480Y52054D01*
X-8280Y52854D01*
X-3280Y42854D02*
X-2480Y43654D01*
X-1680Y42854D01*
X-2480Y42054D01*
X-3280Y42854D01*
X-8280Y32854D02*
X-7480Y33654D01*
X-6680Y32854D01*
X-7480Y32054D01*
X-8280Y32854D01*
Y-7146D02*
X-7480Y-6346D01*
X-6680Y-7146D01*
X-7480Y-7946D01*
X-8280Y-7146D01*
X-3280Y-17146D02*
X-2480Y-16346D01*
X-1680Y-17146D01*
X-2480Y-17946D01*
X-3280Y-17146D01*
X-8280Y-27146D02*
X-7480Y-26346D01*
X-6680Y-27146D01*
X-7480Y-27946D01*
X-8280Y-27146D01*
X-3280Y-37146D02*
X-2480Y-36346D01*
X-1680Y-37146D01*
X-2480Y-37946D01*
X-3280Y-37146D01*
X-8280Y-47146D02*
X-7480Y-46346D01*
X-6680Y-47146D01*
X-7480Y-47946D01*
X-8280Y-47146D01*
X-13280Y122854D02*
X-12480Y123654D01*
X-11680Y122854D01*
X-12480Y122054D01*
X-13280Y122854D01*
X-18280Y112854D02*
X-17480Y113654D01*
X-16680Y112854D01*
X-17480Y112054D01*
X-18280Y112854D01*
X-13280Y102854D02*
X-12480Y103654D01*
X-11680Y102854D01*
X-12480Y102054D01*
X-13280Y102854D01*
Y42854D02*
X-12480Y43654D01*
X-11680Y42854D01*
X-12480Y42054D01*
X-13280Y42854D01*
X-18280Y-7146D02*
X-17480Y-6346D01*
X-16680Y-7146D01*
X-17480Y-7946D01*
X-18280Y-7146D01*
X-13280Y-17146D02*
X-12480Y-16346D01*
X-11680Y-17146D01*
X-12480Y-17946D01*
X-13280Y-17146D01*
X-18280Y-27146D02*
X-17480Y-26346D01*
X-16680Y-27146D01*
X-17480Y-27946D01*
X-18280Y-27146D01*
X-13280Y-37146D02*
X-12480Y-36346D01*
X-11680Y-37146D01*
X-12480Y-37946D01*
X-13280Y-37146D01*
X-28280Y132854D02*
X-27480Y133654D01*
X-26680Y132854D01*
X-27480Y132054D01*
X-28280Y132854D01*
X-23280Y122854D02*
X-22480Y123654D01*
X-21680Y122854D01*
X-22480Y122054D01*
X-23280Y122854D01*
X-28280Y112854D02*
X-27480Y113654D01*
X-26680Y112854D01*
X-27480Y112054D01*
X-28280Y112854D01*
X-23280Y62854D02*
X-22480Y63654D01*
X-21680Y62854D01*
X-22480Y62054D01*
X-23280Y62854D01*
X-28280Y32854D02*
X-27480Y33654D01*
X-26680Y32854D01*
X-27480Y32054D01*
X-28280Y32854D01*
Y-7146D02*
X-27480Y-6346D01*
X-26680Y-7146D01*
X-27480Y-7946D01*
X-28280Y-7146D01*
X-23280Y-17146D02*
X-22480Y-16346D01*
X-21680Y-17146D01*
X-22480Y-17946D01*
X-23280Y-17146D01*
Y-37146D02*
X-22480Y-36346D01*
X-21680Y-37146D01*
X-22480Y-37946D01*
X-23280Y-37146D01*
X-33280Y122854D02*
X-32480Y123654D01*
X-31680Y122854D01*
X-32480Y122054D01*
X-33280Y122854D01*
X-38280Y32854D02*
X-37480Y33654D01*
X-36680Y32854D01*
X-37480Y32054D01*
X-38280Y32854D01*
Y-7146D02*
X-37480Y-6346D01*
X-36680Y-7146D01*
X-37480Y-7946D01*
X-38280Y-7146D01*
X-33280Y-17146D02*
X-32480Y-16346D01*
X-31680Y-17146D01*
X-32480Y-17946D01*
X-33280Y-17146D01*
Y-37146D02*
X-32480Y-36346D01*
X-31680Y-37146D01*
X-32480Y-37946D01*
X-33280Y-37146D01*
X-43280Y82854D02*
X-42480Y83654D01*
X-41680Y82854D01*
X-42480Y82054D01*
X-43280Y82854D01*
Y-17146D02*
X-42480Y-16346D01*
X-41680Y-17146D01*
X-42480Y-17946D01*
X-43280Y-17146D01*
Y-37146D02*
X-42480Y-36346D01*
X-41680Y-37146D01*
X-42480Y-37946D01*
X-43280Y-37146D01*
X-58280Y72854D02*
X-57480Y73654D01*
X-56680Y72854D01*
X-57480Y72054D01*
X-58280Y72854D01*
Y12854D02*
X-57480Y13654D01*
X-56680Y12854D01*
X-57480Y12054D01*
X-58280Y12854D01*
Y-7146D02*
X-57480Y-6346D01*
X-56680Y-7146D01*
X-57480Y-7946D01*
X-58280Y-7146D01*
X-53280Y-37146D02*
X-52480Y-36346D01*
X-51680Y-37146D01*
X-52480Y-37946D01*
X-53280Y-37146D01*
X-68280Y72854D02*
X-67480Y73654D01*
X-66680Y72854D01*
X-67480Y72054D01*
X-68280Y72854D01*
Y12854D02*
X-67480Y13654D01*
X-66680Y12854D01*
X-67480Y12054D01*
X-68280Y12854D01*
X-63280Y2854D02*
X-62480Y3654D01*
X-61680Y2854D01*
X-62480Y2054D01*
X-63280Y2854D01*
X-68280Y-7146D02*
X-67480Y-6346D01*
X-66680Y-7146D01*
X-67480Y-7946D01*
X-68280Y-7146D01*
X-63280Y-17146D02*
X-62480Y-16346D01*
X-61680Y-17146D01*
X-62480Y-17946D01*
X-63280Y-17146D01*
Y-37146D02*
X-62480Y-36346D01*
X-61680Y-37146D01*
X-62480Y-37946D01*
X-63280Y-37146D01*
X-73280Y62854D02*
X-72480Y63654D01*
X-71680Y62854D01*
X-72480Y62054D01*
X-73280Y62854D01*
Y42854D02*
X-72480Y43654D01*
X-71680Y42854D01*
X-72480Y42054D01*
X-73280Y42854D01*
X-78280Y32854D02*
X-77480Y33654D01*
X-76680Y32854D01*
X-77480Y32054D01*
X-78280Y32854D01*
X-73280Y2854D02*
X-72480Y3654D01*
X-71680Y2854D01*
X-72480Y2054D01*
X-73280Y2854D01*
X-78280Y-7146D02*
X-77480Y-6346D01*
X-76680Y-7146D01*
X-77480Y-7946D01*
X-78280Y-7146D01*
X-73280Y-17146D02*
X-72480Y-16346D01*
X-71680Y-17146D01*
X-72480Y-17946D01*
X-73280Y-17146D01*
Y-37146D02*
X-72480Y-36346D01*
X-71680Y-37146D01*
X-72480Y-37946D01*
X-73280Y-37146D01*
X-88280Y32854D02*
X-87480Y33654D01*
X-86680Y32854D01*
X-87480Y32054D01*
X-88280Y32854D01*
X-83280Y22854D02*
X-82480Y23654D01*
X-81680Y22854D01*
X-82480Y22054D01*
X-83280Y22854D01*
Y-17146D02*
X-82480Y-16346D01*
X-81680Y-17146D01*
X-82480Y-17946D01*
X-83280Y-17146D01*
Y-37146D02*
X-82480Y-36346D01*
X-81680Y-37146D01*
X-82480Y-37946D01*
X-83280Y-37146D01*
X-93280Y42854D02*
X-92480Y43654D01*
X-91680Y42854D01*
X-92480Y42054D01*
X-93280Y42854D01*
X-98280Y32854D02*
X-97480Y33654D01*
X-96680Y32854D01*
X-97480Y32054D01*
X-98280Y32854D01*
X-93280Y22854D02*
X-92480Y23654D01*
X-91680Y22854D01*
X-92480Y22054D01*
X-93280Y22854D01*
X-98280Y-7146D02*
X-97480Y-6346D01*
X-96680Y-7146D01*
X-97480Y-7946D01*
X-98280Y-7146D01*
X-93280Y-37146D02*
X-92480Y-36346D01*
X-91680Y-37146D01*
X-92480Y-37946D01*
X-93280Y-37146D01*
X-98280Y-47146D02*
X-97480Y-46346D01*
X-96680Y-47146D01*
X-97480Y-47946D01*
X-98280Y-47146D01*
X-108280Y72854D02*
X-107480Y73654D01*
X-106680Y72854D01*
X-107480Y72054D01*
X-108280Y72854D01*
Y52854D02*
X-107480Y53654D01*
X-106680Y52854D01*
X-107480Y52054D01*
X-108280Y52854D01*
Y32854D02*
X-107480Y33654D01*
X-106680Y32854D01*
X-107480Y32054D01*
X-108280Y32854D01*
X-103280Y22854D02*
X-102480Y23654D01*
X-101680Y22854D01*
X-102480Y22054D01*
X-103280Y22854D01*
Y2854D02*
X-102480Y3654D01*
X-101680Y2854D01*
X-102480Y2054D01*
X-103280Y2854D01*
Y-17146D02*
X-102480Y-16346D01*
X-101680Y-17146D01*
X-102480Y-17946D01*
X-103280Y-17146D01*
Y-37146D02*
X-102480Y-36346D01*
X-101680Y-37146D01*
X-102480Y-37946D01*
X-103280Y-37146D01*
X-108280Y-47146D02*
X-107480Y-46346D01*
X-106680Y-47146D01*
X-107480Y-47946D01*
X-108280Y-47146D01*
X-118280Y72854D02*
X-117480Y73654D01*
X-116680Y72854D01*
X-117480Y72054D01*
X-118280Y72854D01*
Y52854D02*
X-117480Y53654D01*
X-116680Y52854D01*
X-117480Y52054D01*
X-118280Y52854D01*
X-113280Y42854D02*
X-112480Y43654D01*
X-111680Y42854D01*
X-112480Y42054D01*
X-113280Y42854D01*
X-118280Y32854D02*
X-117480Y33654D01*
X-116680Y32854D01*
X-117480Y32054D01*
X-118280Y32854D01*
Y-7146D02*
X-117480Y-6346D01*
X-116680Y-7146D01*
X-117480Y-7946D01*
X-118280Y-7146D01*
X-113280Y-17146D02*
X-112480Y-16346D01*
X-111680Y-17146D01*
X-112480Y-17946D01*
X-113280Y-17146D01*
X-118280Y-27146D02*
X-117480Y-26346D01*
X-116680Y-27146D01*
X-117480Y-27946D01*
X-118280Y-27146D01*
X-113280Y-37146D02*
X-112480Y-36346D01*
X-111680Y-37146D01*
X-112480Y-37946D01*
X-113280Y-37146D01*
X-118280Y-47146D02*
X-117480Y-46346D01*
X-116680Y-47146D01*
X-117480Y-47946D01*
X-118280Y-47146D01*
X-128280Y112854D02*
X-127480Y113654D01*
X-126680Y112854D01*
X-127480Y112054D01*
X-128280Y112854D01*
X-123280Y62854D02*
X-122480Y63654D01*
X-121680Y62854D01*
X-122480Y62054D01*
X-123280Y62854D01*
X-128280Y52854D02*
X-127480Y53654D01*
X-126680Y52854D01*
X-127480Y52054D01*
X-128280Y52854D01*
X-123280Y42854D02*
X-122480Y43654D01*
X-121680Y42854D01*
X-122480Y42054D01*
X-123280Y42854D01*
X-128280Y32854D02*
X-127480Y33654D01*
X-126680Y32854D01*
X-127480Y32054D01*
X-128280Y32854D01*
X-123280Y22854D02*
X-122480Y23654D01*
X-121680Y22854D01*
X-122480Y22054D01*
X-123280Y22854D01*
Y2854D02*
X-122480Y3654D01*
X-121680Y2854D01*
X-122480Y2054D01*
X-123280Y2854D01*
X-128280Y-7146D02*
X-127480Y-6346D01*
X-126680Y-7146D01*
X-127480Y-7946D01*
X-128280Y-7146D01*
X-123280Y-17146D02*
X-122480Y-16346D01*
X-121680Y-17146D01*
X-122480Y-17946D01*
X-123280Y-17146D01*
X-128280Y-27146D02*
X-127480Y-26346D01*
X-126680Y-27146D01*
X-127480Y-27946D01*
X-128280Y-27146D01*
X-123280Y-37146D02*
X-122480Y-36346D01*
X-121680Y-37146D01*
X-122480Y-37946D01*
X-123280Y-37146D01*
X-128280Y-47146D02*
X-127480Y-46346D01*
X-126680Y-47146D01*
X-127480Y-47946D01*
X-128280Y-47146D01*
X-138280Y132854D02*
X-137480Y133654D01*
X-136680Y132854D01*
X-137480Y132054D01*
X-138280Y132854D01*
Y112854D02*
X-137480Y113654D01*
X-136680Y112854D01*
X-137480Y112054D01*
X-138280Y112854D01*
X-133280Y102854D02*
X-132480Y103654D01*
X-131680Y102854D01*
X-132480Y102054D01*
X-133280Y102854D01*
X-138280Y92854D02*
X-137480Y93654D01*
X-136680Y92854D01*
X-137480Y92054D01*
X-138280Y92854D01*
Y72854D02*
X-137480Y73654D01*
X-136680Y72854D01*
X-137480Y72054D01*
X-138280Y72854D01*
X-133280Y62854D02*
X-132480Y63654D01*
X-131680Y62854D01*
X-132480Y62054D01*
X-133280Y62854D01*
X-138280Y52854D02*
X-137480Y53654D01*
X-136680Y52854D01*
X-137480Y52054D01*
X-138280Y52854D01*
Y32854D02*
X-137480Y33654D01*
X-136680Y32854D01*
X-137480Y32054D01*
X-138280Y32854D01*
X-133280Y22854D02*
X-132480Y23654D01*
X-131680Y22854D01*
X-132480Y22054D01*
X-133280Y22854D01*
Y2854D02*
X-132480Y3654D01*
X-131680Y2854D01*
X-132480Y2054D01*
X-133280Y2854D01*
Y-17146D02*
X-132480Y-16346D01*
X-131680Y-17146D01*
X-132480Y-17946D01*
X-133280Y-17146D01*
X-138280Y-27146D02*
X-137480Y-26346D01*
X-136680Y-27146D01*
X-137480Y-27946D01*
X-138280Y-27146D01*
X-133280Y-37146D02*
X-132480Y-36346D01*
X-131680Y-37146D01*
X-132480Y-37946D01*
X-133280Y-37146D01*
X-148280Y132854D02*
X-147480Y133654D01*
X-146680Y132854D01*
X-147480Y132054D01*
X-148280Y132854D01*
X-143280Y122854D02*
X-142480Y123654D01*
X-141680Y122854D01*
X-142480Y122054D01*
X-143280Y122854D01*
X-148280Y112854D02*
X-147480Y113654D01*
X-146680Y112854D01*
X-147480Y112054D01*
X-148280Y112854D01*
X-143280Y102854D02*
X-142480Y103654D01*
X-141680Y102854D01*
X-142480Y102054D01*
X-143280Y102854D01*
X-148280Y92854D02*
X-147480Y93654D01*
X-146680Y92854D01*
X-147480Y92054D01*
X-148280Y92854D01*
X-143280Y82854D02*
X-142480Y83654D01*
X-141680Y82854D01*
X-142480Y82054D01*
X-143280Y82854D01*
X-148280Y72854D02*
X-147480Y73654D01*
X-146680Y72854D01*
X-147480Y72054D01*
X-148280Y72854D01*
X-143280Y62854D02*
X-142480Y63654D01*
X-141680Y62854D01*
X-142480Y62054D01*
X-143280Y62854D01*
Y42854D02*
X-142480Y43654D01*
X-141680Y42854D01*
X-142480Y42054D01*
X-143280Y42854D01*
X-148280Y32854D02*
X-147480Y33654D01*
X-146680Y32854D01*
X-147480Y32054D01*
X-148280Y32854D01*
X-143280Y22854D02*
X-142480Y23654D01*
X-141680Y22854D01*
X-142480Y22054D01*
X-143280Y22854D01*
Y-17146D02*
X-142480Y-16346D01*
X-141680Y-17146D01*
X-142480Y-17946D01*
X-143280Y-17146D01*
X-148280Y-27146D02*
X-147480Y-26346D01*
X-146680Y-27146D01*
X-147480Y-27946D01*
X-148280Y-27146D01*
X-153280Y142854D02*
X-152480Y143654D01*
X-151680Y142854D01*
X-152480Y142054D01*
X-153280Y142854D01*
X-158280Y132854D02*
X-157480Y133654D01*
X-156680Y132854D01*
X-157480Y132054D01*
X-158280Y132854D01*
X-153280Y122854D02*
X-152480Y123654D01*
X-151680Y122854D01*
X-152480Y122054D01*
X-153280Y122854D01*
X-158280Y112854D02*
X-157480Y113654D01*
X-156680Y112854D01*
X-157480Y112054D01*
X-158280Y112854D01*
X-153280Y102854D02*
X-152480Y103654D01*
X-151680Y102854D01*
X-152480Y102054D01*
X-153280Y102854D01*
X-158280Y92854D02*
X-157480Y93654D01*
X-156680Y92854D01*
X-157480Y92054D01*
X-158280Y92854D01*
X-153280Y82854D02*
X-152480Y83654D01*
X-151680Y82854D01*
X-152480Y82054D01*
X-153280Y82854D01*
X-158280Y72854D02*
X-157480Y73654D01*
X-156680Y72854D01*
X-157480Y72054D01*
X-158280Y72854D01*
X-153280Y62854D02*
X-152480Y63654D01*
X-151680Y62854D01*
X-152480Y62054D01*
X-153280Y62854D01*
Y22854D02*
X-152480Y23654D01*
X-151680Y22854D01*
X-152480Y22054D01*
X-153280Y22854D01*
Y-17146D02*
X-152480Y-16346D01*
X-151680Y-17146D01*
X-152480Y-17946D01*
X-153280Y-17146D01*
X-158280Y-27146D02*
X-157480Y-26346D01*
X-156680Y-27146D01*
X-157480Y-27946D01*
X-158280Y-27146D01*
X-153280Y-37146D02*
X-152480Y-36346D01*
X-151680Y-37146D01*
X-152480Y-37946D01*
X-153280Y-37146D01*
X-158280Y-47146D02*
X-157480Y-46346D01*
X-156680Y-47146D01*
X-157480Y-47946D01*
X-158280Y-47146D01*
X-163280Y142854D02*
X-162480Y143654D01*
X-161680Y142854D01*
X-162480Y142054D01*
X-163280Y142854D01*
X-168280Y132854D02*
X-167480Y133654D01*
X-166680Y132854D01*
X-167480Y132054D01*
X-168280Y132854D01*
X-163280Y122854D02*
X-162480Y123654D01*
X-161680Y122854D01*
X-162480Y122054D01*
X-163280Y122854D01*
X-168280Y112854D02*
X-167480Y113654D01*
X-166680Y112854D01*
X-167480Y112054D01*
X-168280Y112854D01*
X-163280Y102854D02*
X-162480Y103654D01*
X-161680Y102854D01*
X-162480Y102054D01*
X-163280Y102854D01*
X-168280Y92854D02*
X-167480Y93654D01*
X-166680Y92854D01*
X-167480Y92054D01*
X-168280Y92854D01*
X-163280Y82854D02*
X-162480Y83654D01*
X-161680Y82854D01*
X-162480Y82054D01*
X-163280Y82854D01*
X-168280Y72854D02*
X-167480Y73654D01*
X-166680Y72854D01*
X-167480Y72054D01*
X-168280Y72854D01*
X-163280Y62854D02*
X-162480Y63654D01*
X-161680Y62854D01*
X-162480Y62054D01*
X-163280Y62854D01*
X-168280Y52854D02*
X-167480Y53654D01*
X-166680Y52854D01*
X-167480Y52054D01*
X-168280Y52854D01*
Y32854D02*
X-167480Y33654D01*
X-166680Y32854D01*
X-167480Y32054D01*
X-168280Y32854D01*
X-163280Y22854D02*
X-162480Y23654D01*
X-161680Y22854D01*
X-162480Y22054D01*
X-163280Y22854D01*
Y2854D02*
X-162480Y3654D01*
X-161680Y2854D01*
X-162480Y2054D01*
X-163280Y2854D01*
Y-17146D02*
X-162480Y-16346D01*
X-161680Y-17146D01*
X-162480Y-17946D01*
X-163280Y-17146D01*
X-168280Y-27146D02*
X-167480Y-26346D01*
X-166680Y-27146D01*
X-167480Y-27946D01*
X-168280Y-27146D01*
X-163280Y-37146D02*
X-162480Y-36346D01*
X-161680Y-37146D01*
X-162480Y-37946D01*
X-163280Y-37146D01*
X-168280Y-47146D02*
X-167480Y-46346D01*
X-166680Y-47146D01*
X-167480Y-47946D01*
X-168280Y-47146D01*
X-173280Y142854D02*
X-172480Y143654D01*
X-171680Y142854D01*
X-172480Y142054D01*
X-173280Y142854D01*
X-178280Y132854D02*
X-177480Y133654D01*
X-176680Y132854D01*
X-177480Y132054D01*
X-178280Y132854D01*
X-173280Y122854D02*
X-172480Y123654D01*
X-171680Y122854D01*
X-172480Y122054D01*
X-173280Y122854D01*
X-178280Y112854D02*
X-177480Y113654D01*
X-176680Y112854D01*
X-177480Y112054D01*
X-178280Y112854D01*
X-173280Y102854D02*
X-172480Y103654D01*
X-171680Y102854D01*
X-172480Y102054D01*
X-173280Y102854D01*
X-178280Y92854D02*
X-177480Y93654D01*
X-176680Y92854D01*
X-177480Y92054D01*
X-178280Y92854D01*
X-173280Y82854D02*
X-172480Y83654D01*
X-171680Y82854D01*
X-172480Y82054D01*
X-173280Y82854D01*
X-178280Y72854D02*
X-177480Y73654D01*
X-176680Y72854D01*
X-177480Y72054D01*
X-178280Y72854D01*
X-173280Y62854D02*
X-172480Y63654D01*
X-171680Y62854D01*
X-172480Y62054D01*
X-173280Y62854D01*
X-178280Y52854D02*
X-177480Y53654D01*
X-176680Y52854D01*
X-177480Y52054D01*
X-178280Y52854D01*
X-173280Y42854D02*
X-172480Y43654D01*
X-171680Y42854D01*
X-172480Y42054D01*
X-173280Y42854D01*
X-178280Y32854D02*
X-177480Y33654D01*
X-176680Y32854D01*
X-177480Y32054D01*
X-178280Y32854D01*
X-173280Y22854D02*
X-172480Y23654D01*
X-171680Y22854D01*
X-172480Y22054D01*
X-173280Y22854D01*
Y2854D02*
X-172480Y3654D01*
X-171680Y2854D01*
X-172480Y2054D01*
X-173280Y2854D01*
Y-17146D02*
X-172480Y-16346D01*
X-171680Y-17146D01*
X-172480Y-17946D01*
X-173280Y-17146D01*
Y-37146D02*
X-172480Y-36346D01*
X-171680Y-37146D01*
X-172480Y-37946D01*
X-173280Y-37146D01*
X-178280Y-47146D02*
X-177480Y-46346D01*
X-176680Y-47146D01*
X-177480Y-47946D01*
X-178280Y-47146D01*
X-183280Y142854D02*
X-182480Y143654D01*
X-181680Y142854D01*
X-182480Y142054D01*
X-183280Y142854D01*
X-188280Y132854D02*
X-187480Y133654D01*
X-186680Y132854D01*
X-187480Y132054D01*
X-188280Y132854D01*
X-183280Y122854D02*
X-182480Y123654D01*
X-181680Y122854D01*
X-182480Y122054D01*
X-183280Y122854D01*
X-188280Y112854D02*
X-187480Y113654D01*
X-186680Y112854D01*
X-187480Y112054D01*
X-188280Y112854D01*
X-183280Y102854D02*
X-182480Y103654D01*
X-181680Y102854D01*
X-182480Y102054D01*
X-183280Y102854D01*
X-188280Y92854D02*
X-187480Y93654D01*
X-186680Y92854D01*
X-187480Y92054D01*
X-188280Y92854D01*
X-183280Y82854D02*
X-182480Y83654D01*
X-181680Y82854D01*
X-182480Y82054D01*
X-183280Y82854D01*
X-188280Y72854D02*
X-187480Y73654D01*
X-186680Y72854D01*
X-187480Y72054D01*
X-188280Y72854D01*
X-183280Y62854D02*
X-182480Y63654D01*
X-181680Y62854D01*
X-182480Y62054D01*
X-183280Y62854D01*
Y42854D02*
X-182480Y43654D01*
X-181680Y42854D01*
X-182480Y42054D01*
X-183280Y42854D01*
X-188280Y32854D02*
X-187480Y33654D01*
X-186680Y32854D01*
X-187480Y32054D01*
X-188280Y32854D01*
X-183280Y22854D02*
X-182480Y23654D01*
X-181680Y22854D01*
X-182480Y22054D01*
X-183280Y22854D01*
Y-17146D02*
X-182480Y-16346D01*
X-181680Y-17146D01*
X-182480Y-17946D01*
X-183280Y-17146D01*
Y-37146D02*
X-182480Y-36346D01*
X-181680Y-37146D01*
X-182480Y-37946D01*
X-183280Y-37146D01*
X-188280Y-47146D02*
X-187480Y-46346D01*
X-186680Y-47146D01*
X-187480Y-47946D01*
X-188280Y-47146D01*
X-90800Y-18300D02*
Y-16700D01*
X-89200D01*
Y-18300D01*
X-90800D01*
X-90400Y-17900D02*
Y-17100D01*
X-89600D01*
Y-17900D01*
X-90400D01*
X-153300Y-800D02*
Y800D01*
X-151700D01*
Y-800D01*
X-153300D01*
X-152900Y-400D02*
Y400D01*
X-152100D01*
Y-400D01*
X-152900D01*
X-65800Y76700D02*
Y78300D01*
X-64200D01*
Y76700D01*
X-65800D01*
X-65400Y77100D02*
Y77900D01*
X-64600D01*
Y77100D01*
X-65400D01*
X-40800Y84200D02*
Y85800D01*
X-39200D01*
Y84200D01*
X-40800D01*
X-40400Y84600D02*
Y85400D01*
X-39600D01*
Y84600D01*
X-40400D01*
X-158300Y-15800D02*
Y-14200D01*
X-156700D01*
Y-15800D01*
X-158300D01*
X-157900Y-15400D02*
Y-14600D01*
X-157100D01*
Y-15400D01*
X-157900D01*
X64200Y-40800D02*
Y-39200D01*
X65800D01*
Y-40800D01*
X64200D01*
X64600Y-40400D02*
Y-39600D01*
X65400D01*
Y-40400D01*
X64600D01*
X64200Y-5800D02*
Y-4200D01*
X65800D01*
Y-5800D01*
X64200D01*
X64600Y-5400D02*
Y-4600D01*
X65400D01*
Y-5400D01*
X64600D01*
X64200Y14200D02*
Y15800D01*
X65800D01*
Y14200D01*
X64200D01*
X64600Y14600D02*
Y15400D01*
X65400D01*
Y14600D01*
X64600D01*
X64200Y34200D02*
Y35800D01*
X65800D01*
Y34200D01*
X64200D01*
X64600Y34600D02*
Y35400D01*
X65400D01*
Y34600D01*
X64600D01*
X64200Y104200D02*
Y105800D01*
X65800D01*
Y104200D01*
X64200D01*
X64600Y104600D02*
Y105400D01*
X65400D01*
Y104600D01*
X64600D01*
X64200Y124200D02*
Y125800D01*
X65800D01*
Y124200D01*
X64200D01*
X64600Y124600D02*
Y125400D01*
X65400D01*
Y124600D01*
X64600D01*
X59200Y144200D02*
Y145800D01*
X60800D01*
Y144200D01*
X59200D01*
X59600Y144600D02*
Y145400D01*
X60400D01*
Y144600D01*
X59600D01*
X-40800Y36700D02*
Y38300D01*
X-39200D01*
Y36700D01*
X-40800D01*
X-40400Y37100D02*
Y37900D01*
X-39600D01*
Y37100D01*
X-40400D01*
X-40800Y29200D02*
Y30800D01*
X-39200D01*
Y29200D01*
X-40800D01*
X-40400Y29600D02*
Y30400D01*
X-39600D01*
Y29600D01*
X-40400D01*
X-60800Y14200D02*
Y15800D01*
X-59200D01*
Y14200D01*
X-60800D01*
X-60400Y14600D02*
Y15400D01*
X-59600D01*
Y14600D01*
X-60400D01*
X-60800Y4200D02*
Y5800D01*
X-59200D01*
Y4200D01*
X-60800D01*
X-60400Y4600D02*
Y5400D01*
X-59600D01*
Y4600D01*
X-60400D01*
X-140800Y114200D02*
Y115800D01*
X-139200D01*
Y114200D01*
X-140800D01*
X-140400Y114600D02*
Y115400D01*
X-139600D01*
Y114600D01*
X-140400D01*
X-140800Y124200D02*
Y125800D01*
X-139200D01*
Y124200D01*
X-140800D01*
X-140400Y124600D02*
Y125400D01*
X-139600D01*
Y124600D01*
X-140400D01*
X-140800Y94200D02*
Y95800D01*
X-139200D01*
Y94200D01*
X-140800D01*
X-140400Y94600D02*
Y95400D01*
X-139600D01*
Y94600D01*
X-140400D01*
X-140800Y84200D02*
Y85800D01*
X-139200D01*
Y84200D01*
X-140800D01*
X-140400Y84600D02*
Y85400D01*
X-139600D01*
Y84600D01*
X-140400D01*
X-100800Y34200D02*
Y35800D01*
X-99200D01*
Y34200D01*
X-100800D01*
X-100400Y34600D02*
Y35400D01*
X-99600D01*
Y34600D01*
X-100400D01*
X-60800Y-5800D02*
Y-4200D01*
X-59200D01*
Y-5800D01*
X-60800D01*
X-60400Y-5400D02*
Y-4600D01*
X-59600D01*
Y-5400D01*
X-60400D01*
X-85800Y-8300D02*
Y-6700D01*
X-84200D01*
Y-8300D01*
X-85800D01*
X-85400Y-7900D02*
Y-7100D01*
X-84600D01*
Y-7900D01*
X-85400D01*
X-138300Y4200D02*
Y5800D01*
X-136700D01*
Y4200D01*
X-138300D01*
X-137900Y4600D02*
Y5400D01*
X-137100D01*
Y4600D01*
X-137900D01*
X-158300Y-33300D02*
Y-31700D01*
X-156700D01*
Y-33300D01*
X-158300D01*
X-157900Y-32900D02*
Y-32100D01*
X-157100D01*
Y-32900D01*
X-157900D01*
X-115800Y-50800D02*
Y-49200D01*
X-114200D01*
Y-50800D01*
X-115800D01*
X-115400Y-50400D02*
Y-49600D01*
X-114600D01*
Y-50400D01*
X-115400D01*
X-135800Y-50800D02*
Y-49200D01*
X-134200D01*
Y-50800D01*
X-135800D01*
X-135400Y-50400D02*
Y-49600D01*
X-134600D01*
Y-50400D01*
X-135400D01*
X-155800Y-50800D02*
Y-49200D01*
X-154200D01*
Y-50800D01*
X-155800D01*
X-155400Y-50400D02*
Y-49600D01*
X-154600D01*
Y-50400D01*
X-155400D01*
X-175800Y-50800D02*
Y-49200D01*
X-174200D01*
Y-50800D01*
X-175800D01*
X-175400Y-50400D02*
Y-49600D01*
X-174600D01*
Y-50400D01*
X-175400D01*
X-195800Y-50800D02*
Y-49200D01*
X-194200D01*
Y-50800D01*
X-195800D01*
X-195400Y-50400D02*
Y-49600D01*
X-194600D01*
Y-50400D01*
X-195400D01*
X-195800Y-28300D02*
Y-26700D01*
X-194200D01*
Y-28300D01*
X-195800D01*
X-195400Y-27900D02*
Y-27100D01*
X-194600D01*
Y-27900D01*
X-195400D01*
X-195800Y-5800D02*
Y-4200D01*
X-194200D01*
Y-5800D01*
X-195800D01*
X-195400Y-5400D02*
Y-4600D01*
X-194600D01*
Y-5400D01*
X-195400D01*
X-195800Y14200D02*
Y15800D01*
X-194200D01*
Y14200D01*
X-195800D01*
X-195400Y14600D02*
Y15400D01*
X-194600D01*
Y14600D01*
X-195400D01*
X-195800Y34200D02*
Y35800D01*
X-194200D01*
Y34200D01*
X-195800D01*
X-195400Y34600D02*
Y35400D01*
X-194600D01*
Y34600D01*
X-195400D01*
X-195800Y69200D02*
Y70800D01*
X-194200D01*
Y69200D01*
X-195800D01*
X-195400Y69600D02*
Y70400D01*
X-194600D01*
Y69600D01*
X-195400D01*
X-195800Y89200D02*
Y90800D01*
X-194200D01*
Y89200D01*
X-195800D01*
X-195400Y89600D02*
Y90400D01*
X-194600D01*
Y89600D01*
X-195400D01*
X-195800Y109200D02*
Y110800D01*
X-194200D01*
Y109200D01*
X-195800D01*
X-195400Y109600D02*
Y110400D01*
X-194600D01*
Y109600D01*
X-195400D01*
X-195800Y129200D02*
Y130800D01*
X-194200D01*
Y129200D01*
X-195800D01*
X-195400Y129600D02*
Y130400D01*
X-194600D01*
Y129600D01*
X-195400D01*
X-195800Y149200D02*
Y150800D01*
X-194200D01*
Y149200D01*
X-195800D01*
X-195400Y149600D02*
Y150400D01*
X-194600D01*
Y149600D01*
X-195400D01*
D32*
X50800Y135000D02*
G03*
X50800Y135000I-800J0D01*
G01*
X40800D02*
G03*
X40800Y135000I-800J0D01*
G01*
X30800D02*
G03*
X30800Y135000I-800J0D01*
G01*
X20800D02*
G03*
X20800Y135000I-800J0D01*
G01*
X10800D02*
G03*
X10800Y135000I-800J0D01*
G01*
X800D02*
G03*
X800Y135000I-800J0D01*
G01*
X-9200D02*
G03*
X-9200Y135000I-800J0D01*
G01*
X-19200D02*
G03*
X-19200Y135000I-800J0D01*
G01*
X-35200D02*
G03*
X-35200Y135000I-800J0D01*
G01*
X-45200D02*
G03*
X-45200Y135000I-800J0D01*
G01*
X-55200D02*
G03*
X-55200Y135000I-800J0D01*
G01*
X-65200D02*
G03*
X-65200Y135000I-800J0D01*
G01*
X-75200D02*
G03*
X-75200Y135000I-800J0D01*
G01*
X-85200D02*
G03*
X-85200Y135000I-800J0D01*
G01*
X-95200D02*
G03*
X-95200Y135000I-800J0D01*
G01*
X-105200D02*
G03*
X-105200Y135000I-800J0D01*
G01*
X-115200D02*
G03*
X-115200Y135000I-800J0D01*
G01*
X-125200D02*
G03*
X-125200Y135000I-800J0D01*
G01*
X-119200Y95000D02*
G03*
X-119200Y95000I-800J0D01*
G01*
X-109200D02*
G03*
X-109200Y95000I-800J0D01*
G01*
X-99200D02*
G03*
X-99200Y95000I-800J0D01*
G01*
X-89200D02*
G03*
X-89200Y95000I-800J0D01*
G01*
X-119200Y105000D02*
G03*
X-119200Y105000I-800J0D01*
G01*
X-109200D02*
G03*
X-109200Y105000I-800J0D01*
G01*
X-99200D02*
G03*
X-99200Y105000I-800J0D01*
G01*
X-89200D02*
G03*
X-89200Y105000I-800J0D01*
G01*
X-99200Y65000D02*
G03*
X-99200Y65000I-800J0D01*
G01*
X-89200Y65000D02*
G03*
X-89200Y65000I-800J0D01*
G01*
X-99200Y-25000D02*
G03*
X-99200Y-25000I-800J0D01*
G01*
X-29200Y85000D02*
G03*
X-29200Y85000I-800J0D01*
G01*
X-99200Y45000D02*
G03*
X-99200Y45000I-800J0D01*
G01*
X-49200Y75000D02*
G03*
X-49200Y75000I-800J0D01*
G01*
X-79200D02*
G03*
X-79200Y75000I-800J0D01*
G01*
X-49200Y65000D02*
G03*
X-49200Y65000I-800J0D01*
G01*
Y55000D02*
G03*
X-49200Y55000I-800J0D01*
G01*
Y45000D02*
G03*
X-49200Y45000I-800J0D01*
G01*
X-79200D02*
G03*
X-79200Y45000I-800J0D01*
G01*
Y55000D02*
G03*
X-79200Y55000I-800J0D01*
G01*
Y65000D02*
G03*
X-79200Y65000I-800J0D01*
G01*
X-125200Y145000D02*
G03*
X-125200Y145000I-800J0D01*
G01*
X-115200D02*
G03*
X-115200Y145000I-800J0D01*
G01*
X-105200D02*
G03*
X-105200Y145000I-800J0D01*
G01*
X-95200D02*
G03*
X-95200Y145000I-800J0D01*
G01*
X-85200D02*
G03*
X-85200Y145000I-800J0D01*
G01*
X-75200D02*
G03*
X-75200Y145000I-800J0D01*
G01*
X-65200D02*
G03*
X-65200Y145000I-800J0D01*
G01*
X-55200D02*
G03*
X-55200Y145000I-800J0D01*
G01*
X-45200D02*
G03*
X-45200Y145000I-800J0D01*
G01*
X-35200D02*
G03*
X-35200Y145000I-800J0D01*
G01*
X30800D02*
G03*
X30800Y145000I-800J0D01*
G01*
X40800D02*
G03*
X40800Y145000I-800J0D01*
G01*
X-19200D02*
G03*
X-19200Y145000I-800J0D01*
G01*
X-9200D02*
G03*
X-9200Y145000I-800J0D01*
G01*
X800D02*
G03*
X800Y145000I-800J0D01*
G01*
X10800D02*
G03*
X10800Y145000I-800J0D01*
G01*
X20800D02*
G03*
X20800Y145000I-800J0D01*
G01*
X50800D02*
G03*
X50800Y145000I-800J0D01*
G01*
Y-45000D02*
G03*
X50800Y-45000I-800J0D01*
G01*
X40800D02*
G03*
X40800Y-45000I-800J0D01*
G01*
X30800D02*
G03*
X30800Y-45000I-800J0D01*
G01*
X20800D02*
G03*
X20800Y-45000I-800J0D01*
G01*
X10800D02*
G03*
X10800Y-45000I-800J0D01*
G01*
X800D02*
G03*
X800Y-45000I-800J0D01*
G01*
X-39200D02*
G03*
X-39200Y-45000I-800J0D01*
G01*
X-29200D02*
G03*
X-29200Y-45000I-800J0D01*
G01*
X-89200D02*
G03*
X-89200Y-45000I-800J0D01*
G01*
X-79200D02*
G03*
X-79200Y-45000I-800J0D01*
G01*
X-69200D02*
G03*
X-69200Y-45000I-800J0D01*
G01*
X-59200D02*
G03*
X-59200Y-45000I-800J0D01*
G01*
X-49200D02*
G03*
X-49200Y-45000I-800J0D01*
G01*
X-19200D02*
G03*
X-19200Y-45000I-800J0D01*
G01*
X-39200Y10000D02*
G03*
X-39200Y10000I-800J0D01*
G01*
X-29200D02*
G03*
X-29200Y10000I-800J0D01*
G01*
X-19200D02*
G03*
X-19200Y10000I-800J0D01*
G01*
X-9200D02*
G03*
X-9200Y10000I-800J0D01*
G01*
X800D02*
G03*
X800Y10000I-800J0D01*
G01*
X-89200Y2500D02*
G03*
X-89200Y2500I-800J0D01*
G01*
X-109200D02*
G03*
X-109200Y2500I-800J0D01*
G01*
X-49200Y105000D02*
G03*
X-49200Y105000I-800J0D01*
G01*
X-59200D02*
G03*
X-59200Y105000I-800J0D01*
G01*
X-69200D02*
G03*
X-69200Y105000I-800J0D01*
G01*
X-79200D02*
G03*
X-79200Y105000I-800J0D01*
G01*
X-119200Y125000D02*
G03*
X-119200Y125000I-800J0D01*
G01*
X-109200D02*
G03*
X-109200Y125000I-800J0D01*
G01*
X-129200D02*
G03*
X-129200Y125000I-800J0D01*
G01*
Y85000D02*
G03*
X-129200Y85000I-800J0D01*
G01*
Y95000D02*
G03*
X-129200Y95000I-800J0D01*
G01*
X-49200Y85000D02*
G03*
X-49200Y85000I-800J0D01*
G01*
X-59200D02*
G03*
X-59200Y85000I-800J0D01*
G01*
X-69200D02*
G03*
X-69200Y85000I-800J0D01*
G01*
X-79200D02*
G03*
X-79200Y85000I-800J0D01*
G01*
X-89200Y115000D02*
G03*
X-89200Y115000I-800J0D01*
G01*
X-99200D02*
G03*
X-99200Y115000I-800J0D01*
G01*
X-109200D02*
G03*
X-109200Y115000I-800J0D01*
G01*
X-119200D02*
G03*
X-119200Y115000I-800J0D01*
G01*
X-79200Y95000D02*
G03*
X-79200Y95000I-800J0D01*
G01*
X-69200D02*
G03*
X-69200Y95000I-800J0D01*
G01*
X-59200D02*
G03*
X-59200Y95000I-800J0D01*
G01*
X-49200D02*
G03*
X-49200Y95000I-800J0D01*
G01*
X-79200Y115000D02*
G03*
X-79200Y115000I-800J0D01*
G01*
X-69200D02*
G03*
X-69200Y115000I-800J0D01*
G01*
X-59200D02*
G03*
X-59200Y115000I-800J0D01*
G01*
X-49200D02*
G03*
X-49200Y115000I-800J0D01*
G01*
X-29200Y65000D02*
G03*
X-29200Y65000I-800J0D01*
G01*
X-39200D02*
G03*
X-39200Y65000I-800J0D01*
G01*
X-99200Y75000D02*
G03*
X-99200Y75000I-800J0D01*
G01*
X-89200D02*
G03*
X-89200Y75000I-800J0D01*
G01*
X-29200Y55000D02*
G03*
X-29200Y55000I-800J0D01*
G01*
X-39200D02*
G03*
X-39200Y55000I-800J0D01*
G01*
X-29200Y45000D02*
G03*
X-29200Y45000I-800J0D01*
G01*
X-39200D02*
G03*
X-39200Y45000I-800J0D01*
G01*
X-99200Y55000D02*
G03*
X-99200Y55000I-800J0D01*
G01*
X-89200D02*
G03*
X-89200Y55000I-800J0D01*
G01*
X-29200Y75000D02*
G03*
X-29200Y75000I-800J0D01*
G01*
X-39200D02*
G03*
X-39200Y75000I-800J0D01*
G01*
X-89200Y85000D02*
G03*
X-89200Y85000I-800J0D01*
G01*
X-99200D02*
G03*
X-99200Y85000I-800J0D01*
G01*
X-109200D02*
G03*
X-109200Y85000I-800J0D01*
G01*
X-119200D02*
G03*
X-119200Y85000I-800J0D01*
G01*
X-39200Y20000D02*
G03*
X-39200Y20000I-800J0D01*
G01*
X-29200D02*
G03*
X-29200Y20000I-800J0D01*
G01*
X-19200D02*
G03*
X-19200Y20000I-800J0D01*
G01*
X-9200D02*
G03*
X-9200Y20000I-800J0D01*
G01*
X800D02*
G03*
X800Y20000I-800J0D01*
G01*
X-144200Y-10000D02*
G03*
X-144200Y-10000I-800J0D01*
G01*
Y5000D02*
G03*
X-144200Y5000I-800J0D01*
G01*
M02*
