G04 Layer_Color=128*
%FSLAX25Y25*%
%MOIN*%
G70*
G01*
G75*
%ADD31C,0.00200*%
D31*
X-51575Y125000D02*
X-48425D01*
X-50000Y123425D02*
Y126575D01*
X-61575Y125000D02*
X-58425D01*
X-60000Y123425D02*
Y126575D01*
X-71575Y125000D02*
X-68425D01*
X-70000Y123425D02*
Y126575D01*
X-81575Y125000D02*
X-78425D01*
X-80000Y123425D02*
Y126575D01*
X-91575Y125000D02*
X-88425D01*
X-90000Y123425D02*
Y126575D01*
X-101575Y125000D02*
X-98425D01*
X-100000Y123425D02*
Y126575D01*
X-51575Y35000D02*
X-48425D01*
X-50000Y33425D02*
Y36575D01*
X-51575Y-5000D02*
X-48425D01*
X-50000Y-6575D02*
Y-3425D01*
X48500Y135000D02*
X51500D01*
X50000Y133500D02*
Y136500D01*
X38500Y135000D02*
X41500D01*
X40000Y133500D02*
Y136500D01*
X28500Y135000D02*
X31500D01*
X30000Y133500D02*
Y136500D01*
X18500Y135000D02*
X21500D01*
X20000Y133500D02*
Y136500D01*
X8500Y135000D02*
X11500D01*
X10000Y133500D02*
Y136500D01*
X-1500Y135000D02*
X1500D01*
X0Y133500D02*
Y136500D01*
X-11500Y135000D02*
X-8500D01*
X-10000Y133500D02*
Y136500D01*
X-21500Y135000D02*
X-18500D01*
X-20000Y133500D02*
Y136500D01*
X-37500Y135000D02*
X-34500D01*
X-36000Y133500D02*
Y136500D01*
X-47500Y135000D02*
X-44500D01*
X-46000Y133500D02*
Y136500D01*
X-57500Y135000D02*
X-54500D01*
X-56000Y133500D02*
Y136500D01*
X-67500Y135000D02*
X-64500D01*
X-66000Y133500D02*
Y136500D01*
X-77500Y135000D02*
X-74500D01*
X-76000Y133500D02*
Y136500D01*
X-87500Y135000D02*
X-84500D01*
X-86000Y133500D02*
Y136500D01*
X-97500Y135000D02*
X-94500D01*
X-96000Y133500D02*
Y136500D01*
X-107500Y135000D02*
X-104500D01*
X-106000Y133500D02*
Y136500D01*
X-117500Y135000D02*
X-114500D01*
X-116000Y133500D02*
Y136500D01*
X-127500Y135000D02*
X-124500D01*
X-126000Y133500D02*
Y136500D01*
X-121500Y95000D02*
X-118500D01*
X-120000Y93500D02*
Y96500D01*
X-111500Y95000D02*
X-108500D01*
X-110000Y93500D02*
Y96500D01*
X-101500Y95000D02*
X-98500D01*
X-100000Y93500D02*
Y96500D01*
X-91500Y95000D02*
X-88500D01*
X-90000Y93500D02*
Y96500D01*
X-121500Y105000D02*
X-118500D01*
X-120000Y103500D02*
Y106500D01*
X-111500Y105000D02*
X-108500D01*
X-110000Y103500D02*
Y106500D01*
X-101500Y105000D02*
X-98500D01*
X-100000Y103500D02*
Y106500D01*
X-91500Y105000D02*
X-88500D01*
X-90000Y103500D02*
Y106500D01*
X-101500Y65000D02*
X-98500D01*
X-100000Y63500D02*
Y66500D01*
X-91500Y65000D02*
X-88500D01*
X-90000Y63500D02*
Y66500D01*
X-101500Y-25000D02*
X-98500D01*
X-100000Y-26500D02*
Y-23500D01*
X-51575Y25000D02*
X-48425D01*
X-50000Y23425D02*
Y26575D01*
X-31500Y85000D02*
X-28500D01*
X-30000Y83500D02*
Y86500D01*
X-101500Y45000D02*
X-98500D01*
X-100000Y43500D02*
Y46500D01*
X-51500Y75000D02*
X-48500D01*
X-50000Y73500D02*
Y76500D01*
X-81500Y75000D02*
X-78500D01*
X-80000Y73500D02*
Y76500D01*
X-51500Y65000D02*
X-48500D01*
X-50000Y63500D02*
Y66500D01*
X-51500Y55000D02*
X-48500D01*
X-50000Y53500D02*
Y56500D01*
X-51500Y45000D02*
X-48500D01*
X-50000Y43500D02*
Y46500D01*
X-81500Y45000D02*
X-78500D01*
X-80000Y43500D02*
Y46500D01*
X-81500Y55000D02*
X-78500D01*
X-80000Y53500D02*
Y56500D01*
X-81500Y65000D02*
X-78500D01*
X-80000Y63500D02*
Y66500D01*
X-134173Y-10000D02*
X-130827D01*
X-132500Y-11673D02*
Y-8327D01*
X-94173Y-10000D02*
X-90827D01*
X-92500Y-11673D02*
Y-8327D01*
X-114173Y-25000D02*
X-110827D01*
X-112500Y-26673D02*
Y-23327D01*
X-154173Y-25000D02*
X-150827D01*
X-152500Y-26673D02*
Y-23327D01*
X-31673Y-25000D02*
X-28327D01*
X-30000Y-26673D02*
Y-23327D01*
X8327Y-25000D02*
X11673D01*
X10000Y-26673D02*
Y-23327D01*
X-160134Y38000D02*
X-151866D01*
X-156000Y33866D02*
Y42134D01*
X-154228Y52567D02*
X-145961D01*
X-150094Y48433D02*
Y56701D01*
X-193598Y52567D02*
X-185331D01*
X-189465Y48433D02*
Y56701D01*
X48780Y64803D02*
X52323D01*
X50551Y63032D02*
Y66575D01*
X58780Y64803D02*
X62323D01*
X60551Y63032D02*
Y66575D01*
X48780Y54803D02*
X52323D01*
X50551Y53032D02*
Y56575D01*
X58780Y54803D02*
X62323D01*
X60551Y53032D02*
Y56575D01*
X48780Y44803D02*
X52323D01*
X50551Y43031D02*
Y46575D01*
X58780Y44803D02*
X62323D01*
X60551Y43031D02*
Y46575D01*
X-127500Y145000D02*
X-124500D01*
X-126000Y143500D02*
Y146500D01*
X-117500Y145000D02*
X-114500D01*
X-116000Y143500D02*
Y146500D01*
X-107500Y145000D02*
X-104500D01*
X-106000Y143500D02*
Y146500D01*
X-97500Y145000D02*
X-94500D01*
X-96000Y143500D02*
Y146500D01*
X-87500Y145000D02*
X-84500D01*
X-86000Y143500D02*
Y146500D01*
X-77500Y145000D02*
X-74500D01*
X-76000Y143500D02*
Y146500D01*
X-67500Y145000D02*
X-64500D01*
X-66000Y143500D02*
Y146500D01*
X-57500Y145000D02*
X-54500D01*
X-56000Y143500D02*
Y146500D01*
X-47500Y145000D02*
X-44500D01*
X-46000Y143500D02*
Y146500D01*
X-37500Y145000D02*
X-34500D01*
X-36000Y143500D02*
Y146500D01*
X28500Y145000D02*
X31500D01*
X30000Y143500D02*
Y146500D01*
X38500Y145000D02*
X41500D01*
X40000Y143500D02*
Y146500D01*
X-21500Y145000D02*
X-18500D01*
X-20000Y143500D02*
Y146500D01*
X-11500Y145000D02*
X-8500D01*
X-10000Y143500D02*
Y146500D01*
X-1500Y145000D02*
X1500D01*
X0Y143500D02*
Y146500D01*
X8500Y145000D02*
X11500D01*
X10000Y143500D02*
Y146500D01*
X18500Y145000D02*
X21500D01*
X20000Y143500D02*
Y146500D01*
X48500Y145000D02*
X51500D01*
X50000Y143500D02*
Y146500D01*
X48500Y-45000D02*
X51500D01*
X50000Y-46500D02*
Y-43500D01*
X38500Y-45000D02*
X41500D01*
X40000Y-46500D02*
Y-43500D01*
X28500Y-45000D02*
X31500D01*
X30000Y-46500D02*
Y-43500D01*
X18500Y-45000D02*
X21500D01*
X20000Y-46500D02*
Y-43500D01*
X8500Y-45000D02*
X11500D01*
X10000Y-46500D02*
Y-43500D01*
X-1500Y-45000D02*
X1500D01*
X0Y-46500D02*
Y-43500D01*
X-41500Y-45000D02*
X-38500D01*
X-40000Y-46500D02*
Y-43500D01*
X-31500Y-45000D02*
X-28500D01*
X-30000Y-46500D02*
Y-43500D01*
X-91500Y-45000D02*
X-88500D01*
X-90000Y-46500D02*
Y-43500D01*
X-81500Y-45000D02*
X-78500D01*
X-80000Y-46500D02*
Y-43500D01*
X-71500Y-45000D02*
X-68500D01*
X-70000Y-46500D02*
Y-43500D01*
X-61500Y-45000D02*
X-58500D01*
X-60000Y-46500D02*
Y-43500D01*
X-51500Y-45000D02*
X-48500D01*
X-50000Y-46500D02*
Y-43500D01*
X-21500Y-45000D02*
X-18500D01*
X-20000Y-46500D02*
Y-43500D01*
X-41500Y10000D02*
X-38500D01*
X-40000Y8500D02*
Y11500D01*
X-31500Y10000D02*
X-28500D01*
X-30000Y8500D02*
Y11500D01*
X-21500Y10000D02*
X-18500D01*
X-20000Y8500D02*
Y11500D01*
X-11500Y10000D02*
X-8500D01*
X-10000Y8500D02*
Y11500D01*
X-1500Y10000D02*
X1500D01*
X0Y8500D02*
Y11500D01*
X-91500Y2500D02*
X-88500D01*
X-90000Y1000D02*
Y4000D01*
X-111500Y2500D02*
X-108500D01*
X-110000Y1000D02*
Y4000D01*
X-51500Y105000D02*
X-48500D01*
X-50000Y103500D02*
Y106500D01*
X-61500Y105000D02*
X-58500D01*
X-60000Y103500D02*
Y106500D01*
X-71500Y105000D02*
X-68500D01*
X-70000Y103500D02*
Y106500D01*
X-81500Y105000D02*
X-78500D01*
X-80000Y103500D02*
Y106500D01*
X-121500Y125000D02*
X-118500D01*
X-120000Y123500D02*
Y126500D01*
X-111500Y125000D02*
X-108500D01*
X-110000Y123500D02*
Y126500D01*
X-131500Y125000D02*
X-128500D01*
X-130000Y123500D02*
Y126500D01*
X-131500Y85000D02*
X-128500D01*
X-130000Y83500D02*
Y86500D01*
X-131500Y95000D02*
X-128500D01*
X-130000Y93500D02*
Y96500D01*
X-51500Y85000D02*
X-48500D01*
X-50000Y83500D02*
Y86500D01*
X-61500Y85000D02*
X-58500D01*
X-60000Y83500D02*
Y86500D01*
X-71500Y85000D02*
X-68500D01*
X-70000Y83500D02*
Y86500D01*
X-81500Y85000D02*
X-78500D01*
X-80000Y83500D02*
Y86500D01*
X-91500Y115000D02*
X-88500D01*
X-90000Y113500D02*
Y116500D01*
X-101500Y115000D02*
X-98500D01*
X-100000Y113500D02*
Y116500D01*
X-111500Y115000D02*
X-108500D01*
X-110000Y113500D02*
Y116500D01*
X-121500Y115000D02*
X-118500D01*
X-120000Y113500D02*
Y116500D01*
X-81500Y95000D02*
X-78500D01*
X-80000Y93500D02*
Y96500D01*
X-71500Y95000D02*
X-68500D01*
X-70000Y93500D02*
Y96500D01*
X-61500Y95000D02*
X-58500D01*
X-60000Y93500D02*
Y96500D01*
X-51500Y95000D02*
X-48500D01*
X-50000Y93500D02*
Y96500D01*
X-81500Y115000D02*
X-78500D01*
X-80000Y113500D02*
Y116500D01*
X-71500Y115000D02*
X-68500D01*
X-70000Y113500D02*
Y116500D01*
X-61500Y115000D02*
X-58500D01*
X-60000Y113500D02*
Y116500D01*
X-51500Y115000D02*
X-48500D01*
X-50000Y113500D02*
Y116500D01*
X-31500Y65000D02*
X-28500D01*
X-30000Y63500D02*
Y66500D01*
X-41500Y65000D02*
X-38500D01*
X-40000Y63500D02*
Y66500D01*
X-101500Y75000D02*
X-98500D01*
X-100000Y73500D02*
Y76500D01*
X-91500Y75000D02*
X-88500D01*
X-90000Y73500D02*
Y76500D01*
X-31500Y55000D02*
X-28500D01*
X-30000Y53500D02*
Y56500D01*
X-41500Y55000D02*
X-38500D01*
X-40000Y53500D02*
Y56500D01*
X-31500Y45000D02*
X-28500D01*
X-30000Y43500D02*
Y46500D01*
X-41500Y45000D02*
X-38500D01*
X-40000Y43500D02*
Y46500D01*
X-101500Y55000D02*
X-98500D01*
X-100000Y53500D02*
Y56500D01*
X-91500Y55000D02*
X-88500D01*
X-90000Y53500D02*
Y56500D01*
X-31500Y75000D02*
X-28500D01*
X-30000Y73500D02*
Y76500D01*
X-41500Y75000D02*
X-38500D01*
X-40000Y73500D02*
Y76500D01*
X-146299Y145000D02*
X-133701D01*
X-140000Y138701D02*
Y151299D01*
X53701Y85000D02*
X66299D01*
X60000Y78701D02*
Y91299D01*
X53701Y-25000D02*
X66299D01*
X60000Y-31299D02*
Y-18701D01*
X-151299Y-45000D02*
X-138701D01*
X-145000Y-51299D02*
Y-38701D01*
X-91500Y85000D02*
X-88500D01*
X-90000Y83500D02*
Y86500D01*
X-101500Y85000D02*
X-98500D01*
X-100000Y83500D02*
Y86500D01*
X-111500Y85000D02*
X-108500D01*
X-110000Y83500D02*
Y86500D01*
X-121500Y85000D02*
X-118500D01*
X-120000Y83500D02*
Y86500D01*
X-41500Y20000D02*
X-38500D01*
X-40000Y18500D02*
Y21500D01*
X-31500Y20000D02*
X-28500D01*
X-30000Y18500D02*
Y21500D01*
X-21500Y20000D02*
X-18500D01*
X-20000Y18500D02*
Y21500D01*
X-11500Y20000D02*
X-8500D01*
X-10000Y18500D02*
Y21500D01*
X-1500Y20000D02*
X1500D01*
X0Y18500D02*
Y21500D01*
X-51575Y15000D02*
X-48425D01*
X-50000Y13425D02*
Y16575D01*
X-51575Y5000D02*
X-48425D01*
X-50000Y3425D02*
Y6575D01*
X-146500Y-10000D02*
X-143500D01*
X-145000Y-11500D02*
Y-8500D01*
X-146500Y5000D02*
X-143500D01*
X-145000Y3500D02*
Y6500D01*
X-184468Y12500D02*
X-180532D01*
X-182500Y10531D02*
Y14469D01*
X-184468Y-7500D02*
X-180532D01*
X-182500Y-9469D02*
Y-5531D01*
X-184468Y-27500D02*
X-180532D01*
X-182500Y-29469D02*
Y-25532D01*
X-51575Y-25000D02*
X-48425D01*
X-50000Y-26575D02*
Y-23425D01*
X-51575Y-15000D02*
X-48425D01*
X-50000Y-16575D02*
Y-13425D01*
X-74075Y-25000D02*
X-70925D01*
X-72500Y-26575D02*
Y-23425D01*
X-81949Y-25000D02*
X-78799D01*
X-80374Y-26575D02*
Y-23425D01*
X39925Y-17500D02*
X43075D01*
X41500Y-19075D02*
Y-15925D01*
X19925Y-10000D02*
X23075D01*
X21500Y-11575D02*
Y-8425D01*
X19925Y-25000D02*
X23075D01*
X21500Y-26575D02*
Y-23425D01*
X-111575Y25000D02*
X-108425D01*
X-110000Y23425D02*
Y26575D01*
X-111575Y65000D02*
X-108425D01*
X-110000Y63425D02*
Y66575D01*
X-131575Y45000D02*
X-128425D01*
X-130000Y43425D02*
Y46575D01*
X-41575Y0D02*
X-38425D01*
X-40000Y-1575D02*
Y1575D01*
X-31575Y0D02*
X-28425D01*
X-30000Y-1575D02*
Y1575D01*
X-21575Y0D02*
X-18425D01*
X-20000Y-1575D02*
Y1575D01*
X-11575Y0D02*
X-8425D01*
X-10000Y-1575D02*
Y1575D01*
X-1575Y0D02*
X1575D01*
X0Y-1575D02*
Y1575D01*
X-85600Y50000D02*
X-84400D01*
X-85000Y49400D02*
Y50600D01*
X-95600Y50000D02*
X-94400D01*
X-95000Y49400D02*
Y50600D01*
X-95600Y60000D02*
X-94400D01*
X-95000Y59400D02*
Y60600D01*
X-95600Y70000D02*
X-94400D01*
X-95000Y69400D02*
Y70600D01*
X-85600Y70000D02*
X-84400D01*
X-85000Y69400D02*
Y70600D01*
X-85600Y60000D02*
X-84400D01*
X-85000Y59400D02*
Y60600D01*
X-45600Y50000D02*
X-44400D01*
X-45000Y49400D02*
Y50600D01*
X-35600Y50000D02*
X-34400D01*
X-35000Y49400D02*
Y50600D01*
X-35600Y60000D02*
X-34400D01*
X-35000Y59400D02*
Y60600D01*
X-45600Y60000D02*
X-44400D01*
X-45000Y59400D02*
Y60600D01*
X-45600Y70000D02*
X-44400D01*
X-45000Y69400D02*
Y70600D01*
X-35600Y70000D02*
X-34400D01*
X-35000Y69400D02*
Y70600D01*
X-160600Y47500D02*
X-159400D01*
X-160000Y46900D02*
Y48100D01*
X-35600Y5000D02*
X-34400D01*
X-35000Y4400D02*
Y5600D01*
X-25600Y5000D02*
X-24400D01*
X-25000Y4400D02*
Y5600D01*
X-15600Y5000D02*
X-14400D01*
X-15000Y4400D02*
Y5600D01*
X-5600Y5000D02*
X-4400D01*
X-5000Y4400D02*
Y5600D01*
X-5600Y15000D02*
X-4400D01*
X-5000Y14400D02*
Y15600D01*
X-15600Y15000D02*
X-14400D01*
X-15000Y14400D02*
Y15600D01*
X-25600Y15000D02*
X-24400D01*
X-25000Y14400D02*
Y15600D01*
X-35600Y15000D02*
X-34400D01*
X-35000Y14400D02*
Y15600D01*
X-105600Y80000D02*
X-104400D01*
X-105000Y79400D02*
Y80600D01*
X-95600Y80000D02*
X-94400D01*
X-95000Y79400D02*
Y80600D01*
X-115600Y77500D02*
X-114400D01*
X-115000Y76900D02*
Y78100D01*
X-115600Y110000D02*
X-114400D01*
X-115000Y109400D02*
Y110600D01*
X-105600Y110000D02*
X-104400D01*
X-105000Y109400D02*
Y110600D01*
X-95600Y110000D02*
X-94400D01*
X-95000Y109400D02*
Y110600D01*
X-125600Y120000D02*
X-124400D01*
X-125000Y119400D02*
Y120600D01*
X-115600Y120000D02*
X-114400D01*
X-115000Y119400D02*
Y120600D01*
X-105600Y120000D02*
X-104400D01*
X-105000Y119400D02*
Y120600D01*
X-95600Y120000D02*
X-94400D01*
X-95000Y119400D02*
Y120600D01*
X-85600Y120000D02*
X-84400D01*
X-85000Y119400D02*
Y120600D01*
X-75600Y120000D02*
X-74400D01*
X-75000Y119400D02*
Y120600D01*
X-65600Y120000D02*
X-64400D01*
X-65000Y119400D02*
Y120600D01*
X-55600Y120000D02*
X-54400D01*
X-55000Y119400D02*
Y120600D01*
X-75600Y110000D02*
X-74400D01*
X-75000Y109400D02*
Y110600D01*
X-65600Y110000D02*
X-64400D01*
X-65000Y109400D02*
Y110600D01*
X-55600Y110000D02*
X-54400D01*
X-55000Y109400D02*
Y110600D01*
X-55600Y90000D02*
X-54400D01*
X-55000Y89400D02*
Y90600D01*
X-65600Y90000D02*
X-64400D01*
X-65000Y89400D02*
Y90600D01*
X-75600Y90000D02*
X-74400D01*
X-75000Y89400D02*
Y90600D01*
X61920Y132854D02*
X63120D01*
X62520Y132254D02*
Y133454D01*
X61920Y112854D02*
X63120D01*
X62520Y112254D02*
Y113454D01*
X61920Y72854D02*
X63120D01*
X62520Y72254D02*
Y73454D01*
X61920Y32854D02*
X63120D01*
X62520Y32254D02*
Y33454D01*
X61920Y12854D02*
X63120D01*
X62520Y12254D02*
Y13454D01*
X61920Y-7146D02*
X63120D01*
X62520Y-7746D02*
Y-6546D01*
X61920Y-47146D02*
X63120D01*
X62520Y-47746D02*
Y-46546D01*
X56920Y142854D02*
X58120D01*
X57520Y142254D02*
Y143454D01*
X56920Y122854D02*
X58120D01*
X57520Y122254D02*
Y123454D01*
X51920Y112854D02*
X53120D01*
X52520Y112254D02*
Y113454D01*
X56920Y102854D02*
X58120D01*
X57520Y102254D02*
Y103454D01*
X51920Y92854D02*
X53120D01*
X52520Y92254D02*
Y93454D01*
X51920Y72854D02*
X53120D01*
X52520Y72254D02*
Y73454D01*
X51920Y32854D02*
X53120D01*
X52520Y32254D02*
Y33454D01*
X56920Y22854D02*
X58120D01*
X57520Y22254D02*
Y23454D01*
X51920Y12854D02*
X53120D01*
X52520Y12254D02*
Y13454D01*
X56920Y2854D02*
X58120D01*
X57520Y2254D02*
Y3454D01*
X51920Y-7146D02*
X53120D01*
X52520Y-7746D02*
Y-6546D01*
X56920Y-37146D02*
X58120D01*
X57520Y-37746D02*
Y-36546D01*
X46920Y122854D02*
X48120D01*
X47520Y122254D02*
Y123454D01*
X41920Y112854D02*
X43120D01*
X42520Y112254D02*
Y113454D01*
X46920Y102854D02*
X48120D01*
X47520Y102254D02*
Y103454D01*
X41920Y92854D02*
X43120D01*
X42520Y92254D02*
Y93454D01*
X46920Y82854D02*
X48120D01*
X47520Y82254D02*
Y83454D01*
X41920Y72854D02*
X43120D01*
X42520Y72254D02*
Y73454D01*
X41920Y52854D02*
X43120D01*
X42520Y52254D02*
Y53454D01*
X41920Y32854D02*
X43120D01*
X42520Y32254D02*
Y33454D01*
X46920Y22854D02*
X48120D01*
X47520Y22254D02*
Y23454D01*
X41920Y12854D02*
X43120D01*
X42520Y12254D02*
Y13454D01*
X46920Y2854D02*
X48120D01*
X47520Y2254D02*
Y3454D01*
X41920Y-7146D02*
X43120D01*
X42520Y-7746D02*
Y-6546D01*
X46920Y-17146D02*
X48120D01*
X47520Y-17746D02*
Y-16546D01*
X46920Y-37146D02*
X48120D01*
X47520Y-37746D02*
Y-36546D01*
X36920Y122854D02*
X38120D01*
X37520Y122254D02*
Y123454D01*
X31920Y112854D02*
X33120D01*
X32520Y112254D02*
Y113454D01*
X36920Y102854D02*
X38120D01*
X37520Y102254D02*
Y103454D01*
X31920Y92854D02*
X33120D01*
X32520Y92254D02*
Y93454D01*
X36920Y82854D02*
X38120D01*
X37520Y82254D02*
Y83454D01*
X31920Y72854D02*
X33120D01*
X32520Y72254D02*
Y73454D01*
X36920Y62854D02*
X38120D01*
X37520Y62254D02*
Y63454D01*
X31920Y52854D02*
X33120D01*
X32520Y52254D02*
Y53454D01*
X36920Y42854D02*
X38120D01*
X37520Y42254D02*
Y43454D01*
X31920Y32854D02*
X33120D01*
X32520Y32254D02*
Y33454D01*
X36920Y22854D02*
X38120D01*
X37520Y22254D02*
Y23454D01*
X31920Y12854D02*
X33120D01*
X32520Y12254D02*
Y13454D01*
X36920Y2854D02*
X38120D01*
X37520Y2254D02*
Y3454D01*
X31920Y-7146D02*
X33120D01*
X32520Y-7746D02*
Y-6546D01*
X31920Y-27146D02*
X33120D01*
X32520Y-27746D02*
Y-26546D01*
X36920Y-37146D02*
X38120D01*
X37520Y-37746D02*
Y-36546D01*
X26920Y122854D02*
X28120D01*
X27520Y122254D02*
Y123454D01*
X21920Y112854D02*
X23120D01*
X22520Y112254D02*
Y113454D01*
X26920Y102854D02*
X28120D01*
X27520Y102254D02*
Y103454D01*
X21920Y92854D02*
X23120D01*
X22520Y92254D02*
Y93454D01*
X26920Y82854D02*
X28120D01*
X27520Y82254D02*
Y83454D01*
X21920Y72854D02*
X23120D01*
X22520Y72254D02*
Y73454D01*
X26920Y62854D02*
X28120D01*
X27520Y62254D02*
Y63454D01*
X21920Y52854D02*
X23120D01*
X22520Y52254D02*
Y53454D01*
X26920Y42854D02*
X28120D01*
X27520Y42254D02*
Y43454D01*
X21920Y32854D02*
X23120D01*
X22520Y32254D02*
Y33454D01*
X26920Y22854D02*
X28120D01*
X27520Y22254D02*
Y23454D01*
X21920Y12854D02*
X23120D01*
X22520Y12254D02*
Y13454D01*
X26920Y2854D02*
X28120D01*
X27520Y2254D02*
Y3454D01*
X26920Y-17146D02*
X28120D01*
X27520Y-17746D02*
Y-16546D01*
X16920Y122854D02*
X18120D01*
X17520Y122254D02*
Y123454D01*
X11920Y112854D02*
X13120D01*
X12520Y112254D02*
Y113454D01*
X16920Y102854D02*
X18120D01*
X17520Y102254D02*
Y103454D01*
X11920Y92854D02*
X13120D01*
X12520Y92254D02*
Y93454D01*
X16920Y82854D02*
X18120D01*
X17520Y82254D02*
Y83454D01*
X11920Y72854D02*
X13120D01*
X12520Y72254D02*
Y73454D01*
X16920Y62854D02*
X18120D01*
X17520Y62254D02*
Y63454D01*
X11920Y52854D02*
X13120D01*
X12520Y52254D02*
Y53454D01*
X16920Y42854D02*
X18120D01*
X17520Y42254D02*
Y43454D01*
X11920Y32854D02*
X13120D01*
X12520Y32254D02*
Y33454D01*
X16920Y22854D02*
X18120D01*
X17520Y22254D02*
Y23454D01*
X11920Y12854D02*
X13120D01*
X12520Y12254D02*
Y13454D01*
X16920Y2854D02*
X18120D01*
X17520Y2254D02*
Y3454D01*
X16920Y-17146D02*
X18120D01*
X17520Y-17746D02*
Y-16546D01*
X6920Y122854D02*
X8120D01*
X7520Y122254D02*
Y123454D01*
X1920Y112854D02*
X3120D01*
X2520Y112254D02*
Y113454D01*
X6920Y102854D02*
X8120D01*
X7520Y102254D02*
Y103454D01*
X1920Y92854D02*
X3120D01*
X2520Y92254D02*
Y93454D01*
X6920Y82854D02*
X8120D01*
X7520Y82254D02*
Y83454D01*
X1920Y72854D02*
X3120D01*
X2520Y72254D02*
Y73454D01*
X6920Y62854D02*
X8120D01*
X7520Y62254D02*
Y63454D01*
X1920Y52854D02*
X3120D01*
X2520Y52254D02*
Y53454D01*
X6920Y42854D02*
X8120D01*
X7520Y42254D02*
Y43454D01*
X1920Y32854D02*
X3120D01*
X2520Y32254D02*
Y33454D01*
X6920Y22854D02*
X8120D01*
X7520Y22254D02*
Y23454D01*
X6920Y2854D02*
X8120D01*
X7520Y2254D02*
Y3454D01*
X1920Y-7146D02*
X3120D01*
X2520Y-7746D02*
Y-6546D01*
X6920Y-17146D02*
X8120D01*
X7520Y-17746D02*
Y-16546D01*
X1920Y-27146D02*
X3120D01*
X2520Y-27746D02*
Y-26546D01*
X6920Y-37146D02*
X8120D01*
X7520Y-37746D02*
Y-36546D01*
X-3080Y122854D02*
X-1880D01*
X-2480Y122254D02*
Y123454D01*
X-8080Y112854D02*
X-6880D01*
X-7480Y112254D02*
Y113454D01*
X-3080Y102854D02*
X-1880D01*
X-2480Y102254D02*
Y103454D01*
X-8080Y92854D02*
X-6880D01*
X-7480Y92254D02*
Y93454D01*
X-3080Y82854D02*
X-1880D01*
X-2480Y82254D02*
Y83454D01*
X-8080Y72854D02*
X-6880D01*
X-7480Y72254D02*
Y73454D01*
X-3080Y62854D02*
X-1880D01*
X-2480Y62254D02*
Y63454D01*
X-8080Y52854D02*
X-6880D01*
X-7480Y52254D02*
Y53454D01*
X-3080Y42854D02*
X-1880D01*
X-2480Y42254D02*
Y43454D01*
X-8080Y32854D02*
X-6880D01*
X-7480Y32254D02*
Y33454D01*
X-8080Y-7146D02*
X-6880D01*
X-7480Y-7746D02*
Y-6546D01*
X-3080Y-17146D02*
X-1880D01*
X-2480Y-17746D02*
Y-16546D01*
X-8080Y-27146D02*
X-6880D01*
X-7480Y-27746D02*
Y-26546D01*
X-3080Y-37146D02*
X-1880D01*
X-2480Y-37746D02*
Y-36546D01*
X-8080Y-47146D02*
X-6880D01*
X-7480Y-47746D02*
Y-46546D01*
X-13080Y122854D02*
X-11880D01*
X-12480Y122254D02*
Y123454D01*
X-18080Y112854D02*
X-16880D01*
X-17480Y112254D02*
Y113454D01*
X-13080Y102854D02*
X-11880D01*
X-12480Y102254D02*
Y103454D01*
X-13080Y42854D02*
X-11880D01*
X-12480Y42254D02*
Y43454D01*
X-18080Y-7146D02*
X-16880D01*
X-17480Y-7746D02*
Y-6546D01*
X-13080Y-17146D02*
X-11880D01*
X-12480Y-17746D02*
Y-16546D01*
X-18080Y-27146D02*
X-16880D01*
X-17480Y-27746D02*
Y-26546D01*
X-13080Y-37146D02*
X-11880D01*
X-12480Y-37746D02*
Y-36546D01*
X-28080Y132854D02*
X-26880D01*
X-27480Y132254D02*
Y133454D01*
X-23080Y122854D02*
X-21880D01*
X-22480Y122254D02*
Y123454D01*
X-28080Y112854D02*
X-26880D01*
X-27480Y112254D02*
Y113454D01*
X-23080Y62854D02*
X-21880D01*
X-22480Y62254D02*
Y63454D01*
X-28080Y32854D02*
X-26880D01*
X-27480Y32254D02*
Y33454D01*
X-28080Y-7146D02*
X-26880D01*
X-27480Y-7746D02*
Y-6546D01*
X-23080Y-17146D02*
X-21880D01*
X-22480Y-17746D02*
Y-16546D01*
X-23080Y-37146D02*
X-21880D01*
X-22480Y-37746D02*
Y-36546D01*
X-33080Y122854D02*
X-31880D01*
X-32480Y122254D02*
Y123454D01*
X-38080Y32854D02*
X-36880D01*
X-37480Y32254D02*
Y33454D01*
X-38080Y-7146D02*
X-36880D01*
X-37480Y-7746D02*
Y-6546D01*
X-33080Y-17146D02*
X-31880D01*
X-32480Y-17746D02*
Y-16546D01*
X-33080Y-37146D02*
X-31880D01*
X-32480Y-37746D02*
Y-36546D01*
X-43080Y82854D02*
X-41880D01*
X-42480Y82254D02*
Y83454D01*
X-43080Y-17146D02*
X-41880D01*
X-42480Y-17746D02*
Y-16546D01*
X-43080Y-37146D02*
X-41880D01*
X-42480Y-37746D02*
Y-36546D01*
X-58080Y72854D02*
X-56880D01*
X-57480Y72254D02*
Y73454D01*
X-58080Y12854D02*
X-56880D01*
X-57480Y12254D02*
Y13454D01*
X-58080Y-7146D02*
X-56880D01*
X-57480Y-7746D02*
Y-6546D01*
X-53080Y-37146D02*
X-51880D01*
X-52480Y-37746D02*
Y-36546D01*
X-68080Y72854D02*
X-66880D01*
X-67480Y72254D02*
Y73454D01*
X-68080Y12854D02*
X-66880D01*
X-67480Y12254D02*
Y13454D01*
X-63080Y2854D02*
X-61880D01*
X-62480Y2254D02*
Y3454D01*
X-68080Y-7146D02*
X-66880D01*
X-67480Y-7746D02*
Y-6546D01*
X-63080Y-17146D02*
X-61880D01*
X-62480Y-17746D02*
Y-16546D01*
X-63080Y-37146D02*
X-61880D01*
X-62480Y-37746D02*
Y-36546D01*
X-73080Y62854D02*
X-71880D01*
X-72480Y62254D02*
Y63454D01*
X-73080Y42854D02*
X-71880D01*
X-72480Y42254D02*
Y43454D01*
X-78080Y32854D02*
X-76880D01*
X-77480Y32254D02*
Y33454D01*
X-73080Y2854D02*
X-71880D01*
X-72480Y2254D02*
Y3454D01*
X-78080Y-7146D02*
X-76880D01*
X-77480Y-7746D02*
Y-6546D01*
X-73080Y-17146D02*
X-71880D01*
X-72480Y-17746D02*
Y-16546D01*
X-73080Y-37146D02*
X-71880D01*
X-72480Y-37746D02*
Y-36546D01*
X-88080Y32854D02*
X-86880D01*
X-87480Y32254D02*
Y33454D01*
X-83080Y22854D02*
X-81880D01*
X-82480Y22254D02*
Y23454D01*
X-83080Y-17146D02*
X-81880D01*
X-82480Y-17746D02*
Y-16546D01*
X-83080Y-37146D02*
X-81880D01*
X-82480Y-37746D02*
Y-36546D01*
X-93080Y42854D02*
X-91880D01*
X-92480Y42254D02*
Y43454D01*
X-98080Y32854D02*
X-96880D01*
X-97480Y32254D02*
Y33454D01*
X-93080Y22854D02*
X-91880D01*
X-92480Y22254D02*
Y23454D01*
X-98080Y-7146D02*
X-96880D01*
X-97480Y-7746D02*
Y-6546D01*
X-93080Y-37146D02*
X-91880D01*
X-92480Y-37746D02*
Y-36546D01*
X-98080Y-47146D02*
X-96880D01*
X-97480Y-47746D02*
Y-46546D01*
X-108080Y72854D02*
X-106880D01*
X-107480Y72254D02*
Y73454D01*
X-108080Y52854D02*
X-106880D01*
X-107480Y52254D02*
Y53454D01*
X-108080Y32854D02*
X-106880D01*
X-107480Y32254D02*
Y33454D01*
X-103080Y22854D02*
X-101880D01*
X-102480Y22254D02*
Y23454D01*
X-103080Y2854D02*
X-101880D01*
X-102480Y2254D02*
Y3454D01*
X-103080Y-17146D02*
X-101880D01*
X-102480Y-17746D02*
Y-16546D01*
X-103080Y-37146D02*
X-101880D01*
X-102480Y-37746D02*
Y-36546D01*
X-108080Y-47146D02*
X-106880D01*
X-107480Y-47746D02*
Y-46546D01*
X-118080Y72854D02*
X-116880D01*
X-117480Y72254D02*
Y73454D01*
X-118080Y52854D02*
X-116880D01*
X-117480Y52254D02*
Y53454D01*
X-113080Y42854D02*
X-111880D01*
X-112480Y42254D02*
Y43454D01*
X-118080Y32854D02*
X-116880D01*
X-117480Y32254D02*
Y33454D01*
X-118080Y-7146D02*
X-116880D01*
X-117480Y-7746D02*
Y-6546D01*
X-113080Y-17146D02*
X-111880D01*
X-112480Y-17746D02*
Y-16546D01*
X-118080Y-27146D02*
X-116880D01*
X-117480Y-27746D02*
Y-26546D01*
X-113080Y-37146D02*
X-111880D01*
X-112480Y-37746D02*
Y-36546D01*
X-118080Y-47146D02*
X-116880D01*
X-117480Y-47746D02*
Y-46546D01*
X-128080Y112854D02*
X-126880D01*
X-127480Y112254D02*
Y113454D01*
X-123080Y62854D02*
X-121880D01*
X-122480Y62254D02*
Y63454D01*
X-128080Y52854D02*
X-126880D01*
X-127480Y52254D02*
Y53454D01*
X-123080Y42854D02*
X-121880D01*
X-122480Y42254D02*
Y43454D01*
X-128080Y32854D02*
X-126880D01*
X-127480Y32254D02*
Y33454D01*
X-123080Y22854D02*
X-121880D01*
X-122480Y22254D02*
Y23454D01*
X-123080Y2854D02*
X-121880D01*
X-122480Y2254D02*
Y3454D01*
X-128080Y-7146D02*
X-126880D01*
X-127480Y-7746D02*
Y-6546D01*
X-123080Y-17146D02*
X-121880D01*
X-122480Y-17746D02*
Y-16546D01*
X-128080Y-27146D02*
X-126880D01*
X-127480Y-27746D02*
Y-26546D01*
X-123080Y-37146D02*
X-121880D01*
X-122480Y-37746D02*
Y-36546D01*
X-128080Y-47146D02*
X-126880D01*
X-127480Y-47746D02*
Y-46546D01*
X-138080Y132854D02*
X-136880D01*
X-137480Y132254D02*
Y133454D01*
X-138080Y112854D02*
X-136880D01*
X-137480Y112254D02*
Y113454D01*
X-133080Y102854D02*
X-131880D01*
X-132480Y102254D02*
Y103454D01*
X-138080Y92854D02*
X-136880D01*
X-137480Y92254D02*
Y93454D01*
X-138080Y72854D02*
X-136880D01*
X-137480Y72254D02*
Y73454D01*
X-133080Y62854D02*
X-131880D01*
X-132480Y62254D02*
Y63454D01*
X-138080Y52854D02*
X-136880D01*
X-137480Y52254D02*
Y53454D01*
X-138080Y32854D02*
X-136880D01*
X-137480Y32254D02*
Y33454D01*
X-133080Y22854D02*
X-131880D01*
X-132480Y22254D02*
Y23454D01*
X-133080Y2854D02*
X-131880D01*
X-132480Y2254D02*
Y3454D01*
X-133080Y-17146D02*
X-131880D01*
X-132480Y-17746D02*
Y-16546D01*
X-138080Y-27146D02*
X-136880D01*
X-137480Y-27746D02*
Y-26546D01*
X-133080Y-37146D02*
X-131880D01*
X-132480Y-37746D02*
Y-36546D01*
X-148080Y132854D02*
X-146880D01*
X-147480Y132254D02*
Y133454D01*
X-143080Y122854D02*
X-141880D01*
X-142480Y122254D02*
Y123454D01*
X-148080Y112854D02*
X-146880D01*
X-147480Y112254D02*
Y113454D01*
X-143080Y102854D02*
X-141880D01*
X-142480Y102254D02*
Y103454D01*
X-148080Y92854D02*
X-146880D01*
X-147480Y92254D02*
Y93454D01*
X-143080Y82854D02*
X-141880D01*
X-142480Y82254D02*
Y83454D01*
X-148080Y72854D02*
X-146880D01*
X-147480Y72254D02*
Y73454D01*
X-143080Y62854D02*
X-141880D01*
X-142480Y62254D02*
Y63454D01*
X-143080Y42854D02*
X-141880D01*
X-142480Y42254D02*
Y43454D01*
X-148080Y32854D02*
X-146880D01*
X-147480Y32254D02*
Y33454D01*
X-143080Y22854D02*
X-141880D01*
X-142480Y22254D02*
Y23454D01*
X-143080Y-17146D02*
X-141880D01*
X-142480Y-17746D02*
Y-16546D01*
X-148080Y-27146D02*
X-146880D01*
X-147480Y-27746D02*
Y-26546D01*
X-153080Y142854D02*
X-151880D01*
X-152480Y142254D02*
Y143454D01*
X-158080Y132854D02*
X-156880D01*
X-157480Y132254D02*
Y133454D01*
X-153080Y122854D02*
X-151880D01*
X-152480Y122254D02*
Y123454D01*
X-158080Y112854D02*
X-156880D01*
X-157480Y112254D02*
Y113454D01*
X-153080Y102854D02*
X-151880D01*
X-152480Y102254D02*
Y103454D01*
X-158080Y92854D02*
X-156880D01*
X-157480Y92254D02*
Y93454D01*
X-153080Y82854D02*
X-151880D01*
X-152480Y82254D02*
Y83454D01*
X-158080Y72854D02*
X-156880D01*
X-157480Y72254D02*
Y73454D01*
X-153080Y62854D02*
X-151880D01*
X-152480Y62254D02*
Y63454D01*
X-153080Y22854D02*
X-151880D01*
X-152480Y22254D02*
Y23454D01*
X-153080Y-17146D02*
X-151880D01*
X-152480Y-17746D02*
Y-16546D01*
X-158080Y-27146D02*
X-156880D01*
X-157480Y-27746D02*
Y-26546D01*
X-153080Y-37146D02*
X-151880D01*
X-152480Y-37746D02*
Y-36546D01*
X-158080Y-47146D02*
X-156880D01*
X-157480Y-47746D02*
Y-46546D01*
X-163080Y142854D02*
X-161880D01*
X-162480Y142254D02*
Y143454D01*
X-168080Y132854D02*
X-166880D01*
X-167480Y132254D02*
Y133454D01*
X-163080Y122854D02*
X-161880D01*
X-162480Y122254D02*
Y123454D01*
X-168080Y112854D02*
X-166880D01*
X-167480Y112254D02*
Y113454D01*
X-163080Y102854D02*
X-161880D01*
X-162480Y102254D02*
Y103454D01*
X-168080Y92854D02*
X-166880D01*
X-167480Y92254D02*
Y93454D01*
X-163080Y82854D02*
X-161880D01*
X-162480Y82254D02*
Y83454D01*
X-168080Y72854D02*
X-166880D01*
X-167480Y72254D02*
Y73454D01*
X-163080Y62854D02*
X-161880D01*
X-162480Y62254D02*
Y63454D01*
X-168080Y52854D02*
X-166880D01*
X-167480Y52254D02*
Y53454D01*
X-168080Y32854D02*
X-166880D01*
X-167480Y32254D02*
Y33454D01*
X-163080Y22854D02*
X-161880D01*
X-162480Y22254D02*
Y23454D01*
X-163080Y2854D02*
X-161880D01*
X-162480Y2254D02*
Y3454D01*
X-163080Y-17146D02*
X-161880D01*
X-162480Y-17746D02*
Y-16546D01*
X-168080Y-27146D02*
X-166880D01*
X-167480Y-27746D02*
Y-26546D01*
X-163080Y-37146D02*
X-161880D01*
X-162480Y-37746D02*
Y-36546D01*
X-168080Y-47146D02*
X-166880D01*
X-167480Y-47746D02*
Y-46546D01*
X-173080Y142854D02*
X-171880D01*
X-172480Y142254D02*
Y143454D01*
X-178080Y132854D02*
X-176880D01*
X-177480Y132254D02*
Y133454D01*
X-173080Y122854D02*
X-171880D01*
X-172480Y122254D02*
Y123454D01*
X-178080Y112854D02*
X-176880D01*
X-177480Y112254D02*
Y113454D01*
X-173080Y102854D02*
X-171880D01*
X-172480Y102254D02*
Y103454D01*
X-178080Y92854D02*
X-176880D01*
X-177480Y92254D02*
Y93454D01*
X-173080Y82854D02*
X-171880D01*
X-172480Y82254D02*
Y83454D01*
X-178080Y72854D02*
X-176880D01*
X-177480Y72254D02*
Y73454D01*
X-173080Y62854D02*
X-171880D01*
X-172480Y62254D02*
Y63454D01*
X-178080Y52854D02*
X-176880D01*
X-177480Y52254D02*
Y53454D01*
X-173080Y42854D02*
X-171880D01*
X-172480Y42254D02*
Y43454D01*
X-178080Y32854D02*
X-176880D01*
X-177480Y32254D02*
Y33454D01*
X-173080Y22854D02*
X-171880D01*
X-172480Y22254D02*
Y23454D01*
X-173080Y2854D02*
X-171880D01*
X-172480Y2254D02*
Y3454D01*
X-173080Y-17146D02*
X-171880D01*
X-172480Y-17746D02*
Y-16546D01*
X-173080Y-37146D02*
X-171880D01*
X-172480Y-37746D02*
Y-36546D01*
X-178080Y-47146D02*
X-176880D01*
X-177480Y-47746D02*
Y-46546D01*
X-183080Y142854D02*
X-181880D01*
X-182480Y142254D02*
Y143454D01*
X-188080Y132854D02*
X-186880D01*
X-187480Y132254D02*
Y133454D01*
X-183080Y122854D02*
X-181880D01*
X-182480Y122254D02*
Y123454D01*
X-188080Y112854D02*
X-186880D01*
X-187480Y112254D02*
Y113454D01*
X-183080Y102854D02*
X-181880D01*
X-182480Y102254D02*
Y103454D01*
X-188080Y92854D02*
X-186880D01*
X-187480Y92254D02*
Y93454D01*
X-183080Y82854D02*
X-181880D01*
X-182480Y82254D02*
Y83454D01*
X-188080Y72854D02*
X-186880D01*
X-187480Y72254D02*
Y73454D01*
X-183080Y62854D02*
X-181880D01*
X-182480Y62254D02*
Y63454D01*
X-183080Y42854D02*
X-181880D01*
X-182480Y42254D02*
Y43454D01*
X-188080Y32854D02*
X-186880D01*
X-187480Y32254D02*
Y33454D01*
X-183080Y22854D02*
X-181880D01*
X-182480Y22254D02*
Y23454D01*
X-183080Y-17146D02*
X-181880D01*
X-182480Y-17746D02*
Y-16546D01*
X-183080Y-37146D02*
X-181880D01*
X-182480Y-37746D02*
Y-36546D01*
X-188080Y-47146D02*
X-186880D01*
X-187480Y-47746D02*
Y-46546D01*
X-90600Y-17500D02*
X-89400D01*
X-90000Y-18100D02*
Y-16900D01*
X-153100Y0D02*
X-151900D01*
X-152500Y-600D02*
Y600D01*
X-65600Y77500D02*
X-64400D01*
X-65000Y76900D02*
Y78100D01*
X-40600Y85000D02*
X-39400D01*
X-40000Y84400D02*
Y85600D01*
X-158100Y-15000D02*
X-156900D01*
X-157500Y-15600D02*
Y-14400D01*
X64400Y-40000D02*
X65600D01*
X65000Y-40600D02*
Y-39400D01*
X64400Y-5000D02*
X65600D01*
X65000Y-5600D02*
Y-4400D01*
X64400Y15000D02*
X65600D01*
X65000Y14400D02*
Y15600D01*
X64400Y35000D02*
X65600D01*
X65000Y34400D02*
Y35600D01*
X64400Y105000D02*
X65600D01*
X65000Y104400D02*
Y105600D01*
X64400Y125000D02*
X65600D01*
X65000Y124400D02*
Y125600D01*
X59400Y145000D02*
X60600D01*
X60000Y144400D02*
Y145600D01*
X-40600Y37500D02*
X-39400D01*
X-40000Y36900D02*
Y38100D01*
X-40600Y30000D02*
X-39400D01*
X-40000Y29400D02*
Y30600D01*
X-60600Y15000D02*
X-59400D01*
X-60000Y14400D02*
Y15600D01*
X-60600Y5000D02*
X-59400D01*
X-60000Y4400D02*
Y5600D01*
X-140600Y115000D02*
X-139400D01*
X-140000Y114400D02*
Y115600D01*
X-140600Y125000D02*
X-139400D01*
X-140000Y124400D02*
Y125600D01*
X-140600Y95000D02*
X-139400D01*
X-140000Y94400D02*
Y95600D01*
X-140600Y85000D02*
X-139400D01*
X-140000Y84400D02*
Y85600D01*
X-100600Y35000D02*
X-99400D01*
X-100000Y34400D02*
Y35600D01*
X-60600Y-5000D02*
X-59400D01*
X-60000Y-5600D02*
Y-4400D01*
X-85600Y-7500D02*
X-84400D01*
X-85000Y-8100D02*
Y-6900D01*
X-138100Y5000D02*
X-136900D01*
X-137500Y4400D02*
Y5600D01*
X-158100Y-32500D02*
X-156900D01*
X-157500Y-33100D02*
Y-31900D01*
X-115600Y-50000D02*
X-114400D01*
X-115000Y-50600D02*
Y-49400D01*
X-135600Y-50000D02*
X-134400D01*
X-135000Y-50600D02*
Y-49400D01*
X-155600Y-50000D02*
X-154400D01*
X-155000Y-50600D02*
Y-49400D01*
X-175600Y-50000D02*
X-174400D01*
X-175000Y-50600D02*
Y-49400D01*
X-195600Y-50000D02*
X-194400D01*
X-195000Y-50600D02*
Y-49400D01*
X-195600Y-27500D02*
X-194400D01*
X-195000Y-28100D02*
Y-26900D01*
X-195600Y-5000D02*
X-194400D01*
X-195000Y-5600D02*
Y-4400D01*
X-195600Y15000D02*
X-194400D01*
X-195000Y14400D02*
Y15600D01*
X-195600Y35000D02*
X-194400D01*
X-195000Y34400D02*
Y35600D01*
X-195600Y70000D02*
X-194400D01*
X-195000Y69400D02*
Y70600D01*
X-195600Y90000D02*
X-194400D01*
X-195000Y89400D02*
Y90600D01*
X-195600Y110000D02*
X-194400D01*
X-195000Y109400D02*
Y110600D01*
X-195600Y130000D02*
X-194400D01*
X-195000Y129400D02*
Y130600D01*
X-195600Y150000D02*
X-194400D01*
X-195000Y149400D02*
Y150600D01*
M02*
