M48
;Layer_Color=9474304
;FILE_FORMAT=2:5
INCH,LZ
;TYPE=PLATED
T1F00S00C0.02756
T2F00S00C0.02800
T3F00S00C0.03000
T4F00S00C0.03150
T5F00S00C0.03937
T6F00S00C0.04724
T7F00S00C0.05118
T8F00S00C0.07874
T9F00S00C0.12600
%
T01
X0294516Y-0097836
Y-0089962
Y-0066836
Y-0058962
X0223516Y0069164
Y0077038
X0223396Y009561
Y0103484
T02
X02825Y-0105
Y-00725
X0258406Y-0059646
X0293406Y-0007146
Y0027854
X0223406Y0060354
X-0029094Y0062854
X-0015Y0
X-0027854Y-0082146
X-0026594Y0072854
X-0029094Y0082854
X0242596Y0091164
X0275906
T03
X0166906Y-0038146
Y0040354
X0048406Y0060354
X0Y0
Y-0009843
Y-0017717
Y-0027559
X0048406Y-0058146
T04
X0273516Y0039164
X0293201
T05
X-0039094Y-0102146
X0273811Y-0019186
X0293496
X0233406Y-0009646
Y0010354
Y-0029646
Y-0049646
X-0039094Y-0062146
Y-0082146
Y0052854
Y0072854
Y0092854
T06
X0232296Y-0106436
X0258316Y-0089836
Y-0079836
Y-0069836
X0232296Y-0065255
X0259516Y0081164
Y0091164
Y0101164
X0286925Y0091164
X0328106
T07
X-00125Y0028386
Y0115
T08
X-0014094Y-0039646
Y0012087
T09
X0002516Y-0094836
X0327516
X0207516Y-0074836
Y0035164
X0007516Y0095164
M30
